<svg width="1604" height="523" viewBox="0 0 1604 523" fill="none" xmlns="http://www.w3.org/2000/svg">
<path fill-rule="evenodd" clip-rule="evenodd" d="M1603.18 1.62241V478.711H1603.17V521.061C1594.46 521.414 1585.68 521.608 1576.95 521.754C1542.54 522.284 1508.04 521.538 1473.67 520.795L1470.23 520.721C1466.42 520.642 1462.62 520.563 1458.81 520.484C1399.13 519.241 1339.55 518 1279.72 518.983C1261.94 519.276 1244.15 519.752 1226.37 520.229C1182.98 521.391 1139.58 522.553 1096.18 521.061C1077.25 520.418 1058.43 519.511 1039.6 518.604C1028.19 518.054 1016.77 517.505 1005.34 517.013C975.428 515.737 945.859 516.029 915.948 517.232C902.855 517.758 889.821 518.466 876.788 519.175C859.969 520.089 843.152 521.003 826.214 521.523C798.091 522.386 770.019 521.742 742.062 520.624C737.401 520.437 732.746 520.245 728.095 520.054C703.054 519.023 678.095 517.995 652.784 517.779C622.15 517.512 591.516 518.035 560.995 518.837C544.016 519.285 527.047 519.821 510.077 520.357C466.686 521.728 423.283 523.099 379.65 522.994C357.552 522.951 335.486 522.441 313.433 521.932C304.459 521.724 295.488 521.517 286.517 521.341C254.601 520.709 222.66 520.198 190.694 519.895C127.649 519.287 64.4527 519.518 1.59839 521.329C1.33133 521.335 1.06429 521.344 0.797243 521.353C0.53154 521.362 0.265837 521.372 0.000121922 521.378L8.3042e-05 94.9954H0.00658183V1.93847C8.7212 1.58594 17.4992 1.39145 26.2265 1.24557C60.6351 0.716206 95.1387 1.46185 129.507 2.20458C130.654 2.22936 131.8 2.25412 132.946 2.27884C136.754 2.35758 140.562 2.43689 144.37 2.51619C204.048 3.75908 263.626 4.99988 323.462 4.01716C341.243 3.7238 359.027 3.24753 376.813 2.77119C420.201 1.60924 463.601 0.446923 507.002 1.93847C525.929 2.58166 544.753 3.48862 563.575 4.39547C574.99 4.94546 586.404 5.4954 597.839 5.98644C627.751 7.26283 657.32 6.97109 687.231 5.76764C700.323 5.24221 713.358 4.53373 726.391 3.82531C743.21 2.91113 760.027 1.99705 776.965 1.47654C805.087 0.613459 833.159 1.25773 861.117 2.37609C865.777 2.56273 870.432 2.75443 875.084 2.94603C900.125 3.97736 925.084 5.00533 950.394 5.22061C981.029 5.48805 1011.66 4.96533 1042.18 4.16303C1059.16 3.71532 1076.13 3.1792 1093.1 2.64301C1136.49 1.2721 1179.9 -0.099206 1223.53 0.00565461C1245.63 0.0488553 1267.69 0.55878 1289.75 1.06839C1298.72 1.27576 1307.69 1.48308 1316.66 1.65888C1348.58 2.291 1380.52 2.80155 1412.48 3.10545C1475.53 3.71326 1538.73 3.48229 1601.58 1.67104C1601.85 1.66496 1602.11 1.65584 1602.38 1.64673C1602.65 1.63761 1602.91 1.62849 1603.18 1.62241Z" fill="#F6F9FF"/>
</svg>
