<svg width="1604" height="920" viewBox="0 0 1604 920" fill="none" xmlns="http://www.w3.org/2000/svg">
<path fill-rule="evenodd" clip-rule="evenodd" d="M1603.18 2.85396V842.092H1603.17V916.59C1594.46 917.21 1585.68 917.552 1576.95 917.809C1542.54 918.74 1508.04 917.428 1473.67 916.122L1470.23 915.991C1466.42 915.853 1462.62 915.713 1458.81 915.574C1399.13 913.387 1339.55 911.205 1279.72 912.933C1261.94 913.449 1244.15 914.287 1226.37 915.125C1182.98 917.169 1139.58 919.214 1096.18 916.59C1077.25 915.459 1058.43 913.863 1039.61 912.268C1028.19 911.3 1016.78 910.333 1005.34 909.469C975.428 907.224 945.859 907.737 915.948 909.854C902.855 910.778 889.821 912.025 876.787 913.271C859.968 914.879 843.152 916.487 826.214 917.403C798.091 918.921 770.019 917.787 742.061 915.82C737.401 915.492 732.747 915.155 728.095 914.818C703.054 913.003 678.095 911.195 652.784 910.816C622.15 910.346 591.515 911.266 560.995 912.677C544.015 913.464 527.046 914.408 510.075 915.351C466.685 917.762 423.282 920.174 379.65 919.99C357.552 919.914 335.486 919.017 313.434 918.121C304.459 917.756 295.488 917.391 286.517 917.082C254.601 915.97 222.66 915.072 190.694 914.537C127.649 913.468 64.4526 913.874 1.59831 917.061C1.33192 917.071 1.06555 917.087 0.799172 917.103C0.532798 917.119 0.266424 917.135 3.90283e-05 917.146L0 167.105H0.00576416V3.40993C8.72038 2.78981 17.4984 2.44767 26.2257 2.19107C60.6343 1.25987 95.1379 2.57152 129.507 3.87804C130.653 3.92162 131.799 3.96519 132.945 4.00867C136.753 4.14718 140.561 4.28669 144.369 4.42618C204.048 6.61253 263.626 8.7952 323.461 7.06651C341.242 6.55048 359.026 5.71267 376.813 4.87475C420.2 2.83078 463.6 0.786173 507.001 3.40993C525.928 4.54135 544.752 6.13677 563.574 7.732C574.989 8.69947 586.403 9.66687 597.839 10.5306C627.75 12.7759 657.319 12.2627 687.23 10.1457C700.322 9.22148 713.357 7.97521 726.39 6.72903C743.209 5.12092 760.026 3.51297 776.964 2.59736C805.087 1.07912 833.159 2.21245 861.116 4.17974C865.777 4.50805 870.431 4.84528 875.083 5.1823C900.124 6.99651 925.083 8.80478 950.394 9.18349C981.028 9.65392 1011.66 8.73443 1042.18 7.32312C1059.16 6.53554 1076.13 5.59246 1093.1 4.64928C1136.49 2.23773 1179.9 -0.174511 1223.53 0.00994692C1245.63 0.0859405 1267.69 0.982942 1289.75 1.87938C1298.72 2.24417 1307.69 2.60887 1316.66 2.91811C1348.58 4.03005 1380.52 4.92816 1412.48 5.46275C1475.53 6.53193 1538.73 6.12564 1601.58 2.93949C1601.85 2.9288 1602.11 2.91276 1602.38 2.89672C1602.65 2.88069 1602.91 2.86465 1603.18 2.85396Z" fill="#D0E3FF" fill-opacity="0.2"/>
</svg>
