<svg width="192" height="50" viewBox="0 0 192 50" fill="none" xmlns="http://www.w3.org/2000/svg">
<path d="M64.8401 14.0112H74.7601C75.212 14.0129 75.6449 14.1938 75.9637 14.5141C76.2825 14.8344 76.4613 15.2681 76.4609 15.72C76.4605 16.1714 76.2813 16.6043 75.9626 16.9239C75.6438 17.2435 75.2115 17.4239 74.7601 17.4256H73.2849C72.8321 17.4256 72.3979 17.6055 72.0777 17.9257C71.7576 18.2458 71.5777 18.6801 71.5777 19.1328V30.4128C71.5777 30.6376 71.5333 30.8601 71.4471 31.0676C71.3609 31.2752 71.2346 31.4637 71.0754 31.6223C70.9162 31.7809 70.7273 31.9065 70.5194 31.9919C70.3115 32.0773 70.0888 32.1209 69.8641 32.12H69.7041C69.2513 32.12 68.8171 31.9402 68.4969 31.62C68.1768 31.2998 67.9969 30.8656 67.9969 30.4128V19.1328C67.9965 18.6799 67.8163 18.2457 67.4958 17.9256C67.1754 17.6054 66.741 17.4256 66.2881 17.4256H64.8401C64.3884 17.4244 63.9557 17.2442 63.6366 16.9245C63.3175 16.6048 63.1381 16.1717 63.1377 15.72C63.1373 15.2678 63.3163 14.8339 63.6355 14.5135C63.9546 14.1931 64.3879 14.0125 64.8401 14.0112Z" fill="#221F49"/>
<path d="M90.1199 24.3183L91.1999 20.4063C91.2967 20.0561 91.5055 19.7471 91.7944 19.5266C92.0834 19.3062 92.4365 19.1864 92.7999 19.1855C93.0618 19.1855 93.3199 19.2473 93.5534 19.3658C93.7869 19.4843 93.9891 19.6563 94.1436 19.8677C94.2981 20.0791 94.4006 20.324 94.4426 20.5825C94.4846 20.8409 94.4651 21.1057 94.3855 21.3551L91.3311 30.9551C91.2244 31.2919 91.0131 31.5859 90.728 31.7944C90.4429 32.003 90.0988 32.1153 89.7455 32.1151H89.0143C88.6574 32.1151 88.31 32.0003 88.0233 31.7876C87.7367 31.575 87.526 31.2759 87.4223 30.9343L86.2047 26.9247C86.1525 26.7522 86.0461 26.601 85.9013 26.4935C85.7566 26.386 85.581 26.328 85.4007 26.328C85.2204 26.328 85.0449 26.386 84.9001 26.4935C84.7553 26.601 84.6489 26.7522 84.5967 26.9247L83.3791 30.9343C83.2749 31.277 83.0629 31.577 82.7747 31.7897C82.4864 32.0024 82.1373 32.1165 81.7791 32.1151H81.0495C80.6961 32.1152 80.3519 32.0028 80.0665 31.7943C79.7812 31.5858 79.5696 31.2919 79.4623 30.9551L76.4079 21.3551C76.3287 21.1056 76.3094 20.8408 76.3517 20.5823C76.3939 20.3239 76.4965 20.0791 76.6511 19.8677C76.8058 19.6564 77.008 19.4845 77.2416 19.3659C77.4751 19.2474 77.7332 19.1856 77.9951 19.1855C78.3586 19.1861 78.7119 19.3058 79.0008 19.5263C79.2898 19.7468 79.4986 20.0559 79.5951 20.4063L80.6751 24.3023C80.724 24.4779 80.8286 24.6329 80.9732 24.7438C81.1179 24.8547 81.2946 24.9156 81.4769 24.9172C81.6592 24.9188 81.837 24.8611 81.9836 24.7528C82.1302 24.6445 82.2375 24.4914 82.2895 24.3167L83.4575 20.3775C83.5598 20.0328 83.7709 19.7303 84.0593 19.5155C84.3477 19.3006 84.6979 19.1849 85.0575 19.1855H85.7263C86.0859 19.1849 86.4361 19.3006 86.7245 19.5155C87.0129 19.7303 87.2241 20.0328 87.3263 20.3775L88.4943 24.3327C88.5428 24.5122 88.6494 24.6705 88.7975 24.7829C88.9456 24.8952 89.1268 24.9553 89.3127 24.9536C89.4986 24.952 89.6786 24.8887 89.8247 24.7738C89.9708 24.6588 90.0746 24.4986 90.1199 24.3183Z" fill="#221F49"/>
<path d="M98.5663 32.12C98.1237 32.12 97.6992 31.9442 97.3862 31.6312C97.0733 31.3182 96.8975 30.8938 96.8975 30.4512V20.8512C96.8975 20.4086 97.0733 19.9841 97.3862 19.6712C97.6992 19.3582 98.1237 19.1824 98.5663 19.1824C99.0089 19.1824 99.4333 19.3582 99.7463 19.6712C100.059 19.9841 100.235 20.4086 100.235 20.8512V30.4512C100.235 30.8938 100.059 31.3182 99.7463 31.6312C99.4333 31.9442 99.0089 32.12 98.5663 32.12Z" fill="#221F49"/>
<path d="M117.594 18.8223C119.076 18.8223 120.262 19.3055 121.15 20.2719C122.039 21.2383 122.483 22.5316 122.483 24.1519V30.4511C122.483 30.8937 122.307 31.3181 121.994 31.6311C121.682 31.944 121.257 32.1199 120.814 32.1199C120.372 32.1199 119.947 31.944 119.634 31.6311C119.321 31.3181 119.146 30.8937 119.146 30.4511V24.3855C119.146 23.6089 118.956 23.0052 118.578 22.5743C118.199 22.1433 117.666 21.93 116.978 21.9343C116.219 21.9343 115.629 22.1844 115.206 22.6847C114.782 23.1839 114.566 23.9087 114.566 24.8575V30.4575C114.566 30.9001 114.391 31.3245 114.078 31.6375C113.765 31.9504 113.34 32.1263 112.898 32.1263C112.455 32.1263 112.031 31.9504 111.718 31.6375C111.405 31.3245 111.229 30.9001 111.229 30.4575V24.3855C111.229 23.6089 111.039 23.0052 110.659 22.5743C110.28 22.1433 109.746 21.93 109.059 21.9343C108.726 21.9203 108.393 21.9816 108.087 22.1137C107.78 22.2458 107.507 22.4454 107.288 22.6975C106.849 23.2063 106.629 23.9263 106.629 24.8575V30.4575C106.629 30.9001 106.453 31.3245 106.14 31.6375C105.827 31.9504 105.403 32.1263 104.96 32.1263C104.517 32.1263 104.093 31.9504 103.78 31.6375C103.467 31.3245 103.291 30.9001 103.291 30.4575V20.5599C103.291 20.3793 103.326 20.2005 103.395 20.0337C103.464 19.8668 103.566 19.7152 103.693 19.5875C103.821 19.4599 103.973 19.3587 104.139 19.2897C104.306 19.2207 104.485 19.1853 104.666 19.1855H106.256C106.305 19.1855 106.353 19.1951 106.399 19.2138C106.444 19.2326 106.485 19.26 106.52 19.2947C106.554 19.3293 106.582 19.3704 106.6 19.4156C106.619 19.4608 106.629 19.5093 106.629 19.5583C106.629 19.6306 106.65 19.7013 106.689 19.7618C106.729 19.8222 106.785 19.8698 106.852 19.8987C106.918 19.9276 106.991 19.9365 107.063 19.9244C107.134 19.9122 107.2 19.8795 107.253 19.8303C108 19.1583 108.99 18.8223 110.224 18.8223C111.642 18.8223 112.723 19.3076 113.467 20.2783C113.501 20.3219 113.543 20.3575 113.592 20.3825C113.641 20.4076 113.695 20.4215 113.749 20.4231C113.804 20.4248 113.859 20.4143 113.909 20.3923C113.959 20.3703 114.004 20.3373 114.04 20.2959C114.876 19.3135 116.061 18.8223 117.594 18.8223Z" fill="#221F49"/>
<path d="M129.772 14.0112H139.681C139.905 14.0112 140.127 14.0555 140.335 14.1413C140.542 14.2272 140.73 14.3531 140.889 14.5118C141.047 14.6705 141.173 14.8589 141.259 15.0662C141.344 15.2735 141.388 15.4957 141.388 15.72C141.388 16.1728 141.208 16.6071 140.888 16.9272C140.568 17.2474 140.134 17.4272 139.681 17.4272H138.206C137.753 17.4272 137.319 17.6071 136.999 17.9273C136.678 18.2474 136.499 18.6817 136.499 19.1344V30.4144C136.499 30.8672 136.319 31.3014 135.999 31.6216C135.678 31.9418 135.244 32.1216 134.791 32.1216H134.631C134.179 32.1216 133.744 31.9418 133.424 31.6216C133.104 31.3014 132.924 30.8672 132.924 30.4144V19.1344C132.924 18.6817 132.744 18.2474 132.424 17.9273C132.104 17.6071 131.67 17.4272 131.217 17.4272H129.767C129.543 17.4275 129.321 17.3834 129.114 17.2977C128.906 17.212 128.718 17.0863 128.559 16.9278C128.4 16.7692 128.275 16.581 128.189 16.3737C128.103 16.1665 128.059 15.9444 128.059 15.72C128.058 15.4952 128.103 15.2725 128.189 15.0648C128.275 14.857 128.401 14.6683 128.56 14.5096C128.72 14.3508 128.909 14.225 129.117 14.1395C129.325 14.054 129.547 14.0104 129.772 14.0112Z" fill="#221F49"/>
<path d="M153.121 27.0241H144.219C144.157 27.0243 144.097 27.0395 144.043 27.0684C143.989 27.0973 143.943 27.1391 143.909 27.1899C143.875 27.2408 143.854 27.2992 143.847 27.3601C143.841 27.421 143.85 27.4825 143.873 27.5393C144.413 28.8193 145.571 29.4593 147.347 29.4593C148.505 29.4593 149.407 29.1041 150.054 28.3937C150.111 28.3311 150.188 28.2898 150.272 28.2767C150.355 28.2636 150.441 28.2795 150.515 28.3217L152.572 29.5089C152.618 29.5356 152.659 29.5719 152.69 29.6154C152.721 29.6589 152.742 29.7085 152.752 29.7609C152.763 29.8134 152.762 29.8674 152.749 29.9194C152.737 29.9715 152.714 30.0202 152.681 30.0625C151.414 31.6785 149.619 32.4865 147.295 32.4865C145.156 32.4865 143.439 31.8395 142.147 30.5457C140.854 29.2518 140.207 27.6219 140.206 25.6561C140.206 23.7243 140.846 22.103 142.126 20.7921C143.384 19.4822 145.023 18.8268 147.041 18.8257C148.961 18.8257 150.522 19.4811 151.724 20.7921C152.966 22.1019 153.587 23.7233 153.587 25.6561C153.582 26.0063 153.554 26.3559 153.503 26.7025C153.491 26.7939 153.445 26.8774 153.374 26.9368C153.303 26.9962 153.213 27.0273 153.121 27.0241ZM144.137 24.4369H149.737C149.797 24.437 149.856 24.4227 149.909 24.3953C149.962 24.3679 150.008 24.3282 150.042 24.2794C150.077 24.2306 150.099 24.1742 150.107 24.1151C150.115 24.0559 150.109 23.9956 150.089 23.9393C149.9 23.3711 149.549 22.8706 149.079 22.4993C148.491 22.0474 147.765 21.8103 147.023 21.8273C146.126 21.8273 145.384 22.0555 144.798 22.5121C144.331 22.8818 143.978 23.3768 143.782 23.9393C143.762 23.9958 143.756 24.0564 143.764 24.1159C143.772 24.1753 143.795 24.2318 143.83 24.2807C143.865 24.3295 143.911 24.3693 143.964 24.3964C144.018 24.4236 144.077 24.4375 144.137 24.4369Z" fill="#221F49"/>
<path d="M165.63 19.6271C165.63 19.5099 165.676 19.3976 165.759 19.3148C165.842 19.232 165.954 19.1855 166.071 19.1855H167.822C168.125 19.1855 168.416 19.306 168.631 19.5205C168.845 19.7351 168.966 20.0261 168.966 20.3295V30.9759C168.966 31.2793 168.845 31.5703 168.631 31.7848C168.416 31.9993 168.125 32.1199 167.822 32.1199H166.071C165.954 32.1199 165.842 32.0733 165.759 31.9905C165.676 31.9077 165.63 31.7954 165.63 31.6783C165.63 31.5941 165.606 31.5116 165.561 31.4404C165.517 31.3693 165.452 31.3125 165.376 31.2767C165.3 31.2409 165.215 31.2276 165.132 31.2383C165.048 31.2491 164.97 31.2835 164.905 31.3375C163.987 32.1001 162.822 32.482 161.412 32.4831C159.687 32.4831 158.204 31.8276 156.963 30.5167C155.737 29.1887 155.125 27.5673 155.126 25.6527C155.126 23.7551 155.738 22.1423 156.963 20.8143C158.204 19.4863 159.687 18.8223 161.412 18.8223C162.821 18.8223 163.985 19.2041 164.905 19.9679C164.97 20.0218 165.048 20.0562 165.132 20.067C165.215 20.0778 165.3 20.0645 165.376 20.0287C165.452 19.9929 165.517 19.936 165.561 19.8649C165.606 19.7937 165.63 19.7112 165.63 19.6271ZM159.471 28.2911C160.166 28.9388 161.081 29.2989 162.031 29.2989C162.981 29.2989 163.896 28.9388 164.591 28.2911C165.281 27.602 165.627 26.7225 165.627 25.6527C165.627 24.5828 165.281 23.7119 164.591 23.0399C163.905 22.3752 162.987 22.0035 162.031 22.0035C161.076 22.0035 160.158 22.3752 159.471 23.0399C158.799 23.7119 158.463 24.5828 158.463 25.6527C158.463 26.7225 158.799 27.602 159.471 28.2911Z" fill="#221F49"/>
<path d="M186.299 18.8223C187.781 18.8223 188.967 19.3055 189.857 20.2719C190.747 21.2383 191.19 22.5316 191.188 24.1519V30.4511C191.188 30.8934 191.013 31.3176 190.7 31.6305C190.387 31.9434 189.963 32.1194 189.521 32.1199C189.078 32.1199 188.654 31.944 188.341 31.6311C188.028 31.3181 187.852 30.8937 187.852 30.4511V24.3855C187.852 23.6089 187.662 23.0052 187.283 22.5743C186.903 22.1433 186.369 21.93 185.683 21.9343C184.924 21.9343 184.334 22.1844 183.911 22.6847C183.489 23.1849 183.276 23.9092 183.271 24.8575V30.4575C183.271 30.9001 183.096 31.3245 182.783 31.6375C182.47 31.9504 182.045 32.1263 181.603 32.1263C181.16 32.1263 180.735 31.9504 180.423 31.6375C180.11 31.3245 179.934 30.9001 179.934 30.4575V24.3855C179.934 23.6089 179.744 23.0052 179.364 22.5743C178.984 22.1433 178.451 21.93 177.764 21.9343C177.43 21.9201 177.098 21.9814 176.791 22.1135C176.484 22.2457 176.211 22.4452 175.991 22.6975C175.552 23.2063 175.332 23.9263 175.332 24.8575V30.4575C175.33 30.8998 175.153 31.3233 174.839 31.635C174.526 31.9468 174.101 32.1211 173.659 32.1199C173.439 32.1199 173.222 32.0767 173.02 31.9928C172.817 31.909 172.633 31.786 172.479 31.6311C172.324 31.4761 172.201 31.2922 172.117 31.0897C172.033 30.8872 171.99 30.6702 171.99 30.4511V20.5599C171.99 20.3794 172.025 20.2007 172.094 20.0339C172.163 19.8672 172.265 19.7156 172.392 19.588C172.52 19.4604 172.671 19.3592 172.838 19.2901C173.005 19.221 173.184 19.1855 173.364 19.1855H174.955C175.004 19.1855 175.052 19.1951 175.097 19.2138C175.142 19.2326 175.184 19.26 175.218 19.2947C175.253 19.3293 175.28 19.3704 175.299 19.4156C175.318 19.4608 175.327 19.5093 175.327 19.5583C175.328 19.6306 175.349 19.7012 175.389 19.7615C175.429 19.8219 175.485 19.8693 175.552 19.8982C175.618 19.927 175.691 19.9359 175.762 19.9239C175.834 19.9118 175.9 19.8793 175.953 19.8303C176.7 19.1583 177.689 18.8223 178.923 18.8223C180.341 18.8223 181.422 19.3076 182.166 20.2783C182.199 20.3219 182.242 20.3575 182.291 20.3825C182.339 20.4076 182.393 20.4215 182.448 20.4231C182.503 20.4248 182.557 20.4143 182.608 20.3923C182.658 20.3703 182.703 20.3373 182.739 20.2959C183.579 19.3135 184.766 18.8223 186.299 18.8223Z" fill="#221F49"/>
<path d="M98.5535 17.6401C98.0143 17.6307 97.4998 17.4121 97.1186 17.0307C96.7375 16.6492 96.5193 16.1345 96.5103 15.5953C96.5086 15.3254 96.5616 15.058 96.6661 14.8091C96.7706 14.5602 96.9244 14.3351 97.1183 14.1473C97.3019 13.9493 97.5248 13.7918 97.7727 13.6849C98.0207 13.578 98.2883 13.524 98.5583 13.5265C98.8318 13.523 99.103 13.5763 99.3547 13.6832C99.6065 13.7901 99.8333 13.9481 100.021 14.1473C100.214 14.3354 100.367 14.5606 100.472 14.8095C100.576 15.0583 100.629 15.3256 100.627 15.5953C100.63 15.864 100.577 16.1304 100.473 16.3781C100.369 16.6257 100.215 16.8494 100.021 17.0353C99.8305 17.2311 99.6021 17.3857 99.3498 17.4897C99.0974 17.5938 98.8264 17.645 98.5535 17.6401Z" fill="#7469F6"/>
<path d="M25 0C20.0555 0 15.222 1.46622 11.1108 4.21326C6.99953 6.96029 3.79521 10.8648 1.90302 15.4329C0.0108324 20.0011 -0.484251 25.0277 0.480379 29.8772C1.44501 34.7268 3.82603 39.1813 7.32234 42.6777C10.8187 46.174 15.2732 48.555 20.1227 49.5196C24.9723 50.4842 29.9989 49.9892 34.5671 48.097C39.1352 46.2048 43.0397 43.0005 45.7867 38.8892C48.5338 34.778 50 29.9445 50 25C49.9996 18.3697 47.3655 12.0111 42.6772 7.3228C37.9889 2.63448 31.6303 0.000424297 25 0ZM14.5216 15.88C14.0786 15.88 13.6455 15.7486 13.2771 15.5025C12.9088 15.2564 12.6217 14.9065 12.4521 14.4972C12.2826 14.0879 12.2382 13.6375 12.3246 13.203C12.4111 12.7685 12.6244 12.3693 12.9377 12.0561C13.251 11.7428 13.6501 11.5295 14.0846 11.443C14.5191 11.3566 14.9695 11.401 15.3788 11.5705C15.7881 11.74 16.138 12.0272 16.3841 12.3955C16.6302 12.7639 16.7616 13.197 16.7616 13.64C16.7616 14.2341 16.5256 14.8038 16.1055 15.2239C15.6854 15.644 15.1157 15.88 14.5216 15.88ZM20.8576 28.7504C20.4146 28.7504 19.9815 28.619 19.6131 28.3729C19.2448 28.1267 18.9577 27.7769 18.7881 27.3676C18.6186 26.9583 18.5742 26.5079 18.6606 26.0734C18.7471 25.6389 18.9604 25.2397 19.2737 24.9265C19.587 24.6132 19.9861 24.3999 20.4206 24.3134C20.8551 24.227 21.3055 24.2714 21.7148 24.4409C22.1241 24.6104 22.474 24.8975 22.7201 25.2659C22.9662 25.6343 23.0976 26.0674 23.0976 26.5104C23.0963 27.1036 22.8598 27.6722 22.4398 28.0912C22.0199 28.5103 21.4509 28.7456 20.8576 28.7456V28.7504ZM20.8576 22.216C20.4146 22.216 19.9815 22.0846 19.6131 21.8385C19.2448 21.5924 18.9577 21.2425 18.7881 20.8332C18.6186 20.4239 18.5742 19.9735 18.6606 19.539C18.7471 19.1045 18.9604 18.7053 19.2737 18.3921C19.587 18.0788 19.9861 17.8655 20.4206 17.779C20.8551 17.6926 21.3055 17.737 21.7148 17.9065C22.1241 18.076 22.474 18.3632 22.7201 18.7315C22.9662 19.0999 23.0976 19.533 23.0976 19.976C23.0963 20.5692 22.8598 21.1378 22.4398 21.5568C22.0199 21.9759 21.4509 22.2112 20.8576 22.2112V22.216ZM20.8576 15.88C20.4146 15.88 19.9815 15.7486 19.6131 15.5025C19.2448 15.2564 18.9577 14.9065 18.7881 14.4972C18.6186 14.0879 18.5742 13.6375 18.6606 13.203C18.7471 12.7685 18.9604 12.3693 19.2737 12.0561C19.587 11.7428 19.9861 11.5295 20.4206 11.443C20.8551 11.3566 21.3055 11.401 21.7148 11.5705C22.1241 11.74 22.474 12.0272 22.7201 12.3955C22.9662 12.7639 23.0976 13.197 23.0976 13.64C23.0976 14.2341 22.8616 14.8038 22.4415 15.2239C22.0214 15.644 21.4517 15.88 20.8576 15.88ZM27.12 28.2224C26.8735 28.2224 26.6325 28.1493 26.4275 28.0123C26.2226 27.8754 26.0628 27.6807 25.9685 27.453C25.8741 27.2252 25.8495 26.9746 25.8976 26.7328C25.9456 26.4911 26.0644 26.269 26.2387 26.0947C26.413 25.9203 26.6351 25.8016 26.8768 25.7535C27.1186 25.7055 27.3692 25.7301 27.597 25.8245C27.8247 25.9188 28.0194 26.0786 28.1563 26.2835C28.2933 26.4885 28.3664 26.7295 28.3664 26.976C28.3656 27.3059 28.2338 27.6219 28.0001 27.8547C27.7664 28.0875 27.4499 28.218 27.12 28.2176V28.2224ZM27.1952 15.88C26.7522 15.88 26.3191 15.7486 25.9507 15.5025C25.5824 15.2564 25.2953 14.9065 25.1257 14.4972C24.9562 14.0879 24.9118 13.6375 24.9982 13.203C25.0847 12.7685 25.298 12.3693 25.6113 12.0561C25.9246 11.7428 26.3237 11.5295 26.7582 11.443C27.1927 11.3566 27.6431 11.401 28.0524 11.5705C28.4617 11.74 28.8116 12.0272 29.0577 12.3955C29.3038 12.7639 29.4352 13.197 29.4352 13.64C29.4352 14.2341 29.1992 14.8038 28.7791 15.2239C28.359 15.644 27.7893 15.88 27.1952 15.88ZM32.4672 38.92C32.2206 38.92 31.9796 38.8468 31.7746 38.7098C31.5696 38.5728 31.4098 38.378 31.3155 38.1502C31.2212 37.9224 31.1966 37.6717 31.2449 37.4298C31.2931 37.188 31.412 36.9659 31.5864 36.7917C31.7609 36.6174 31.9831 36.4989 32.225 36.4509C32.4669 36.403 32.7176 36.4279 32.9453 36.5225C33.173 36.6171 33.3676 36.7771 33.5043 36.9823C33.6411 37.1875 33.7139 37.4286 33.7136 37.6752C33.7111 38.0039 33.5786 38.3183 33.3451 38.5498C33.1115 38.7812 32.796 38.9108 32.4672 38.9104V38.92ZM32.4672 33.376C32.2207 33.376 31.9797 33.3029 31.7747 33.1659C31.5698 33.029 31.41 32.8343 31.3157 32.6066C31.2213 32.3788 31.1967 32.1282 31.2448 31.8864C31.2928 31.6447 31.4116 31.4226 31.5859 31.2483C31.7602 31.0739 31.9823 30.9552 32.224 30.9071C32.4658 30.859 32.7164 30.8837 32.9442 30.9781C33.1719 31.0724 33.3666 31.2322 33.5035 31.4371C33.6405 31.6421 33.7136 31.8831 33.7136 32.1296C33.7111 32.4585 33.5786 32.7731 33.3452 33.0047C33.1117 33.2364 32.7961 33.3664 32.4672 33.3664V33.376ZM32.4672 28.2272C32.2207 28.2272 31.9797 28.1541 31.7747 28.0171C31.5698 27.8802 31.41 27.6855 31.3157 27.4578C31.2213 27.23 31.1967 26.9794 31.2448 26.7376C31.2928 26.4959 31.4116 26.2738 31.5859 26.0995C31.7602 25.9251 31.9823 25.8064 32.224 25.7583C32.4658 25.7102 32.7164 25.7349 32.9442 25.8293C33.1719 25.9236 33.3666 26.0834 33.5035 26.2883C33.6405 26.4933 33.7136 26.7343 33.7136 26.9808C33.7111 27.3097 33.5786 27.6243 33.3452 27.8559C33.1117 28.0876 32.7961 28.2176 32.4672 28.2176V28.2272ZM38.0112 28.2272C37.7647 28.2272 37.5237 28.1541 37.3187 28.0171C37.1138 27.8802 36.954 27.6855 36.8597 27.4578C36.7653 27.23 36.7407 26.9794 36.7887 26.7376C36.8368 26.4959 36.9556 26.2738 37.1299 26.0995C37.3042 25.9251 37.5263 25.8064 37.768 25.7583C38.0098 25.7102 38.2604 25.7349 38.4882 25.8293C38.7159 25.9236 38.9106 26.0834 39.0475 26.2883C39.1845 26.4933 39.2576 26.7343 39.2576 26.9808C39.2555 27.3098 39.1232 27.6246 38.8896 27.8564C38.6561 28.0882 38.3402 28.218 38.0112 28.2176V28.2272Z" fill="#7469F6"/>
</svg>
