<svg width="25" height="24" viewBox="0 0 25 24" fill="none" xmlns="http://www.w3.org/2000/svg">
<path d="M20.9844 0H4.01562C2.07727 0 0.5 1.57727 0.5 3.51562V20.4844C0.5 22.4227 2.07727 24 4.01562 24H20.9844C22.9227 24 24.5 22.4227 24.5 20.4844V3.51562C24.5 1.57727 22.9227 0 20.9844 0ZM12.5469 18.2812C9.05743 18.2812 6.21875 15.4426 6.21875 11.9531C6.21875 8.46368 9.05743 5.625 12.5469 5.625C16.0363 5.625 18.875 8.46368 18.875 11.9531C18.875 15.4426 16.0363 18.2812 12.5469 18.2812ZM19.5781 7.03125C18.415 7.03125 17.4688 6.08496 17.4688 4.92188C17.4688 3.75879 18.415 2.8125 19.5781 2.8125C20.7412 2.8125 21.6875 3.75879 21.6875 4.92188C21.6875 6.08496 20.7412 7.03125 19.5781 7.03125Z" fill="white"/>
<path d="M19.5781 4.21875C19.1901 4.21875 18.875 4.53387 18.875 4.92188C18.875 5.30988 19.1901 5.625 19.5781 5.625C19.9661 5.625 20.2812 5.30988 20.2812 4.92188C20.2812 4.53387 19.9661 4.21875 19.5781 4.21875Z" fill="white"/>
<path d="M12.5466 7.86487C10.2925 7.86487 8.45825 9.69915 8.45825 11.9532C8.45825 14.2073 10.2925 16.0416 12.5466 16.0416C14.8007 16.0416 16.635 14.2073 16.635 11.9532C16.635 9.69915 14.8007 7.86487 12.5466 7.86487Z" fill="white"/>
</svg>
