<svg width="25" height="24" viewBox="0 0 25 24" fill="none" xmlns="http://www.w3.org/2000/svg">
<path d="M21.2344 0H4.26562C2.32727 0 0.75 1.57727 0.75 3.51562V20.4844C0.75 22.4227 2.32727 24 4.26562 24H21.2344C23.1727 24 24.75 22.4227 24.75 20.4844V3.51562C24.75 1.57727 23.1727 0 21.2344 0ZM9.23438 19.0312H6.42188V9.1875H9.23438V19.0312ZM9.23438 7.78125H6.42188V4.96875H9.23438V7.78125ZM19.0781 19.0312H16.2656V13.4062C16.2656 12.631 15.6346 12 14.8594 12C14.0841 12 13.4531 12.631 13.4531 13.4062V19.0312H10.6406V9.1875H13.4531V9.71759C14.1899 9.48853 14.6686 9.1875 15.5625 9.1875C17.4699 9.18951 19.0781 10.9006 19.0781 12.9229V19.0312Z" fill="white"/>
</svg>
