<svg width="659" height="660" viewBox="0 0 659 660" fill="none" xmlns="http://www.w3.org/2000/svg">
<path d="M125.871 398.23C105.73 334.517 106.685 257.722 154.133 214.425C201.581 171.128 295.548 161.307 374.99 128.411C454.361 96.0943 519.175 41.2706 576.859 37.8651C634.836 34.7332 685.624 83.6103 726.884 133.663C767.503 183.737 798.908 235.281 809.521 293.846C820.437 352.695 810.839 418.85 772.732 469.035C734.568 519.789 667.594 554.266 600.619 582.42C533.353 610.301 466.061 631.859 403.64 627.664C341.219 623.468 283.961 593.792 235.261 553.195C186.212 512.893 145.639 462.24 125.871 398.23Z" fill="#F8F8F8"/>
<path d="M170.237 375.121C170.777 369.44 171.704 363.826 172.395 358.162C172.985 353.239 173.086 348.165 174.856 343.479C175.177 342.636 175.008 341.742 174.553 340.984C177.318 338.455 181.65 338.455 185.039 340.31C192.085 339.113 198.356 342.838 205.082 346.361C213.511 350.778 222.648 355.313 229.745 361.736C235.393 366.844 239.54 373.755 243.855 380.212C252.284 386.904 260.291 393.985 266.546 402.936C267.254 403.324 267.962 403.779 268.636 404.386C272.429 407.875 277.031 407.488 281.65 407.69C286.404 412.562 293.67 415.208 300.16 416.641C307.797 418.327 315.787 419.355 323.558 420.198C327.351 420.603 330.892 420.283 334.651 420.148C334.668 420.148 334.685 420.165 334.701 420.165C335.173 420.316 335.629 420.519 336.101 420.687C340.787 419.962 345.423 419.018 350.042 417.923C353.481 417.737 356.852 417.451 360.275 416.355C364.86 414.871 369.546 413.792 374.149 412.393C377.773 411.297 381.397 409.831 384.803 408.162C387.129 407.032 389.556 405.6 391.327 403.627C391.343 403.627 391.377 403.627 391.394 403.627C391.832 403.61 392.254 403.475 392.641 403.223C393.703 402.481 394.9 401.908 395.946 401.132C396.451 400.829 396.856 400.441 397.142 399.935C397.26 399.666 397.362 399.396 397.48 399.143C397.631 398.553 397.631 397.963 397.48 397.356C397.362 397.086 397.26 396.817 397.142 396.564C396.94 396.176 396.637 395.856 396.283 395.62C395.962 395.316 395.575 395.131 395.136 395.013C394.698 394.878 394.243 394.861 393.805 394.945C393.602 394.962 393.417 394.996 393.231 395.047C372.058 383.33 354.543 366.186 339.607 347.12C330.285 335.202 321.67 322.727 313.039 310.303C312.803 309.966 312.584 309.629 312.348 309.308C312.23 308.111 311.792 306.982 311.337 305.785C310.612 303.931 310.089 301.975 309.516 300.053C308.235 295.738 306.566 291.608 305.015 287.393C301.913 278.947 300.109 270.013 301.171 261.028C301.222 260.64 301.155 260.252 301.02 259.898C301.66 255.65 302.908 251.486 303.532 247.238C304.374 241.506 304.745 235.758 305.807 230.06C306.886 224.295 308.842 219.355 311.691 214.247C314.219 209.679 317.254 204.706 318.316 199.548C319.496 197.997 320.676 196.463 321.839 194.895C324.941 190.731 327.621 186.179 331.431 182.589C334.735 179.487 338.562 176.992 342.422 174.649C346.384 172.238 350.362 169.844 354.425 167.619C362.736 163.067 371.519 160.37 380.774 158.55C390.989 156.544 401.205 154.723 411.522 153.307C419.513 152.211 428.228 150.508 436.134 152.869C437.466 153.256 438.545 152.869 439.253 152.11C445.254 152.076 451.222 151.537 457.207 151.385C462.955 151.25 468.467 151.773 474.081 152.919C483.505 154.841 493.012 157.268 502.166 160.218C509.567 162.595 516.63 165.9 523.019 170.367C533.572 177.751 541.04 188.169 548.053 198.84C549.334 201.925 550.48 205.077 551.576 208.246C551.525 208.482 551.509 208.735 551.509 209.005C551.593 217.164 553.734 225.138 553.987 233.297C554.189 240.175 554.509 247.187 553.312 253.998C552.031 261.331 550.244 268.546 548.373 275.761C546.586 282.69 545.389 289.77 542.877 296.479C541.832 299.261 540.669 302.009 539.54 304.74C538.478 307.353 537.247 310.05 535.342 312.157C535.258 312.258 535.207 312.359 535.123 312.477C534.061 312.815 533.134 313.624 532.948 314.736C532.173 319.322 528.548 322.862 526.391 326.84C525.109 329.183 524.233 331.746 523.103 334.173C522.126 336.247 521.08 338.287 520.002 340.31C519.698 340.714 519.445 341.152 519.159 341.574C518.383 341.624 517.641 341.928 517.102 342.518C510.882 349.379 504.88 356.864 500.531 365.124C498.12 367.771 495.575 370.283 492.49 372.12C490.012 373.604 490.501 377.464 493.282 378.239C496.283 379.082 498.929 380.886 502.065 381.004C503.886 381.594 505.706 382.167 507.527 382.69C520.288 386.382 533.235 389.382 546.3 391.827C557.611 392.535 568.94 392.939 580.268 394.507C581.482 394.001 582.915 393.782 584.634 394.001C585.089 394.069 585.561 394.119 586.016 394.187C598.761 394.709 611.522 395.08 624.267 395.283C626.627 395.03 628.987 394.794 631.364 394.642C636.033 394.339 640.551 394.861 645.086 395.485C652.604 395.502 660.14 395.485 667.675 395.401C667.928 395.401 668.147 395.434 668.366 395.451C668.35 395.569 668.333 395.704 668.316 395.805C668.029 398.401 667.76 400.947 667.743 403.56C667.709 410.235 668.552 416.877 669.058 423.519C669.884 434.359 670.221 445.232 669.85 456.072C668.72 455.903 667.709 455.566 666.815 455.077C666.664 455.077 666.529 455.077 666.377 455.06C648.474 453.442 630.47 452.228 612.618 450.104C608.505 449.615 604.459 448.553 600.413 447.558C590.686 449.227 579.661 446.817 570.103 444.878C568.771 444.693 567.422 444.44 566.057 444.086C565.871 444.035 565.72 443.985 565.534 443.917C563.275 443.732 561.488 442.855 560.173 441.574C559.6 441.422 559.027 441.287 558.454 441.169C558.37 441.169 558.302 441.169 558.218 441.169C557.021 441.49 555.689 441.591 554.273 441.388C543.923 439.972 533.572 438.573 523.221 437.157C521.536 436.921 519.884 436.601 518.248 436.264C517.119 436.719 515.804 436.955 514.287 436.871C494.681 435.792 474.081 428.56 455.436 422.727C451.879 421.614 448.339 420.417 444.833 419.17C444.681 419.271 444.53 419.372 444.361 419.473C443.063 420.215 441.782 420.991 440.501 421.766C436 425.121 431.33 428.223 426.677 431.375C418.451 443.513 408.926 453.762 395.254 460.168C380.285 467.181 362.77 474.632 346.367 477.009C342.321 477.599 338.393 476.992 334.398 477.397C333.033 477.531 331.718 477.767 330.403 478.003C325.227 477.885 320.086 477.245 314.91 477.177C313.612 477.161 312.298 477.127 310.999 477.076C309.836 476.857 308.656 476.638 307.493 476.385C301.34 475.036 295.069 474.177 288.933 472.761C286.893 472.103 284.87 471.378 282.881 470.586C275.076 468.58 267.338 466.304 259.921 463.034C258.724 462.376 257.56 461.651 256.397 460.91C254.088 459.443 251.694 458.179 249.671 456.324C245.136 452.127 240.045 448.974 234.988 445.451C232.628 443.799 230.436 441.979 228.363 439.989C226.222 437.933 224.384 435.539 222.159 433.583C220.136 431.796 217.894 430.161 215.652 428.678C215.349 428.475 215.045 428.29 214.742 428.105C213.798 426.722 212.837 425.34 211.842 423.991C208.842 419.929 205.571 416.388 201.66 413.185C198.322 410.455 193.906 407.96 191.478 404.318C190.652 403.088 189.422 402.683 188.258 402.835C184.078 399.986 179.678 397.896 174.789 395.957C173.036 395.266 171.384 394.49 169.934 393.496C169.799 387.427 169.647 381.274 170.237 375.121ZM415.989 337.056C418.282 338.337 419.614 340.124 420.187 342.046C425.969 345.434 431.65 348.991 437.213 352.717C437.618 351.79 438.039 350.879 438.528 350.02C441.343 345.063 445.204 340.647 449.688 337.14C449.84 337.022 449.991 336.921 450.143 336.82C452.385 332.976 454.459 329.049 456.364 325.036C457.948 322.778 459.465 320.468 460.848 318.074C464.32 312.073 466.731 305.718 468.923 299.16C473.188 286.382 475.581 273.637 474.452 260.151C473.424 247.963 470.844 234.982 465.383 223.941C461.067 215.242 454.088 207.285 445.254 203.037C436.202 198.671 429.762 202.599 417.287 202.346C405.521 203.644 393.383 210.573 383.555 216.338C379.83 218.529 376.037 220.906 372.463 223.553C372.244 224.244 368.518 226.284 368.097 227.009C360.106 240.546 358.151 251.975 361.236 267.956C362.55 274.767 365.062 281.173 368.349 287.208C380.723 306.628 396.047 325.829 415.989 337.056Z" fill="#A1A1E6"/>
<path d="M513.747 195.637C514.489 188.321 515.602 181.156 515.753 173.773C515.77 172.728 516.107 171.902 516.63 171.244C517.658 169.356 519.917 168.159 522.277 169.626C532.611 176.049 541.141 185.421 546.299 196.463C549.165 202.599 550.784 209.022 552.25 215.614C553.919 223.149 555.032 230.651 553.717 238.338C553.127 241.743 548.845 242.03 546.67 240.192C541.529 235.843 535.393 233.061 530.133 228.898C525.244 225.02 521.738 219.71 518.383 214.518C516.613 211.787 514.961 208.955 514.219 205.752C513.393 202.448 513.393 199.009 513.747 195.637Z" fill="#7469F6"/>
<path d="M564.034 437.039C567.507 434.089 571.788 432.016 576.104 430.6C584.988 427.717 594.546 428.004 603.599 429.925C608.96 431.055 614.169 432.791 619.277 434.747C624.25 436.652 629.037 438.641 632.628 442.737C633.555 443.799 633.859 445.249 633.639 446.564C634.027 447.171 634.28 447.913 634.28 448.739C634.28 450.863 632.341 453.155 630.066 452.953C619.681 452.06 609.28 451.048 598.946 449.615C594.277 448.958 589.742 447.592 585.055 447.002C580.2 446.379 575.278 446.244 570.389 446.025C568.029 445.923 565.315 446.159 563.461 444.44C561.118 442.232 561.758 438.978 564.034 437.039Z" fill="#7469F6"/>
<path d="M285.426 465.024C285.696 464.754 285.983 464.501 286.354 464.282C296.114 458.567 307.493 455.583 318.822 456.123C324.402 456.393 329.998 457.404 335.275 459.242C340.282 460.978 346.283 463.136 349.267 467.805C349.604 468.328 349.756 468.867 349.823 469.407C350.733 470.064 351.374 471.042 351.526 472.222C351.745 474.093 350.598 476.538 348.508 476.841C348.137 476.892 347.766 476.925 347.379 476.976V476.993C347.328 476.993 347.294 476.993 347.244 476.993C340.18 477.886 333.201 477.532 326.256 476.706C324.098 476.74 321.94 476.807 319.766 476.925C315.18 477.178 310.747 477.465 306.178 476.757C301.762 476.066 297.328 474.919 293.063 473.571C292.473 473.385 291.984 473.099 291.563 472.761C290.13 472.761 288.697 472.795 287.264 472.879C282.594 473.2 281.988 466.912 285.426 465.024Z" fill="#7469F6"/>
<path d="M30.1328 266.405C36.2521 279.639 46.1307 288.304 57.2063 290.175C57.5434 290.242 59.2966 290.445 59.718 288.894C59.8529 288.422 59.718 287.747 59.3977 287.258C59.2629 287.039 58.9931 286.685 58.5886 286.618C52.8738 285.657 47.7322 283.061 43.3155 278.897C39.3202 275.121 36.1172 270.434 33.2177 264.18C33.0323 263.792 32.6108 263.624 32.3748 263.54C32.1557 263.472 31.9196 263.438 31.6836 263.438C31.3296 263.438 30.9756 263.506 30.7227 263.658C29.5764 264.332 29.8125 265.697 30.1328 266.405Z" fill="#1E1E1E"/>
<path d="M138.595 257.926C137.854 257.774 136.505 257.083 136.825 255.498C139.472 241.995 137.045 227.902 129.998 215.849C129.155 214.399 130.453 213.539 130.74 213.388C130.875 213.303 131.33 213.067 131.852 213.067C132.324 213.067 132.847 213.27 133.252 213.944C140.77 226.773 143.299 241.978 140.399 256.763C140.146 257.959 139.287 258.061 138.595 257.926Z" fill="#1E1E1E"/>
<path d="M11.8315 189.248C16.112 184.552 20.7779 181.035 26.0731 178.498C26.6748 178.2 27.1981 178.218 27.6666 178.548L27.6804 178.558C28.2728 178.976 28.6484 179.818 28.5962 180.565C28.5471 181.191 28.2031 181.649 27.5681 181.965C16.3858 187.323 9.65563 197.718 4.24154 206.07C3.44751 207.284 2.36649 206.77 1.94344 206.492C1.27487 206.124 0.433286 205.035 1.24268 203.77C4.27468 199.06 7.74381 193.73 11.8315 189.248Z" fill="#1E1E1E"/>
<path d="M293.703 219.811C293.535 220.165 293.13 220.351 292.911 220.418C292.355 220.604 291.647 220.553 291.225 220.3C289.893 219.525 290.433 217.991 290.635 217.536C299.941 196.716 310.494 175.105 328.16 159.629C328.548 159.292 328.97 159.107 329.425 159.107C329.627 159.107 329.829 159.14 330.049 159.208C330.79 159.461 331.431 160.135 331.566 160.809C331.616 161.113 331.633 161.568 331.009 162.124C313.511 177.465 303.38 198.166 293.703 219.811Z" fill="#1E1E1E"/>
<path d="M434.078 327.025C433.808 327.244 432.392 328.29 431.262 327.16C430.908 326.806 430.689 326.149 430.723 325.559C430.74 325.323 430.807 324.884 431.111 324.632C436.033 320.687 439.135 315.646 442.27 309.274C445.018 303.711 447.26 297.592 448.912 291.118C449.182 290.073 449.907 289.854 450.48 289.854C450.733 289.854 450.952 289.905 451.087 289.938C451.407 290.023 452.975 290.511 452.537 292.197C450.851 298.789 448.457 305.245 445.406 311.398C442.759 316.776 439.337 322.794 434.078 327.025Z" fill="#1E1E1E"/>
<path d="M398.07 469.811C413.815 464.939 428.076 456.055 439.337 444.12C439.809 443.614 440.281 443.108 440.736 442.602C442.911 440.242 444.968 438 447.547 436.517C450.463 434.831 453.666 434.511 457.341 435.539C463.629 437.275 469.968 439.383 476.104 441.406C479.155 442.417 482.19 443.412 485.241 444.389C485.932 444.608 486.353 445.047 486.505 445.687C486.674 446.446 486.404 447.339 485.881 447.828C485.494 448.182 485.005 448.25 484.381 448.064C481.364 447.103 478.346 446.126 475.328 445.148C469.378 443.226 463.225 441.237 457.139 439.416C455.925 439.045 454.644 438.675 453.279 438.675C452.722 438.675 452.132 438.742 451.525 438.894C449.502 439.416 447.935 440.714 446.535 442.012C445.052 443.412 443.67 444.895 442.338 446.345C441.175 447.609 439.978 448.907 438.73 450.104C427.638 460.792 413.882 468.867 398.963 473.486C398.322 473.688 397.834 473.604 397.446 473.233C396.923 472.744 396.653 471.851 396.822 471.092C396.957 470.451 397.361 470.03 398.07 469.811Z" fill="#1E1E1E"/>
<path d="M637.669 383.331C612.382 383.634 586.826 382.606 561.674 380.263C560.915 380.195 559.617 379.706 559.617 378.375C559.617 377.886 559.904 377.279 560.342 376.891C560.528 376.723 560.949 376.436 561.32 376.487C586.606 378.847 612.314 379.875 637.702 379.572C637.719 379.572 637.719 379.572 637.736 379.572C638.393 379.572 638.865 379.808 639.152 380.296C639.523 380.937 639.54 381.864 639.169 382.522C638.865 383.044 638.377 383.314 637.669 383.331Z" fill="#1E1E1E"/>
<path d="M23.845 271.311C25.9691 275.239 28.6663 279.335 32.0378 283.836L32.1727 284.039C35.2071 288.068 38.3258 292.231 42.8942 294.878C48.0527 297.896 54.3238 299.447 60.932 299.447C64.1855 299.447 67.5234 299.059 70.8443 298.3C88.2584 294.305 102.554 280.347 109.044 260.977C110.409 256.898 110.983 253.206 110.797 249.565C110.409 246.749 109.769 243.9 108.892 240.967C107.19 236.146 104.846 231.662 101.997 226.453L101.458 225.458C101.34 225.239 101.222 225.003 101.087 224.784C99.2328 222.306 97.1424 220.131 94.8666 218.159C93.8889 217.569 92.8774 217.046 91.8827 216.523C91.3264 216.237 90.7702 215.95 90.2307 215.664C85.5274 213.101 79.8464 210.337 73.373 209.291C72.9853 209.241 72.6987 208.887 72.5807 208.685C72.2435 208.179 72.1255 207.505 72.2435 207.016C72.2941 206.847 72.3784 206.695 72.4964 206.493C72.8335 205.987 72.901 205.364 72.6818 204.79C72.4627 204.234 71.9906 203.813 71.4006 203.644C54.8463 199.278 36.286 205.667 26.2894 219.204C21.0129 226.335 17.8268 235.151 17.2873 244.052C16.7647 253.172 18.9563 262.343 23.845 271.311Z" fill="#D0E3FF"/>
<path fill-rule="evenodd" clip-rule="evenodd" d="M23.3732 292.13C19.0071 286.348 15.5175 281.089 12.7697 276.031C10.123 271.227 8.10014 266.372 6.6841 261.5C6.21208 259.865 5.82435 258.246 5.52091 256.611C5.30176 254.588 5.15001 252.549 5.06572 250.526C3.2788 227.886 11.7077 205.971 30.2512 194.457C31.4312 193.732 32.645 193.058 33.8756 192.451C38.8149 190.006 44.1756 188.54 49.8398 188.321C51.1716 188.068 52.5371 187.865 53.8857 187.697C60.6625 186.888 67.6079 187.292 74.3004 189.045C75.059 189.248 75.6659 189.804 75.9525 190.512C76.2391 191.254 76.1547 192.046 75.7164 192.704C75.5647 192.973 75.4636 193.159 75.3961 193.378C75.2444 194.002 75.3962 194.861 75.8345 195.519C75.9862 195.772 76.3571 196.227 76.8628 196.294C85.2411 197.643 92.591 201.2 98.6767 204.487C99.3847 204.858 100.093 205.229 100.818 205.6C100.994 205.693 101.171 205.785 101.348 205.878C102.46 206.461 103.588 207.053 104.678 207.707C107.611 210.236 110.325 213.034 112.719 216.22C112.853 216.435 112.977 216.671 113.098 216.903C113.129 216.962 113.16 217.022 113.191 217.08L113.882 218.361C117.557 225.054 120.592 230.819 122.8 237.023C123.93 240.799 124.756 244.457 125.261 248.081C125.497 252.751 124.756 257.505 122.986 262.747C114.59 287.646 96.0975 305.583 73.5755 310.725C69.2768 311.685 64.9612 312.191 60.7468 312.191C52.1999 312.191 44.0914 310.202 37.4157 306.325C31.5674 302.959 27.5635 297.683 23.6787 292.564L23.5418 292.383L23.3732 292.13ZM31.548 283.608C28.1764 279.107 25.4792 275.011 23.3551 271.083C18.4664 262.115 16.2749 252.944 16.7974 243.824C17.3369 234.923 20.523 226.106 25.7995 218.976C35.7961 205.439 54.3565 199.05 70.9107 203.416C71.5008 203.584 71.9728 204.006 72.1919 204.562C72.4111 205.135 72.3436 205.759 72.0065 206.265C71.8885 206.467 71.8042 206.619 71.7536 206.787C71.6356 207.276 71.7537 207.951 72.0908 208.456C72.2088 208.659 72.4954 209.013 72.8831 209.063C79.3565 210.108 85.0375 212.873 89.7408 215.435C90.2803 215.722 90.8366 216.009 91.3929 216.295C91.4866 216.344 91.5805 216.394 91.6744 216.443C92.5778 216.917 93.4911 217.396 94.3767 217.93C96.6525 219.903 98.7429 222.077 100.597 224.555C100.697 224.718 100.788 224.891 100.877 225.058C100.907 225.116 100.938 225.174 100.968 225.23L101.508 226.224C104.356 231.433 106.7 235.918 108.402 240.739C109.279 243.672 109.92 246.521 110.307 249.336C110.493 252.978 109.92 256.669 108.554 260.749C102.064 280.119 87.7685 294.077 70.3545 298.072C67.0335 298.831 63.6957 299.218 60.4421 299.218C53.8339 299.218 47.5628 297.667 42.4043 294.65C37.8661 292.021 34.7586 287.894 31.7431 283.89L31.6828 283.81L31.548 283.608Z" fill="white"/>
<path d="M19.1924 223.485C21.0636 219.844 23.4405 216.557 26.1715 213.64C32.1223 207.268 39.8094 202.649 48.1539 200.289C52.3178 199.109 56.6334 198.468 60.9658 198.468C65.4668 198.468 69.9679 199.143 74.334 200.542C74.9072 200.727 75.278 201.047 75.4803 201.536C75.7163 202.093 75.6826 202.834 75.3792 203.441C75.1263 203.964 75.1263 204.571 75.3623 205.093C75.6152 205.616 76.104 205.987 76.6603 206.122C80.9254 207.049 85.2747 208.751 90.7703 211.668L91.8997 212.275C96.3333 214.584 100.514 216.776 103.076 220.737C105.74 224.851 108.353 229.874 110.831 235.64C112.955 240.596 115.079 246.445 114.759 252.278C114.439 257.875 112.314 263.404 110.292 268.091C108.235 272.777 105.689 277.177 102.672 281.172C102.436 281.476 102.183 281.762 101.947 282.083C96.721 288.758 90.5848 293.934 83.6226 297.541C82.1391 298.317 80.6388 299.041 79.071 299.665C69.1924 303.627 58.4877 304.267 48.9463 301.469C43.4675 299.867 38.9496 297.322 35.5444 293.917C31.6671 290.056 28.3293 285.319 25.2443 280.801C18.3832 270.754 14.5903 261.179 13.6462 251.536C12.7359 242.13 14.7082 232.15 19.1924 223.485ZM23.8451 271.31C25.9692 275.238 28.6664 279.335 32.0379 283.836L32.1728 284.038C35.2072 288.067 38.3259 292.231 42.8943 294.878C48.0528 297.895 54.3239 299.446 60.9321 299.446C64.1857 299.446 67.5235 299.058 70.8445 298.3C88.2585 294.304 102.554 280.346 109.044 260.977C110.41 256.897 110.983 253.205 110.797 249.564C110.41 246.749 109.769 243.9 108.892 240.967C107.19 236.145 104.846 231.661 101.998 226.452L101.458 225.457C101.34 225.238 101.222 225.002 101.087 224.783C99.2329 222.305 97.1425 220.13 94.8667 218.158C93.889 217.568 92.8775 217.045 91.8829 216.523C91.3266 216.236 90.7703 215.95 90.2308 215.663C85.5275 213.101 79.8465 210.336 73.3731 209.291C72.9854 209.24 72.6988 208.886 72.5808 208.684C72.2437 208.178 72.1256 207.504 72.2436 207.015C72.2942 206.847 72.3785 206.695 72.4965 206.493C72.8336 205.987 72.9011 205.363 72.6819 204.79C72.4628 204.234 71.9908 203.812 71.4007 203.644C54.8465 199.277 36.2861 205.667 26.2895 219.203C21.013 226.334 17.8269 235.151 17.2874 244.052C16.7649 253.172 18.9564 262.342 23.8451 271.31Z" fill="#1E1E1E"/>
<path d="M79.9982 334.612C81.3131 333.128 83.3529 332.572 85.1735 331.931C89.2025 330.515 93.3327 329.352 97.4459 328.189C99.5194 327.599 101.93 326.419 103.683 328.307C104.594 329.268 104.543 330.566 103.953 331.459C103.936 331.847 103.768 332.252 103.414 332.639C102.537 333.567 100.969 334.022 99.8566 334.528C98.3394 335.219 96.8222 335.91 95.2713 336.55C92.22 337.832 89.1014 338.944 85.8647 339.602C85.5781 339.652 85.2578 339.737 84.9544 339.787C84.8026 339.871 84.6341 339.939 84.4824 340.04C82.8134 340.984 80.7568 341.743 79.3239 339.956C77.9753 338.287 78.717 336.045 79.9982 334.612Z" fill="#7469F6"/>
<path d="M30.1328 266.405C36.2521 279.639 46.1307 288.304 57.2063 290.175C57.5434 290.242 59.2966 290.445 59.718 288.894C59.8529 288.422 59.718 287.747 59.3977 287.258C59.2629 287.039 58.9931 286.685 58.5886 286.618C52.8738 285.657 47.7322 283.061 43.3155 278.897C39.3202 275.121 36.1172 270.434 33.2177 264.18C33.0323 263.792 32.6108 263.624 32.3748 263.54C32.1557 263.472 31.9196 263.438 31.6836 263.438C31.3296 263.438 30.9756 263.506 30.7227 263.658C29.5764 264.332 29.8125 265.697 30.1328 266.405Z" fill="#1E1E1E"/>
<path d="M6.54883 224.16C8.87518 217.586 11.8253 210.067 16.0566 204.116C19.6305 199.109 24.9575 195.097 32.83 191.523C45.9285 185.539 60.4261 183.718 74.7215 186.264C75.1429 186.331 75.4295 186.702 75.5644 186.921C75.8846 187.41 76.0027 188.068 75.8678 188.54C75.5475 189.753 74.3169 189.989 73.3897 189.821C61.6736 187.747 49.4349 188.978 37.9885 193.378C31.1948 195.991 26.0701 199.008 22.3109 202.582C18.0627 206.628 15.6858 211.989 13.3763 217.181L13.0222 217.99C7.34113 230.751 5.45306 242.484 7.22314 253.863C8.95947 264.905 13.5448 276.116 20.8273 287.208C25.5475 294.372 33.2684 304.369 45.7599 308.314C55.7397 311.449 67.0512 311.062 77.6041 307.218C86.8928 303.846 95.6757 297.66 103.7 288.86C112.955 278.712 118.922 268.749 121.451 259.275C125.312 244.811 119.462 230.482 113.865 221.008C109.87 214.248 105.723 210.101 99.9406 207.151C95.2879 204.774 90.3992 202.65 85.679 200.593C83.6729 199.716 81.65 198.84 79.644 197.946C79.29 197.778 79.1045 197.373 79.037 197.137C78.8516 196.564 78.9022 195.873 79.1551 195.451C79.9474 194.12 81.4646 194.676 81.9198 194.861C83.909 195.772 85.915 196.648 87.9379 197.525C92.4895 199.514 97.1928 201.571 101.677 203.83C107.341 206.662 111.657 210.573 115.264 216.119C120.777 224.581 127.183 237.646 126.39 251.84C125.817 262.225 121.097 272.845 111.539 285.286C105.504 293.142 98.7775 299.514 91.5792 304.251C91.1072 304.571 90.8038 305.06 90.7363 305.617C90.6689 306.173 90.8544 306.729 91.2421 307.134C91.4949 307.403 91.6972 307.707 91.8321 308.078C92.1018 308.82 92.4053 309.561 92.6918 310.303L93.1807 311.449L93.2481 311.618C93.855 313 94.4956 314.366 95.1699 315.697C96.4174 318.209 97.8672 320.738 99.4518 323.267C99.8732 323.924 100.649 324.244 101.424 324.093C103.245 323.722 104.357 323.907 105.234 324.75C105.268 324.801 105.352 324.919 105.386 324.952C105.976 325.576 106.903 325.728 107.661 325.323C108.184 325.037 108.909 324.902 109.836 324.902H109.904C114.27 324.902 118.029 327.38 121.805 330.161C125.244 332.673 128.835 334.814 132.83 337.157L133.218 337.376C135.797 338.894 138.444 340.445 141.546 341.271C141.562 341.271 141.731 341.338 141.765 341.355C141.933 341.422 142.102 341.456 142.287 341.456C146.738 341.726 151.154 342.282 155.436 343.091C155.453 343.108 155.47 343.108 155.487 343.108C156.448 343.344 157.409 342.822 157.729 341.894C157.914 341.321 158.117 340.883 158.336 340.478C159.381 338.573 160.814 338.287 163.882 338.388L172.041 338.607C172.361 338.607 172.648 338.675 172.884 338.809C173.491 339.113 174.233 339.079 174.806 338.691C176.475 337.562 178.447 337.41 180.352 338.253C180.588 338.354 180.841 338.405 181.077 338.405C181.397 338.321 181.717 338.236 182.038 338.169C182.409 338.085 182.78 338.017 183.167 337.967C185.325 337.68 187.702 337.849 190.281 338.59C215.568 345.94 232.308 365.091 250.126 382.926C252.672 385.488 255.251 388 257.864 390.461C260.477 392.923 263.14 395.316 265.888 397.609C266.006 397.693 266.124 397.795 266.225 397.879C293.906 418.294 332.729 423.671 372.21 412.141C374.722 411.365 377.233 410.522 379.695 409.646C381.903 408.499 384.111 407.302 386.337 406.055C386.977 405.65 387.651 405.246 388.258 404.807C390.197 403.459 392.034 401.975 393.771 400.441C394.091 400.155 394.445 399.885 394.765 399.598C395.204 399.177 395.423 398.604 395.355 397.997C395.288 397.407 394.951 396.884 394.428 396.581C373.356 384.275 355.234 369.76 340.568 353.476C333.521 345.654 325.834 335.809 319.108 324.194C309.566 307.774 301.93 287.798 300.699 265.023C300.615 263.439 300.581 261.871 300.564 260.303C300.531 260.168 300.497 260.033 300.463 259.915C300.497 259.629 300.497 259.359 300.531 259.072C300.615 257.757 300.716 256.443 300.784 255.128C300.885 253.155 300.952 251.166 300.902 249.177C301.07 247.036 301.289 244.912 301.576 242.805C304.914 217.602 316.259 194.946 333.791 179.706C354.981 161.298 385.393 151.604 426.761 150.087C462.196 148.789 502.233 150.627 530.42 174.143C537.011 179.639 542.372 186.078 546.384 193.243C550.43 200.475 553.11 208.432 554.324 216.945C556.515 232.353 555.588 250.087 551.593 269.642C551.542 269.878 551.509 270.114 551.458 270.35C544.597 303.56 529.003 334.595 506.397 360.101C502.587 364.416 498.424 368.664 494.007 372.761C493.518 373.216 493.316 373.89 493.451 374.531C493.585 375.172 494.041 375.711 494.664 375.93C497.294 376.857 499.907 377.734 502.52 378.56C509.347 380.751 516.09 382.623 522.648 384.123C528.447 385.455 534.297 386.5 540.18 387.36C559.752 390.225 579.661 390.849 599.047 391.439L653.346 393.091C655.588 393.176 657.898 393.327 660.123 393.479C662.247 393.631 664.388 393.766 666.529 393.85C667.001 393.867 667.641 393.917 667.962 394.136C668.164 394.271 668.198 395.249 667.844 396.143C667.793 396.244 667.759 396.345 667.692 396.446C666.782 398.199 660.561 397.525 657.915 397.221C656.852 397.103 655.942 397.019 655.285 396.985L644.934 396.648L641.023 396.53C631.819 396.227 622.614 395.923 613.41 395.637C610.022 395.536 606.65 395.451 603.245 395.35C596.654 395.165 589.978 394.979 583.285 394.71C565.821 394.018 548.171 392.805 530.993 389.669C517.439 387.208 503.751 383.348 489.118 377.886C488.781 377.751 488.393 377.734 488.022 377.818C487.163 378.02 486.269 377.498 485.831 376.925C485.629 376.655 485.342 376.436 485.022 376.318C475.767 372.71 466.428 368.58 456.482 363.708C432.695 352.043 413.309 339.433 397.26 325.138C374.789 305.145 362.045 286.078 358.302 266.827C356.111 255.566 357.19 244.524 361.438 234.898C365.534 225.576 373.407 217.906 384.803 212.107C395.962 206.426 408.049 202.7 420.743 201.014C432.51 199.463 445.844 198.873 455.622 206.325C463.258 212.174 469.175 221.598 473.171 234.342C476.475 244.878 477.689 256.847 476.643 268.934C475.261 285.269 469.917 302.093 460.443 319.946C459.398 321.918 458.285 323.907 457.139 325.896C455.032 329.555 452.773 333.263 450.328 337.039C447.968 340.647 445.271 344.575 441.832 349.379C441.529 349.818 441.411 350.357 441.529 350.88C441.647 351.402 441.984 351.857 442.456 352.11C446.063 354.116 449.25 355.836 452.217 357.37C464.017 363.439 475.598 368.681 486.64 372.963C487.297 373.216 488.056 373.081 488.579 372.609C492.574 369.018 496.401 365.259 500.076 361.348C516.023 344.356 528.801 324.447 537.635 302.768C538.848 299.75 540.028 296.733 541.09 293.648C546.62 277.835 550.008 261.635 551.171 245.519C551.239 244.659 550.683 243.85 549.857 243.597C526.559 236.247 510.696 214.197 511.252 189.973C511.404 183.28 512.82 176.604 515.433 170.131C515.804 169.238 515.416 168.226 514.573 167.771C497.985 158.904 476.458 154.302 448.778 153.712C434.634 153.408 419.496 153.594 404.425 155.448C398.828 156.122 393.231 157.033 387.702 158.229C375.312 160.944 363.191 165.124 351.947 171.48C346.451 174.581 341.36 178.223 336.707 182.269C330.757 187.444 325.548 193.31 321.232 199.75C320.355 201.048 319.496 202.346 318.703 203.695C317.439 205.819 316.293 208.01 315.18 210.252C313.949 212.747 312.803 215.31 311.775 217.94C308.1 227.279 305.706 237.343 304.762 247.693C301.997 278.341 311.573 309.477 332.459 337.714C351.745 363.809 379.846 386.331 413.764 402.886C421.603 406.712 430.285 410.488 441.074 414.804C444.159 416.035 447.21 417.215 450.194 418.378C452.453 419.238 454.678 420.097 456.819 420.923C456.886 420.94 456.937 420.957 457.004 420.974C462.146 422.356 467.321 424.042 472.328 425.677C474.62 426.436 476.93 427.194 479.239 427.919C488.899 430.971 499.283 433.398 510.983 435.337C515.399 436.062 519.782 436.736 524.199 437.36C534.836 438.86 545.524 440.141 556.195 441.49C557.038 441.591 557.948 441.692 558.707 441.304C559.415 440.934 559.836 440.209 560.258 439.551C563.376 434.73 568.417 431.375 573.828 429.487C579.256 427.599 585.055 427.093 590.787 427.026C599.789 426.942 608.926 427.987 617.237 431.443C625.548 434.898 632.982 440.95 636.91 449.042C637.298 449.834 637.685 450.677 638.41 451.149C639.017 451.537 639.759 451.588 640.467 451.655C648.221 452.262 655.993 452.886 663.747 453.492C664.809 453.577 665.939 453.678 666.799 454.319C667.658 454.959 668.08 456.308 667.372 457.1C666.765 457.791 665.686 457.741 664.776 457.639C648.036 455.751 631.296 453.914 614.556 452.076C602.891 450.795 591.225 449.531 579.61 447.828C545.575 442.855 511.235 441.389 478.009 431.611C474.199 430.499 470.44 429.285 466.697 427.953C461.707 426.2 456.65 424.228 451.323 423.739C445.777 423.233 442.186 425.172 437.769 428.324C433.842 431.139 429.981 434.764 426.205 438.337C423.862 440.546 421.434 442.822 419.074 444.828C413.815 449.699 408.184 454.083 402.301 457.909C376.155 474.902 343.451 481.746 309.566 477.447C307.274 477.144 304.981 476.807 302.672 476.419C300.109 476.082 297.665 475.694 295.305 475.273C294.631 475.138 293.956 475.003 293.282 474.868C289.017 474.025 284.735 472.963 280.504 471.716L279.627 471.463C279.543 471.446 279.475 471.429 279.391 471.429C279.239 471.395 279.088 471.362 278.902 471.277L278.7 471.227C276.087 470.519 273.929 469.895 271.94 469.271C248.339 460.32 231.127 444.423 212.904 427.599C211.1 425.93 209.297 424.261 207.476 422.609C205.622 420.502 203.801 418.58 202.082 416.827C193.349 407.993 185.14 402.515 176.39 399.598C175.598 399.396 174.823 399.16 174.115 398.84C173.373 398.519 172.682 398.132 172.007 397.71C171.94 397.744 171.873 397.744 171.805 397.761C170.153 398.503 168.147 397.761 167.22 396.058C166.815 395.35 166.596 394.406 166.529 393.192C166.495 392.687 166.276 392.215 165.888 391.878C165.5 391.54 164.995 391.372 164.489 391.422C164.253 391.422 164.067 391.422 163.899 391.372C163.326 391.203 162.736 391.035 162.146 390.883C160.932 390.546 159.786 390.225 158.673 389.838C157.965 389.585 157.375 389.248 156.92 388.826C156.397 388.354 155.672 388.203 154.998 388.455C153.919 388.843 152.688 389.147 151.492 389.45C150.666 389.652 149.873 389.855 149.098 390.074C144.597 391.406 140.298 393.125 136.32 395.198C135.494 395.637 135.106 396.598 135.392 397.474L136.37 400.34C136.91 401.958 137.466 403.577 137.989 405.195C138.309 405.987 138.123 406.847 137.55 407.471C136.387 408.803 134.583 409.511 132.678 410.269L131.566 410.708C129.121 411.719 126.66 412.714 124.182 413.658C119.344 415.546 114.32 417.383 109.246 419.136C108.589 419.356 107.78 418.917 107.358 418.395C107.223 418.209 107.038 418.058 106.852 417.94C106.549 417.754 106.313 417.468 106.144 417.097C105.773 416.203 104.796 415.748 103.869 416.035C101.812 416.642 99.9912 416.894 98.2717 416.776C95.6757 416.591 93.383 415.512 92.0175 413.809C90.0283 411.348 90.8206 408.466 91.8152 406.459C91.9501 406.19 92.0175 405.903 92.0175 405.617C92.0175 404.925 91.6466 404.268 90.9892 403.931C90.652 403.745 90.2812 403.695 89.9103 403.729C88.9832 403.408 86.6567 402.161 86.151 401.84C84.8361 400.829 83.9089 399.312 83.6224 397.693C83.1503 394.946 84.617 392.855 86.741 390.225C87.1119 389.753 87.2299 389.147 87.095 388.59C86.9434 388.017 86.5557 387.545 86.0162 387.309C84.6507 386.719 83.2347 386.112 82.0715 385.303C81.2623 384.747 80.2003 383.803 79.7282 382.555C79.1888 381.072 79.5091 379.15 80.588 377.43C80.942 376.891 81.3803 376.183 81.414 375.256C81.4478 373.755 80.0991 372.575 78.5314 371.193C78.1268 370.839 77.5199 370.3 77.385 370.114C76.323 368.597 75.8004 367.114 75.8341 365.697C75.8678 363.894 76.8287 362.023 77.7222 360.421C78.0425 359.814 78.3796 359.224 78.7336 358.651C79.5765 357.235 80.47 355.971 81.3466 354.841C81.7849 354.302 81.886 353.56 81.5995 352.919L81.0432 351.604C80.5543 350.509 80.0823 349.413 79.5934 348.317C79.5091 348.132 79.3911 347.946 79.2393 347.778C79.0034 347.542 78.8179 347.221 78.7167 346.901C78.447 345.957 78.5145 345.03 78.9359 344.103C79.2394 343.462 79.1382 342.704 78.683 342.147C77.3176 340.428 76.4073 338.927 76.4747 337.191C76.5421 335.674 77.3176 334.14 78.6325 332.96C79.0876 332.538 79.6271 332.134 80.3182 331.679C81.178 331.105 81.4308 329.976 80.8746 329.099C79.762 327.329 78.8179 325.323 77.9919 322.963C77.5704 321.817 77.1996 320.654 76.8287 319.474C76.2892 317.771 75.733 316.001 75.0418 314.281C75.0418 314.281 75.025 314.231 75.0081 314.096C74.9407 313.573 74.6372 313.101 74.1989 312.798C73.7606 312.495 73.2212 312.393 72.6986 312.528C65.6689 314.231 58.5718 314.551 51.5759 313.472C40.2475 311.753 30.2508 305.735 22.6311 296.075C14.3034 285.488 8.25153 273.755 5.14966 262.124C1.76129 249.447 2.23328 236.298 6.54883 224.16ZM469.85 286.55C476.273 261.803 473.525 237.343 462.297 219.474C459.078 214.315 455.571 210.59 451.593 208.078C447.024 205.178 441.428 203.813 434.01 203.813C433.993 203.813 433.993 203.813 433.977 203.813C427.115 203.83 420.153 204.605 413.157 206.089C408.016 207.184 402.874 208.651 397.732 210.522C391.748 212.73 384.111 215.933 377.52 220.856C374.115 223.401 370.996 226.385 368.518 229.925C367.304 231.679 366.259 233.583 365.315 235.556C362.904 241.49 361.623 248.199 360.999 254.673C360.966 256.611 360.983 258.567 361.151 260.539C361.404 263.321 361.876 266.102 362.533 268.884C366.31 284.865 377.014 300.88 395.676 318.58C407.021 329.335 420.17 339.062 435.881 348.351C436.185 348.519 436.522 348.604 436.842 348.604C436.994 348.604 437.146 348.587 437.297 348.553C437.719 348.452 438.107 348.199 438.376 347.828C450.463 330.92 463.663 310.421 469.85 286.55ZM515.248 185.927C515.349 186.399 515.433 186.888 515.534 187.343C515.315 188.219 515.163 189.096 515.012 189.956C514.792 198.924 516.866 207.892 521.198 215.714C526.879 225.981 535.932 233.988 546.873 238.489C547.598 238.793 548.322 239.062 549.064 239.332C549.266 239.399 549.486 239.45 549.705 239.45C550.076 239.45 550.447 239.332 550.767 239.113C551.256 238.776 551.576 238.219 551.593 237.612C551.61 236.652 551.627 235.708 551.643 234.78C551.66 233.044 551.643 231.358 551.593 229.723C551.256 217.114 549.014 206.78 544.732 197.98C543.805 196.041 542.776 194.187 541.647 192.4C536.488 184.258 529.627 177.312 521.232 171.733C520.76 171.412 520.153 171.345 519.614 171.513C519.074 171.682 518.636 172.087 518.434 172.626C516.765 176.908 515.72 181.409 515.248 185.927ZM564.742 441.422C565.012 442.063 565.585 442.518 566.276 442.602C570.271 443.074 574.266 443.546 578.262 444.035C584.28 444.777 590.315 445.553 596.35 446.345C607.358 447.761 618.72 449.228 629.964 450.475C630.032 450.475 630.099 450.492 630.167 450.492C630.369 450.492 630.571 450.441 630.774 450.374C631.178 450.239 631.549 449.952 631.785 449.565C632.105 449.025 632.122 448.368 631.852 447.811C631.819 447.727 631.785 447.626 631.718 447.542C630.049 445.097 628.026 442.872 625.699 440.917C620.103 436.23 612.753 433.01 604.341 431.628C602.351 431.308 600.312 431.072 598.221 430.954C590.045 430.482 583.151 431.021 577.132 432.589C571.704 434.022 567.759 436.281 565.045 439.517C564.607 440.057 564.489 440.782 564.742 441.422ZM284.921 469.44C284.937 469.541 284.988 469.625 285.022 469.71C285.241 470.317 285.73 470.789 286.387 470.94C286.488 470.957 286.573 470.974 286.674 470.991C289.169 471.513 291.461 471.952 293.67 472.289C296.316 472.71 299.03 473.064 301.964 473.368C311.455 475.323 320.929 476.318 330.251 476.318C336.488 476.318 342.641 475.88 348.71 474.986C348.744 474.986 348.794 474.969 348.828 474.952C349.081 474.902 349.334 474.801 349.536 474.649C349.789 474.48 349.991 474.227 350.126 473.958C350.379 473.418 350.362 472.811 350.109 472.272C350.092 472.255 350.076 472.221 350.059 472.188C345.423 464.113 335.679 459.325 320.254 457.521C312.769 456.645 305.487 457.639 298.592 460.455C294.647 462.09 290.618 464.281 285.983 467.35C285.898 467.417 285.814 467.468 285.73 467.518C285.106 467.94 284.786 468.698 284.921 469.44ZM170.777 393.294C172.227 393.934 173.761 394.356 175.227 394.929C176.087 395.249 176.913 395.687 177.739 396.109C190.922 400.627 201.02 410.219 209.212 419.136C209.769 419.743 210.308 420.367 210.865 420.991C213.713 423.621 216.512 426.318 219.293 429.032C221.35 430.853 223.423 432.69 225.564 434.612C237.989 445.704 250.75 457.1 265.939 464.281C267.372 464.821 268.821 465.327 270.305 465.815C272.952 466.675 275.649 467.434 278.363 468.125C278.38 468.108 278.413 468.091 278.447 468.074C278.582 467.956 278.633 467.889 278.7 467.838C286.337 462.326 292.523 458.803 298.727 456.409C305.79 453.678 313.494 452.852 321.637 453.948C338.865 456.274 349.772 462.242 354.054 471.682C354.138 471.851 354.189 472.036 354.239 472.221C354.425 472.946 354.998 473.435 355.672 473.587C362.247 472.221 368.771 470.232 375.194 467.468C386.067 462.781 396.047 456.51 406.026 450.239C408.977 447.929 411.859 445.468 414.658 442.855C414.877 442.704 415.113 442.552 415.332 442.4C416.815 440.681 418.484 439.13 420.17 437.562C422.867 435.067 425.598 432.623 428.346 430.161C430.875 427.902 433.37 425.694 436.151 423.739C437.702 422.643 440.534 420.856 438.596 418.698C438.056 418.108 437.331 417.737 436.623 417.383C431.077 414.652 425.43 412.309 419.816 409.713C413.933 406.999 408.134 404.116 402.419 401.031C402.031 400.829 401.643 400.61 401.256 400.391C400.514 399.986 399.587 400.121 398.997 400.745C398.946 400.795 398.845 400.913 398.811 400.964C397.142 402.582 395.237 404.268 393.231 405.819C391.293 407.319 389.219 408.769 387.061 410.084C384.651 411.365 382.055 412.646 379.425 413.809C376.812 414.973 374.098 416.068 371.35 417.063C331.296 429.588 287.281 421.884 259.297 397.39C257.56 395.789 255.655 393.968 253.515 391.861C250.21 388.573 246.906 385.151 243.72 381.847C239.523 377.498 235.19 372.997 230.723 368.732C218.973 357.488 202.941 344.254 183.302 341.675C182.931 341.625 182.577 341.523 182.257 341.372C181.667 341.085 180.993 341.119 180.436 341.473C179.998 341.743 179.526 341.81 179.02 341.658C178.835 341.557 178.633 341.473 178.413 341.422C177.486 340.984 176.441 341.389 175.986 342.316C175.834 342.602 175.784 342.923 175.8 343.243C175.716 343.479 175.632 343.698 175.548 343.934C175.345 344.524 175.109 345.198 174.941 345.94C174.57 347.778 174.283 349.632 173.997 351.436L173.879 352.228C173.811 352.633 173.744 353.037 173.693 353.442C173.525 357.083 173.187 360.708 172.513 364.315C172.277 365.242 172.092 366.22 172.109 367.198C172.075 367.232 172.041 367.265 172.007 367.299C171.991 367.333 171.991 367.366 171.991 367.4C171.603 371.446 171.266 375.61 170.996 380.128C170.861 382.42 170.726 384.73 170.625 387.023C170.575 388.253 170.524 389.484 170.473 390.714L170.423 392.063C170.389 392.535 170.524 392.956 170.777 393.294ZM161.303 386.719L164.506 387.663C164.674 387.714 164.86 387.731 165.028 387.731C165.416 387.731 165.804 387.613 166.124 387.376C166.596 387.056 166.883 386.517 166.916 385.944C167.085 382.505 167.287 379.066 167.54 375.644C167.574 375.138 167.405 374.632 167.051 374.244C166.714 373.873 166.225 373.637 165.72 373.621C165.366 373.621 165.012 373.587 164.674 373.57L163.848 373.519C162.938 373.486 162.095 374.126 161.91 375.037L160.005 384.443C159.802 385.404 160.359 386.449 161.303 386.719ZM160.932 369.608C160.966 369.608 161.067 369.625 161.117 369.625C161.943 369.693 162.769 369.743 163.595 369.794C164.219 369.828 164.826 369.828 165.45 369.844L166.242 369.861H166.293C167.27 369.861 168.08 369.12 168.181 368.159L168.248 367.282C168.265 366.962 168.299 366.625 168.332 366.288C168.383 365.731 168.198 365.141 167.81 364.737C167.422 364.332 166.9 364.096 166.326 364.13C166.057 364.147 165.838 364.13 165.669 364.096C165.366 364.012 165.079 363.843 164.843 363.607C164.607 363.371 164.455 363.101 164.354 362.764C164.287 362.478 164.27 362.174 164.337 361.854L165.028 360.657L165.585 360.236C165.618 360.219 165.652 360.202 165.669 360.185C165.838 360.084 165.989 360.033 166.158 360.033C166.259 360.016 166.377 360.016 166.478 359.983C166.596 359.966 166.748 359.966 166.933 360.016C167.439 360.134 167.995 360.033 168.434 359.73C168.872 359.426 169.158 358.938 169.226 358.415C169.833 353.56 170.49 349.329 171.215 345.468C171.266 345.182 171.333 344.895 171.401 344.608C171.519 344.052 171.401 343.479 171.047 343.024C170.693 342.586 170.17 342.316 169.614 342.299L163.005 342.13C162.179 342.181 161.471 342.619 161.185 343.378C160.561 345.148 160.51 347.12 160.46 348.873C160.443 349.379 160.426 349.868 160.409 350.34L159.28 367.518C159.229 368.513 159.937 369.49 160.932 369.608ZM111.033 341.304L110.123 338.944C109.718 337.933 109.33 336.921 108.943 335.91C108.606 335.067 107.712 334.595 106.836 334.764C105.082 335.101 103.447 335.674 101.795 336.281C99.3 337.208 96.8051 338.135 94.3439 339.113C91.8152 340.141 89.5226 341.153 87.3817 342.248C86.3702 342.754 85.3419 343.294 84.3641 343.884C83.5887 344.339 83.2515 345.266 83.5381 346.109C83.673 346.497 83.6898 346.884 83.6055 347.221C83.4875 347.643 83.5212 348.098 83.6898 348.486L84.0101 349.227C84.2292 349.716 84.6507 350.104 85.1733 350.256C85.3588 350.323 85.5441 350.34 85.7296 350.34C86.0836 350.34 86.4208 350.256 86.7073 350.07C90.3655 347.862 94.8159 346.699 99.0809 345.788C102.166 345.114 105.554 344.49 109.398 343.884C110.038 343.546 110.561 343.159 110.966 342.737C111.168 342.282 111.219 341.76 111.033 341.304ZM117.473 410.522C117.81 411.129 118.45 411.483 119.125 411.483C119.344 411.483 119.563 411.449 119.782 411.365L120.558 411.078C121.215 410.842 121.889 410.59 122.547 410.337C124.873 409.426 127.2 408.516 129.509 407.572L130.167 407.302C130.976 406.982 131.802 406.645 132.476 406.358C133.37 405.971 133.909 404.925 133.606 403.998C133.386 403.307 133.15 402.633 132.931 401.958L132.375 400.306C132.19 399.75 131.734 399.312 131.178 399.126C130.622 398.924 129.998 399.025 129.509 399.362C126.879 401.183 124.317 403.189 121.839 405.128C120.558 406.122 119.276 407.134 117.995 408.112C117.237 408.668 117.018 409.696 117.473 410.522ZM80.6891 362.731L80.5037 363.051C80.1497 363.708 79.8125 364.416 79.7114 365.293C79.5596 366.692 80.116 368.142 81.2623 369.288C82.5098 370.553 84.263 371.277 86.4376 371.429C86.8085 371.463 87.1794 371.362 87.4997 371.193C88.3426 371.311 89.1517 371.446 90.1463 371.749C90.5509 371.851 90.7701 371.935 91.0735 372.103C91.0735 372.238 91.0566 372.39 91.0566 372.525C91.0229 372.66 90.9892 372.828 90.9555 373.064L90.9049 373.334C90.8206 373.671 90.7195 374.042 90.5846 374.413C90.4329 374.885 90.3992 374.986 90.0789 375.509C89.9778 375.542 89.8935 375.593 89.8092 375.644C89.6069 375.627 89.3877 375.66 89.1686 375.745C88.9494 375.812 88.7471 375.88 88.528 375.947C88.0728 376.065 87.6345 376.217 87.1962 376.385C85.8138 376.958 84.6339 377.953 83.8584 379.234C83.6898 379.807 83.5887 380.397 83.5887 380.987V381.257C83.7741 381.763 84.1281 382.167 84.6507 382.471C86.3702 383.466 88.2245 384.443 90.5172 384.797L91.0566 384.865C91.3264 384.932 91.6973 384.983 92.085 385C93.7876 385 94.7316 385.067 96.1982 385.59C96.5185 385.708 97.058 385.944 97.3614 386.331C97.3614 386.483 97.3446 386.635 97.3446 386.786C97.3277 386.786 97.3109 386.854 97.2772 386.955C97.1929 387.107 97.0917 387.258 96.9905 387.41C96.468 388.034 95.7262 388.708 94.9339 389.416C94.5799 389.737 94.209 390.074 93.8719 390.394C93.3999 390.697 92.9109 390.967 92.4221 391.22C90.8038 392.097 88.9662 393.108 87.7863 395.215C87.6345 395.485 87.2468 396.176 87.3648 397.07C87.4828 397.879 87.9717 398.57 88.8314 399.109C90.4498 400.121 92.3884 400.593 94.2765 400.441C94.6305 400.424 94.9676 400.357 95.3217 400.306C96.4005 400.66 97.5806 400.593 98.6763 400.104C99.1652 400.037 99.6372 399.969 100.126 399.902L100.868 399.818C101.272 399.767 101.694 399.716 102.098 399.683C102.149 399.666 102.216 399.666 102.267 399.666C102.284 399.7 102.301 399.733 102.334 399.767L102.385 400.037C102.351 400.138 102.318 400.239 102.301 400.357L102.098 400.812C101.997 400.998 101.862 401.2 101.728 401.402L101.475 401.689L100.834 402.329L100.48 402.633C100.413 402.683 100.345 402.734 100.295 402.801C100.244 402.818 100.21 402.835 100.177 402.869C100.059 402.919 99.9407 402.987 99.8732 403.037C99.1989 403.459 98.6426 404.015 98.238 404.673C98.1706 404.723 98.0863 404.774 98.0189 404.824C97.2772 405.313 96.1814 406.072 95.3722 407.033C95.0856 407.977 94.9002 408.954 94.9002 409.882C94.9002 410.623 95.0182 411.331 95.2711 411.989C96.0465 412.764 97.1929 413.034 98.4572 413.034C99.7721 413.034 101.188 412.747 102.402 412.444C102.604 412.41 102.79 412.326 102.958 412.208C103.649 412.124 104.256 411.904 104.745 411.685C106.127 411.078 107.425 410.37 108.589 409.561C108.589 409.561 108.589 409.561 108.589 409.544C109.01 409.612 109.448 409.528 109.819 409.292C112.163 407.875 114.354 406.19 116.444 404.47C116.95 404.066 117.456 403.661 117.962 403.256C118.872 402.498 119.782 401.756 120.693 401.048C122.732 399.43 125.008 397.811 127.672 396.109C127.705 396.092 127.823 396.008 127.958 395.923L128.464 395.586C128.683 395.451 128.885 395.3 129.105 395.165C129.206 395.114 129.307 395.03 129.391 394.946C129.509 394.895 129.644 394.828 129.762 394.777C129.829 394.743 129.88 394.726 129.947 394.693L130.706 394.406C131.734 394.002 132.78 393.597 133.808 393.024C134.904 392.4 136.033 391.658 137.146 390.799C141.866 388.506 146.687 386.685 151.525 385.32C153.498 384.005 154.863 382.387 155.689 380.448V380.414C155.537 377.65 155.335 374.868 155.133 372.103L154.863 368.445C154.459 362.849 154.037 357.235 153.616 351.621C153.565 351.453 153.498 351.284 153.43 351.116C153.312 350.391 153.093 349.666 152.705 349.042C152.115 348.098 151.188 347.542 150.194 347.103C149.856 346.952 149.519 346.834 149.182 346.716C148.491 346.429 147.8 346.159 147.109 345.89C145.608 345.586 144.108 345.3 142.591 345.097C142.422 345.097 142.27 345.08 142.102 345.08C141.63 345.047 141.293 345.03 141.158 345.03C140.568 344.979 139.995 344.946 139.421 344.895C138.831 344.861 138.275 344.828 137.719 344.777C135.831 344.608 134.128 344.288 132.577 343.192C130.672 341.861 128.919 340.327 127.065 338.708C125.834 337.629 124.604 336.567 123.339 335.556C120.305 333.145 117.304 330.886 113.798 329.622C113.09 329.369 112.297 329.555 111.792 330.094C111.269 330.65 111.134 331.443 111.421 332.134C111.455 332.184 111.488 332.269 111.522 332.336C112.399 334.511 113.258 336.719 114.101 338.927L115.281 341.928C115.483 342.468 115.922 342.872 116.478 343.041C116.697 343.108 116.849 343.176 117.001 343.277C117.557 343.648 117.911 344.204 117.945 344.76C117.928 344.794 117.894 344.844 117.877 344.878C117.877 344.878 117.86 344.912 117.844 344.946C117.776 344.996 117.742 345.03 117.692 345.08C117.405 345.283 117.068 345.468 116.748 345.637C116.579 345.721 116.411 345.805 116.242 345.873C114.759 346.463 113.157 346.867 111.404 347.12L110.982 347.171C110.645 347.188 110.359 347.272 110.072 347.339C110.022 347.356 109.954 347.356 109.904 347.373C109.769 347.39 109.668 347.407 109.566 347.441C107.813 347.795 106.094 348.233 104.357 348.671C101.795 349.126 99.4012 349.615 97.2097 350.121C93.4504 350.981 90.4161 352.245 87.9211 353.981C84.4821 356.072 81.8692 359.207 80.6891 362.731ZM81.0769 335.775C80.5712 336.23 80.234 336.786 80.234 337.478C80.234 338.169 80.6385 338.793 81.0937 339.281C81.5489 339.77 82.0546 340.192 82.7458 340.192C83.0492 340.192 83.3695 340.124 83.6561 339.973C85.8139 338.776 88.1908 337.663 91.3264 336.348C94.2933 335.101 97.294 333.971 100.109 332.926C100.918 332.623 101.728 332.336 102.537 332.066C103.093 331.881 103.531 331.459 103.734 330.903C103.919 330.347 103.852 329.74 103.531 329.251L103.262 328.846C102.806 328.138 101.964 327.818 101.171 328.037L99.7721 328.425C97.1423 329.15 94.0404 330.027 91.0397 331.072C87.8705 332.167 85.3756 333.23 83.2178 334.393C82.5604 334.747 81.7006 335.185 81.0769 335.775ZM78.5482 313.186C78.6494 313.337 78.7336 313.506 78.8011 313.691C79.4417 315.31 79.9642 316.945 80.5206 318.664C80.8408 319.693 81.1611 320.738 81.532 321.749C81.768 322.441 82.004 323.115 82.2737 323.772C82.2737 323.789 82.2906 323.857 82.3243 323.907C82.3412 323.975 82.3749 324.042 82.4086 324.109C82.4592 324.295 82.5266 324.447 82.6277 324.598L82.8638 325.121C83.2178 325.829 83.6055 326.52 84.0101 327.178C84.1787 327.447 84.3473 327.7 84.5327 327.953C84.8867 328.476 85.4767 328.762 86.0668 328.762C86.3028 328.762 86.5219 328.728 86.741 328.644L88.8483 327.869C90.3823 327.296 92.0344 326.756 94.0573 326.132C94.6136 325.964 95.0688 325.559 95.2711 325.02C95.4902 324.48 95.4228 323.873 95.1362 323.368C92.3884 318.782 90.0283 313.894 88.1234 308.82C87.938 308.314 87.5334 307.926 87.0276 307.724C86.5388 307.538 85.9656 307.572 85.4936 307.808L85.2239 307.96C83.4538 308.853 81.6669 309.612 79.4922 310.438C78.9697 310.64 78.5482 311.062 78.3796 311.584C78.1942 312.124 78.2448 312.697 78.5482 313.186Z" fill="#1E1E1E"/>
<path d="M187.989 228.29L194.428 218.429C192.945 214.602 190.433 211.331 189.084 207.42C188.225 204.926 187.887 201.655 189.59 199.464C191.613 196.851 194.816 197.407 197.614 198.115C199.941 198.688 202.2 199.447 204.492 200.155C206.734 200.863 209.179 201.824 211.539 202.06C213.309 202.228 215.602 200.307 217.034 199.413C219.159 198.115 221.232 196.699 223.188 195.165C225.952 192.973 230.301 194.221 230.386 198.149L230.571 207.724C230.588 208.533 230.453 210.269 230.605 210.809C230.723 211.247 231.195 211.635 231.481 212.023C231.65 212.259 231.768 212.495 231.903 212.731C231.903 212.731 231.92 212.731 231.92 212.747C232.358 213.034 232.695 213.405 232.965 213.86C233.016 213.894 233.083 213.928 233.117 213.961C233.302 214.079 233.471 214.231 233.639 214.383C233.673 214.433 233.707 214.467 233.74 214.518C234.263 214.754 234.836 214.956 235.376 215.175C237.163 215.883 238.949 216.591 240.736 217.299C243.855 218.53 245.237 223.149 241.748 225.003C238.191 226.891 234.263 227.329 230.622 228.88C229.088 229.538 228.835 229.875 228.43 231.392C227.908 233.314 227.385 235.236 226.711 237.124C225.413 240.731 224.014 245.114 220.608 247.289C218.636 248.553 216.158 248.772 214.202 247.424C212.618 246.345 211.387 244.659 210.224 243.159C209.684 242.451 209.145 241.743 208.656 241.018C208.42 240.681 207.914 239.534 207.527 239.366C206.616 238.978 204.492 239.467 203.481 239.518C201.239 239.602 198.997 239.636 196.755 239.619C194.647 239.619 192.338 239.787 190.264 239.315C188.073 238.81 186.252 237.09 185.747 234.882C185.089 232.353 186.657 230.313 187.989 228.29Z" fill="#A1A1E6"/>
<path d="M516.803 128.356L524.08 119.092C522.932 115.153 520.715 111.678 519.722 107.668C519.075 105.108 519.015 101.825 520.909 99.7863C523.149 97.3586 526.302 98.2013 529.024 99.1412C531.281 99.9228 533.486 100.865 535.696 101.77C537.869 102.67 540.228 103.845 542.543 104.284C544.286 104.621 546.734 102.888 548.252 102.124C550.485 101.003 552.669 99.7916 554.743 98.4221C557.689 96.4795 561.914 98.0898 561.649 102.023L560.993 111.576C560.936 112.382 560.648 114.109 560.752 114.662C560.839 115.113 561.272 115.533 561.507 115.951C561.644 116.189 561.749 116.438 561.854 116.687L561.876 116.697C562.291 117.016 562.596 117.427 562.816 117.904C562.865 117.941 562.913 117.977 562.967 118.03C563.14 118.166 563.302 118.323 563.454 118.502C563.487 118.544 563.525 118.602 563.542 118.65C564.037 118.941 564.584 119.178 565.105 119.442C566.819 120.307 568.533 121.171 570.263 122.03C573.255 123.536 574.243 128.245 570.588 129.793C566.885 131.358 562.936 131.455 559.169 132.685C557.583 133.204 557.305 133.534 556.762 134.992C556.06 136.864 555.389 138.724 554.548 140.554C552.948 144.044 551.162 148.278 547.586 150.155C545.502 151.242 543.033 151.231 541.187 149.735C539.692 148.526 538.62 146.74 537.594 145.134C537.119 144.39 536.644 143.645 536.211 142.868C536.013 142.509 535.601 141.331 535.225 141.124C534.365 140.657 532.205 140.967 531.186 140.913C528.944 140.787 526.714 140.639 524.482 140.438C522.379 140.246 520.07 140.233 518.034 139.571C515.896 138.873 514.22 136.994 513.92 134.76C513.577 132.147 515.307 130.255 516.803 128.356Z" fill="#A1A1E6"/>
<path d="M353.296 499.447L364.641 502.582C367.844 500.003 370.187 496.615 373.491 494.154C375.598 492.569 378.616 491.254 381.229 492.215C384.347 493.344 384.769 496.581 384.954 499.464C385.106 501.841 385.089 504.235 385.089 506.628C385.106 508.988 384.921 511.601 385.409 513.928C385.78 515.664 388.326 517.266 389.59 518.361C391.478 519.98 393.451 521.531 395.507 522.93C398.441 524.902 398.575 529.42 394.85 530.684L385.78 533.769C385.005 534.039 383.319 534.427 382.847 534.73C382.459 534.983 382.24 535.539 381.954 535.927C381.785 536.146 381.6 536.349 381.414 536.534V536.551C381.279 537.057 381.026 537.495 380.656 537.883C380.639 537.95 380.622 538.001 380.605 538.068C380.538 538.287 380.453 538.489 380.352 538.692C380.318 538.742 380.285 538.793 380.251 538.843C380.184 539.417 380.167 540.023 380.133 540.597C379.998 542.518 379.863 544.423 379.728 546.345C379.492 549.683 375.531 552.414 372.699 549.649C369.816 546.834 368.215 543.226 365.618 540.226C364.523 538.961 364.118 538.827 362.567 538.894C360.561 538.978 358.589 539.063 356.583 538.995C352.739 538.86 348.154 538.86 345.035 536.281C343.231 534.781 342.271 532.488 342.945 530.212C343.484 528.375 344.715 526.689 345.794 525.121C346.3 524.396 346.805 523.671 347.362 522.963C347.614 522.643 348.542 521.8 348.592 521.379C348.693 520.401 347.564 518.53 347.227 517.569C346.468 515.462 345.76 513.338 345.086 511.197C344.445 509.174 343.569 507.033 343.4 504.909C343.215 502.667 344.293 500.408 346.249 499.262C348.542 497.913 350.952 498.806 353.296 499.447Z" fill="#A1A1E6"/>
<path d="M245.558 225.981L230.858 231.375C230.268 231.594 229.83 232.083 229.678 232.69C229.206 234.544 228.633 236.415 228.127 238.068C227.149 241.287 226.222 244.305 225.885 247.542C225.885 247.592 225.868 247.693 225.834 247.811C225.649 248.519 225.261 249.194 224.688 249.716C223.879 250.458 222.749 250.846 221.637 250.761C221.097 250.711 220.71 250.61 220.322 250.441C219.749 250.188 219.226 249.784 218.805 249.278L209.027 237.123C208.64 236.651 208.05 236.399 207.426 236.432L203.515 236.685C203.397 236.685 203.262 236.685 203.11 236.651C201.829 236.466 200.042 236.685 198.306 236.904C195.423 237.258 191.462 237.764 189.388 235.707C189 235.337 188.663 234.831 188.495 234.409C188.444 234.291 188.393 234.173 188.309 234.072C187.112 232.285 188.545 230.161 190.855 227.144C191.259 226.604 191.647 226.099 191.95 225.694C191.967 225.677 191.984 225.66 191.984 225.643L196.081 219.541L196.805 218.462C197.159 217.939 197.227 217.282 196.991 216.709L196.637 215.832C196.384 215.225 196.182 214.703 195.963 214.146C195.963 214.113 195.895 213.927 195.878 213.894C195.457 212.157 194.749 210.505 194.007 208.735C192.726 205.768 191.462 202.784 191.411 199.379C191.411 199.295 191.445 199.227 191.445 199.143C191.495 198.806 191.613 198.486 191.832 198.233C192.288 197.71 192.878 197.322 193.535 197.103C193.569 197.103 193.586 197.086 193.619 197.086C194.361 196.85 195.153 196.85 195.912 197.053L211.084 201.233C211.573 201.368 212.079 201.301 212.517 201.048C215.652 199.244 218.72 196.395 221.687 193.631L224.806 190.883C225.548 190.276 226.458 189.956 227.385 189.956C227.942 189.956 228.498 190.074 229.021 190.293C230.42 190.9 231.33 192.215 231.397 193.732L232.038 208.297C232.173 211.601 236.337 213.691 240.383 215.697C241.917 216.473 243.484 217.248 244.799 218.091L246.266 219.001C247.564 219.811 248.272 221.227 248.12 222.727C247.985 224.194 246.991 225.458 245.558 225.981ZM241.883 220.35C240.922 219.811 239.86 219.288 238.815 218.765C234.061 216.388 228.717 213.725 228.498 208.398L227.992 196.749C227.959 196.024 227.503 195.367 226.829 195.097C226.155 194.811 225.362 194.962 224.823 195.468L224.132 196.109C220.659 199.345 217.102 202.649 213.174 204.605C213.039 204.672 212.905 204.723 212.736 204.757C212.112 204.892 211.438 204.875 210.831 204.706L198.053 201.183C197.379 200.997 196.671 201.2 196.182 201.705C195.693 202.211 195.541 202.936 195.76 203.593C196.182 204.841 196.738 206.139 197.227 207.302C197.969 209.005 198.795 210.927 199.199 212.697C199.216 212.798 199.25 212.882 199.284 212.966L201.273 217.855C201.306 217.939 201.29 218.041 201.239 218.125L194.901 227.582C194.597 228.003 194.209 228.509 193.838 229.015L193.72 229.183C193.383 229.639 192.911 230.246 192.507 230.819C192.102 231.392 192.052 232.134 192.372 232.757C192.692 233.381 193.333 233.786 194.024 233.786C195.153 233.803 197.008 233.583 197.868 233.465C199.823 233.212 201.728 232.976 203.077 233.196C203.211 233.212 203.363 233.229 203.498 233.212L207.948 232.909C208.977 232.842 209.921 233.162 210.679 233.752C210.983 233.735 211.303 233.718 211.607 233.701C212.921 234.898 213.967 236.365 214.961 237.832C216.377 239.905 217.76 241.995 219.142 244.086L219.58 244.625C219.951 245.08 220.491 245.333 221.047 245.333C221.199 245.333 221.333 245.316 221.485 245.283C222.193 245.114 222.733 244.541 222.884 243.833C223.39 241.372 224.132 239.012 224.772 236.938L224.84 236.685C225.379 234.898 225.952 233.061 226.408 231.122C226.559 230.532 226.88 229.959 227.284 229.504C227.368 229.403 227.486 229.335 227.588 229.251C227.621 229.099 227.655 228.947 227.689 228.779C227.706 228.728 227.723 228.661 227.739 228.593C227.841 228.543 227.959 228.492 228.043 228.475C228.363 228.374 228.683 228.273 229.004 228.189C229.644 227.987 230.285 227.801 230.909 227.616C231.161 227.531 231.431 227.464 231.701 227.397L241.613 223.738C242.304 223.486 242.776 222.862 242.844 222.12C242.894 221.412 242.524 220.721 241.883 220.35Z" fill="#1E1E1E"/>
<path d="M395.102 525.812L380.402 531.206C379.812 531.425 379.374 531.914 379.222 532.521C378.75 534.376 378.177 536.247 377.672 537.899C376.694 541.119 375.767 544.136 375.429 547.373C375.429 547.423 375.413 547.525 375.379 547.643C375.193 548.351 374.806 549.025 374.233 549.548C373.423 550.289 372.294 550.677 371.181 550.593C370.642 550.542 370.254 550.441 369.866 550.272C369.293 550.02 368.771 549.615 368.349 549.109L358.572 536.955C358.184 536.483 357.594 536.23 356.97 536.264L353.059 536.516C352.941 536.516 352.806 536.516 352.655 536.483C351.373 536.297 349.587 536.516 347.85 536.736C344.968 537.09 341.006 537.595 338.932 535.539C338.545 535.168 338.208 534.662 338.039 534.241C337.988 534.123 337.938 534.005 337.854 533.904C336.657 532.117 338.09 529.993 340.399 526.975C340.804 526.436 341.191 525.93 341.495 525.525C341.512 525.508 341.529 525.492 341.529 525.475L345.625 519.372L346.35 518.293C346.704 517.771 346.771 517.113 346.535 516.54L346.181 515.663C345.928 515.057 345.726 514.534 345.507 513.978C345.507 513.944 345.44 513.759 345.423 513.725C345.001 511.989 344.293 510.336 343.551 508.566C342.27 505.599 341.006 502.616 340.955 499.21C340.955 499.126 340.989 499.059 340.989 498.974C341.04 498.637 341.158 498.317 341.377 498.064C341.832 497.541 342.422 497.154 343.079 496.935C343.113 496.935 343.13 496.918 343.164 496.918C343.905 496.682 344.698 496.682 345.456 496.884L360.628 501.065C361.117 501.2 361.623 501.132 362.061 500.879C365.197 499.075 368.265 496.227 371.232 493.462L374.351 490.714C375.092 490.107 376.003 489.787 376.93 489.787C377.486 489.787 378.042 489.905 378.565 490.124C379.964 490.731 380.874 492.046 380.942 493.563L381.583 508.128C381.717 511.432 385.881 513.523 389.927 515.529C391.461 516.304 393.029 517.08 394.344 517.922L395.81 518.833C397.108 519.642 397.817 521.058 397.665 522.558C397.53 524.025 396.535 525.272 395.102 525.812ZM391.427 520.164C390.467 519.625 389.404 519.102 388.359 518.58C383.605 516.203 378.262 513.539 378.042 508.212L377.537 496.564C377.503 495.839 377.048 495.181 376.373 494.912C375.699 494.625 374.907 494.777 374.367 495.282L373.676 495.923C370.204 499.16 366.647 502.464 362.719 504.419C362.584 504.487 362.449 504.537 362.28 504.571C361.657 504.706 360.982 504.689 360.376 504.521L347.597 500.997C346.923 500.812 346.215 501.014 345.726 501.52C345.237 502.026 345.086 502.75 345.305 503.408C345.726 504.655 346.282 505.953 346.771 507.117C347.513 508.819 348.339 510.741 348.744 512.511C348.761 512.612 348.794 512.697 348.828 512.781L350.817 517.67C350.851 517.754 350.834 517.855 350.783 517.939L344.445 527.396C344.141 527.818 343.754 528.324 343.383 528.829L343.265 528.998C342.928 529.453 342.456 530.06 342.051 530.633C341.647 531.206 341.596 531.948 341.916 532.572C342.237 533.196 342.877 533.6 343.568 533.6C344.698 533.617 346.552 533.398 347.412 533.28C349.367 533.027 351.272 532.791 352.621 533.01C352.756 533.027 352.908 533.044 353.042 533.027L357.493 532.723C358.521 532.656 359.465 532.976 360.224 533.566C360.527 533.55 360.848 533.533 361.151 533.516C362.466 534.713 363.511 536.179 364.506 537.646C365.922 539.719 367.304 541.81 368.686 543.9L369.125 544.44C369.496 544.895 370.035 545.148 370.591 545.148C370.743 545.148 370.878 545.131 371.03 545.097C371.738 544.928 372.277 544.355 372.429 543.647C372.935 541.186 373.676 538.826 374.317 536.752L374.384 536.5C374.924 534.713 375.497 532.875 375.952 530.937C376.104 530.347 376.424 529.773 376.829 529.318C376.913 529.217 377.031 529.15 377.132 529.065C377.166 528.914 377.2 528.762 377.233 528.593C377.25 528.543 377.267 528.475 377.284 528.408C377.385 528.357 377.503 528.307 377.587 528.29C377.908 528.189 378.228 528.088 378.548 528.003C379.189 527.801 379.829 527.616 380.453 527.43C380.706 527.346 380.976 527.278 381.245 527.211L391.158 523.553C391.849 523.3 392.321 522.676 392.388 521.935C392.439 521.227 392.068 520.535 391.427 520.164Z" fill="#1E1E1E"/>
<path d="M575.809 132.055L560.624 135.872C560.576 135.889 560.513 135.911 560.465 135.928C559.94 136.112 559.514 136.529 559.325 137.059C558.68 138.839 557.928 140.567 557.212 142.247C555.889 145.354 554.669 148.246 554.003 151.444C553.993 151.519 553.968 151.599 553.932 151.701C553.676 152.398 553.216 153.024 552.589 153.476C551.692 154.129 550.55 154.386 549.443 154.184C548.903 154.07 548.533 153.931 548.173 153.718C547.635 153.407 547.153 152.95 546.798 152.396L538.347 139.28C538.025 138.767 537.444 138.435 536.831 138.418L532.92 138.269C532.792 138.26 532.659 138.235 532.503 138.2C531.262 137.867 529.455 137.911 527.717 137.948C524.807 138.002 520.831 138.073 518.974 135.83C518.631 135.414 518.341 134.89 518.222 134.45C518.178 134.322 518.139 134.211 518.078 134.089C517.074 132.19 518.729 130.235 521.348 127.461C521.804 126.979 522.245 126.504 522.581 126.136C522.591 126.114 522.607 126.109 522.617 126.087L527.325 120.456L528.158 119.467C528.561 118.987 528.69 118.334 528.516 117.734L528.246 116.811C528.099 116.291 527.925 115.691 527.761 115.069L527.715 114.889C527.474 113.027 526.936 111.286 526.364 109.45C525.423 106.404 524.464 103.31 524.781 99.9304C524.791 99.8556 524.832 99.7697 524.841 99.6949C524.922 99.3632 525.067 99.0624 525.324 98.8293C525.84 98.363 526.459 98.039 527.139 97.8902C527.171 97.879 527.192 97.8893 527.224 97.8782C527.973 97.7229 528.769 97.8015 529.493 98.0838L544.135 103.834C544.612 104.024 545.124 104.006 545.59 103.807C548.9 102.344 552.253 99.8299 555.489 97.3925L558.865 94.9957C560.137 94.1394 561.763 94.0882 563.118 94.8461C564.435 95.5993 565.214 97.0057 565.114 98.5053L564.208 113.058C563.992 116.367 567.927 118.882 571.744 121.315C573.241 122.273 574.667 123.184 575.876 124.136L577.246 125.193C578.465 126.123 579.01 127.629 578.702 129.095C578.404 130.539 577.27 131.686 575.809 132.055ZM572.743 126.055C571.865 125.434 570.874 124.799 569.911 124.189C565.383 121.309 560.36 118.085 560.702 112.786L561.411 101.142C561.458 100.411 561.075 99.7233 560.414 99.3654C559.774 99.0179 558.975 99.0833 558.395 99.5185L557.631 100.09C553.856 102.93 549.955 105.868 545.847 107.396C545.703 107.446 545.555 107.481 545.4 107.499C544.761 107.562 544.104 107.47 543.509 107.25L531.168 102.409C530.525 102.152 529.786 102.286 529.265 102.736C528.728 103.192 528.493 103.9 528.642 104.58C528.922 105.839 529.326 107.145 529.713 108.402C530.262 110.175 530.889 112.17 531.114 113.985C531.131 114.086 531.143 114.171 531.177 114.266L532.634 119.346C532.668 119.442 532.632 119.544 532.585 119.614L525.285 128.35C524.939 128.739 524.509 129.194 524.078 129.648L523.921 129.81C523.658 130.081 523.076 130.714 522.552 131.308C522.091 131.827 521.958 132.57 522.208 133.232C522.458 133.895 523.046 134.35 523.751 134.425C524.958 134.556 526.77 134.528 527.623 134.516C529.542 134.487 531.471 134.436 532.809 134.789C532.948 134.83 533.082 134.854 533.226 134.857L537.68 135.03C538.672 135.058 539.591 135.486 540.31 136.163C540.619 136.18 540.929 136.196 541.233 136.197C542.41 137.518 543.303 139.098 544.147 140.642C545.348 142.847 546.491 145.091 547.644 147.312L548.026 147.893C548.419 148.506 549.144 148.841 549.857 148.735C549.995 148.722 550.106 148.683 550.234 148.638C550.791 148.443 551.226 148.005 551.399 147.426C552.168 145.032 553.141 142.762 553.996 140.765L554.099 140.497C554.825 138.796 555.576 137.015 556.225 135.144C556.435 134.571 556.806 134.048 557.269 133.636C557.363 133.549 557.485 133.489 557.601 133.412C557.658 133.267 557.693 133.112 557.749 132.967C557.764 132.909 557.795 132.844 557.816 132.801C557.927 132.762 558.039 132.723 558.124 132.711C558.459 132.647 558.778 132.589 559.107 132.51C559.761 132.388 560.415 132.266 561.069 132.144C561.34 132.103 561.611 132.061 561.877 132.004L572.111 129.402C572.834 129.221 573.364 128.642 573.502 127.915C573.651 127.22 573.342 126.489 572.743 126.055Z" fill="#1E1E1E"/>
</svg>
