<svg width="347" height="448" viewBox="0 0 347 448" fill="none" xmlns="http://www.w3.org/2000/svg">
<path d="M153.824 261.366C152.461 258.274 151.318 255.104 150.039 251.977C148.921 249.262 147.507 246.61 147.068 243.677C146.99 243.148 146.645 242.735 146.19 242.475C146.888 240.369 149.128 239.117 151.415 239.096C154.711 236.441 159.029 236.555 163.524 236.432C169.156 236.279 175.189 235.983 180.714 237.252C185.108 238.26 189.249 240.634 193.345 242.724C199.636 243.748 205.821 245.093 211.64 247.913C212.118 247.909 212.615 247.939 213.139 248.058C216.108 248.766 218.375 247.236 220.82 246.005C224.685 247.15 229.205 246.418 232.974 245.283C237.408 243.948 241.835 242.171 246.096 240.361C248.173 239.474 249.91 238.285 251.814 237.129C251.823 237.124 251.837 237.128 251.845 237.123C252.133 237.065 252.427 237.038 252.72 236.989C254.932 235.26 257.056 233.433 259.126 231.531C260.85 230.442 262.51 229.32 263.962 227.764C265.904 225.673 268.014 223.761 269.988 221.708C271.545 220.094 272.995 218.289 274.272 216.442C275.148 215.186 275.989 213.744 276.334 212.213C276.343 212.208 276.36 212.198 276.369 212.194C276.591 212.058 276.769 211.867 276.897 211.624C277.231 210.934 277.684 210.292 278 209.589C278.174 209.286 278.271 208.968 278.273 208.624C278.256 208.451 278.231 208.282 278.219 208.117C278.127 207.769 277.956 207.464 277.702 207.194C277.563 207.088 277.433 206.978 277.299 206.882C277.082 206.74 276.833 206.662 276.582 206.642C276.329 206.578 276.075 206.594 275.814 206.66C275.548 206.717 275.308 206.839 275.106 207.01C275.006 207.077 274.92 207.148 274.839 207.228C260.51 207.29 246.503 203.49 233.274 197.952C225.011 194.485 216.954 190.527 208.903 186.599C208.684 186.493 208.473 186.382 208.258 186.285C207.851 185.7 207.298 185.243 206.717 184.756C205.807 184.007 204.972 183.147 204.12 182.32C202.211 180.459 200.155 178.807 198.135 177.077C194.092 173.608 190.578 169.511 188.53 164.56C188.444 164.345 188.297 164.164 188.125 164.02C187.229 161.639 186.67 159.127 185.765 156.751C184.545 153.545 183.075 150.466 181.978 147.215C180.869 143.923 180.453 140.805 180.449 137.342C180.436 134.25 180.568 130.802 179.626 127.829C179.788 126.687 179.954 125.553 180.102 124.406C180.502 121.358 180.573 118.231 181.504 115.274C182.316 112.716 183.573 110.321 184.891 107.994C186.242 105.603 187.606 103.216 189.063 100.892C192.044 96.1383 195.804 92.2062 200.061 88.5909C204.762 84.602 209.516 80.709 214.439 76.9959C218.252 74.1206 222.265 70.7221 227.033 69.6573C227.834 69.4729 228.279 68.9607 228.426 68.3641C231.518 66.6125 234.447 64.6092 237.496 62.8015C240.428 61.0707 243.429 59.7479 246.661 58.7183C252.087 56.9885 257.703 55.4958 263.287 54.3755C267.799 53.4656 272.404 53.1323 276.997 53.5951C284.585 54.362 291.456 57.5887 298.164 61.0777C299.718 62.302 301.221 63.6001 302.703 64.9215C302.745 65.0581 302.809 65.1937 302.887 65.3331C305.289 69.5259 308.699 73.0286 311.188 77.1727C313.28 80.6692 315.472 84.2013 316.821 88.0672C318.278 92.2277 319.439 96.4732 320.557 100.743C321.636 104.841 323.063 108.846 323.703 113.04C323.967 114.779 324.16 116.536 324.365 118.274C324.571 119.931 324.715 121.681 324.339 123.32C324.324 123.397 324.328 123.464 324.318 123.549C323.867 124.03 323.621 124.716 323.847 125.345C324.771 127.939 323.921 130.816 323.955 133.496C323.97 135.077 324.257 136.655 324.375 138.236C324.469 139.59 324.518 140.947 324.545 142.304C324.505 142.601 324.501 142.901 324.475 143.201C324.088 143.451 323.793 143.823 323.684 144.283C322.452 149.627 321.513 155.23 321.652 160.756C321.171 162.821 320.581 164.855 319.517 166.696C318.665 168.179 320.033 170.033 321.695 169.63C323.489 169.198 325.379 169.366 327.033 168.521C328.145 168.299 329.252 168.07 330.344 167.814C338.006 166.034 345.565 163.844 353.024 161.332C359.075 158.43 365.047 155.365 371.355 152.902C371.837 152.29 372.514 151.763 373.466 151.379C373.721 151.282 373.979 151.172 374.234 151.075C380.972 147.663 387.675 144.167 394.321 140.589C395.468 139.776 396.619 138.972 397.804 138.207C400.13 136.701 402.616 135.665 405.14 134.677C409.031 132.513 412.921 130.327 416.791 128.106C416.922 128.033 417.045 127.987 417.163 127.933C417.188 127.999 417.219 128.073 417.239 128.13C417.841 129.555 418.437 130.949 419.184 132.304C421.095 135.764 423.45 138.954 425.631 142.24C429.19 147.604 432.506 153.127 435.447 158.836C434.814 159.076 434.194 159.194 433.591 159.199C433.513 159.243 433.443 159.282 433.36 159.317C423.639 163.654 413.982 168.229 404.141 172.29C401.874 173.226 399.476 173.846 397.098 174.501C392.552 178.174 386.157 180.114 380.657 181.874C379.915 182.163 379.145 182.422 378.337 182.634C378.226 182.661 378.133 182.679 378.018 182.698C376.797 183.255 375.62 183.318 374.57 183.036C374.23 183.123 373.895 183.219 373.564 183.323C373.521 183.348 373.486 183.367 373.442 183.392C372.916 183.903 372.257 184.34 371.467 184.645C365.708 186.904 359.954 189.172 354.195 191.431C353.255 191.796 352.309 192.108 351.366 192.406C350.914 192.967 350.302 193.469 349.494 193.864C339.049 198.972 326.311 201.187 314.989 203.56C312.829 204.012 310.654 204.417 308.481 204.785C308.432 204.881 308.382 204.977 308.325 205.078C307.868 205.837 307.43 206.608 306.992 207.379C305.635 210.413 304.117 213.366 302.624 216.34C301.879 224.99 299.918 233.04 294.702 240.302C288.992 248.252 282.092 257.165 274.301 263.133C272.38 264.607 270.175 265.428 268.226 266.792C267.56 267.256 266.948 267.758 266.337 268.26C263.628 269.695 260.785 270.849 258.091 272.31C257.415 272.676 256.726 273.039 256.04 273.388C255.376 273.611 254.702 273.838 254.028 274.044C250.458 275.125 246.968 276.492 243.388 277.534C242.143 277.783 240.888 277.993 239.631 278.158C235.017 279.377 230.36 280.437 225.582 280.89C224.773 280.896 223.962 280.857 223.147 280.81C221.529 280.719 219.927 280.757 218.345 280.384C214.788 279.524 211.246 279.366 207.614 279.006C205.917 278.835 204.258 278.527 202.612 278.098C200.911 277.653 199.269 276.947 197.554 276.579C195.992 276.24 194.361 276.043 192.773 275.924C192.558 275.907 192.347 275.899 192.137 275.891C191.25 275.449 190.354 275.012 189.45 274.603C186.725 273.37 184.012 272.485 181.065 271.96C178.55 271.513 175.546 271.5 173.24 270.319C172.457 269.922 171.704 270.068 171.147 270.483C168.163 270.218 165.284 270.409 162.197 270.82C161.092 270.969 160.014 271.046 158.977 270.951C157.153 267.853 155.297 264.717 153.824 261.366ZM269.845 170.678C271.4 170.678 272.605 171.217 273.456 172.044C277.424 172.125 281.388 172.322 285.34 172.64C285.281 172.044 285.236 171.451 285.24 170.866C285.263 167.491 285.982 164.092 287.287 160.984C287.331 160.879 287.38 160.783 287.429 160.687C287.478 158.053 287.414 155.423 287.239 152.799C287.406 151.174 287.523 149.541 287.545 147.905C287.606 143.799 287.016 139.818 286.253 135.795C284.765 127.958 282.32 120.679 277.839 114.035C273.786 108.033 268.702 102.069 262.688 97.9402C257.944 94.6913 252.037 92.5954 246.244 92.9523C240.304 93.3114 238.11 97.2024 231.589 100.676C225.883 104.748 221.611 111.836 218.198 117.656C216.905 119.865 215.632 122.19 214.549 124.59C214.636 125.011 213.299 127.142 213.291 127.638C213.073 136.944 215.365 143.416 221.577 150.785C224.225 153.925 227.374 156.51 230.817 158.68C242.824 165.142 256.293 170.638 269.845 170.678Z" fill="#A1A1E6"/>
<path d="M279.507 69.3355C277.776 65.3397 276.281 61.3151 274.226 57.4549C273.933 56.9098 273.868 56.3855 273.948 55.8947C273.934 54.6216 274.756 53.3503 276.4 53.4263C283.597 53.7599 290.714 56.1396 296.571 60.3561C299.825 62.6995 302.518 65.5516 305.18 68.5346C308.221 71.9471 310.963 75.503 312.505 79.8561C313.184 81.7867 311.054 83.1721 309.399 82.8508C305.484 82.0885 301.509 82.424 297.587 81.7917C293.94 81.2003 290.593 79.4689 287.359 77.7546C285.655 76.8546 283.983 75.8682 282.674 74.427C281.292 72.9579 280.299 71.1805 279.507 69.3355Z" fill="#7469F6"/>
<path d="M239.339 274.548C239.401 274.33 239.476 274.117 239.604 273.897C242.998 268.122 248.017 263.292 254.028 260.297C256.99 258.824 260.175 257.73 263.433 257.155C266.523 256.606 270.248 255.987 273.14 257.538C273.465 257.711 273.699 257.946 273.89 258.205C274.551 258.282 275.164 258.602 275.584 259.168C276.238 260.072 276.352 261.667 275.359 262.427C275.182 262.561 275 262.685 274.814 262.824L274.819 262.832C274.793 262.847 274.775 262.857 274.749 262.871C271.356 265.374 267.647 267.208 263.818 268.788C262.713 269.429 261.617 270.087 260.527 270.777C258.23 272.232 256.022 273.661 253.456 274.616C250.973 275.535 248.35 276.223 245.756 276.759C245.398 276.833 245.062 276.826 244.747 276.774C244.006 277.188 243.275 277.62 242.559 278.077C240.238 279.592 238.108 276.517 239.339 274.548Z" fill="#7469F6"/>
<path d="M49.9943 245.66C56.9811 250.732 64.5908 252.356 70.856 250.122C71.0498 250.06 72.0144 249.658 71.7841 248.734C71.7174 248.451 71.4528 248.142 71.146 247.982C71.013 247.907 70.7713 247.802 70.5427 247.884C67.3112 249.039 63.9036 249.183 60.4175 248.307C57.2613 247.51 54.2517 246.013 50.9458 243.619C50.7379 243.472 50.4713 243.506 50.325 243.531C50.1922 243.559 50.0605 243.61 49.9385 243.678C49.7555 243.781 49.592 243.918 49.5052 244.069C49.1075 244.749 49.6241 245.387 49.9943 245.66Z" fill="#1E1E1E"/>
<path d="M103.604 209.936C103.177 210.072 102.28 210.104 101.988 209.192C99.454 201.448 94.127 194.866 87.0019 190.672C86.1474 190.166 86.5698 189.347 86.6741 189.186C86.7195 189.103 86.8865 188.849 87.1566 188.698C87.4006 188.562 87.7292 188.516 88.1331 188.747C95.7262 193.205 101.427 200.334 104.2 208.813C104.416 209.505 104.001 209.806 103.604 209.936Z" fill="#1E1E1E"/>
<path d="M18.2395 211.069C19.0948 207.404 20.4901 204.238 22.4938 201.397C22.7189 201.069 22.9946 200.927 23.3322 200.963L23.3421 200.964C23.769 201.008 24.2066 201.335 24.3954 201.736C24.5508 202.074 24.5055 202.41 24.2685 202.757C20.0371 208.758 19.5622 216.075 19.1774 221.956C19.1178 222.813 18.4104 222.86 18.1115 222.839C17.6595 222.841 16.9101 222.522 16.9628 221.634C17.1689 218.324 17.4217 214.566 18.2395 211.069Z" fill="#1E1E1E"/>
<path d="M172.76 145.415C172.775 145.647 172.62 145.86 172.526 145.958C172.292 146.214 171.911 146.393 171.621 146.384C170.708 146.368 170.544 145.419 170.517 145.125C169.31 131.676 168.52 117.456 173.179 104.352C173.282 104.066 173.447 103.848 173.682 103.717C173.786 103.658 173.901 103.617 174.033 103.589C174.49 103.505 175.016 103.669 175.28 103.978C175.394 104.12 175.534 104.351 175.373 104.819C170.761 117.804 171.507 131.431 172.76 145.415Z" fill="#1E1E1E"/>
<path d="M276.295 160.267C276.219 160.458 275.789 161.408 274.879 161.15C274.594 161.069 274.291 160.793 274.138 160.478C274.078 160.351 273.986 160.105 274.07 159.887C275.474 156.426 275.621 152.924 275.4 148.725C275.213 145.055 274.604 141.244 273.587 137.421C273.424 136.803 273.736 136.48 274.032 136.315C274.163 136.242 274.291 136.204 274.37 136.183C274.56 136.134 275.511 135.934 275.772 136.932C276.805 140.826 277.434 144.854 277.635 148.916C277.821 152.461 277.791 156.56 276.295 160.267Z" fill="#1E1E1E"/>
<path d="M298.944 244.472C305.674 237.405 310.478 228.692 312.85 219.269C312.948 218.871 313.045 218.473 313.135 218.08C313.577 216.232 313.992 214.479 314.896 212.967C315.916 211.253 317.479 210.162 319.676 209.631C323.428 208.712 327.313 207.969 331.069 207.242C332.938 206.883 334.794 206.52 336.654 206.144C337.074 206.057 337.419 206.162 337.682 206.449C337.988 206.793 338.107 207.332 337.978 207.736C337.88 208.031 337.647 208.207 337.271 208.292C335.434 208.667 333.592 209.033 331.749 209.4C328.118 210.126 324.363 210.876 320.692 211.694C319.957 211.853 319.188 212.031 318.482 212.426C318.195 212.587 317.909 212.792 317.639 213.046C316.745 213.9 316.309 215.024 315.961 216.1C315.599 217.251 315.313 218.418 315.044 219.552C314.808 220.541 314.564 221.558 314.265 222.537C311.621 231.267 306.844 239.415 300.468 246.114C300.195 246.403 299.918 246.501 299.61 246.421C299.199 246.32 298.801 245.936 298.669 245.495C298.554 245.125 298.641 244.79 298.944 244.472Z" fill="#1E1E1E"/>
<path d="M48.1619 250.013C50.3948 251.429 52.9726 252.767 56.0158 254.119L56.144 254.185C58.8766 255.39 61.6917 256.641 64.8178 256.689C68.3559 256.758 72.0454 255.748 75.4609 253.838C77.1426 252.898 78.7557 251.733 80.253 250.381C88.0992 243.284 91.4545 231.939 89.212 220.052C88.7389 217.549 87.9683 215.475 86.8203 213.647C85.8064 212.304 84.6521 211.016 83.3514 209.753C81.0782 207.753 78.5713 206.113 75.5935 204.244L75.0273 203.886C74.903 203.806 74.7738 203.718 74.6408 203.644C72.9663 202.899 71.2574 202.379 69.5112 202.017C68.8354 201.995 68.1616 202.017 67.4965 202.034C67.1261 202.047 66.7558 202.06 66.3942 202.067C63.2228 202.102 59.4876 202.315 55.8397 203.645C55.6247 203.731 55.3743 203.631 55.2548 203.56C54.9344 203.396 54.6786 203.082 54.5983 202.795C54.5757 202.694 54.5754 202.591 54.578 202.452C54.6061 202.093 54.4607 201.751 54.1818 201.518C53.9078 201.294 53.542 201.213 53.1884 201.296C43.3704 203.823 35.6235 212.489 34.3682 222.374C33.7016 227.584 34.6024 233.062 36.8956 237.818C39.2609 242.683 43.0436 246.79 48.1619 250.013Z" fill="#D0E3FF"/>
<path fill-rule="evenodd" clip-rule="evenodd" d="M53.934 260.909C50.0064 259.183 46.683 257.472 43.8014 255.652C41.0451 253.934 38.5966 252.009 36.4569 249.9C35.7404 249.191 35.0724 248.467 34.443 247.71C33.7452 246.727 33.0773 245.717 32.4492 244.696C24.9835 233.51 23.0074 219.748 29.2648 208.438C29.6653 207.722 30.0978 207.023 30.5585 206.354C32.4051 203.663 34.752 201.356 37.6163 199.606C38.2316 199.091 38.8789 198.591 39.5273 198.115C42.7961 195.738 46.5028 193.94 50.4686 192.913C50.9191 192.798 51.3935 192.91 51.7463 193.193C52.1087 193.494 52.2941 193.928 52.2575 194.394C52.257 194.577 52.2583 194.702 52.2868 194.835C52.3886 195.201 52.7155 195.602 53.132 195.815C53.2835 195.902 53.6067 196.03 53.8876 195.919C58.6077 194.195 63.4345 193.909 67.5298 193.85C68.0029 193.837 68.4761 193.824 68.9579 193.806C69.0759 193.803 69.1942 193.8 69.3128 193.797C70.0557 193.777 70.8096 193.757 71.5621 193.78C73.8089 194.239 76.0203 194.901 78.1783 195.857C78.3097 195.929 78.4418 196.015 78.5716 196.1C78.6048 196.122 78.6378 196.143 78.6707 196.164L79.3981 196.627C83.2315 199.024 86.4658 201.127 89.3999 203.696C91.0748 205.321 92.5588 206.973 93.8675 208.7C95.3389 211.045 96.3292 213.717 96.9293 216.938C99.785 232.233 95.4097 246.848 85.2547 256.013C83.3105 257.752 81.2261 259.261 79.0478 260.479C74.6302 262.948 69.8644 264.263 65.2936 264.188C61.2982 264.139 57.7042 262.568 54.217 261.045L54.0942 260.991L53.934 260.909ZM55.6966 254.142C52.6534 252.79 50.0756 251.452 47.8427 250.036C42.7244 246.813 38.9417 242.707 36.5764 237.842C34.2832 233.085 33.3824 227.608 34.049 222.397C35.3043 212.512 43.0512 203.846 52.8692 201.32C53.2228 201.236 53.5886 201.318 53.8626 201.542C54.1415 201.775 54.2869 202.117 54.2588 202.475C54.2562 202.614 54.2565 202.717 54.2791 202.819C54.3594 203.105 54.6152 203.42 54.9356 203.584C55.0551 203.654 55.3055 203.754 55.5205 203.668C59.1684 202.338 62.9036 202.125 66.075 202.091C66.4366 202.083 66.8069 202.07 67.1773 202.058C67.24 202.056 67.3027 202.054 67.3656 202.053C67.9694 202.037 68.5799 202.02 69.192 202.041C70.9382 202.403 72.6471 202.923 74.3216 203.668C74.4204 203.723 74.5172 203.785 74.6114 203.847C74.6439 203.868 74.6762 203.889 74.7081 203.909L75.2743 204.267C78.2521 206.136 80.759 207.777 83.0322 209.777C84.3329 211.039 85.4872 212.327 86.5011 213.67C87.6491 215.498 88.4197 217.572 88.8928 220.075C91.1353 231.962 87.78 243.307 79.9338 250.405C78.4365 251.756 76.8234 252.921 75.1417 253.861C71.7262 255.771 68.0367 256.781 64.4986 256.712C61.3932 256.665 58.5947 255.43 55.8791 254.232L55.8248 254.208L55.6966 254.142Z" fill="white"/>
<path d="M31.9371 226.638C31.852 224.215 32.1307 221.829 32.6995 219.532C33.9339 214.519 36.5723 209.911 40.2034 206.279C42.0145 204.466 44.06 202.888 46.2993 201.636C48.6257 200.336 51.1469 199.384 53.808 198.845C54.1578 198.775 54.442 198.834 54.6878 199.028C54.9706 199.247 55.1675 199.64 55.186 200.042C55.2063 200.385 55.3817 200.699 55.6547 200.9C55.9364 201.098 56.2962 201.148 56.6227 201.057C59.0951 200.304 61.8351 199.927 65.5183 199.846L66.2774 199.834C69.2363 199.746 72.0305 199.671 74.4996 200.978C77.0649 202.334 79.8671 204.176 82.8139 206.44C85.3439 208.387 88.132 210.797 89.6519 213.904C91.1037 216.89 91.6036 220.361 91.9122 223.368C92.2034 226.385 92.1592 229.394 91.754 232.331C91.7197 232.556 91.6718 232.778 91.6424 233.011C90.8703 237.972 89.1942 242.42 86.6381 246.296C86.0955 247.126 85.5295 247.934 84.8994 248.709C80.9382 253.612 75.5905 257.036 69.8502 258.347C66.5557 259.102 63.485 259.092 60.741 258.316C57.6214 257.441 54.5274 255.957 51.6274 254.513C45.1779 251.303 40.4506 247.45 37.1763 242.739C33.9876 238.14 32.1232 232.412 31.9371 226.638ZM48.1617 250.012C50.3946 251.429 52.9724 252.767 56.0156 254.119L56.1438 254.184C58.8764 255.39 61.6915 256.641 64.8176 256.689C68.3557 256.758 72.0452 255.747 75.4607 253.838C77.1424 252.898 78.7555 251.733 80.2528 250.381C88.099 243.284 91.4543 231.939 89.2118 220.052C88.7387 217.549 87.9681 215.475 86.8201 213.646C85.8062 212.303 84.6519 211.016 83.3512 209.753C81.078 207.753 78.5711 206.113 75.5933 204.243L75.0271 203.885C74.9028 203.806 74.7736 203.718 74.6406 203.644C72.9661 202.899 71.2572 202.379 69.511 202.017C68.8352 201.995 68.1613 202.017 67.4963 202.034C67.1259 202.047 66.7556 202.059 66.394 202.067C63.2226 202.102 59.4873 202.315 55.8395 203.645C55.6245 203.731 55.374 203.631 55.2546 203.56C54.9342 203.396 54.6783 203.082 54.5981 202.795C54.5755 202.693 54.5752 202.59 54.5778 202.452C54.6059 202.093 54.4605 201.751 54.1816 201.518C53.9076 201.294 53.5418 201.213 53.1882 201.296C43.3702 203.823 35.6233 212.488 34.368 222.374C33.7014 227.584 34.6022 233.062 36.8954 237.818C39.2607 242.683 43.0434 246.79 48.1617 250.012Z" fill="#1E1E1E"/>
<path d="M95.4768 266.504C95.7278 265.357 96.6213 264.481 97.3773 263.623C99.0505 261.727 100.849 259.933 102.639 258.143C103.54 257.239 104.445 255.932 105.897 256.401C106.645 256.635 106.994 257.32 106.947 257.953C107.051 258.158 107.08 258.416 107.009 258.719C106.824 259.451 106.145 260.139 105.717 260.722C105.132 261.518 104.548 262.314 103.931 263.093C102.724 264.637 101.434 266.113 99.9509 267.388C99.8174 267.497 99.6762 267.633 99.534 267.747C99.4799 267.834 99.4123 267.918 99.3631 268.014C98.7733 268.984 97.9295 269.971 96.6725 269.461C95.4932 268.988 95.2287 267.615 95.4768 266.504Z" fill="#7469F6"/>
<path d="M49.9943 245.66C56.9811 250.732 64.5908 252.356 70.856 250.122C71.0498 250.06 72.0144 249.658 71.7841 248.734C71.7174 248.451 71.4528 248.142 71.146 247.982C71.013 247.907 70.7713 247.802 70.5427 247.884C67.3112 249.039 63.9036 249.183 60.4175 248.307C57.2613 247.51 54.2517 246.013 50.9458 243.619C50.7379 243.472 50.4713 243.506 50.325 243.531C50.1922 243.559 50.0605 243.61 49.9385 243.678C49.7555 243.781 49.592 243.918 49.5052 244.069C49.1075 244.749 49.6241 245.387 49.9943 245.66Z" fill="#1E1E1E"/>
<path d="M25.5972 230.64C24.8998 226.569 24.252 221.831 24.7195 217.532C25.1199 213.912 26.7138 210.299 29.7502 206.177C34.791 199.299 41.7582 194.168 49.8825 191.353C50.1198 191.266 50.3751 191.375 50.5081 191.45C50.8149 191.61 51.0659 191.915 51.1326 192.198C51.3178 192.918 50.7499 193.396 50.222 193.577C43.5672 195.89 37.597 200.063 32.9522 205.645C30.1959 208.958 28.4191 211.999 27.5087 214.932C26.4821 218.251 26.8027 221.709 27.1093 225.06L27.1601 225.58C27.9114 233.818 30.3259 240.428 34.5289 245.798C38.617 251.003 44.2264 255.472 51.1957 259.101C55.7057 261.44 62.585 264.376 70.1813 262.805C76.2455 261.542 81.98 258.073 86.3238 253.037C90.1505 248.61 92.9022 242.875 94.5069 236.008C96.3579 228.088 96.5634 221.214 95.1327 215.587C92.9485 206.995 85.7845 201.279 80.1541 198C76.1357 195.66 72.7939 194.715 68.9528 194.861C65.8612 194.977 62.7206 195.292 59.6866 195.593C58.3964 195.72 57.0975 195.851 55.8025 195.969C55.5708 195.984 55.358 195.829 55.255 195.726C54.9935 195.484 54.82 195.112 54.8289 194.821C54.8536 193.904 55.7985 193.753 56.0873 193.717C57.3785 193.613 58.6687 193.486 59.9676 193.355C62.8949 193.067 65.9202 192.771 68.8906 192.643C72.6366 192.47 75.9973 193.245 79.4646 195.069C84.7592 197.85 91.8454 202.752 95.5374 210.317C98.2419 215.85 98.8711 222.703 97.5258 231.895C96.6765 237.7 95.0413 242.937 92.6896 247.465C92.5382 247.767 92.5226 248.108 92.6485 248.415C92.7744 248.722 93.031 248.955 93.3484 249.053C93.557 249.119 93.7492 249.217 93.9261 249.37C94.2798 249.675 94.651 249.971 95.0135 250.272L95.5974 250.723L95.6809 250.791C96.3941 251.33 97.1197 251.85 97.8531 252.344C99.2237 253.282 100.704 254.17 102.253 255.019C102.661 255.237 103.155 255.178 103.512 254.876C104.345 254.158 104.974 253.932 105.671 254.115C105.703 254.131 105.78 254.168 105.808 254.175C106.293 254.327 106.816 254.138 107.091 253.709C107.278 253.41 107.614 253.131 108.093 252.863L108.128 252.844C110.385 251.582 113.044 251.777 115.799 252.123C118.303 252.428 120.777 252.497 123.519 252.553L123.783 252.554C125.555 252.593 127.371 252.63 129.213 252.161C129.221 252.156 129.328 252.142 129.35 252.141C129.457 252.127 129.554 252.096 129.65 252.042C132.028 250.896 134.471 249.907 136.918 249.088C136.932 249.092 136.941 249.087 136.949 249.082C137.514 248.926 137.86 248.379 137.757 247.807C137.688 247.457 137.666 247.172 137.662 246.9C137.652 245.613 138.31 245.051 139.925 244.216L144.205 241.972C144.371 241.879 144.538 241.831 144.699 241.833C145.101 241.814 145.474 241.583 145.658 241.217C146.195 240.151 147.17 239.502 148.398 239.388C148.55 239.372 148.695 239.325 148.817 239.256C148.958 239.12 149.099 238.984 149.245 238.857C149.413 238.706 149.585 238.564 149.771 238.426C150.803 237.654 152.08 237.055 153.628 236.693C168.821 233.185 183.007 238.246 197.371 242.315C199.427 242.904 201.486 243.457 203.548 243.974C205.609 244.491 207.678 244.959 209.761 245.35C209.846 245.359 209.936 245.377 210.013 245.392C230.219 247.945 251.839 239.506 268.913 222.137C269.987 221.011 271.042 219.849 272.061 218.685C272.871 217.454 273.667 216.197 274.456 214.91C274.671 214.515 274.902 214.112 275.089 213.71C275.701 212.452 276.223 211.155 276.677 209.86C276.759 209.619 276.864 209.378 276.947 209.137C277.052 208.792 277 208.433 276.789 208.139C276.584 207.853 276.259 207.681 275.901 207.675C261.454 207.403 247.893 205.138 235.607 200.959C229.704 198.952 222.886 196.085 216.053 192.025C206.377 186.296 196.658 178.178 189.441 166.762C188.939 165.967 188.469 165.166 188.007 164.361C187.951 164.301 187.894 164.241 187.843 164.19C187.777 164.032 187.699 163.893 187.634 163.735C187.298 163.031 186.97 162.322 186.625 161.623C186.107 160.574 185.567 159.526 184.966 158.513C184.435 157.358 183.934 156.196 183.473 155.024C177.916 141.034 177.233 126.045 181.891 113.102C187.524 97.4643 200.441 83.6665 221.385 70.9282C239.325 60.0179 260.55 49.3984 281.913 53.4084C286.908 54.3442 291.54 56.1236 295.684 58.6673C299.865 61.2361 303.549 64.5742 306.637 68.6236C312.222 75.9541 316.867 85.3883 320.453 96.65C320.495 96.7866 320.546 96.9183 320.588 97.0549C326.638 116.202 327.546 136.749 323.232 156.465C322.51 159.796 321.585 163.195 320.486 166.588C320.365 166.965 320.455 167.372 320.71 167.664C320.965 167.956 321.356 168.104 321.742 168.037C323.369 167.756 324.973 167.454 326.562 167.126C330.724 166.286 334.75 165.304 338.573 164.185C341.955 163.197 345.281 162.047 348.57 160.792C359.514 156.617 369.985 151.187 380.175 145.89L408.718 131.053C409.901 130.449 411.138 129.86 412.332 129.295C413.474 128.76 414.62 128.211 415.751 127.636C415.999 127.508 416.345 127.349 416.574 127.37C416.717 127.381 417.017 127.877 417.093 128.441C417.096 128.508 417.108 128.57 417.102 128.642C417.138 129.811 413.728 131.26 412.272 131.868C411.689 132.114 411.194 132.333 410.845 132.506L405.398 135.323L403.342 136.392C398.497 138.895 393.652 141.397 388.812 143.909C387.031 144.836 385.264 145.767 383.475 146.698C380.015 148.507 376.511 150.34 372.974 152.135C363.747 156.824 354.274 161.297 344.489 164.64C336.772 167.285 328.582 169.245 319.44 170.65C319.227 170.678 319.022 170.781 318.855 170.932C318.469 171.285 317.856 171.273 317.464 171.103C317.281 171.022 317.07 170.992 316.87 171.023C311.044 171.833 305.024 172.397 298.475 172.753C282.81 173.597 269.146 172.681 256.72 169.93C239.328 166.09 227.232 159.918 219.735 151.049C215.348 145.862 212.715 139.843 212.129 133.64C211.553 127.638 213.405 121.399 217.62 115.108C221.746 108.947 226.917 103.529 232.991 98.9896C238.624 94.7879 245.346 90.6297 252.553 91.6556C258.19 92.4724 263.971 95.6332 269.719 101.066C274.471 105.557 278.557 111.392 281.51 117.942C285.515 126.784 287.615 137.024 287.877 148.989C287.907 150.31 287.906 151.66 287.889 153.019C287.857 155.519 287.761 158.089 287.588 160.747C287.411 163.293 287.152 166.103 286.763 169.58C286.733 169.894 286.827 170.207 287.039 170.443C287.251 170.679 287.557 170.817 287.874 170.811C290.319 170.806 292.462 170.774 294.439 170.709C302.292 170.436 309.793 169.799 316.737 168.822C317.15 168.763 317.503 168.474 317.637 168.079C318.664 165.068 319.556 162.019 320.325 158.936C323.658 145.545 324.509 131.562 322.81 117.805C322.566 115.894 322.304 113.994 321.961 112.092C320.25 102.322 317.32 92.9692 313.264 84.3033C313.051 83.8394 312.529 83.582 312.029 83.69C297.864 86.6231 283.293 79.8102 276.581 67.1287C274.725 63.6257 273.528 59.7661 273.008 55.6653C272.942 55.0963 272.449 54.6855 271.882 54.6939C260.746 54.9041 248.289 58.746 233.812 66.4397C226.414 70.3698 218.643 74.8401 211.389 80.1534C208.691 82.1192 206.062 84.207 203.55 86.4234C197.93 91.4066 192.873 97.0699 188.898 103.604C186.954 106.795 185.375 110.148 184.139 113.584C182.559 117.978 181.561 122.516 181.192 127.091C181.114 128.015 181.044 128.935 181.025 129.861C180.985 131.324 181.026 132.788 181.098 134.268C181.183 135.913 181.331 137.569 181.56 139.225C182.359 145.114 184.03 151.008 186.533 156.631C193.96 173.27 207.906 186.596 226.861 195.155C244.37 203.07 265.402 206.591 287.717 205.346C292.874 205.059 298.453 204.502 305.276 203.615C307.226 203.359 309.144 203.088 311.023 202.827C312.439 202.618 313.837 202.42 315.182 202.228C315.222 202.217 315.253 202.211 315.293 202.2C318.35 201.429 321.512 200.805 324.572 200.203C325.976 199.933 327.389 199.658 328.792 199.365C334.667 198.151 340.736 196.405 347.343 194.026C349.835 193.125 352.295 192.207 354.758 191.253C360.69 188.954 366.584 186.528 372.489 184.142C372.954 183.951 373.454 183.74 373.734 183.32C373.993 182.924 374.001 182.427 374.029 181.966C374.248 178.573 375.884 175.382 378.135 172.843C380.395 170.298 383.246 168.361 386.189 166.67C390.818 164.025 395.842 161.925 401.136 161.31C406.43 160.695 412.022 161.674 416.39 164.722C416.819 165.019 417.263 165.343 417.774 165.377C418.2 165.402 418.598 165.214 418.984 165.044C423.167 163.117 427.364 161.194 431.547 159.267C432.121 159.004 432.734 158.729 433.363 158.812C433.993 158.895 434.6 159.47 434.463 160.084C434.349 160.617 433.777 160.902 433.277 161.113C424.08 164.974 414.896 168.862 405.713 172.749C399.314 175.458 392.919 178.175 386.423 180.652C367.395 187.916 349.222 197.081 329.223 201.629C326.933 202.155 324.639 202.614 322.32 203.007C319.234 203.542 316.05 203.984 313.155 205.271C310.143 206.612 308.847 208.652 307.475 211.558C306.258 214.148 305.31 217.136 304.391 220.075C303.818 221.893 303.221 223.771 302.581 225.49C301.27 229.528 299.627 233.42 297.692 237.098C289.088 253.436 274.162 266.424 255.407 273.994C254.134 274.499 252.851 274.987 251.546 275.454C250.124 276.021 248.748 276.526 247.407 276.991C247.019 277.116 246.632 277.241 246.244 277.366C243.796 278.163 241.276 278.851 238.729 279.429L238.203 279.552C238.154 279.567 238.115 279.578 238.071 279.603C237.983 279.629 237.895 279.655 237.774 279.665L237.655 279.698C236.1 280.087 234.805 280.388 233.596 280.64C218.811 282.833 205.321 279.591 191.041 276.161C189.627 275.819 188.212 275.478 186.794 275.15C185.226 274.597 183.73 274.13 182.335 273.72C175.269 271.678 169.442 271.219 164.077 272.239C163.609 272.364 163.14 272.466 162.682 272.505C162.206 272.554 161.737 272.553 161.266 272.53C161.241 272.567 161.206 272.586 161.176 272.615C160.537 273.475 159.286 273.672 158.314 273.06C157.901 272.811 157.515 272.386 157.129 271.778C156.965 271.526 156.716 271.346 156.418 271.284C156.12 271.221 155.81 271.28 155.563 271.453C155.441 271.521 155.345 271.574 155.244 271.597C154.899 271.675 154.545 271.759 154.196 271.851C153.471 272.027 152.786 272.193 152.099 272.314C151.66 272.388 151.258 272.384 150.901 272.298C150.494 272.205 150.076 272.336 149.8 272.662C149.355 273.174 148.806 273.686 148.275 274.189C147.907 274.532 147.556 274.866 147.218 275.203C145.277 277.192 143.552 279.323 142.095 281.544C141.794 282.009 141.872 282.618 142.273 282.988L143.607 284.187C144.353 284.868 145.108 285.543 145.846 286.229C146.241 286.546 146.393 287.044 146.277 287.532C146.061 288.556 145.333 289.443 144.568 290.386L144.119 290.934C143.148 292.163 142.163 293.388 141.155 294.592C139.2 296.966 137.135 299.368 135.019 301.74C134.742 302.043 134.197 302.051 133.828 301.902C133.705 301.845 133.565 301.821 133.436 301.813C133.225 301.805 133.02 301.725 132.826 301.582C132.376 301.228 131.739 301.275 131.343 301.691C130.455 302.599 129.587 303.256 128.664 303.691C127.269 304.346 125.772 304.451 124.575 303.965C122.835 303.268 122.412 301.549 122.346 300.225C122.338 300.046 122.29 299.879 122.207 299.731C122.007 299.373 121.626 299.141 121.188 299.156C120.961 299.158 120.754 299.239 120.572 299.364C120.001 299.466 118.438 299.493 118.084 299.474C117.112 299.331 116.194 298.815 115.578 298.061C114.54 296.778 114.694 295.273 115.032 293.3C115.088 292.949 114.973 292.601 114.743 292.353C114.499 292.1 114.162 291.968 113.815 292.002C112.939 292.092 112.031 292.187 111.196 292.105C110.617 292.052 109.796 291.871 109.191 291.362C108.484 290.751 108.094 289.665 108.155 288.465C108.182 288.084 108.204 287.591 107.953 287.102C107.537 286.317 106.499 286.097 105.289 285.835C104.978 285.769 104.508 285.666 104.385 285.609C103.398 285.132 102.699 284.516 102.307 283.774C101.804 282.832 101.759 281.587 101.758 280.502C101.749 280.095 101.752 279.693 101.77 279.294C101.796 278.319 101.893 277.407 102.019 276.57C102.09 276.165 101.928 275.752 101.595 275.504L100.927 274.985C100.358 274.56 99.7974 274.13 99.2281 273.705C99.1309 273.633 99.0163 273.572 98.8892 273.528C98.699 273.475 98.5106 273.363 98.3658 273.226C97.9536 272.816 97.7205 272.318 97.6704 271.717C97.6422 271.298 97.3707 270.935 96.9747 270.779C95.7721 270.285 94.868 269.772 94.4011 268.855C93.9975 268.052 93.9551 267.035 94.2937 266.045C94.4072 265.695 94.5691 265.33 94.7948 264.895C95.0735 264.351 94.8778 263.694 94.337 263.402C93.2505 262.808 92.1829 262.044 91.0739 261.063C90.5249 260.592 89.9971 260.098 89.4644 259.596C88.6935 258.871 87.8945 258.117 87.0404 257.428C87.0404 257.428 87.0171 257.407 86.9694 257.342C86.7836 257.092 86.4903 256.935 86.1761 256.905C85.8619 256.875 85.5538 256.978 85.3227 257.199C82.1813 260.111 78.6057 262.327 74.6779 263.791C68.3258 266.176 61.4199 265.954 54.6903 263.163C47.3269 260.097 40.8085 255.782 35.8441 250.666C30.4296 245.093 26.8739 238.16 25.5972 230.64ZM283.089 129.01C279.257 114.363 270.769 102.514 259.803 96.5228C256.648 94.787 253.759 93.8746 250.977 93.726C247.778 93.5475 244.49 94.459 240.656 96.6023C240.648 96.6072 240.648 96.6072 240.639 96.6121C237.098 98.6034 233.723 101.016 230.536 103.804C228.195 105.856 225.961 108.1 223.845 110.553C221.39 113.424 218.368 117.286 216.384 121.735C215.359 124.035 214.609 126.478 214.352 129.024C214.231 130.281 214.241 131.567 214.323 132.86C214.792 136.623 216.068 140.461 217.617 143.987C218.159 144.999 218.733 146.005 219.39 146.976C220.325 148.34 221.372 149.641 222.516 150.889C229.086 158.058 239.246 163.242 254.006 166.999C262.978 169.279 272.585 170.507 283.39 170.768C283.595 170.767 283.794 170.714 283.96 170.621C284.038 170.577 284.112 170.525 284.18 170.463C284.369 170.289 284.496 170.047 284.528 169.777C285.89 157.545 286.789 143.136 283.089 129.01ZM277.477 63.883C277.665 64.0978 277.85 64.3261 278.034 64.5321C278.174 65.0485 278.349 65.5455 278.519 66.0337C280.997 70.7324 284.66 74.7686 289.16 77.5596C295.063 81.2243 302.056 82.7471 309.011 81.9121C309.473 81.8595 309.926 81.7894 310.387 81.7145C310.511 81.6909 310.639 81.6537 310.753 81.5904C310.944 81.4832 311.102 81.315 311.204 81.1092C311.359 80.7937 311.364 80.4136 311.197 80.095C310.929 79.5935 310.664 79.1007 310.405 78.6166C309.912 77.7143 309.416 76.8479 308.918 76.0173C305.1 69.5973 300.955 64.904 296.199 61.5931C295.159 60.859 294.092 60.1977 292.992 59.6005C287.973 56.8826 282.42 55.2754 276.468 54.8173C276.132 54.7881 275.799 54.9286 275.568 55.1717C275.338 55.4147 275.229 55.7504 275.28 56.0877C275.655 58.7831 276.415 61.4115 277.477 63.883ZM376.887 181.637C377.212 181.89 377.64 181.96 378.021 181.804C380.223 180.893 382.424 179.983 384.63 179.081C387.955 177.725 391.299 176.382 394.647 175.048C400.746 172.599 407.042 170.074 413.214 167.469C413.249 167.45 413.289 167.439 413.324 167.419C413.428 167.361 413.518 167.276 413.603 167.183C413.773 166.997 413.882 166.741 413.892 166.473C413.902 166.101 413.721 165.757 413.421 165.547C413.379 165.513 413.332 165.471 413.273 165.447C411.704 164.665 410.015 164.1 408.248 163.761C404.001 162.956 399.272 163.416 394.524 165.132C393.404 165.542 392.281 166.009 391.167 166.552C386.804 168.671 383.397 170.942 380.739 173.491C378.347 175.8 376.961 178.108 376.494 180.565C376.423 180.97 376.572 181.379 376.887 181.637ZM240.354 276.977C240.392 277.024 240.443 277.053 240.484 277.087C240.773 277.337 241.162 277.44 241.546 277.328C241.603 277.308 241.651 277.292 241.708 277.272C243.149 276.821 244.461 276.385 245.699 275.921C247.189 275.374 248.694 274.773 250.298 274.082C255.769 272.35 260.953 270.127 265.771 267.433C268.995 265.63 272.049 263.626 274.927 261.41C274.945 261.401 274.966 261.377 274.978 261.359C275.095 261.26 275.196 261.134 275.257 260.997C275.339 260.837 275.37 260.648 275.362 260.47C275.337 260.118 275.153 259.809 274.866 259.603C274.853 259.599 274.834 259.587 274.816 259.574C270.086 256.74 263.667 257.081 255.173 260.606C251.051 262.316 247.574 264.934 244.824 268.382C243.258 270.367 241.809 272.664 240.299 275.589C240.275 275.649 240.246 275.699 240.217 275.75C240.016 276.148 240.07 276.632 240.354 276.977ZM159.354 270.603C160.288 270.515 161.203 270.289 162.127 270.162C162.664 270.079 163.217 270.067 163.766 270.046C171.885 268.572 179.876 270.612 186.688 272.854C187.15 273.006 187.61 273.173 188.077 273.335C190.31 273.871 192.536 274.456 194.757 275.055C196.347 275.402 197.949 275.752 199.611 276.127C209.238 278.27 219.127 280.473 229.052 279.795C229.949 279.66 230.844 279.503 231.752 279.327C233.369 279.006 234.982 278.619 236.585 278.192C236.589 278.178 236.601 278.16 236.614 278.141C236.649 278.041 236.656 277.992 236.676 277.946C239.03 272.89 241.21 269.282 243.725 266.252C246.586 262.799 250.33 260.146 254.855 258.36C264.432 254.584 271.793 254.516 276.735 258.158C276.827 258.221 276.907 258.302 276.986 258.384C277.292 258.705 277.729 258.792 278.121 258.675C281.125 256.07 283.922 253.156 286.443 249.872C290.709 244.307 294.055 238.182 297.401 232.057C298.258 230.011 299.037 227.906 299.728 225.747C299.798 225.605 299.876 225.458 299.945 225.317C300.215 223.999 300.63 222.715 301.048 221.418C301.721 219.349 302.426 217.296 303.135 215.23C303.79 213.332 304.441 211.47 305.314 209.655C305.799 208.641 306.746 206.899 305.12 206.344C304.671 206.195 304.189 206.212 303.721 206.234C300.065 206.425 296.469 206.846 292.818 207.126C288.993 207.423 285.162 207.609 281.317 207.666C281.058 207.673 280.794 207.672 280.531 207.671C280.03 207.676 279.59 208.014 279.465 208.507C279.454 208.547 279.436 208.638 279.433 208.674C279.038 209.992 278.541 211.414 277.952 212.795C277.383 214.131 276.731 215.48 275.995 216.783C275.119 218.141 274.148 219.554 273.125 220.915C272.11 222.271 271.024 223.622 269.891 224.93C252.808 242.978 227.832 251.715 206.29 247.141C204.93 246.815 203.419 246.424 201.704 245.954C199.046 245.21 196.35 244.396 193.748 243.609C190.322 242.574 186.782 241.499 183.24 240.585C173.918 238.169 161.808 235.962 150.912 240.304C150.706 240.385 150.493 240.435 150.284 240.449C149.896 240.471 149.558 240.684 149.372 241.027C149.224 241.293 148.999 241.465 148.694 241.532C148.569 241.534 148.44 241.549 148.312 241.586C147.706 241.627 147.283 242.138 147.316 242.749C147.32 242.941 147.386 243.121 147.488 243.282C147.512 243.428 147.532 243.566 147.557 243.712C147.623 244.076 147.696 244.492 147.823 244.924C148.162 245.981 148.55 247.023 148.923 248.038L149.091 248.481C149.173 248.71 149.255 248.938 149.346 249.162C150.311 251.093 151.184 253.064 151.878 255.123C152.024 255.671 152.21 256.23 152.502 256.73C152.494 256.757 152.486 256.784 152.479 256.812C152.48 256.834 152.489 256.851 152.499 256.869C153.468 259.072 154.497 261.321 155.663 263.734C156.256 264.958 156.853 266.191 157.463 267.405C157.793 268.056 158.122 268.707 158.452 269.357L158.815 270.069C158.934 270.323 159.126 270.502 159.354 270.603ZM152.557 269.942L154.486 269.505C154.587 269.482 154.688 269.437 154.775 269.389C154.976 269.276 155.142 269.103 155.239 268.889C155.391 268.587 155.383 268.225 155.235 267.919C154.328 266.093 153.439 264.257 152.581 262.415C152.452 262.144 152.219 261.932 151.924 261.833C151.642 261.739 151.322 261.759 151.055 261.896C150.872 261.998 150.68 262.083 150.5 262.172L150.059 262.384C149.579 262.63 149.328 263.205 149.495 263.729L151.229 269.141C151.402 269.696 151.992 270.076 152.557 269.942ZM147.421 261.206C147.439 261.196 147.496 261.175 147.522 261.161C147.968 260.957 148.41 260.744 148.852 260.532C149.184 260.369 149.497 260.194 149.825 260.022L150.239 259.802L150.265 259.787C150.771 259.505 150.974 258.888 150.749 258.362L150.531 257.889C150.447 257.719 150.367 257.535 150.287 257.351C150.152 257.049 149.886 256.797 149.569 256.7C149.251 256.603 148.913 256.632 148.626 256.815C148.492 256.902 148.374 256.956 148.277 256.988C148.096 257.032 147.899 257.027 147.709 256.974C147.518 256.92 147.362 256.824 147.212 256.679C147.095 256.551 146.998 256.399 146.941 256.214L146.952 255.395L147.118 255.017C147.13 254.998 147.143 254.98 147.147 254.966C147.205 254.865 147.268 254.795 147.356 254.746C147.403 254.709 147.464 254.674 147.506 254.628C147.563 254.585 147.641 254.541 147.751 254.514C148.047 254.429 148.305 254.216 148.444 253.932C148.583 253.649 148.59 253.313 148.474 253.023C147.384 250.339 146.502 247.962 145.761 245.757C145.704 245.594 145.656 245.427 145.608 245.259C145.508 244.937 145.282 244.675 144.967 244.542C144.658 244.418 144.31 244.43 144.017 244.582L140.553 246.404C140.141 246.669 139.901 247.1 139.972 247.575C140.161 248.67 140.705 249.704 141.186 250.625C141.323 250.891 141.456 251.149 141.583 251.398L145.963 260.603C146.225 261.131 146.873 261.432 147.421 261.206ZM113.452 260.995L112.299 260.038C111.798 259.633 111.305 259.222 110.812 258.811C110.395 258.473 109.796 258.487 109.392 258.827C108.583 259.508 107.904 260.277 107.225 261.068C106.204 262.268 105.182 263.469 104.192 264.685C103.183 265.947 102.29 267.133 101.5 268.318C101.123 268.871 100.748 269.447 100.413 270.035C100.143 270.494 100.237 271.071 100.629 271.424C100.811 271.585 100.931 271.78 100.985 271.979C101.046 272.231 101.195 272.457 101.394 272.608L101.774 272.899C102.029 273.088 102.358 273.167 102.672 273.094C102.788 273.076 102.888 273.031 102.984 272.977C103.167 272.875 103.317 272.734 103.412 272.555C104.664 270.357 106.628 268.47 108.57 266.767C109.969 265.527 111.541 264.225 113.352 262.801C113.585 262.441 113.743 262.09 113.831 261.755C113.804 261.462 113.679 261.177 113.452 260.995ZM136.781 294.911C137.131 295.127 137.564 295.125 137.913 294.93C138.026 294.866 138.13 294.786 138.219 294.679L138.537 294.307C138.808 293.995 139.084 293.669 139.351 293.348C140.29 292.206 141.229 291.063 142.15 289.908L142.412 289.578C142.738 289.179 143.067 288.766 143.333 288.423C143.683 287.964 143.659 287.268 143.235 286.877C142.922 286.583 142.605 286.303 142.297 286.017L141.532 285.324C141.275 285.09 140.913 284.995 140.572 285.06C140.226 285.116 139.933 285.349 139.778 285.664C138.945 287.365 138.2 289.143 137.479 290.861C137.105 291.745 136.735 292.638 136.355 293.514C136.124 294.02 136.308 294.615 136.781 294.911ZM103.959 280.838L103.956 281.057C103.963 281.499 103.993 281.963 104.194 282.445C104.52 283.212 105.227 283.8 106.151 284.062C107.161 284.355 108.276 284.223 109.444 283.673C109.646 283.583 109.808 283.424 109.925 283.244C110.395 283.061 110.852 282.897 111.454 282.767C111.692 282.702 111.83 282.682 112.035 282.682C112.074 282.751 112.109 282.835 112.148 282.904C112.17 282.984 112.201 283.081 112.252 283.212L112.304 283.366C112.357 283.565 112.412 283.786 112.45 284.017C112.508 284.304 112.52 284.367 112.505 284.729C112.462 284.776 112.434 284.826 112.405 284.877C112.295 284.927 112.192 285.007 112.103 285.114C112.009 285.212 111.924 285.306 111.83 285.404C111.629 285.596 111.446 285.801 111.268 286.015C110.719 286.711 110.397 287.566 110.366 288.452C110.445 288.797 110.563 289.131 110.734 289.436L110.812 289.576C111.054 289.784 111.353 289.89 111.711 289.896C112.887 289.913 114.128 289.883 115.416 289.403L115.714 289.282C115.873 289.239 116.079 289.158 116.284 289.055C117.164 288.563 117.672 288.325 118.581 288.171C118.781 288.14 119.128 288.106 119.396 288.219C119.44 288.297 119.475 288.38 119.519 288.459C119.511 288.464 119.521 288.503 119.533 288.565C119.533 288.668 119.525 288.776 119.516 288.883C119.427 289.357 119.238 289.92 119.033 290.515C118.943 290.782 118.848 291.064 118.767 291.327C118.61 291.62 118.436 291.901 118.256 292.173C117.673 293.093 117.016 294.147 117.015 295.577C117.014 295.761 117.013 296.23 117.333 296.658C117.627 297.042 118.08 297.258 118.68 297.288C119.809 297.343 120.947 297.027 121.879 296.403C122.057 296.292 122.212 296.16 122.38 296.031C123.04 295.902 123.631 295.527 124.056 294.957C124.289 294.781 124.514 294.61 124.747 294.434L125.106 294.176C125.3 294.033 125.503 293.885 125.703 293.751C125.724 293.727 125.759 293.708 125.785 293.693C125.804 293.706 125.822 293.718 125.849 293.726L125.953 293.851C125.965 293.913 125.977 293.975 126.002 294.041L126.029 294.334C126.031 294.459 126.019 294.603 126.008 294.746L125.96 294.968L125.814 295.484L125.719 295.743C125.699 295.789 125.678 295.834 125.672 295.884C125.65 295.907 125.638 295.926 125.63 295.953C125.584 296.013 125.542 296.082 125.522 296.128C125.295 296.54 125.169 296.988 125.149 297.445C125.129 297.491 125.1 297.541 125.08 297.587C124.838 298.054 124.491 298.763 124.35 299.493C124.475 300.064 124.662 300.623 124.929 301.102C125.144 301.485 125.409 301.817 125.73 302.084C126.355 302.261 127.025 302.069 127.679 301.704C128.358 301.324 129.008 300.766 129.547 300.259C129.642 300.183 129.714 300.086 129.767 299.976C130.099 299.733 130.35 299.444 130.539 299.19C131.078 298.476 131.545 297.735 131.912 296.981C131.912 296.981 131.912 296.981 131.907 296.972C132.144 296.885 132.347 296.715 132.47 296.486C133.272 295.077 133.918 293.572 134.501 292.08C134.646 291.724 134.79 291.369 134.935 291.014C135.186 290.359 135.442 289.712 135.708 289.083C136.295 287.657 137.003 286.163 137.888 284.514C137.901 284.495 137.937 284.418 137.983 284.335L138.146 284.015C138.221 283.882 138.281 283.745 138.356 283.612C138.393 283.556 138.421 283.484 138.441 283.416C138.487 283.355 138.537 283.282 138.584 283.221C138.609 283.184 138.63 283.161 138.655 283.124L138.964 282.757C139.379 282.251 139.802 281.739 140.168 281.146C140.554 280.507 140.924 279.797 141.25 279.031C143.027 276.482 144.993 274.148 147.099 272.044C147.739 270.795 147.977 269.564 147.844 268.323L147.834 268.306C146.957 266.921 146.048 265.541 145.145 264.171L143.948 262.358C142.122 259.582 140.282 256.803 138.442 254.023C138.367 253.95 138.284 253.883 138.2 253.815C137.93 253.474 137.607 253.163 137.226 252.953C136.649 252.635 136.009 252.616 135.368 252.677C135.15 252.696 134.941 252.732 134.733 252.768C134.293 252.82 133.858 252.88 133.423 252.941C132.56 253.217 131.701 253.503 130.859 253.837C130.771 253.885 130.688 253.921 130.601 253.969C130.347 254.088 130.168 254.177 130.099 254.216C129.779 254.36 129.473 254.508 129.162 254.648C128.847 254.801 128.55 254.944 128.248 255.079C127.223 255.537 126.251 255.864 125.133 255.746C123.763 255.608 122.414 255.321 120.988 255.021C120.04 254.819 119.097 254.625 118.151 254.468C115.886 254.099 113.682 253.798 111.505 254.158C111.066 254.232 110.71 254.557 110.604 254.982C110.495 255.42 110.654 255.869 111.002 256.143C111.034 256.16 111.076 256.193 111.113 256.219C112.194 257.089 113.277 257.982 114.351 258.88L115.828 260.09C116.088 260.31 116.431 260.393 116.768 260.319C116.9 260.291 116.998 260.282 117.106 260.29C117.501 260.321 117.844 260.506 118.023 260.784C118.024 260.807 118.021 260.842 118.022 260.865C118.022 260.865 118.023 260.887 118.024 260.909C118.004 260.955 117.996 260.982 117.984 261.023C117.895 261.21 117.774 261.403 117.657 261.583C117.594 261.675 117.532 261.768 117.464 261.851C116.868 262.585 116.157 263.257 115.324 263.894L115.121 264.042C114.951 264.148 114.828 264.275 114.699 264.392C114.678 264.416 114.643 264.435 114.621 264.458C114.557 264.506 114.509 264.544 114.467 264.591C113.663 265.28 112.901 266.004 112.13 266.732C110.937 267.708 109.841 268.652 108.855 269.547C107.16 271.077 105.957 272.608 105.169 274.226C103.996 276.3 103.551 278.676 103.959 280.838ZM96.3706 266.794C96.2407 267.175 96.2272 267.56 96.427 267.917C96.6267 268.274 97.016 268.48 97.3925 268.601C97.769 268.722 98.1522 268.794 98.5095 268.594C98.6663 268.506 98.8124 268.379 98.9167 268.218C99.6861 266.976 100.593 265.714 101.834 264.128C103.007 262.626 104.231 261.175 105.384 259.821C105.715 259.431 106.05 259.049 106.391 258.676C106.625 258.419 106.729 258.074 106.673 257.729C106.608 257.387 106.398 257.093 106.091 256.933L105.835 256.802C105.395 256.567 104.867 256.645 104.521 256.988L103.91 257.592C102.76 258.727 101.41 260.076 100.161 261.484C98.8395 262.966 97.8569 264.236 97.0777 265.46C96.8402 265.833 96.5225 266.308 96.3706 266.794ZM88.5362 255.849C88.6323 255.898 88.7246 255.961 88.813 256.037C89.6117 256.688 90.3543 257.383 91.1387 258.11C91.6014 258.549 92.069 258.997 92.553 259.413C92.8747 259.702 93.1915 259.982 93.5209 260.244C93.5258 260.253 93.554 260.283 93.586 260.299C93.6142 260.329 93.6511 260.354 93.688 260.379C93.7677 260.46 93.8464 260.519 93.9426 260.569L94.2156 260.771C94.6031 261.034 95.0032 261.279 95.4024 261.502C95.5674 261.593 95.7276 261.675 95.8965 261.752C96.2305 261.92 96.6183 261.898 96.9232 261.727C97.0452 261.659 97.1488 261.578 97.2377 261.471L98.1027 260.461C98.73 259.722 99.428 258.966 100.293 258.059C100.532 257.811 100.651 257.47 100.599 257.133C100.557 256.791 100.346 256.497 100.052 256.318C97.3069 254.742 94.6744 252.897 92.2235 250.825C91.9816 250.617 91.6604 250.534 91.3406 250.575C91.0343 250.621 90.7478 250.804 90.572 251.062L90.4764 251.219C89.8197 252.192 89.1154 253.1 88.2301 254.156C88.0184 254.411 87.9224 254.751 87.9863 255.07C88.0463 255.402 88.238 255.684 88.5362 255.849Z" fill="#1E1E1E"/>
<path d="M120.57 180.345L121.049 173.387C119.176 171.838 116.933 170.873 115.106 169.242C113.941 168.2 112.821 166.608 113.068 164.983C113.359 163.048 115.175 162.41 116.826 161.967C118.194 161.591 119.581 161.33 120.97 161.034C122.334 160.752 123.875 160.542 125.163 159.982C126.126 159.558 126.756 157.902 127.238 157.026C127.961 155.742 128.624 154.411 129.191 153.053C129.987 151.121 132.595 150.509 133.774 152.515L136.637 157.41C136.879 157.824 137.311 158.76 137.546 158.995C137.733 159.187 138.089 159.251 138.349 159.369C138.505 159.442 138.634 159.53 138.772 159.613C138.772 159.613 138.78 159.608 138.785 159.617C139.095 159.639 139.376 159.733 139.647 159.89C139.683 159.893 139.728 159.891 139.755 159.899C139.885 159.906 140.016 159.936 140.147 159.965C140.179 159.982 140.206 159.989 140.238 160.006C140.576 159.977 140.931 159.916 141.273 159.873C142.401 159.723 143.529 159.572 144.658 159.422C146.625 159.157 148.674 161.145 147.407 163.112C146.114 165.115 144.21 166.477 142.776 168.331C142.173 169.114 142.14 169.361 142.369 170.262C142.655 171.406 142.94 172.551 143.137 173.721C143.508 175.961 144.052 178.631 142.92 180.739C142.266 181.962 141.048 182.792 139.648 182.66C138.517 182.56 137.394 182.044 136.359 181.605C135.876 181.395 135.393 181.185 134.93 180.951C134.711 180.845 134.118 180.399 133.869 180.424C133.287 180.486 132.33 181.353 131.822 181.671C130.687 182.363 129.538 183.028 128.375 183.667C127.285 184.276 126.14 185.031 124.932 185.386C123.653 185.758 122.216 185.395 121.316 184.4C120.246 183.283 120.466 181.775 120.57 180.345Z" fill="#A1A1E6"/>
<path d="M290.559 341.006L291.642 334.116C289.911 332.411 287.761 331.256 286.089 329.47C285.015 328.334 284.035 326.654 284.425 325.053C284.881 323.151 286.754 322.676 288.433 322.375C289.825 322.127 291.238 321.977 292.641 321.806C294.025 321.643 295.583 321.569 296.907 321.127C297.905 320.797 298.669 319.194 299.233 318.361C300.063 317.136 300.842 315.879 301.519 314.571C302.48 312.716 305.129 312.328 306.128 314.437L308.55 319.564C308.753 319.997 309.103 320.973 309.317 321.229C309.492 321.437 309.837 321.529 310.08 321.677C310.219 321.76 310.346 321.859 310.472 321.957L310.486 321.956C310.793 322.001 311.069 322.126 311.321 322.308C311.356 322.313 311.392 322.318 311.435 322.329C311.564 322.35 311.693 322.384 311.823 322.433C311.853 322.445 311.889 322.464 311.911 322.484C312.251 322.492 312.603 322.456 312.948 322.442C314.084 322.393 315.22 322.345 316.362 322.289C318.344 322.203 320.215 324.351 318.773 326.207C317.311 328.086 315.298 329.278 313.707 331.002C313.037 331.729 312.989 331.979 313.129 332.89C313.307 334.06 313.498 335.215 313.592 336.405C313.774 338.671 314.074 341.375 312.768 343.378C312.005 344.543 310.726 345.25 309.34 345.01C308.217 344.817 307.147 344.204 306.153 343.671C305.692 343.423 305.231 343.176 304.783 342.899C304.577 342.77 304.024 342.281 303.769 342.282C303.19 342.29 302.163 343.074 301.621 343.341C300.426 343.923 299.23 344.491 298.019 345.032C296.876 345.541 295.679 346.201 294.435 346.447C293.129 346.704 291.72 346.218 290.919 345.15C289.986 343.898 290.334 342.42 290.559 341.006Z" fill="#A1A1E6"/>
<path d="M149.658 162.516L143.619 169.552C143.377 169.836 143.292 170.215 143.389 170.572C143.681 171.667 143.925 172.8 144.141 173.8C144.567 175.747 144.959 177.574 145.72 179.345C145.735 179.371 145.755 179.428 145.772 179.499C145.881 179.918 145.875 180.379 145.73 180.815C145.526 181.432 145.054 181.959 144.455 182.237C144.162 182.366 143.932 182.426 143.683 182.451C143.313 182.486 142.926 182.428 142.563 182.288L133.997 178.831C133.66 178.699 133.282 178.739 132.969 178.937L131.021 180.198C130.96 180.232 130.89 180.271 130.802 180.297C130.086 180.572 129.226 181.201 128.392 181.816C127.004 182.832 125.103 184.238 123.437 183.774C123.129 183.695 122.809 183.531 122.6 183.362C122.54 183.315 122.479 183.269 122.407 183.241C121.272 182.663 121.398 181.151 121.72 178.924C121.773 178.529 121.828 178.155 121.868 177.858C121.871 177.845 121.875 177.831 121.87 177.823L122.224 173.485L122.287 172.718C122.319 172.345 122.164 171.986 121.876 171.758L121.44 171.407C121.134 171.166 120.879 170.955 120.605 170.731C120.595 170.713 120.506 170.637 120.488 170.624C119.768 169.849 118.925 169.199 118.03 168.499C116.511 167.335 114.995 166.159 113.985 164.413C113.96 164.37 113.958 164.325 113.934 164.281C113.863 164.093 113.831 163.893 113.871 163.699C113.956 163.297 114.148 162.926 114.425 162.623C114.442 162.613 114.446 162.6 114.464 162.59C114.779 162.254 115.188 162.025 115.639 161.91L124.689 159.687C124.98 159.615 125.222 159.434 125.376 159.177C126.475 157.339 127.238 154.979 127.972 152.693L128.79 150.372C128.998 149.844 129.376 149.415 129.855 149.147C130.143 148.986 130.465 148.887 130.798 148.849C131.697 148.758 132.547 149.175 133.02 149.94L137.56 157.283C138.585 158.951 141.341 158.829 144.012 158.696C145.029 158.654 146.063 158.602 146.986 158.657L148.007 158.704C148.912 158.747 149.687 159.275 150.042 160.094C150.396 160.891 150.248 161.832 149.658 162.516ZM146.132 160.668C145.479 160.667 144.779 160.703 144.088 160.735C140.944 160.88 137.412 161.048 135.76 158.358L132.132 152.483C131.905 152.118 131.48 151.91 131.054 151.965C130.622 152.012 130.257 152.32 130.124 152.737L129.952 153.268C129.092 155.944 128.209 158.68 126.743 160.825C126.693 160.899 126.638 160.964 126.561 161.03C126.277 161.28 125.924 161.467 125.562 161.555L117.939 163.426C117.537 163.525 117.229 163.834 117.123 164.237C117.016 164.64 117.147 165.058 117.451 165.335C118.029 165.858 118.691 166.368 119.28 166.828C120.156 167.493 121.138 168.248 121.858 169.046C121.896 169.093 121.938 169.127 121.98 169.161L124.421 171.113C124.463 171.147 124.483 171.204 124.481 171.262L123.938 177.982C123.903 178.287 123.849 178.661 123.803 179.029L123.791 179.151C123.748 179.483 123.679 179.933 123.636 180.346C123.592 180.76 123.781 181.158 124.126 181.387C124.472 181.617 124.92 181.641 125.278 181.442C125.866 181.124 126.761 180.475 127.172 180.165C128.109 179.47 129.026 178.797 129.786 178.521C129.861 178.49 129.944 178.455 130.009 178.408L132.221 176.965C132.733 176.633 133.314 176.526 133.876 176.611C134.028 176.515 134.189 176.414 134.341 176.317C135.366 176.556 136.33 177.012 137.268 177.483C138.599 178.145 139.918 178.826 141.236 179.507L141.619 179.659C141.942 179.787 142.294 179.762 142.581 179.601C142.66 179.558 142.725 179.51 142.793 179.449C143.111 179.157 143.224 178.705 143.098 178.295C142.648 176.877 142.349 175.443 142.081 174.186L142.043 174.036C141.805 172.956 141.571 171.841 141.246 170.707C141.154 170.358 141.154 169.97 141.231 169.617C141.246 169.541 141.287 169.472 141.315 169.399C141.289 169.311 141.262 169.223 141.231 169.126C141.225 169.095 141.214 169.055 141.203 169.015C141.241 168.96 141.287 168.9 141.326 168.867C141.462 168.722 141.599 168.577 141.74 168.441C142.013 168.151 142.29 167.87 142.559 167.594C142.665 167.478 142.785 167.365 142.905 167.252L146.971 162.497C147.256 162.167 147.319 161.708 147.14 161.305C146.961 160.924 146.57 160.674 146.132 160.668Z" fill="#1E1E1E"/>
<path d="M322.125 325.868L315.38 332.229C315.36 332.251 315.334 332.281 315.314 332.303C315.096 332.55 314.996 332.889 315.052 333.218C315.233 334.324 315.343 335.435 315.459 336.509C315.672 338.498 315.878 340.345 316.458 342.191C316.474 342.232 316.484 342.281 316.495 342.344C316.564 342.778 316.507 343.234 316.314 343.649C316.039 344.246 315.523 344.709 314.893 344.924C314.58 345.021 314.349 345.057 314.101 345.051C313.733 345.045 313.352 344.948 313.009 344.764L304.851 340.427C304.536 340.255 304.14 340.251 303.818 340.42L301.754 341.473C301.685 341.505 301.609 341.531 301.518 341.558C300.78 341.745 299.859 342.289 298.971 342.81C297.483 343.679 295.448 344.865 293.84 344.242C293.543 344.126 293.242 343.939 293.053 343.746C292.993 343.693 292.941 343.647 292.875 343.601C291.807 342.91 292.097 341.421 292.649 339.231C292.746 338.85 292.836 338.477 292.903 338.19C292.902 338.175 292.909 338.168 292.908 338.154L293.714 333.883L293.859 333.131C293.929 332.766 293.807 332.392 293.543 332.132L293.137 331.733C292.911 331.506 292.647 331.246 292.383 330.973L292.307 330.893C291.644 330 290.863 329.256 290.037 328.472C288.67 327.169 287.281 325.847 286.468 324.009C286.452 323.968 286.448 323.911 286.431 323.87C286.377 323.675 286.365 323.478 286.431 323.283C286.563 322.893 286.789 322.547 287.097 322.273C287.111 322.258 287.125 322.257 287.138 322.242C287.48 321.946 287.914 321.756 288.37 321.693L297.599 320.434C297.901 320.394 298.16 320.237 298.344 319.999C299.632 318.287 300.638 316.019 301.607 313.824L302.659 311.609C303.069 310.799 303.894 310.303 304.814 310.303C305.712 310.312 306.521 310.814 306.903 311.618L310.64 319.401C311.484 321.174 314.245 321.337 316.921 321.491C317.971 321.554 318.972 321.613 319.872 321.756L320.885 321.906C321.784 322.034 322.501 322.655 322.765 323.502C323.029 324.334 322.774 325.255 322.125 325.868ZM318.807 323.653C318.174 323.585 317.478 323.543 316.804 323.507C313.632 323.326 310.104 323.111 308.749 320.274L305.751 314.05C305.564 313.659 305.167 313.414 304.722 313.42C304.291 313.426 303.897 313.69 303.723 314.083L303.493 314.599C302.363 317.158 301.196 319.803 299.514 321.781C299.454 321.848 299.387 321.909 299.313 321.963C299.001 322.18 298.635 322.322 298.263 322.381L290.486 323.444C290.079 323.498 289.736 323.78 289.596 324.164C289.451 324.554 289.534 324.988 289.807 325.296C290.316 325.866 290.902 326.424 291.465 326.963C292.261 327.72 293.162 328.57 293.803 329.443C293.841 329.49 293.872 329.531 293.917 329.57L296.138 331.775C296.183 331.815 296.194 331.878 296.19 331.927L294.941 338.553C294.875 338.854 294.784 339.213 294.692 339.572L294.658 339.701C294.6 339.917 294.482 340.412 294.383 340.871C294.295 341.272 294.441 341.695 294.761 341.965C295.082 342.235 295.517 342.301 295.903 342.136C296.565 341.855 297.494 341.317 297.931 341.064C298.914 340.494 299.897 339.911 300.691 339.706C300.774 339.687 300.85 339.661 300.926 339.621L303.278 338.423C303.799 338.151 304.397 338.107 304.965 338.249C305.129 338.168 305.294 338.087 305.451 338C306.441 338.342 307.359 338.901 308.242 339.455C309.5 340.248 310.739 341.077 311.977 341.892L312.342 342.082C312.722 342.285 313.194 342.249 313.532 341.988C313.599 341.941 313.646 341.889 313.699 341.829C313.93 341.568 314.029 341.215 313.951 340.866C313.656 339.406 313.503 337.952 313.368 336.673L313.344 336.505C313.228 335.416 313.101 334.278 312.896 333.124C312.839 332.766 312.879 332.389 312.999 332.042C313.023 331.97 313.069 331.904 313.107 331.831C313.094 331.739 313.067 331.649 313.055 331.558C313.045 331.523 313.043 331.481 313.041 331.453C313.087 331.4 313.134 331.348 313.174 331.317C313.329 331.188 313.477 331.065 313.624 330.929C313.927 330.677 314.23 330.425 314.533 330.173C314.661 330.073 314.789 329.974 314.91 329.867L319.448 325.565C319.769 325.263 319.875 324.81 319.737 324.395C319.613 323.992 319.242 323.704 318.807 323.653Z" fill="#1E1E1E"/>
</svg>
