<svg width="71" height="53" viewBox="0 0 71 53" fill="none" xmlns="http://www.w3.org/2000/svg">
<path fill-rule="evenodd" clip-rule="evenodd" d="M66.6239 48.5043C71.2424 43.6963 70.3521 36.3261 69.5041 29.7133C68.6079 22.7249 67.6076 15.1819 61.833 11.1452C55.5041 6.721 46.9622 5.87056 39.9161 9.02982C33.1395 12.0682 30.1678 19.3609 27.8059 26.4019C25.3003 33.8717 21.6262 42.6944 26.5644 48.8336C31.3784 54.8184 40.5791 51.8929 48.2595 51.8298C54.8044 51.776 62.0898 53.2245 66.6239 48.5043Z" fill="#D0E3FF"/>
<path d="M34.6691 16.7355C36.1687 15.832 39.0569 15.5378 40.7065 16.2627C40.8288 16.1461 40.9865 16.0683 41.1576 16.0401C41.3287 16.0119 41.5049 16.0346 41.6618 16.1051C45.4164 17.4761 46.9105 22.5924 45.0832 25.8596C43.1725 29.2687 36.8797 29.5366 33.9415 27.2726C30.4701 24.62 30.8756 19.0309 34.6691 16.7355ZM38.4348 25.1715C40.0011 25.1452 41.2119 23.1071 41.3396 21.8885C41.3396 21.8307 41.3396 21.7782 41.3396 21.7204C41.12 21.1713 40.8447 20.6435 40.5176 20.1445C39.6112 19.6424 38.535 19.49 37.5128 19.7191C37.2661 19.7771 37.034 19.8807 36.8297 20.0237C35.5133 21.8727 35.9132 25.2135 38.4348 25.1715Z" fill="#7469F6"/>
<path d="M29.6258 21.1216C29.6242 20.8626 29.6596 20.6046 29.7313 20.3547C29.7678 20.1764 29.8524 20.0102 29.977 19.8721C30.1016 19.734 30.2619 19.6288 30.4423 19.5668C30.5934 19.5239 30.7515 19.5079 30.9088 19.5195H31.1976C31.2784 19.5182 31.3558 19.4882 31.4143 19.4354C31.4143 19.3934 31.3032 19.2989 31.2421 19.2411C31.1993 19.2102 31.1602 19.1749 31.1254 19.136C30.9405 18.9221 30.8235 18.6629 30.7881 18.3886C30.7527 18.1143 30.8004 17.8362 30.9255 17.5864C31.1514 17.1536 31.478 16.7746 31.8808 16.4781C32.2713 16.1582 32.6812 15.86 33.1083 15.5851C33.2474 15.4799 33.4112 15.4078 33.586 15.375C33.7753 15.3657 33.9645 15.3968 34.1394 15.4659C34.3144 15.535 34.4707 15.6404 34.5968 15.7742L34.7468 15.895L34.9023 16.0001C34.9084 15.9419 34.9177 15.884 34.93 15.8267C34.967 15.5341 35.0754 15.2536 35.2467 15.0073C35.4661 14.7473 35.7477 14.5403 36.0683 14.4033C36.3888 14.2663 36.7393 14.2033 37.0906 14.2194C37.5509 14.2237 38.0106 14.25 38.468 14.2982H38.5458L39.1012 14.3454C39.8455 14.398 39.9233 15.1386 39.9788 15.6271C39.9855 15.7493 40.0041 15.8706 40.0344 15.9896C40.0344 16.0158 40.0343 16.0369 40.0677 16.0369C40.2011 15.9834 40.3179 15.8984 40.4065 15.79C40.5436 15.6423 40.7095 15.521 40.8952 15.4328C41.0922 15.3636 41.3046 15.3427 41.5124 15.3721C41.7203 15.4015 41.9168 15.4802 42.0838 15.6009C42.4667 15.8524 42.8091 16.1549 43.1003 16.4991C43.1892 16.5989 43.2836 16.6882 43.3836 16.788C43.625 16.9988 43.8311 17.2433 43.9945 17.5129C44.1343 17.744 44.2079 18.0057 44.2079 18.2719C44.2079 18.5382 44.1343 18.7998 43.9945 19.031L43.9167 19.1308L43.8501 19.2148C43.7779 19.3041 43.6779 19.4302 43.689 19.4775C43.7182 19.5077 43.7546 19.5311 43.7951 19.5457C43.8356 19.5603 43.8792 19.5657 43.9223 19.5615H44.1334C44.3043 19.5438 44.4772 19.5545 44.6443 19.593C44.8258 19.6514 44.9895 19.7508 45.1211 19.8827C45.2528 20.0145 45.3484 20.1747 45.3997 20.3494C45.4837 20.6419 45.5174 20.9451 45.4997 21.2477V22.7867C45.5279 23.1155 45.4463 23.4444 45.2664 23.727C45.1241 23.8852 44.9456 24.0108 44.7446 24.0945C44.5435 24.1782 44.3251 24.2178 44.1056 24.2103H43.839C43.8001 24.2103 43.7001 24.2103 43.6779 24.2103C43.675 24.2952 43.7068 24.378 43.7668 24.4414C43.8081 24.4895 43.8527 24.5351 43.9001 24.578L43.9445 24.6252C44.103 24.7564 44.225 24.9224 44.2999 25.1085C44.3481 25.3131 44.344 25.5256 44.288 25.7284C44.232 25.9312 44.1257 26.1185 43.9778 26.2746C43.7223 26.6161 43.4224 26.9522 43.1558 27.2674C42.8579 27.6332 42.4787 27.9327 42.045 28.1446C41.6949 28.2911 41.3013 28.3153 40.9341 28.2129C40.7726 28.1626 40.6234 28.0823 40.4953 27.9765C40.4464 27.9372 40.4 27.8951 40.3565 27.8505C40.298 27.7858 40.2286 27.7307 40.151 27.6876C40.0801 27.7544 40.0402 27.8451 40.0399 27.9398C40.0399 27.9923 40.0399 28.0501 40.0399 28.1026C40.0494 28.3312 39.9938 28.5579 39.8788 28.7592C39.8568 28.7824 39.8364 28.807 39.8177 28.8327C39.4428 28.9956 39.0523 29.124 38.6514 29.2162L36.6296 29.3108H36.4297C36.3217 29.3105 36.2139 29.3017 36.1075 29.2845H36.0131C35.8793 29.2644 35.7516 29.2174 35.6385 29.1467C35.5255 29.0761 35.4297 28.9833 35.3577 28.8748C35.2362 28.6572 35.186 28.4103 35.2133 28.1656V28.0448C35.2133 27.8767 35.1633 27.7402 35.0967 27.7191C35.03 27.6981 34.8801 27.8084 34.7357 27.9188C34.6285 28.0342 34.4959 28.126 34.3472 28.1877C34.1984 28.2494 34.0372 28.2796 33.8748 28.2759C33.7113 28.2499 33.557 28.1868 33.4249 28.0921C32.7295 27.6565 32.077 27.1624 31.4754 26.616C30.67 25.8912 30.7755 25.3396 30.9199 25.077C31.0166 24.911 31.1425 24.7618 31.2921 24.6357C31.4421 24.4939 31.542 24.3941 31.5198 24.3311C31.4976 24.268 31.4031 24.226 31.2532 24.205H31.0699C30.8789 24.2029 30.6902 24.1655 30.5145 24.0947C30.3884 24.0394 30.2766 23.9587 30.1868 23.8583C29.9615 23.5792 29.8299 23.2425 29.8091 22.8918C29.7065 22.3062 29.6453 21.7149 29.6258 21.1216ZM31.0588 22.8288H31.1644C31.399 22.8125 31.6346 22.8434 31.8558 22.9194C32.0769 22.9955 32.2785 23.1149 32.4473 23.27C32.6253 23.4169 32.7673 23.5987 32.8632 23.8029C32.9592 24.007 33.0068 24.2285 33.0028 24.4519C32.9474 24.7132 32.8077 24.9518 32.6029 25.1348C32.4362 25.3239 32.3307 25.4447 32.364 25.5602C32.4146 25.6752 32.4948 25.7763 32.5973 25.8544C32.7555 25.9814 32.9205 26.1006 33.0916 26.2116C33.3418 26.3656 33.5761 26.5414 33.7915 26.7369C34.1166 26.4869 34.4958 26.3076 34.9023 26.2116C35.0958 26.2262 35.2844 26.2761 35.4577 26.3587L35.5799 26.4059C35.7976 26.4601 35.9927 26.5754 36.1395 26.7368C36.2863 26.8981 36.3778 27.0978 36.4019 27.3094C36.4077 27.4074 36.4077 27.5056 36.4019 27.6036C36.3964 27.6753 36.3964 27.7473 36.4019 27.8189C36.3969 27.8485 36.3969 27.8787 36.4019 27.9082C36.4019 27.9082 36.4519 27.9345 36.6074 27.9345C37.2184 27.9345 37.8405 27.8925 38.4514 27.8294C38.459 27.4987 38.568 27.1772 38.7652 26.9039C38.9624 26.6307 39.2393 26.4175 39.5623 26.2904C39.8102 26.1744 40.0933 26.1446 40.362 26.2063C40.5848 26.2924 40.7773 26.4363 40.9175 26.6213C41.0174 26.7316 41.1452 26.8682 41.2063 26.8682L41.2785 26.8367C41.8259 26.5574 42.2872 26.1483 42.6171 25.6495C42.6725 25.5797 42.7105 25.4989 42.7281 25.4132C42.7281 25.3396 42.6448 25.2608 42.506 25.1453C42.3671 25.0297 42.3727 25.0244 42.3171 24.9614C42.1727 24.8112 42.0817 24.6221 42.0568 24.4205C42.0319 24.2188 42.0744 24.0149 42.1783 23.8373L42.2116 23.7428C42.2554 23.603 42.3209 23.4702 42.406 23.3488C42.6058 23.1187 42.8928 22.9716 43.2058 22.9391H43.4057C43.5535 22.9348 43.6989 22.9026 43.8334 22.8445C43.9502 22.7628 44.0344 22.6462 44.0723 22.5136C44.1615 22.2373 44.1923 21.9471 44.1627 21.6595C44.1332 21.372 44.0439 21.0928 43.9001 20.8379C43.8334 20.7329 43.6557 20.7224 43.3446 20.7119C42.9503 20.7119 42.2894 20.6699 42.1394 20.0133C42.0812 19.8631 42.0475 19.7055 42.0394 19.5457C42.0438 19.2987 42.1001 19.0549 42.205 18.8285C42.3099 18.6022 42.4612 18.3978 42.6504 18.2273C42.2332 17.7688 41.7842 17.3371 41.3063 16.9351C41.2657 16.9148 41.2228 16.899 41.1785 16.8878C41.0563 16.8878 40.9564 16.9824 40.7953 17.1137C40.5728 17.3414 40.2669 17.4805 39.9399 17.5024C39.6681 17.4921 39.4047 17.4105 39.1791 17.2667C38.9535 17.123 38.7746 16.9226 38.6625 16.6882C38.5676 16.3627 38.4989 16.0308 38.457 15.6954L37.9404 15.6587C37.4183 15.6114 36.7685 15.5536 36.6019 15.7112C36.4465 15.9042 36.3315 16.1235 36.2631 16.3573C36.0798 16.8458 35.8521 17.4551 35.0189 17.5077C34.8085 17.5409 34.5925 17.5038 34.408 17.4026C34.2722 17.3166 34.1506 17.2122 34.0469 17.0927C33.9588 16.9884 33.8539 16.898 33.7359 16.8248C33.3874 16.9657 33.0731 17.1727 32.8123 17.4328C32.5515 17.693 32.3498 18.0009 32.2196 18.3376C32.2872 18.4359 32.3675 18.5258 32.4585 18.6055C32.5951 18.7025 32.7076 18.8266 32.7882 18.969C32.8688 19.1115 32.9155 19.2689 32.925 19.4302C32.9102 19.5675 32.8688 19.701 32.8028 19.8241C32.7856 19.8582 32.7708 19.8933 32.7584 19.9292L32.725 20.0238C32.6833 20.1819 32.6077 20.3303 32.5029 20.4597C32.3966 20.5581 32.2707 20.6352 32.1323 20.6867C31.994 20.7381 31.8461 20.7627 31.6975 20.7592C31.5923 20.7673 31.4882 20.7849 31.3865 20.8117C31.2198 20.859 31.0255 20.9798 30.9977 21.463V21.5786C30.9533 21.9963 30.9776 22.4181 31.0699 22.8288H31.0588Z" fill="black"/>
<path d="M35.5576 19.1465C35.7648 18.9968 35.9929 18.8748 36.2353 18.7841C36.4685 18.6945 36.7131 18.6345 36.9628 18.6055C37.4855 18.5494 38.0148 18.5991 38.5156 18.7513C39.0164 18.9034 39.4773 19.1545 39.8677 19.488C40.2937 19.8483 40.6182 20.3032 40.8119 20.8117C40.9414 21.1482 41.0053 21.5041 41.0007 21.8622C40.9899 22.0764 40.9583 22.2891 40.9063 22.4978C40.7658 23.0436 40.4812 23.5468 40.079 23.9602C39.6768 24.3736 39.1703 24.6838 38.6069 24.8616C38.3836 24.9385 38.1529 24.9948 37.9181 25.0297C37.7343 25.0557 37.5486 25.068 37.3627 25.0665C36.5575 25.0699 35.7782 24.7975 35.1689 24.2995C35.0237 24.1726 34.895 24.0298 34.7856 23.8741C34.6859 23.734 34.6021 23.5843 34.5357 23.4276C34.5338 23.4119 34.5338 23.396 34.5357 23.3803C34.0691 22.1354 34.058 20.2811 35.5576 19.1465ZM35.8464 22.3875C35.8812 22.5907 35.9629 22.784 36.0858 22.9538C36.2087 23.1236 36.3697 23.2657 36.5574 23.3698C36.6849 23.4472 36.8233 23.5073 36.9684 23.5484C37.131 23.5923 37.2992 23.6153 37.4683 23.6167C37.8786 23.5886 38.2747 23.4626 38.6195 23.2504C38.9644 23.0381 39.2466 22.7467 39.44 22.4033C39.5944 22.1125 39.6449 21.7823 39.5838 21.4621C39.5227 21.1419 39.3533 20.8492 39.1012 20.6278C38.6739 20.2441 38.1127 20.0218 37.5238 20.0027C37.3086 19.9991 37.095 20.0384 36.8969 20.1181C36.6989 20.1977 36.5207 20.3159 36.3741 20.465C36.0315 20.8542 35.8361 21.3403 35.8187 21.8465C35.8067 22.0272 35.816 22.2087 35.8464 22.3875Z" fill="black"/>
<path d="M19.1672 26.1748C19.2527 26.0381 19.3713 25.9225 19.5133 25.8375C19.6552 25.7526 19.8165 25.7008 19.9837 25.6863C19.9297 25.3148 19.9566 24.9368 20.0626 24.5755C20.1686 24.2142 20.3516 23.8772 20.6002 23.5852C20.7292 23.4577 20.8927 23.3663 21.073 23.3209C21.2533 23.2755 21.4433 23.2779 21.6222 23.3278C21.7675 23.3754 21.9057 23.4407 22.0332 23.5221C22.4669 23.0356 23.0095 22.6463 23.6217 22.3823C23.8005 22.3317 23.9907 22.3291 24.1711 22.3745C24.3515 22.4199 24.5151 22.5117 24.6437 22.6397C24.8504 22.8884 24.9862 23.1832 25.038 23.4959C25.1213 23.4959 25.2657 23.4959 25.5046 23.5274H25.8489C26.0357 23.4063 26.2629 23.3539 26.4877 23.3803C26.7933 23.3722 27.0931 23.46 27.3403 23.6301C27.5875 23.8003 27.7681 24.043 27.854 24.3206C28.0261 24.9351 27.5485 25.4394 27.5651 26.0382C27.7286 26.0456 27.8874 26.0931 28.0256 26.176C28.1639 26.2588 28.277 26.3743 28.3539 26.511C28.5125 26.7439 28.5889 27.0185 28.5719 27.2951C28.5549 27.5717 28.4455 27.8361 28.2594 28.0501C28.075 28.2641 27.8622 28.4548 27.6263 28.6174C27.6319 28.7101 27.6319 28.8031 27.6263 28.8958C27.6727 29.1071 27.6727 29.3253 27.6263 29.5366C27.6018 29.8324 27.4563 30.1075 27.2208 30.3035C27.234 30.4328 27.234 30.563 27.2208 30.6922C27.1097 31.3961 26.0544 31.6115 25.5212 31.2175C25.3894 31.3662 25.2316 31.4923 25.0547 31.5905C24.5827 31.8821 24.0232 32.0204 23.4607 31.9844C22.8386 31.8741 22.5886 31.5747 22.5386 31.2018C22.1474 31.2723 21.7426 31.2226 21.3834 31.0599C21.2135 30.9785 21.0668 30.8595 20.9557 30.7132C20.7107 30.7239 20.4688 30.6575 20.2679 30.5244C20.0669 30.3914 19.9182 30.1992 19.8449 29.9779C19.796 29.7551 19.781 29.527 19.8004 29.3002L19.706 29.2267C19.5051 29.0998 19.3379 28.9309 19.2172 28.7329C19.0889 28.5896 19.0062 28.4149 18.9787 28.2289C18.9511 28.043 18.9799 27.8535 19.0617 27.6824C18.9506 27.4414 18.9022 27.1788 18.9206 26.9164C18.9389 26.6541 19.0235 26.3998 19.1672 26.1748ZM24.3104 29.1059C24.494 28.9748 24.7037 28.8801 24.9269 28.8275C25.0242 28.5706 25.2234 28.3596 25.4823 28.2392C25.4908 28.1168 25.5189 27.9964 25.5656 27.882C25.6661 27.6891 25.7972 27.5119 25.9545 27.3567L26.0044 27.3147C25.931 27.2603 25.864 27.1987 25.8045 27.1308C25.4403 26.8097 25.2231 26.3668 25.1991 25.8964C25.2123 25.7437 25.2537 25.5944 25.3213 25.4552C25.0158 25.4552 24.6437 25.4919 24.5492 25.4552C24.1492 25.4556 23.7597 25.334 23.4384 25.1085C23.2119 25.27 23.0228 25.4738 22.883 25.7073C22.7671 25.9194 22.5675 26.0797 22.3276 26.1538C22.4443 26.4575 22.4443 26.7904 22.3276 27.0941C22.2046 27.2765 22.0441 27.4337 21.8555 27.5563C21.8612 27.6884 21.8404 27.8202 21.7944 27.945C21.912 28.0603 22.0111 28.1913 22.0887 28.3337C22.1096 28.3766 22.1282 28.4204 22.1443 28.465C22.2697 28.5024 22.3892 28.5554 22.4997 28.6226C22.6286 28.7034 22.7399 28.8068 22.8275 28.9273C23.0111 28.8987 23.1968 28.8829 23.3829 28.88C23.7074 28.8791 24.0267 28.9569 24.3104 29.1059Z" fill="#7469F6"/>
<path d="M18.1787 26.6738C18.1826 26.4964 18.2087 26.3201 18.2565 26.1485C18.2829 26.0224 18.3432 25.9049 18.4318 25.8073C18.5203 25.7097 18.634 25.6355 18.7619 25.5917C18.8865 25.5589 19.0164 25.5482 19.1451 25.5602H19.2951H19.3506C19.3886 25.552 19.4232 25.5338 19.4506 25.5077C19.4431 25.4871 19.4297 25.4689 19.4117 25.4552L19.3229 25.3711L19.2229 25.2818C19.0933 25.1297 19.011 24.9463 18.9855 24.7523C18.96 24.5584 18.9922 24.3616 19.0785 24.184C19.2376 23.8787 19.4696 23.6125 19.7561 23.4066C20.0344 23.1799 20.3254 22.9677 20.6281 22.771C20.7046 22.7105 20.7938 22.6659 20.8896 22.6399C20.9855 22.6138 21.086 22.607 21.1848 22.6199C21.2837 22.6327 21.3786 22.665 21.4634 22.7145C21.5483 22.764 21.6214 22.8298 21.6778 22.9075L21.8278 23.0231L21.8944 23.0651C21.8968 23.0372 21.8968 23.0091 21.8944 22.9811C21.9174 22.7612 21.9976 22.55 22.1277 22.3665C22.2826 22.1816 22.4816 22.0342 22.7086 21.9365C22.9355 21.8388 23.1839 21.7935 23.433 21.8045C23.7578 21.8075 24.0823 21.8268 24.4049 21.8622H24.4605L24.8437 21.899C25.3492 21.9358 25.3992 22.4243 25.4547 22.7657V22.8025C25.4625 22.8889 25.4755 22.9748 25.4935 23.0599V23.0914C25.5874 23.0538 25.6697 22.9941 25.7324 22.9181C25.8208 22.822 25.9284 22.7435 26.049 22.6869C26.1881 22.6379 26.3381 22.6232 26.4849 22.6444C26.6317 22.6655 26.7703 22.7218 26.8876 22.8077C27.1565 22.9851 27.3977 23.1973 27.6042 23.4381C27.6708 23.5116 27.7375 23.5747 27.8097 23.6429C27.9796 23.7965 28.1238 23.9736 28.2373 24.1682C28.3348 24.3279 28.3862 24.5091 28.3862 24.6935C28.3862 24.8779 28.3348 25.0591 28.2373 25.2188C28.2373 25.2608 28.1762 25.2976 28.1429 25.3396C28.1096 25.3816 28.0207 25.4919 28.0263 25.5287C28.048 25.5492 28.0741 25.565 28.1028 25.575C28.1316 25.5849 28.1623 25.5889 28.1929 25.5865H28.4039C28.5035 25.574 28.6043 25.574 28.7039 25.5865C28.8352 25.6237 28.9547 25.6912 29.0517 25.7828C29.1486 25.8745 29.22 25.9876 29.2593 26.1118C29.3208 26.3183 29.3452 26.5332 29.3315 26.7474V27.8347C29.3482 28.0679 29.2901 28.3004 29.1648 28.5018C29.0857 28.5951 28.9873 28.6722 28.8755 28.7282C28.7638 28.7842 28.6411 28.818 28.5151 28.8275C28.3949 28.8367 28.2742 28.8367 28.154 28.8275C28.154 28.8275 28.0541 28.8275 28.043 28.8275C28.0429 28.8868 28.0645 28.9443 28.104 28.9903L28.1984 29.0901L28.3262 29.2162C28.3947 29.288 28.4475 29.3719 28.4817 29.4631C28.5151 29.6078 28.5119 29.7579 28.4723 29.9012C28.4328 30.0445 28.358 30.177 28.254 30.2878C28.0707 30.5294 27.8763 30.7658 27.6986 30.9916C27.4858 31.2501 27.2143 31.4601 26.9043 31.6062C26.7268 31.6891 26.5279 31.7223 26.3311 31.7018C26.1343 31.6813 25.9477 31.6081 25.7935 31.4907L25.699 31.4014L25.6435 31.3488C25.6179 31.3232 25.5878 31.3019 25.5546 31.2858C25.5546 31.2858 25.5102 31.3278 25.488 31.3909V31.4644C25.488 31.5012 25.488 31.5432 25.488 31.58C25.4961 31.7431 25.4558 31.905 25.3714 32.0475C25.2757 32.154 25.1552 32.2379 25.0192 32.2927C24.8833 32.3474 24.7357 32.3713 24.5882 32.3626L23.0775 32.4309H22.9386C22.7935 32.4482 22.6462 32.428 22.5122 32.3725C22.3783 32.317 22.2627 32.2283 22.1777 32.1158C22.0892 31.9541 22.0526 31.7715 22.0722 31.5905V31.5064C22.082 31.4578 22.082 31.4079 22.0722 31.3593C22.0701 31.3423 22.0641 31.3259 22.0545 31.3114C22.0448 31.2969 22.0319 31.2845 22.0166 31.2753C22.0166 31.2753 21.9611 31.2753 21.9222 31.3016C21.8656 31.3363 21.8118 31.3749 21.7611 31.4171C21.6847 31.4985 21.5905 31.5632 21.485 31.6067C21.3795 31.6503 21.2653 31.6716 21.1502 31.6693C21.0356 31.6485 20.9273 31.6036 20.8336 31.5379C20.3429 31.2264 19.882 30.8749 19.4561 30.4874C18.9007 29.9621 18.9563 29.5839 19.0563 29.3948C19.1233 29.2777 19.2116 29.1728 19.3173 29.0849C19.3784 29.0218 19.4284 28.9746 19.4561 28.9378C19.4646 28.9157 19.4646 28.8916 19.4561 28.8695C19.4561 28.8695 19.4228 28.8275 19.3839 28.8117C19.3472 28.7951 19.3078 28.7844 19.2673 28.7802H19.134C18.9967 28.7776 18.8611 28.7508 18.7341 28.7014C18.5787 28.6141 18.4505 28.4893 18.3627 28.3398C18.2748 28.1903 18.2305 28.0214 18.2343 27.8505C18.1915 27.4596 18.173 27.0667 18.1787 26.6738ZM20.1782 28.1919C20.3049 28.2954 20.4062 28.4237 20.4753 28.5679C20.5443 28.7121 20.5794 28.8688 20.5781 29.0271C20.5363 29.2112 20.4378 29.3793 20.2948 29.5104C20.1726 29.6469 20.1005 29.731 20.1227 29.8098C20.1585 29.892 20.2158 29.9643 20.2893 30.0199C20.3995 30.1093 20.5144 30.1935 20.6336 30.272C20.8154 30.3832 20.9831 30.5136 21.1335 30.6607C21.3615 30.4863 21.6268 30.3608 21.9111 30.293C22.0521 30.3033 22.1897 30.339 22.3166 30.3981L22.3999 30.4296C22.548 30.4743 22.6793 30.5586 22.7778 30.6723C22.8764 30.7861 22.938 30.9243 22.9553 31.0704C22.9609 31.1386 22.9609 31.2071 22.9553 31.2753C22.9553 31.3278 22.9553 31.3804 22.9553 31.4329C22.9497 31.4536 22.9497 31.4752 22.9553 31.4959C22.9553 31.4959 22.9886 31.4959 23.0997 31.4959C23.534 31.4925 23.9678 31.468 24.3994 31.4224C24.4046 31.1903 24.4801 30.9645 24.617 30.7717C24.7538 30.579 24.9462 30.4274 25.1714 30.335C25.3435 30.2542 25.5403 30.2337 25.7268 30.2773C25.8892 30.3362 26.03 30.4384 26.1323 30.5714C26.1989 30.645 26.2878 30.7395 26.3322 30.7448H26.3878C26.7737 30.5485 27.0992 30.2607 27.332 29.9096C27.3697 29.8591 27.3961 29.8019 27.4098 29.7415C27.4098 29.689 27.3542 29.6364 27.2542 29.5524C27.1543 29.4683 27.1543 29.4631 27.1154 29.4211C27.0144 29.3145 26.9511 29.1809 26.9342 29.0387C26.9172 28.8966 26.9475 28.753 27.0209 28.6279V28.5596C27.0532 28.4611 27.0999 28.3674 27.1598 28.2812C27.2993 28.1216 27.498 28.0183 27.7152 27.9923H27.8541C27.9582 27.9915 28.0609 27.9681 28.154 27.924C28.2401 27.8701 28.3015 27.7876 28.3262 27.6929C28.4515 27.2973 28.4076 26.871 28.204 26.5057C28.1596 26.4375 28.0318 26.4269 27.8263 26.4164C27.6208 26.4059 27.0821 26.3902 26.9765 25.9279C26.935 25.8199 26.9107 25.7066 26.9043 25.5917C26.9128 25.2398 27.0686 24.9054 27.3376 24.662C27.0434 24.3372 26.726 24.0318 26.3878 23.748L26.2989 23.7165C26.2101 23.7165 26.1379 23.7795 26.0268 23.8741C25.8693 24.0357 25.653 24.1351 25.4213 24.1525C25.2287 24.1446 25.0423 24.0864 24.8825 23.9844C24.7227 23.8825 24.5958 23.7406 24.516 23.5747C24.4494 23.3438 24.4011 23.1085 24.3716 22.8708L24.0051 22.8445C23.6385 22.813 23.1774 22.771 23.0608 22.8813C22.9508 23.0176 22.8697 23.1728 22.822 23.3383C22.6943 23.685 22.5332 24.1157 21.9389 24.1525C21.7899 24.1751 21.6371 24.1491 21.5057 24.0789C21.41 24.0171 21.3239 23.9428 21.2501 23.8583C21.1865 23.787 21.1138 23.7235 21.0336 23.6692C20.789 23.7666 20.5679 23.9099 20.3837 24.0905C20.1994 24.2711 20.0558 24.4852 19.9616 24.7198C20.0093 24.7901 20.0673 24.8538 20.1338 24.9089C20.2861 24.9933 20.3968 25.1314 20.4416 25.2929C20.4863 25.4544 20.4615 25.6261 20.3726 25.7703L20.3393 25.8439V25.9122C20.3117 26.0233 20.2586 26.1273 20.1838 26.2168C20.1107 26.2855 20.024 26.3399 19.9287 26.3768C19.8334 26.4138 19.7314 26.4326 19.6284 26.4322C19.5552 26.4384 19.4827 26.4507 19.4117 26.469C19.2895 26.5005 19.1507 26.5898 19.134 26.9312V27.01C19.0858 27.3024 19.0858 27.6001 19.134 27.8925H19.2062C19.3816 27.8712 19.5597 27.8871 19.7278 27.9389C19.8959 27.9906 20.0497 28.0771 20.1782 28.1919Z" fill="black"/>
<path d="M22.3774 25.2765C22.5259 25.1754 22.6861 25.0908 22.8551 25.0244C23.0204 24.9603 23.1942 24.9179 23.3717 24.8983C23.7415 24.8586 24.116 24.8937 24.4704 25.0015C24.8247 25.1093 25.1507 25.2872 25.4267 25.5234C25.6798 25.7317 25.8824 25.9892 26.0205 26.2785C26.1585 26.5677 26.2288 26.8817 26.2265 27.199C26.2217 27.3515 26.1993 27.5029 26.1599 27.6508C26.0592 28.0363 25.8573 28.3915 25.5728 28.6835C25.2883 28.9755 24.9305 29.1948 24.5325 29.3212C24.3742 29.3757 24.2104 29.4144 24.0437 29.4367C23.919 29.4576 23.7927 29.4682 23.666 29.4683C23.0995 29.4752 22.5493 29.2887 22.1164 28.943C21.9134 28.7599 21.7543 28.5378 21.6499 28.2916C21.4259 27.7797 21.3756 27.2146 21.5059 26.6745C21.6363 26.1343 21.9408 25.6459 22.3774 25.2765ZM22.644 26.7473C22.5918 26.8897 22.5601 27.0381 22.5496 27.1885C22.5474 27.3171 22.5585 27.4455 22.5829 27.572C22.6066 27.7154 22.6637 27.8521 22.7502 27.972C22.8367 28.092 22.9503 28.1922 23.0828 28.2654C23.1731 28.3221 23.2725 28.3647 23.3772 28.3914C23.4909 28.4229 23.6087 28.4388 23.7271 28.4387C24.017 28.4189 24.2969 28.33 24.5407 28.1802C24.7844 28.0305 24.9842 27.8249 25.1212 27.5825C25.2326 27.3774 25.2695 27.1435 25.2263 26.9166C25.1832 26.6897 25.0623 26.4826 24.8824 26.3271C24.5832 26.0541 24.187 25.8967 23.7715 25.8858C23.6183 25.8826 23.4662 25.9105 23.3253 25.9676C23.1845 26.0246 23.0583 26.1096 22.9551 26.2168C22.8639 26.3189 22.7873 26.4319 22.7273 26.5529C22.6939 26.6154 22.666 26.6804 22.644 26.7473Z" fill="black"/>
<path d="M0.521948 2.55287C0.532454 2.19152 0.619997 1.8359 0.779385 1.50735C0.938773 1.17879 1.16674 0.884058 1.44952 0.640845C1.8173 0.40522 2.2495 0.275658 2.69365 0.267895L3.97663 0.178598L6.61487 0C6.83583 0 7.04774 0.0830166 7.20399 0.230781C7.36023 0.378545 7.448 0.578953 7.448 0.787924C7.44238 0.995218 7.35279 1.19256 7.19775 1.33918C7.04271 1.48581 6.83406 1.57053 6.61487 1.57585L4.35435 1.73343L3.16574 1.81223L2.64918 1.849H2.59365H2.527H2.47703V1.88051L2.3937 2.01183V2.0381C2.39502 2.05208 2.39502 2.06614 2.3937 2.08012C2.3937 2.19568 2.32704 2.31124 2.30482 2.42681L2.27153 2.5949C2.27338 2.62639 2.27338 2.65796 2.27153 2.68945L2.00494 4.89038C2.00494 5.09935 1.91717 5.29977 1.76093 5.44753C1.60468 5.59529 1.39277 5.67831 1.17181 5.67831C0.950853 5.67831 0.738938 5.59529 0.582697 5.44753C0.426455 5.29977 0.338685 5.09935 0.338685 4.89038C0.355347 4.14448 0.438635 3.34605 0.521948 2.55287Z" fill="#7469F6"/>
<path d="M42.4336 1.33948L57.1411 1.37099C59.646 1.37099 59.646 5.04797 57.1411 5.04797L42.4336 5.01646C39.9564 5.01646 39.9287 1.33948 42.4336 1.33948Z" fill="#7469F6"/>
<path d="M49.5375 6.13538C49.7584 6.13538 49.9704 6.21839 50.1266 6.36616C50.2828 6.51392 50.3706 6.71433 50.3706 6.9233C50.3706 7.13227 50.2828 7.33268 50.1266 7.48045C49.9704 7.62821 49.7584 7.71122 49.5375 7.71122C49.3165 7.71122 49.1046 7.62821 48.9484 7.48045C48.7921 7.33268 48.7044 7.13227 48.7044 6.9233C48.7044 6.71433 48.7921 6.51392 48.9484 6.36616C49.1046 6.21839 49.3165 6.13538 49.5375 6.13538Z" fill="black"/>
<path d="M51.9979 6.06702C52.2189 6.06702 52.4307 6.15003 52.587 6.29779C52.7432 6.44556 52.8311 6.64597 52.8311 6.85494C52.8311 7.06391 52.7432 7.26432 52.587 7.41209C52.4307 7.55985 52.2189 7.64286 51.9979 7.64286C51.777 7.64286 51.5651 7.55985 51.4088 7.41209C51.2526 7.26432 51.1648 7.06391 51.1648 6.85494C51.1648 6.64597 51.2526 6.44556 51.4088 6.29779C51.5651 6.15003 51.777 6.06702 51.9979 6.06702Z" fill="black"/>
<path d="M0.138577 41.0455C0.521816 40.037 1.51596 39.559 2.51572 39.2071C2.0973 30.0181 2.0973 20.8274 2.51572 11.635C2.63791 8.94204 2.79526 6.25084 2.98781 3.56139C2.99781 3.43914 3.03636 3.32049 3.10063 3.214C3.1649 3.1075 3.25334 3.0158 3.35955 2.94548C3.46577 2.87516 3.58716 2.82797 3.71496 2.80731C3.84277 2.78665 3.97376 2.79303 4.09864 2.826C19.0394 2.44779 33.9802 2.33048 48.9209 2.47406C53.1717 2.51258 57.417 2.57386 61.6566 2.6579C61.828 2.65996 61.9946 2.71126 62.1344 2.80498C62.2367 2.80548 62.3379 2.8258 62.4316 2.86467C62.5253 2.90355 62.6096 2.96016 62.6793 3.03102C62.7491 3.10189 62.8027 3.1855 62.837 3.27671C62.8712 3.36793 62.8854 3.46481 62.8786 3.56139C62.6009 12.9534 62.6009 22.349 62.8786 31.748C62.9453 34.0803 63.0304 36.4126 63.1341 38.7448C64.4393 39.4907 64.1783 41.471 62.9564 42.2905C62.0601 42.7892 61.0413 43.0572 60.0015 43.0679C58.774 43.1782 57.541 43.2045 56.308 43.2045C51.0815 43.2045 45.855 43.1099 40.623 43.1362C30.1256 43.194 19.6393 43.5091 9.153 43.9293C7.77557 43.9871 6.37587 44.0239 5.0151 43.9819C3.8154 43.9451 2.33801 43.9819 1.22718 43.5039C0.744057 43.3076 0.36047 42.9415 0.157356 42.4828C-0.0457535 42.0242 -0.0524826 41.5088 0.138577 41.0455ZM61.018 11.5562C61.0513 9.10487 61.1031 6.66231 61.1734 4.2285C46.3623 3.94485 31.5641 3.91683 16.7789 4.14445C12.7058 4.20749 8.64383 4.28978 4.59298 4.39133C3.9598 13.5733 3.73951 22.7675 3.93206 31.9739C3.9876 34.4007 4.07089 36.8293 4.18197 39.2596C11.3802 39.1545 18.5766 39.06 25.7711 38.9759H25.8267C26.0002 39.0028 26.1633 39.0716 26.3005 39.1755C26.4377 39.2795 26.5442 39.4152 26.6098 39.5695C26.6492 39.6625 26.6772 39.7594 26.6931 39.8584H27.2485C27.7484 39.8584 28.2482 39.8427 28.7481 39.8111C29.7034 39.7744 30.6588 39.7113 31.6141 39.6535C32.5694 39.5958 33.5247 39.5537 34.4801 39.5432C34.9744 39.5432 35.4742 39.5432 35.9741 39.5432C36.2185 39.5432 36.5962 39.622 36.9184 39.6273V39.4907C36.9212 39.3702 36.9527 39.2518 37.0106 39.1443C37.0684 39.0369 37.151 38.9431 37.2523 38.8699C37.3537 38.7968 37.4712 38.7462 37.596 38.7218C37.7209 38.6974 37.85 38.6999 37.9737 38.729L38.3513 38.7868L48.471 38.6555L61.2012 38.5032C61.2715 38.4977 61.3421 38.4977 61.4123 38.5032C61.0346 29.5454 60.9032 20.563 61.018 11.5562ZM1.67147 41.9175C1.82143 42.2117 2.42128 42.2169 2.7101 42.2537C3.32661 42.3272 3.94873 42.364 4.56524 42.3903C6.70916 42.4848 8.84748 42.364 10.9858 42.2747C15.407 42.0856 19.83 41.9333 24.2548 41.8177C33.1008 41.5866 41.9523 41.506 50.8094 41.5761C53.2421 41.5761 55.6804 41.6811 58.1076 41.6023C59.2316 41.6369 60.3547 41.5129 61.4401 41.2346C61.79 41.1138 62.201 40.9247 62.2787 40.5465C62.2814 40.5309 62.2814 40.5149 62.2787 40.4993C62.1843 40.3095 62.0158 40.1619 61.8086 40.0874C61.6014 40.0129 61.3716 40.0175 61.1679 40.1L38.3957 40.3837C38.3202 40.6546 38.145 40.8912 37.9015 41.0508C37.346 41.3607 36.6184 41.1664 36.0352 41.1454C34.5404 41.106 33.0445 41.1375 31.553 41.2399C30.0978 41.324 28.6482 41.4238 27.1874 41.4448C26.632 41.4448 25.8766 41.5708 25.3823 41.2977C25.2673 41.2343 25.1678 41.1487 25.0903 41.0464C25.0128 40.9441 24.9589 40.8274 24.9324 40.7041C24.9324 40.6516 24.9324 40.6043 24.9324 40.557C21.9776 40.5938 19.0172 40.6253 16.0457 40.6673L3.32111 40.8459C3.16765 40.8444 3.01764 40.8026 2.88787 40.7251C2.37133 40.93 1.38265 41.345 1.67147 41.9175Z" fill="black"/>
<path d="M31.4752 5.50493C31.5854 5.47629 31.7 5.46563 31.814 5.47342C31.9767 5.48621 32.1353 5.52904 32.2806 5.59948H32.325C32.4671 5.62686 32.597 5.69468 32.6972 5.79384C32.8068 5.90061 32.8886 6.03011 32.936 6.17204C33.0109 6.37257 33.0109 6.59134 32.936 6.79187C32.8834 6.92724 32.8042 7.05199 32.7027 7.15957C32.6274 7.23879 32.5393 7.30617 32.4416 7.35918C32.3455 7.41375 32.2404 7.45281 32.1306 7.47474C32.011 7.50362 31.8872 7.51426 31.764 7.50626C31.6448 7.50152 31.5269 7.48029 31.4141 7.44323C31.2515 7.39185 31.1007 7.31162 30.9698 7.20685C30.8662 7.11709 30.7844 7.0073 30.7297 6.88493C30.6751 6.76256 30.649 6.63049 30.6532 6.49772C30.6641 6.27197 30.7492 6.05505 30.8965 5.87713C31.0439 5.6992 31.2461 5.56911 31.4752 5.50493Z" fill="black"/>
<path d="M54.7528 6.13538C54.9738 6.13538 55.1857 6.21839 55.3419 6.36616C55.4982 6.51392 55.5859 6.71433 55.5859 6.9233C55.5859 7.13227 55.4982 7.33268 55.3419 7.48045C55.1857 7.62821 54.9738 7.71122 54.7528 7.71122C54.5319 7.71122 54.3199 7.62821 54.1637 7.48045C54.0075 7.33268 53.9197 7.13227 53.9197 6.9233C53.9197 6.71433 54.0075 6.51392 54.1637 6.36616C54.3199 6.21839 54.5319 6.13538 54.7528 6.13538Z" fill="black"/>
<path d="M57.2468 6.83394C57.2468 6.62497 57.3346 6.42456 57.4908 6.2768C57.647 6.12903 57.859 6.04602 58.0799 6.04602C58.3009 6.04602 58.5128 6.12903 58.669 6.2768C58.8253 6.42456 58.913 6.62497 58.913 6.83394C59.2167 16.4536 59.1204 26.0698 58.6242 35.6825C58.5687 36.733 56.9024 36.7593 56.958 35.6825C57.4541 26.0768 57.5504 16.4606 57.2468 6.83394Z" fill="black"/>
<path d="M6.88683 9.11364C6.93682 8.09984 8.60863 8.09459 8.55309 9.11364C8.08654 18.2536 7.9329 27.4005 8.09212 36.5544C8.09212 37.5682 6.42586 37.5682 6.42586 36.5544C6.26294 27.404 6.41658 18.2571 6.88683 9.11364Z" fill="black"/>
<path d="M5.8872 22.0882C5.98182 21.8621 6.15924 21.6756 6.38709 21.5629C6.5452 21.4863 6.72038 21.4467 6.89803 21.4474C6.9981 21.3479 7.12474 21.2758 7.26456 21.2388C7.40437 21.2019 7.55219 21.2013 7.69231 21.2372C8.03109 21.3455 8.33521 21.5334 8.57615 21.7834C8.81709 22.0333 8.98693 22.337 9.06974 22.666C9.19301 23.0045 9.19804 23.3715 9.08404 23.713C8.97004 24.0544 8.74304 24.3521 8.43655 24.5623C8.23408 24.6712 8.0026 24.7223 7.77008 24.7094C7.5114 24.6907 7.25971 24.6209 7.03133 24.5045C6.74764 24.3797 6.49428 24.2009 6.28709 23.9792C6.04521 23.7212 5.88373 23.4048 5.82055 23.0652C5.7411 22.7404 5.76428 22.4007 5.8872 22.0882Z" fill="#7469F6"/>
<path d="M5.32073 22.2195C5.46398 21.722 5.7886 21.2885 6.23718 20.9956C6.60734 20.7849 7.01623 20.6423 7.4424 20.5753C7.58371 20.5448 7.73074 20.547 7.87096 20.5818C8.01118 20.6165 8.14048 20.6828 8.24779 20.775C8.31262 20.7905 8.3758 20.8116 8.43662 20.838C9.34195 21.2162 9.6419 22.209 9.70855 23.0599C9.7542 23.4867 9.65289 23.9159 9.41972 24.2838C9.13933 24.6661 8.71689 24.9343 8.23667 25.035C7.8169 25.1464 7.3738 25.1531 6.95044 25.0547C6.52708 24.9562 6.13787 24.7558 5.82062 24.4729C5.53632 24.1714 5.3405 23.8047 5.25279 23.4093C5.16508 23.0139 5.18853 22.6036 5.32073 22.2195ZM7.909 24.184L8.17003 24.1263C8.19993 24.1164 8.22805 24.1022 8.25335 24.0842C8.42666 23.9528 8.54318 23.766 8.58103 23.559C8.58933 23.4225 8.58933 23.2857 8.58103 23.1492V22.9811C8.52294 22.6878 8.445 22.3983 8.34773 22.1144C8.32956 22.0766 8.30917 22.0398 8.28664 22.0041C8.20085 21.9293 8.10344 21.8673 7.99781 21.8203C7.79295 21.721 7.56055 21.6843 7.3327 21.7153C7.10484 21.7464 6.89283 21.8436 6.72595 21.9936C6.53971 22.1691 6.41552 22.3948 6.37048 22.6397C6.32686 22.8849 6.34203 23.1362 6.41489 23.3751C6.47594 23.5808 6.60189 23.7641 6.77592 23.9004C6.97463 24.0348 7.20215 24.1263 7.4424 24.1683H7.50904C7.6419 24.181 7.77548 24.1863 7.909 24.184Z" fill="black"/>
</svg>
