<svg width="68" height="66" viewBox="0 0 68 66" fill="none" xmlns="http://www.w3.org/2000/svg">
<path fill-rule="evenodd" clip-rule="evenodd" d="M56.3947 41.4969C54.0115 47.7233 46.964 50.0568 40.6198 52.1059C33.9152 54.2714 26.6645 56.5789 20.5528 53.0735C13.8545 49.2316 9.44699 41.8654 9.30444 34.1448C9.16734 26.7194 14.4998 20.9247 19.8644 15.789C25.5556 10.3406 31.9734 3.25873 39.6311 5.11199C47.0962 6.91864 48.368 16.4891 51.582 23.465C54.3208 29.4095 58.7342 35.3842 56.3947 41.4969Z" fill="#D0E3FF"/>
<path d="M63.339 23.9695C62.8098 24.3957 62.6162 25.2094 62.7453 25.9198C63.0034 27.3018 64.4491 28.2252 65.7012 27.8959C66.9533 27.5665 67.8439 26.1264 67.76 24.7186C67.7536 24.5572 67.7277 24.3957 67.6955 24.2408C67.4502 23.0267 66.566 21.9934 65.4882 21.5995C64.2684 21.1539 62.8614 21.4897 61.8482 22.3551C61.9192 22.2905 59.97 19.9398 59.7829 19.7332C59.4021 19.3134 59.0084 18.913 58.6018 18.5256C58.363 18.2995 58.1565 18.0283 57.879 17.8669C57.6724 17.7442 57.4272 17.6796 57.1884 17.7248C56.956 17.77 56.7366 17.9314 56.6398 18.1704C56.3752 18.8032 57.1109 19.1649 57.4465 19.5071C57.8338 19.9075 58.2017 20.3273 58.5566 20.7664C59.2666 21.6447 59.9184 22.5811 60.5703 23.511C60.7768 23.8016 60.9962 24.1116 61.3125 24.2278C61.9321 24.4668 62.5452 23.9049 63.1196 23.5498C63.7844 23.1365 64.6298 22.9879 65.3204 23.3496C66.011 23.7112 66.4499 24.6605 66.153 25.4354C65.8561 26.2104 64.746 26.4622 64.2878 25.7906C64.9461 25.8552 65.4108 24.8801 65.0752 24.2601C64.7395 23.6466 63.8683 23.5433 63.339 23.9695Z" fill="black"/>
<path d="M35.335 49.1616C35.3802 49.1616 35.4125 49.1487 35.4448 49.1357C35.5287 49.1422 35.619 49.1486 35.7029 49.1616C35.7223 49.1616 35.7352 49.1745 35.7546 49.1745C35.8126 49.1809 35.8707 49.181 35.9288 49.181C36.045 48.8516 36.0385 48.4641 36.0708 48.1089C36.6452 48.1606 37.3358 48.6191 37.9425 48.7483C39.2591 49.0324 40.6015 49.1551 41.9439 49.1035C43.2799 49.0453 44.6223 48.8258 45.9131 48.4447C46.5585 48.251 47.1975 48.0186 47.8171 47.7409C48.1269 47.6052 48.4366 47.4567 48.74 47.3017C48.9013 47.2177 49.0627 47.1338 49.2176 47.0434C49.2628 47.0951 49.3144 47.1403 49.3789 47.179C49.437 47.9798 49.8888 48.6514 50.489 49.0841C50.6697 49.0776 50.8569 49.0776 51.057 49.0776C51.2506 49.0841 51.4377 49.0841 51.6185 49.0776C51.8379 49.0711 52.0702 49.0647 52.2897 49.0453C52.309 49.0453 52.3219 49.0324 52.3413 49.0324C52.4252 49.026 52.5156 49.0195 52.5995 49.0066C52.6317 49.0195 52.6705 49.0324 52.7092 49.0324C53.9032 49.026 55.0778 48.9226 56.2653 48.8839C56.6784 48.6062 56.9882 48.18 57.1818 47.6957C57.6852 46.4235 57.4464 44.7961 57.5626 43.4399C57.5755 43.3043 57.5884 43.1687 57.64 43.0395C57.7175 42.8393 57.8853 42.6973 58.0402 42.5617C58.7501 41.9611 59.4407 41.3993 60.0409 40.6695C60.7444 39.8171 61.3511 38.8678 61.8416 37.8474C62.5838 36.2976 63.1388 34.5152 63.4293 32.7909C63.6939 31.2604 63.539 29.8203 63.2679 28.3156C63.184 27.8701 62.7 27.6117 62.3192 27.7215C61.8932 27.8507 61.6996 28.3156 61.7835 28.7612C61.9384 29.6008 62.0868 30.4403 62.0739 31.2992C62.061 32.0935 61.8674 32.8555 61.6609 33.6111C61.2865 34.9866 60.8864 36.3363 60.2087 37.5762C59.5956 38.7063 58.8211 39.7202 57.9176 40.5856C57.4851 40.9989 57.014 41.3347 56.5558 41.7092C55.9168 42.2258 55.962 43.2849 55.9426 44.0728C55.9168 45.4741 56.3041 47.4115 54.6454 47.715C53.7418 47.8765 52.7802 48.1025 51.8702 47.9023C51.6507 47.8571 51.4313 47.7796 51.2635 47.6246C50.5665 46.9853 50.844 45.5581 49.7791 45.2288C48.9981 44.9834 48.101 45.797 47.404 46.107C46.1326 46.6818 44.7772 47.0821 43.409 47.2759C42.0407 47.4696 40.6402 47.4761 39.272 47.2823C38.504 47.1726 37.6843 47.1015 36.9873 46.7076C36.3225 46.333 35.9482 45.0931 35.0704 45.7648C34.7477 46.0102 34.5735 46.4428 34.5154 46.869C34.4638 47.2952 34.5154 47.7344 34.5735 48.1606C33.2827 48.2252 31.9854 48.109 30.7204 47.8119C30.6559 47.799 30.5785 47.7731 30.5397 47.715C30.4946 47.6569 30.4946 47.573 30.4946 47.4955L30.501 45.1706C30.501 44.6992 30.4946 44.1438 30.2493 43.737C29.9847 43.2914 29.3974 43.0072 29.0037 42.7037C28.0098 41.9352 27.0159 41.1474 26.1639 40.1852C25.5573 39.4942 25.0345 38.7128 24.6085 37.8733C24.3891 37.447 24.2019 37.0079 24.0341 36.5494C23.8534 36.0586 23.6985 35.6324 23.1951 35.4838C22.9369 35.4063 22.6594 35.4128 22.3883 35.4193L21.3493 35.4451C21.3041 35.4451 21.2524 35.4451 21.2137 35.4128C21.1815 35.387 21.1685 35.3483 21.1556 35.3095C21.0201 34.9414 20.9168 34.5733 20.8523 34.1858C20.8329 34.0631 20.678 32.7199 20.7426 32.7134C21.0717 32.6941 21.4009 32.481 21.4654 32.1064C21.6461 31.099 21.8527 30.098 22.085 29.1035C22.1754 28.7096 21.9947 28.2575 21.6461 28.1025C21.7107 27.8894 21.7752 27.6763 21.8398 27.4632C21.9624 27.0628 22.0334 26.5849 22.298 26.2556C22.8272 25.6098 23.7308 26.501 24.3762 26.2556C24.6343 26.1587 24.828 25.9133 24.957 25.6486C25.1442 25.2675 25.2281 24.8413 25.4411 24.4732C25.7573 23.9243 26.0607 23.3625 26.3898 22.8265C27.2288 21.451 28.1518 20.1335 29.1586 18.9001C29.2102 18.8355 29.2618 18.7774 29.307 18.7128C29.7136 18.2156 30.1589 17.6925 30.2751 17.0402C30.3526 16.6205 30.288 16.1813 30.217 15.7616C29.9331 14.1665 29.5006 12.5972 28.9133 11.1055C30.0557 10.8665 31.3078 11.409 31.9919 12.4422C32.4824 13.1784 32.6889 14.1148 33.2052 14.8252C33.7216 15.5356 34.8058 15.923 35.3544 15.232C35.3931 15.1868 35.5738 16.6592 35.5738 16.7884C35.5738 17.3373 35.6319 17.8668 36.0127 18.2737C36.1999 18.4803 36.4903 18.5966 36.742 18.4997C36.9744 18.4093 37.1228 18.1574 37.1809 17.8927C37.3874 16.8659 37.0195 15.471 36.8066 14.47C36.6775 13.8759 36.5226 13.2947 36.3354 12.7199C36.2644 12.5004 35.8901 11.0667 35.7029 11.028C37.0583 11.2669 38.2845 12.2679 38.8654 13.6305C39.1106 14.1923 39.2849 14.8639 39.7754 15.1739C40.2659 15.4839 41.1049 14.9414 40.8209 14.399C41.7439 14.3021 42.6668 14.2375 43.5962 14.2569C43.7317 14.2569 43.8737 14.2634 43.9963 14.2052C44.1318 14.1407 44.2351 14.005 44.3319 13.8823C44.5707 13.553 44.7514 13.0041 44.3448 12.7329C44.2093 12.6424 44.0479 12.6037 43.893 12.5843C43.2218 12.481 42.5183 12.5391 41.8471 12.6295C41.5438 12.6683 41.2469 12.7264 40.95 12.791C40.8468 12.8168 40.3821 12.9847 40.3175 12.862C39.201 10.8407 37.2196 9.16166 35.0769 9.38123C34.5348 9.43935 33.8958 9.74286 33.8506 10.3434C33.8313 10.5824 33.9216 10.8213 34.012 11.0409C34.3476 11.8933 34.6767 12.7393 35.0123 13.5917C34.8381 13.6628 34.6574 13.7338 34.4831 13.8113C33.9474 12.4552 33.1794 11.183 32.0822 10.3241C30.9915 9.46517 29.5458 9.07125 28.2615 9.51684C27.9065 9.63954 27.5451 9.8591 27.416 10.2401C27.3127 10.5565 27.3902 10.9053 27.4676 11.2282C27.9323 13.0945 28.397 14.9608 28.8552 16.8271C26.8093 19.1197 25.0603 21.7222 23.6727 24.5443C23.7179 24.4539 22.5691 24.4345 22.4658 24.4538C22.0398 24.5507 21.6397 24.7767 21.317 25.0932C20.5683 25.8229 20.3231 27.0693 20.0326 28.0702C19.8003 28.8646 19.5809 29.6718 19.4324 30.4919C19.1484 32.0418 19.0775 33.6692 19.4841 35.2062C19.6777 35.9359 19.9423 36.8594 20.6909 37.0918C21.0459 37.2016 21.4525 37.15 21.8204 37.15C22.0786 37.15 22.3367 37.15 22.5949 37.1435C23.1564 38.674 23.9567 40.0818 24.9893 41.2894C26.0994 42.5875 27.4547 43.5626 28.7649 44.6023C28.823 44.6475 28.8811 44.6992 28.9198 44.7702C28.9585 44.8477 28.9585 44.9381 28.9585 45.0286C28.9521 45.8487 28.9456 46.6688 28.9391 47.489C28.9327 48.251 29.0747 48.716 29.4167 49.0195C29.662 49.013 29.9008 49.0066 30.146 48.9937C31.8886 48.9356 33.5989 49.1551 35.335 49.1616Z" fill="black"/>
<path d="M64.6104 23.1881C64.6813 23.2075 64.6491 23.1946 64.6104 23.1881V23.1881Z" fill="black"/>
<path d="M28.0743 26.6302C27.7322 26.6431 27.3579 26.7206 27.061 26.9337C26.7448 27.1662 26.4737 27.5084 26.3898 27.9217C26.3769 27.9992 26.364 28.0703 26.364 28.1477C26.222 28.4771 26.1897 28.8581 26.2607 29.2068C26.435 30.0528 27.2675 30.4467 27.9839 30.492C28.6681 30.5307 29.307 30.1561 29.7007 29.5556C30.075 28.9808 30.075 28.1994 29.7846 27.5859C29.4619 26.9014 28.7455 26.6043 28.0743 26.6302Z" fill="black"/>
<path d="M52.2833 16.2976C52.4317 16.1878 52.606 15.9424 52.4834 15.7164C52.3414 15.4516 52.0058 15.316 51.7347 15.2062L51.6637 15.1739C51.5282 15.5679 51.3991 15.9618 51.27 16.3557C51.5024 16.4461 51.9477 16.5494 52.2833 16.2976Z" fill="#A1A1E6"/>
<path d="M51.3602 12.5456C51.4119 12.41 51.457 12.2743 51.5087 12.1387C51.4893 12.1387 51.47 12.1387 51.457 12.1387C51.2441 12.1387 50.9407 12.1969 50.8891 12.5133C50.8504 12.7587 50.9214 13.0816 51.0698 13.3528C51.1666 13.0816 51.2634 12.8103 51.3602 12.5456Z" fill="#A1A1E6"/>
<path d="M48.7268 18.0929C49.0302 18.3447 49.3593 18.5578 49.6949 18.7386C50.1725 18.8678 50.6437 19.0034 51.1148 19.1584C51.302 19.2165 51.4956 19.2811 51.6892 19.3522C51.9474 19.378 52.1926 19.4103 52.4314 19.4232C52.4443 19.4232 52.4508 19.4232 52.4637 19.4296C53.4383 19.4942 54.0578 19.3457 54.6064 18.9259C55.2583 18.4287 56.1554 17.6537 56.3619 16.5882C56.4265 16.233 56.4652 15.8391 56.4652 15.4258C56.4652 14.7671 56.3748 14.0696 56.1941 13.3593C56.0005 12.5843 55.6907 11.874 55.2647 11.2476C54.9033 10.7116 54.4773 10.266 53.9998 9.91078C53.9481 9.88495 53.8965 9.85266 53.8449 9.82683C52.6444 9.2327 51.2439 8.65149 49.9918 9.33602C48.8753 9.94952 48.0814 11.1507 47.5845 12.3454C47.1004 13.5078 46.9714 14.851 47.236 16.0716C47.4683 16.6269 47.8039 17.1565 48.2299 17.6215C48.3912 17.7894 48.5526 17.9508 48.7268 18.0929ZM49.1141 15.3031C49.198 15.006 49.4432 14.8575 49.7208 14.9221C49.9725 14.9737 50.2113 15.1998 50.2048 15.5227L50.25 15.5808C50.2693 15.6001 50.2823 15.6195 50.3016 15.6454L50.3597 15.4774C50.4501 15.1998 50.5469 14.9156 50.6372 14.6379C50.5727 14.5863 50.5146 14.541 50.463 14.4829C50.1532 14.1665 49.9144 13.6886 49.8047 13.1397C49.6949 12.5972 49.7853 12.0483 50.0564 11.635C50.3145 11.2411 50.7211 10.9957 51.1987 10.944C51.4246 10.9182 51.6699 10.9376 51.928 10.9957C51.9603 10.8988 51.999 10.802 52.0313 10.7051C52.0829 10.5566 52.141 10.4016 52.1926 10.253C52.2701 10.0464 52.425 9.91077 52.6251 9.87848C52.8445 9.84619 53.0768 9.94306 53.2059 10.1239C53.3156 10.2789 53.335 10.4726 53.264 10.6663C53.2059 10.8149 53.1543 10.9699 53.1026 11.1184C53.0704 11.2153 53.0381 11.3057 52.9994 11.4025C53.3608 11.5963 53.619 11.8158 53.8061 12.0871C54.0062 12.3712 53.9804 12.7329 53.748 12.9395C53.6319 13.0428 53.4641 13.0945 53.3092 13.0751C53.1607 13.0557 53.0317 12.9847 52.9478 12.862C52.8639 12.7458 52.7541 12.6424 52.5928 12.5327C52.5347 12.6877 52.4766 12.8491 52.425 13.0041C52.2959 13.3528 52.1733 13.7015 52.0507 14.0503C52.1604 14.0955 52.2701 14.1342 52.3733 14.1859C52.9607 14.4636 53.4124 14.9285 53.5867 15.4322C53.7158 15.8003 53.6964 16.1749 53.5351 16.5494C53.0768 17.6279 51.9216 17.8346 51.0438 17.5698C50.9922 17.5569 50.947 17.5375 50.9018 17.5181L50.8889 17.5633C50.876 17.6085 50.8567 17.6602 50.8438 17.7054C50.7792 17.9121 50.6372 18.0477 50.4501 18.0864C50.4113 18.0929 50.3791 18.0993 50.3403 18.0993C50.1596 18.0993 49.9789 18.0089 49.8563 17.8604C49.7337 17.7054 49.7014 17.5052 49.7659 17.2986C49.7918 17.2146 49.824 17.1242 49.8498 17.0402C49.8692 16.9886 49.8886 16.9304 49.9015 16.8788C49.8692 16.853 49.8434 16.8271 49.8176 16.8013C49.4561 16.459 48.9205 15.9489 49.1141 15.3031Z" fill="#A1A1E6"/>
<path d="M48.5205 18.3964C48.3333 18.2414 48.1591 18.0735 47.9913 17.8927C47.6234 17.3502 47.3781 16.7303 47.2361 16.0716C46.8489 15.1352 46.7456 14.1148 46.978 13.1784C47.1458 12.5133 47.4362 11.8933 47.8235 11.1636C48.0752 10.6793 48.3656 10.1303 48.7335 9.7235C49.4692 8.91626 50.5729 8.84523 51.6442 8.77419C51.6507 8.77419 51.67 8.77419 51.6765 8.77419C51.7023 8.76773 51.7346 8.76774 51.7604 8.76128C51.8895 8.94856 52.0766 9.07771 52.2961 9.12292C52.9027 9.25208 53.4836 9.52976 54.0128 9.92369C54.5808 10.2143 55.11 10.5824 55.5553 11.0344C55.9942 11.6867 56.3363 12.4422 56.5428 13.2688C56.73 14.005 56.8203 14.7412 56.8203 15.4322C56.788 15.6324 56.7364 15.8326 56.6783 16.0328C56.8074 16.84 56.2911 17.3567 55.9878 18.0477C55.9103 18.2349 55.7619 18.3124 55.6005 18.3383C55.5553 18.3964 55.5231 18.4545 55.4779 18.5126C55.0455 18.997 54.4582 19.3069 53.8644 19.5265C53.5288 19.6492 53.1803 19.7267 52.8253 19.7784C53.5481 20.0625 54.2904 20.3919 55.0197 20.7858C56.1362 20.1723 57.1624 19.1132 57.6658 18.0347C58.1434 17.0015 58.2531 15.6001 58.0014 13.8759C57.5625 10.9247 55.7812 8.52234 53.3545 7.60532C53.0641 7.49554 52.7801 7.41158 52.5091 7.35346C52.3993 7.32762 52.2832 7.32762 52.1734 7.35346C52.0444 7.17909 51.8959 7.0887 51.7862 7.04996C51.67 7.00475 51.5539 6.99183 51.4441 7.00475C50.134 7.0887 48.869 7.23722 47.8493 8.16715C47.0103 8.92918 46.2616 10.182 45.6291 11.8998C45.5517 12.1129 45.4871 12.3325 45.429 12.5714C45.4161 12.6102 45.4161 12.6554 45.4161 12.6941C45.3903 12.7845 45.3645 12.8814 45.3387 12.9718L45.3838 12.9847C45.3774 12.9912 45.3709 13.0041 45.358 13.0105L45.3258 13.0041C45.3193 13.0234 45.3193 13.0428 45.3129 13.0622C45.3129 13.0687 45.3129 13.0816 45.3064 13.0945C45.2999 13.1139 45.2935 13.1332 45.287 13.1591C45.2225 13.4497 45.1773 13.7532 45.158 14.0632C45.158 14.0761 45.158 14.1084 45.158 14.1213C45.158 14.1536 45.158 14.1794 45.158 14.1923L45.1644 14.4571C45.1644 14.5346 45.1902 14.6056 45.229 14.6637C45.229 14.696 45.2354 14.7283 45.2354 14.7542C45.2419 14.8575 45.2612 14.9673 45.2741 15.0641C45.4161 16.1297 45.8098 17.1565 46.4165 18.0477C47.1522 18.1575 47.8815 18.2995 48.6044 18.4674C48.5786 18.4416 48.5463 18.4222 48.5205 18.3964Z" fill="black"/>
<path d="M55.4777 18.4997C55.5294 18.4416 55.5616 18.3835 55.6004 18.3254C55.7553 18.306 55.9037 18.222 55.9876 18.0347C56.2909 17.3438 56.8073 16.8207 56.6782 16.0199C56.7363 15.8197 56.7814 15.6195 56.8202 15.4193C56.8202 14.7283 56.7234 13.9921 56.5426 13.2559C56.3361 12.4293 55.9941 11.6673 55.5552 11.0215C55.1163 10.5695 54.5806 10.2014 54.0127 9.91078C54.4838 10.266 54.9162 10.7116 55.2777 11.2476C55.7036 11.874 56.0134 12.5843 56.207 13.3593C56.3877 14.0696 56.4781 14.7606 56.4781 15.4258C56.4781 15.8391 56.4458 16.233 56.3748 16.5882C56.1683 17.6473 55.2712 18.4287 54.6194 18.9259C54.0708 19.3457 53.4512 19.4942 52.4766 19.4296C52.4637 19.4296 52.4573 19.4296 52.4444 19.4232C52.2056 19.4103 51.9603 19.378 51.7021 19.3522C52.07 19.4813 52.4508 19.6169 52.838 19.7654C53.1866 19.7202 53.5351 19.6363 53.8771 19.5136C54.458 19.294 55.0453 18.9905 55.4777 18.4997Z" fill="black"/>
<path d="M48.7268 18.0929C48.5526 17.9508 48.3912 17.7894 48.2363 17.6215C47.8104 17.1565 47.4748 16.6334 47.2424 16.0716C47.378 16.7238 47.6297 17.3502 47.9975 17.8927C48.1589 18.0735 48.3396 18.2414 48.5268 18.3964C48.5526 18.4222 48.5849 18.4416 48.6171 18.461C48.985 18.5449 49.3464 18.6353 49.7079 18.7386C49.3593 18.5578 49.0302 18.3447 48.7268 18.0929Z" fill="black"/>
<path d="M49.8047 16.7948C49.8305 16.8207 49.8628 16.8465 49.8886 16.8723C49.8692 16.924 49.8499 16.9821 49.837 17.0338C49.8111 17.1177 49.7789 17.2017 49.7531 17.2921C49.6885 17.4987 49.7208 17.6989 49.8434 17.8539C49.9596 18.0025 50.1403 18.0929 50.3275 18.0929C50.3662 18.0929 50.3985 18.0864 50.4372 18.08C50.6243 18.0412 50.7663 17.9056 50.8309 17.6989C50.8438 17.6537 50.8631 17.6021 50.876 17.5569L50.889 17.5117C50.9341 17.531 50.9858 17.5504 51.0309 17.5633C51.9087 17.8281 53.064 17.6214 53.5222 16.543C53.6835 16.1684 53.6964 15.7939 53.5738 15.4258C53.3996 14.9285 52.9478 14.4636 52.3605 14.1794C52.2572 14.1342 52.1539 14.089 52.0378 14.0438C52.1604 13.6951 52.283 13.3464 52.4121 12.9976C52.4702 12.8426 52.5283 12.6812 52.5799 12.5262C52.7413 12.6295 52.851 12.7329 52.9349 12.8556C53.0188 12.9718 53.1479 13.0493 53.2963 13.0687C53.4576 13.088 53.6254 13.0364 53.7352 12.933C53.9675 12.7199 53.9869 12.3647 53.7932 12.0806C53.6061 11.8094 53.3479 11.5898 52.9865 11.3961C53.0188 11.2992 53.0575 11.2088 53.0898 11.1119C53.1414 10.9634 53.1995 10.8084 53.2511 10.6599C53.3221 10.4662 53.3027 10.2724 53.193 10.1174C53.0639 9.93661 52.8316 9.83328 52.6122 9.87203C52.4121 9.90432 52.2572 10.0399 52.1798 10.2466C52.1217 10.3951 52.07 10.5436 52.0184 10.6986C51.9861 10.7955 51.9474 10.8924 51.9151 10.9892C51.6505 10.9311 51.4117 10.9182 51.1858 10.9376C50.7082 10.9892 50.3016 11.2346 50.0435 11.6286C49.7724 12.0419 49.6821 12.5908 49.7918 13.1332C49.908 13.6822 50.1403 14.16 50.4501 14.4765C50.5082 14.5346 50.5663 14.5798 50.6243 14.6315C50.5275 14.9091 50.4372 15.1933 50.3468 15.471L50.2887 15.6389C50.2694 15.6195 50.2565 15.6001 50.2371 15.5743L50.1919 15.5162C50.1984 15.1868 49.9531 14.9673 49.7079 14.9156C49.4239 14.8575 49.1851 15.006 49.1012 15.2966C48.9205 15.9489 49.4562 16.459 49.8047 16.7948ZM51.6634 15.1804L51.7344 15.2127C52.0055 15.3224 52.3411 15.4581 52.4831 15.7228C52.6057 15.9489 52.4315 16.1943 52.283 16.304C51.9474 16.5559 51.5085 16.4526 51.2697 16.3686C51.3988 15.9682 51.5279 15.5743 51.6634 15.1804ZM50.889 12.5133C50.9406 12.1969 51.2439 12.1387 51.4569 12.1387C51.4763 12.1387 51.4956 12.1387 51.5085 12.1387C51.4569 12.2743 51.4117 12.41 51.3601 12.5456C51.2633 12.8168 51.1665 13.0816 51.0697 13.3528C50.9212 13.0816 50.8502 12.7587 50.889 12.5133Z" fill="black"/>
<path d="M31.9944 49.6911C33.1428 49.5038 34.6357 49.1939 35.9491 49.2068C35.9563 49.1939 35.9563 49.1874 35.9635 49.1745C35.9061 49.1745 35.8486 49.168 35.7912 49.168C35.7697 49.168 35.7553 49.1551 35.7338 49.1551C35.6477 49.1487 35.5615 49.1422 35.4754 49.1357C35.4395 49.1487 35.4036 49.1551 35.3606 49.1551C33.6021 49.1422 31.8581 48.9485 30.0996 49.0195C29.8556 49.026 29.6044 49.0389 29.3604 49.0453C29.6044 49.2391 29.9489 49.3618 30.4226 49.4586C30.9394 49.5555 31.4633 49.633 31.9944 49.6911Z" fill="black"/>
<path d="M31.9941 49.6911C32.8841 49.7944 33.7813 49.8461 34.6785 49.8203C35.023 49.8138 35.3962 49.788 35.6689 49.5749C35.8053 49.4716 35.8914 49.3424 35.9488 49.2003C34.6354 49.2003 33.1425 49.5038 31.9941 49.6911Z" fill="black"/>
<path d="M41.4468 17.7183C41.4468 17.8539 41.4855 18.5385 42.1567 18.5385H42.1632C42.2406 18.5385 42.3116 18.5385 42.3891 18.5385C44.8932 18.5385 47.3522 18.913 49.695 19.6492C51.8571 20.3273 54.0708 21.2249 55.6197 23.1429C55.794 23.356 55.9747 23.44 56.1877 23.3948C56.4652 23.3367 56.7234 23.059 56.8266 22.7361C56.8912 22.5294 56.9105 22.2194 56.6588 21.9095C55.8198 20.8633 54.7484 20.0819 53.6319 19.4749C53.5803 19.5007 53.5286 19.533 53.4835 19.5588C52.993 19.8042 52.4896 19.8623 52.012 19.8623C51.9216 19.8623 51.8312 19.8623 51.7409 19.8559C51.6763 19.8494 51.6183 19.8494 51.5537 19.8494L51.302 19.8365C51.2246 19.83 51.1471 19.8236 51.0761 19.8171C51.0374 19.8107 50.9922 19.7978 50.96 19.7784C50.1468 19.6686 49.2948 19.5007 48.5526 19.0422L48.4752 18.9905C47.9718 18.6805 47.4554 18.3641 46.9972 17.9637C46.7584 17.7119 46.539 17.4471 46.3518 17.1629C44.99 16.9563 43.6024 16.8594 42.1954 16.8659C41.4661 16.8659 41.4468 17.6344 41.4468 17.7183Z" fill="black"/>
<path d="M49.1145 17.7442C49.2823 17.8346 49.4566 17.9185 49.6373 17.9831C49.9987 18.1187 50.373 18.2091 50.7796 18.2608H50.8054C50.8054 18.2608 50.8054 18.2608 50.8119 18.2608C50.6506 18.2027 50.4827 18.151 50.3279 18.0993C49.9213 17.9702 49.5211 17.8539 49.1145 17.7442Z" fill="black"/>
<path d="M48.456 18.9905L48.5334 19.0422C49.2692 19.5007 50.1276 19.6686 50.9408 19.7784C50.9795 19.7977 51.0182 19.8107 51.0569 19.8171C51.1344 19.8236 51.2118 19.83 51.2828 19.8365L51.5345 19.8494C51.5926 19.8494 51.6572 19.8559 51.7217 19.8559C51.8121 19.8559 51.9024 19.8623 51.9928 19.8623C52.4768 19.8623 52.9738 19.8042 53.4643 19.5588C53.5159 19.533 53.5675 19.5007 53.6127 19.4749C52.9996 19.139 52.3671 18.8614 51.754 18.6224C51.6443 18.6353 51.5281 18.6482 51.4184 18.6547C51.4119 18.6547 51.4119 18.6547 51.4055 18.6547C51.186 18.6418 50.9666 18.616 50.7278 18.5901C50.3083 18.5385 49.9081 18.4416 49.5274 18.2995C49.0433 18.1187 48.5915 17.8539 48.1785 17.5246C47.5653 17.3825 46.9458 17.2663 46.3262 17.1694C46.5198 17.4535 46.7328 17.7248 46.9716 17.9702C47.4363 18.3641 47.959 18.6805 48.456 18.9905Z" fill="black"/>
<path d="M50.7988 18.2608H50.773C50.3664 18.2091 49.992 18.1187 49.6306 17.9831C49.4499 17.9185 49.2821 17.8346 49.1078 17.7442C48.798 17.6602 48.4883 17.5827 48.1785 17.5117C48.5915 17.841 49.0433 18.1058 49.5274 18.2866C49.9146 18.4351 50.3083 18.5255 50.7278 18.5772C50.9601 18.603 51.186 18.6289 51.4055 18.6418C51.4119 18.6418 51.4184 18.6482 51.4184 18.6418C51.5281 18.6353 51.6443 18.6224 51.754 18.6095C51.4442 18.4868 51.1215 18.3706 50.7988 18.2608C50.8052 18.2672 50.8052 18.2672 50.7988 18.2608Z" fill="black"/>
<path d="M55.4038 34.4505C55.569 36.5643 53.2769 38.2078 51.8074 38.0656C50.1004 37.8997 50.1486 41.2501 51.8418 41.416C54.688 41.6965 58.3636 38.2671 58.0642 34.407C57.899 32.2735 55.2386 32.3051 55.4038 34.4505Z" fill="#7469F6"/>
</svg>
