<svg width="66" height="67" viewBox="0 0 66 67" fill="none" xmlns="http://www.w3.org/2000/svg">
<path fill-rule="evenodd" clip-rule="evenodd" d="M24.7984 7.32184C31.0508 5.00771 37.4522 8.76724 43.1762 12.1855C49.2252 15.798 55.7411 19.7274 57.1359 26.6336C58.6645 34.2027 56.033 42.3735 50.3227 47.5717C44.8308 52.5711 36.9581 52.3832 29.5597 51.7367C21.7109 51.0508 12.1549 50.8959 8.49866 43.9168C4.93431 37.1133 11.2907 29.8464 14.4158 22.8303C17.0788 16.8514 18.6602 9.59368 24.7984 7.32184Z" fill="#D0E3FF"/>
<path d="M20.4816 19.4274C20.8416 19.3313 21.1056 19.1393 21.3036 18.8992C21.4716 18.8452 21.6336 18.7612 21.7836 18.6532C19.2755 19.1273 16.9234 20.3276 15.0513 22.11C16.7374 20.9637 18.6275 19.9375 20.4816 19.4274Z" fill="#A1A1E6"/>
<path d="M15.1834 12.5076C14.5233 12.7177 14.0553 13.2158 13.6953 13.792C12.1772 16.2286 12.5492 19.2173 13.6953 21.726C16.0234 19.2533 19.2216 17.6689 22.5697 17.2848C22.5877 16.9847 22.5277 16.6667 22.3597 16.3426C21.4657 14.6022 20.1396 13.1858 18.5615 12.3816C18.1535 12.3156 17.7395 12.2916 17.3195 12.2856C16.6114 12.2856 15.8674 12.2916 15.1834 12.5076Z" fill="#A1A1E6"/>
<path d="M13.0473 23.1603C12.0632 21.3478 11.3972 19.3013 11.4752 17.2128C11.5412 15.5024 12.0692 13.7499 13.1793 12.4356C13.3293 12.2556 13.4973 12.0995 13.6713 11.9615C13.5213 12.0095 13.3713 12.0575 13.2153 12.1175C9.3751 13.5879 10.0711 18.9052 11.1932 22.08C11.4812 22.8902 12.3633 23.5984 13.2033 23.3523C13.1493 23.3043 13.0953 23.2443 13.0473 23.1603Z" fill="#A1A1E6"/>
<path d="M36.7244 18.8872C35.9563 18.4791 35.1463 18.047 34.2642 17.987C34.1022 17.975 33.9762 17.915 33.8862 17.825C33.5682 17.7169 33.4422 17.3988 33.4902 17.0808C33.7482 15.4604 34.3362 13.7319 35.8363 12.8917C37.2524 12.0995 39.0825 12.0995 40.6486 12.3096C41.5006 12.4236 42.3827 12.5916 43.1687 12.9577C42.8567 12.5616 42.5087 12.2015 42.1247 11.9015C40.5286 10.6591 37.6964 10.8332 35.9383 11.6314C33.7902 12.6096 32.8542 14.8842 32.4522 17.1228C32.4342 17.2308 32.4222 17.3328 32.4222 17.4348C32.2841 18.173 32.5902 18.9472 33.5202 19.1213C36.1183 19.6194 37.9604 20.4296 39.8745 22.3321C39.8745 22.3381 39.8805 22.3381 39.8805 22.3441C40.2286 22.8842 40.9906 23.3523 41.6446 23.0823C41.8126 23.0163 41.9686 22.9382 42.1187 22.8542C41.1586 21.906 40.1205 21.0418 39.0045 20.2796C38.2725 19.7634 37.5104 19.3013 36.7244 18.8872Z" fill="#A1A1E6"/>
<path d="M44.3328 18.7012C44.3268 17.3628 44.2008 15.9165 43.4628 14.7642C43.1087 14.206 42.5567 13.984 41.9507 13.8159C41.2426 13.6179 40.5226 13.4919 39.7966 13.4499C38.5725 13.3778 37.0364 13.3898 36.0404 14.23C35.2843 14.8662 34.9603 15.8504 34.7683 16.8167C35.5904 16.9667 36.3524 17.3148 37.1084 17.6989C37.9365 18.125 38.7405 18.6051 39.5206 19.1273C40.8166 20.0035 42.0167 21.0117 43.1267 22.122C43.6488 21.6359 44.0388 21.0418 44.3088 20.3876C44.3328 19.8295 44.3328 19.2593 44.3328 18.7012Z" fill="#A1A1E6"/>
<path d="M30.5982 35.4094C31.1262 35.6434 31.4743 36.1416 31.6003 36.7057C31.7023 37.1498 31.7083 37.6179 31.6243 38.0621C31.8163 38.2601 32.0083 38.4581 32.2063 38.6562C32.3203 38.4401 32.4103 38.2181 32.4583 37.984C32.6623 36.9638 32.2783 35.9615 31.4623 35.3734C31.1022 35.1153 30.6522 34.9953 30.1902 34.9953C30.2022 35.0913 30.2082 35.1873 30.2202 35.2833C30.3402 35.3074 30.4722 35.3554 30.5982 35.4094Z" fill="#A1A1E6"/>
<path d="M28.5281 36.5977C28.5401 36.5917 28.5581 36.5917 28.5701 36.5857C28.5821 36.5797 28.5521 36.5857 28.5281 36.5977Z" fill="#F7C300"/>
<path d="M30.04 36.5797C30.016 36.5617 29.98 36.5617 29.998 36.5677C30.01 36.5737 30.028 36.5797 30.04 36.5797C30.04 36.5857 30.04 36.5857 30.04 36.5797Z" fill="#F7C300"/>
<path d="M28.5159 36.6037C28.5219 36.6037 28.5219 36.6037 28.5279 36.5977C28.5279 36.5977 28.5219 36.5977 28.5159 36.6037Z" fill="#F7C300"/>
<path d="M28.072 37.1018C28.078 37.0898 28.084 37.0718 28.09 37.0598C28.09 37.0658 28.078 37.0838 28.072 37.1018Z" fill="#F7C300"/>
<path d="M30.4241 39.9645C30.4421 39.9585 30.4601 39.9525 30.4781 39.9525C30.4721 39.9525 30.4661 39.9465 30.4541 39.9465C30.4421 39.9525 30.4301 39.9585 30.4241 39.9645Z" fill="#F7C300"/>
<path d="M29.9981 36.5737C29.9501 36.5557 29.8961 36.5437 29.8481 36.5317C29.8421 36.5317 29.8001 36.5197 29.7701 36.5197C29.7521 36.5197 29.7281 36.5137 29.7221 36.5137C29.6501 36.5077 29.5721 36.5076 29.5001 36.5076C29.344 36.5076 29.188 36.5197 29.032 36.5377C28.954 36.5437 28.882 36.5317 28.816 36.5076C28.768 36.5317 28.726 36.5557 28.672 36.5677C28.636 36.5737 28.606 36.5857 28.57 36.5977C28.564 36.5977 28.552 36.6037 28.528 36.6097C28.528 36.6097 28.528 36.6097 28.522 36.6097C28.474 36.6337 28.432 36.6637 28.384 36.6937C28.384 36.6937 28.384 36.6937 28.378 36.6937C28.318 36.7477 28.264 36.8077 28.21 36.8677C28.204 36.8797 28.192 36.8917 28.186 36.9037C28.168 36.9338 28.144 36.9638 28.126 36.9998C28.114 37.0238 28.102 37.0478 28.09 37.0718C28.09 37.0718 28.084 37.0838 28.066 37.1138V37.1198C28.036 37.2158 28.012 37.3059 27.988 37.4019C27.982 37.4259 27.982 37.4379 27.976 37.4499C27.976 37.4619 27.976 37.4739 27.976 37.5039C27.976 37.5519 27.97 37.5939 27.97 37.6419C27.97 37.702 27.97 37.756 27.976 37.816C27.976 37.828 27.988 37.906 27.988 37.918C28.036 38.2361 28.156 38.5962 28.312 38.8542C28.324 38.8782 28.342 38.9022 28.36 38.9263C28.384 38.9563 28.414 38.9863 28.444 39.0163C28.45 39.0163 28.45 39.0223 28.462 39.0223C28.468 39.0283 28.498 39.0403 28.516 39.0523C28.54 39.0643 28.57 39.0763 28.582 39.0763C28.618 39.0883 28.66 39.1003 28.702 39.1063C28.708 39.1063 28.726 39.1123 28.744 39.1183C28.774 39.1183 28.846 39.1303 28.846 39.1303C28.93 39.1363 29.014 39.1243 29.104 39.1243C29.14 39.1123 29.182 39.1063 29.218 39.1003C29.296 39.0823 29.362 39.0523 29.44 39.0343C29.446 39.0343 29.446 39.0343 29.446 39.0343C29.4701 39.0223 29.4941 39.0103 29.5181 38.9983C29.6081 38.7942 29.7941 38.6382 30.0101 38.6082C30.0221 38.5962 30.0341 38.5842 30.0461 38.5662C30.0521 38.5602 30.0521 38.5602 30.0521 38.5542C30.0581 38.5482 30.0581 38.5422 30.0701 38.5242C30.0881 38.4882 30.1121 38.4581 30.1361 38.4221C30.1601 38.3801 30.1841 38.3321 30.2081 38.2901C30.2141 38.2841 30.2261 38.2601 30.2321 38.2361C30.2381 38.2121 30.2561 38.1761 30.2621 38.1701C30.2741 38.1341 30.2861 38.0921 30.2981 38.056C30.3221 37.972 30.3461 37.882 30.3641 37.792C30.3701 37.762 30.3761 37.726 30.3821 37.696C30.3821 37.6899 30.3821 37.678 30.3821 37.666C30.3881 37.5759 30.3941 37.4859 30.3881 37.3959C30.3881 37.3539 30.3881 37.3178 30.3821 37.2758C30.3821 37.2698 30.3821 37.2398 30.3761 37.2218C30.3701 37.1978 30.3701 37.1618 30.3641 37.1498C30.3521 37.0958 30.3461 37.0478 30.3281 36.9938C30.3161 36.9518 30.3041 36.9158 30.2921 36.8737C30.2921 36.8677 30.2861 36.8497 30.2801 36.8377C30.2621 36.7957 30.2321 36.7597 30.2141 36.7177C30.2141 36.7177 30.2081 36.7177 30.2081 36.7117C30.1841 36.6877 30.1661 36.6697 30.1421 36.6457C30.1061 36.6277 30.0701 36.6037 30.0341 36.5797C30.0161 36.5797 30.0041 36.5737 29.9981 36.5737Z" fill="#A1A1E6"/>
<path d="M28.0659 37.1138C28.0659 37.1078 28.0659 37.1078 28.0719 37.1078C28.0719 37.1078 28.0659 37.1078 28.0659 37.1138Z" fill="#F7C300"/>
<path d="M30.442 25.921C30.136 26.131 29.764 26.2391 29.386 26.2511C29.59 26.3471 29.824 26.4011 30.094 26.4011C31.7561 26.4011 32.1341 24.3066 31.2281 23.3523C31.2941 23.4904 31.3481 23.6404 31.3781 23.7964C31.5161 24.6367 31.1321 25.4529 30.442 25.921Z" fill="#A1A1E6"/>
<path d="M29.59 24.8947C29.578 24.9007 29.572 24.9067 29.578 24.9067C29.578 24.9067 29.608 24.8947 29.626 24.8827C29.62 24.8827 29.62 24.8827 29.614 24.8887C29.608 24.8947 29.596 24.8947 29.59 24.8947Z" fill="#F7C300"/>
<path d="M29.6381 24.8827C29.6381 24.8827 29.6321 24.8827 29.6321 24.8887C29.6501 24.8767 29.6501 24.8767 29.6381 24.8827Z" fill="#F7C300"/>
<path d="M28.8639 24.8167C28.8999 24.8527 28.8939 24.8407 28.8759 24.8167C28.8699 24.8107 28.8639 24.8107 28.8579 24.8047C28.8579 24.8107 28.8579 24.8107 28.8639 24.8167Z" fill="#F7C300"/>
<path d="M30.052 24.4686C30.052 24.4686 30.052 24.4566 30.058 24.4446L30.052 24.4506C30.052 24.4566 30.052 24.4626 30.052 24.4686Z" fill="#F7C300"/>
<path d="M30.0701 24.4206C30.0881 24.3906 30.0821 24.3846 30.0761 24.3966C30.0701 24.4026 30.0641 24.4266 30.0581 24.4446C30.0581 24.4386 30.0641 24.4266 30.0701 24.4206Z" fill="#F7C300"/>
<path d="M30.0822 23.9765C30.0822 23.9705 30.0822 23.9645 30.0762 23.9645C30.0702 23.9465 30.0642 23.9345 30.0522 23.9225C30.0342 23.8925 29.9862 23.8325 29.9682 23.7965C29.9562 23.7845 29.9442 23.7725 29.9322 23.7605C29.9202 23.7485 29.9022 23.7304 29.8902 23.7184C29.8422 23.6944 29.8002 23.6584 29.7522 23.6284C29.7522 23.6284 29.7522 23.6284 29.7462 23.6284C29.7402 23.6284 29.7342 23.6224 29.7282 23.6224C29.6982 23.6104 29.6682 23.6044 29.6382 23.5984C29.6262 23.5984 29.6201 23.5984 29.6081 23.5984C29.4881 23.7184 29.3261 23.7965 29.1581 23.7845C29.1221 23.7845 29.0861 23.7845 29.0501 23.7845C29.0021 23.7965 28.9601 23.8085 28.9121 23.8205C28.8941 23.8325 28.8761 23.8385 28.8581 23.8505C28.8521 23.8565 28.8401 23.8685 28.8221 23.8805C28.8161 23.8925 28.7981 23.9045 28.7801 23.9105C28.7501 23.9465 28.7081 24.0005 28.6781 24.0245C28.6781 24.0245 28.6781 24.0245 28.6781 24.0305C28.6661 24.0545 28.6541 24.0725 28.6421 24.0965C28.6361 24.1205 28.6181 24.1566 28.6181 24.1566C28.6121 24.1806 28.6061 24.2046 28.6001 24.2346C28.6001 24.2826 28.6061 24.3426 28.6061 24.3906C28.6121 24.4086 28.6121 24.4266 28.6181 24.4446C28.6241 24.4626 28.6361 24.4926 28.6481 24.5286C28.6541 24.5406 28.6661 24.5587 28.6661 24.5827C28.6781 24.6007 28.6841 24.6247 28.6961 24.6427C28.7081 24.6667 28.7261 24.6907 28.7441 24.7147C28.7741 24.7447 28.8101 24.7807 28.8401 24.8167C28.8521 24.8227 28.8581 24.8287 28.8701 24.8407C28.8821 24.8527 28.9001 24.8587 28.8941 24.8587C28.9061 24.8647 28.9541 24.8947 28.9961 24.9128C29.0141 24.9188 29.0261 24.9248 29.0441 24.9308C29.0681 24.9368 29.0981 24.9487 29.1221 24.9547C29.1401 24.9607 29.1581 24.9608 29.1701 24.9668C29.2061 24.9668 29.3261 24.9728 29.3441 24.9728C29.3681 24.9728 29.3861 24.9728 29.4101 24.9668C29.4701 24.9548 29.5241 24.9367 29.5841 24.9187C29.5961 24.9127 29.6141 24.9067 29.6262 24.9067C29.6382 24.9007 29.6442 24.8947 29.6442 24.9007C29.6862 24.8767 29.7222 24.8527 29.7642 24.8287C29.7822 24.8107 29.8122 24.7927 29.8242 24.7867C29.8662 24.7447 29.9022 24.7027 29.9442 24.6607C29.9562 24.6427 29.9682 24.6247 29.9802 24.6067C30.0042 24.5647 30.0282 24.5227 30.0462 24.4806C30.0462 24.4566 30.0582 24.4326 30.0702 24.4206V24.4146C30.0882 24.3606 30.0942 24.3066 30.1062 24.2526C30.1062 24.2346 30.1062 24.2106 30.1062 24.1926C30.1062 24.1686 30.1062 24.1446 30.1062 24.1205C30.1062 24.0545 30.1002 24.0125 30.0822 23.9765Z" fill="#A1A1E6"/>
<path d="M28.762 23.8985C28.768 23.8985 28.774 23.8925 28.786 23.8925C28.774 23.8985 28.768 23.8985 28.762 23.8985Z" fill="#F7C300"/>
<path d="M28.8279 24.7867C28.8279 24.7867 28.8399 24.7927 28.8519 24.8047C28.8459 24.7987 28.8459 24.7987 28.8399 24.7927C28.8339 24.7927 28.8279 24.7867 28.8279 24.7867Z" fill="#F7C300"/>
<path d="M28.8039 23.8745C28.7979 23.8805 28.7919 23.8865 28.7859 23.8925C28.7979 23.8865 28.8099 23.8745 28.8279 23.8625C28.8339 23.8505 28.8339 23.8445 28.8039 23.8745Z" fill="#F7C300"/>
<path d="M28.6599 24.5527C28.6599 24.5587 28.6659 24.5587 28.6659 24.5647C28.6659 24.5467 28.6599 24.5286 28.6479 24.5106C28.6419 24.4986 28.6359 24.5046 28.6599 24.5527Z" fill="#F7C300"/>
<path d="M43.2287 38.4821C43.0007 38.3621 42.8087 38.1941 42.6467 37.972C42.4727 37.738 42.4007 37.4379 42.3827 37.1438C42.3527 36.5677 42.6587 35.9555 43.1627 35.6854C43.3007 35.6134 43.4507 35.5894 43.5888 35.6134C43.6788 35.4574 43.8108 35.3794 43.9728 35.3133C44.1408 35.2413 44.3508 35.2413 44.5368 35.2773C44.4468 35.2053 44.3568 35.1273 44.2668 35.0553C44.0088 34.8992 43.7268 34.8152 43.4207 34.8152L42.9767 34.8752C42.6947 34.9593 42.4487 35.1093 42.2387 35.3253C42.2327 35.3313 42.2327 35.3314 42.2267 35.3374C42.1367 35.4574 42.0527 35.5714 41.9627 35.6914C41.9627 35.6974 41.9567 35.6974 41.9567 35.7034C41.9027 35.8415 41.8427 35.9855 41.7887 36.1236C41.7347 36.2796 41.7227 36.4536 41.7227 36.6217C41.7227 36.7897 41.7407 36.9638 41.7887 37.1258C41.8127 37.1978 41.8427 37.2698 41.8727 37.3419C41.9027 37.4139 41.9327 37.4859 41.9627 37.5579C41.9687 37.5639 41.9687 37.5699 41.9747 37.5759C42.1247 37.828 42.3647 38.1221 42.6287 38.2541C42.7607 38.3141 42.8927 38.3741 43.0247 38.4281C43.0307 38.4281 43.0307 38.4341 43.0367 38.4341C43.1087 38.4581 43.1687 38.4701 43.2287 38.4821Z" fill="#A1A1E6"/>
<path d="M44.0447 36.5857C43.9907 36.6817 43.9127 36.7657 43.8167 36.8197C43.8047 36.8257 43.7987 36.8317 43.7867 36.8377C43.7687 36.8497 43.7567 36.8677 43.7387 36.8857C43.7267 36.9037 43.7207 36.9158 43.7087 36.9338C43.6967 36.9638 43.6907 36.9998 43.6787 37.0358C43.6787 37.0658 43.6787 37.1018 43.6787 37.1318C43.6847 37.1558 43.6907 37.1798 43.6967 37.2038C43.7027 37.2218 43.7147 37.2338 43.7207 37.2458C43.7327 37.2578 43.7387 37.2638 43.7507 37.2758C43.7747 37.2938 43.7987 37.3058 43.8287 37.3179C43.8647 37.3299 43.9007 37.3419 43.9367 37.3479C43.9787 37.3479 44.0147 37.3479 44.0507 37.3479C44.0867 37.3419 44.1287 37.3299 44.1647 37.3179C44.1827 37.3058 44.2067 37.2938 44.2247 37.2818C44.2487 37.2578 44.2727 37.2338 44.2967 37.2098C44.3207 37.1738 44.3447 37.1318 44.3627 37.0958C44.3747 37.0538 44.3868 37.0118 44.3988 36.9638C44.4048 36.9098 44.4048 36.8557 44.3988 36.8077C44.3928 36.7657 44.3807 36.7297 44.3687 36.6877C44.3567 36.6577 44.3387 36.6337 44.3207 36.6037C44.3087 36.5917 44.3027 36.5857 44.2907 36.5737C44.2187 36.6037 44.1287 36.6037 44.0447 36.5857Z" fill="#A1A1E6"/>
<path d="M29.6799 52.1056C29.6919 52.1116 29.7039 52.1236 29.7159 52.1356C29.7099 52.1296 29.7099 52.1356 29.7099 52.1296C29.6979 52.1176 29.6919 52.1116 29.6799 52.1056Z" fill="#F7C300"/>
<path d="M29.4882 51.7995C29.4882 51.7755 29.4822 51.7515 29.4822 51.7395C29.4822 51.7575 29.4822 51.7755 29.4882 51.7995Z" fill="#F7C300"/>
<path d="M29.4822 51.7515C29.4822 51.7455 29.4822 51.7455 29.4822 51.7455V51.7395C29.4822 51.7395 29.4822 51.7395 29.4822 51.7455C29.4882 51.7335 29.4882 51.7275 29.4882 51.7215C29.4882 51.7155 29.4882 51.7095 29.4882 51.7035C29.4942 51.7155 29.4882 51.7335 29.4822 51.7515Z" fill="#F7C300"/>
<path d="M29.7219 52.1356C29.7519 52.1656 29.7459 52.1536 29.7219 52.1356V52.1356Z" fill="#F7C300"/>
<path d="M30.3461 52.2856C30.3401 52.2916 30.3341 52.2976 30.3281 52.3036C30.3221 52.3096 30.3161 52.3156 30.3101 52.3216C30.3221 52.3036 30.3461 52.2916 30.3581 52.2796C30.3581 52.2796 30.3521 52.2796 30.3461 52.2856Z" fill="#F7C300"/>
<path d="M30.6521 51.3434C30.6521 51.3434 30.6521 51.3374 30.6461 51.3374C30.6341 51.3254 30.6281 51.3194 30.6161 51.3074C30.6041 51.3014 30.5981 51.2954 30.5861 51.2894C30.5801 51.2834 30.5741 51.2834 30.5621 51.2774C30.5441 51.2714 30.5261 51.2654 30.5141 51.2654C30.4601 51.2474 30.4061 51.2294 30.3521 51.2234C30.2501 51.2234 30.2561 51.2174 30.2921 51.2174C30.2501 51.2114 30.2141 51.2113 30.1721 51.2113C30.0761 51.2053 29.9801 51.2113 29.8841 51.2113C29.8121 51.3194 29.704 51.3974 29.584 51.4454C29.572 51.4994 29.554 51.5534 29.524 51.6074C29.518 51.6134 29.518 51.6195 29.512 51.6255C29.506 51.6375 29.5 51.6495 29.5 51.6615C29.506 51.6675 29.5 51.6855 29.488 51.7215C29.488 51.7515 29.488 51.7755 29.488 51.8055C29.488 51.8115 29.488 51.8175 29.488 51.8235C29.494 51.8535 29.506 51.8775 29.518 51.9015C29.518 51.9015 29.518 51.9015 29.524 51.9075C29.536 51.9255 29.548 51.9495 29.56 51.9735C29.566 51.9856 29.578 52.0036 29.584 52.0156C29.626 52.0576 29.662 52.0996 29.704 52.1416C29.71 52.1476 29.71 52.1476 29.716 52.1536C29.722 52.1596 29.728 52.1596 29.734 52.1656C29.7881 52.2016 29.8361 52.2316 29.8961 52.2616C29.9081 52.2676 29.9201 52.2736 29.9321 52.2796C29.9741 52.2916 30.0821 52.3276 30.0941 52.3336C30.1121 52.3396 30.1241 52.3396 30.1421 52.3456C30.1721 52.3456 30.2021 52.3456 30.2321 52.3456C30.2501 52.3396 30.2741 52.3336 30.2921 52.3276C30.3101 52.3216 30.3221 52.3096 30.3341 52.3036C30.3641 52.2736 30.3821 52.2676 30.3761 52.2736C30.3881 52.2616 30.4061 52.2436 30.4241 52.2316C30.4241 52.2316 30.4241 52.2316 30.4241 52.2256C30.4361 52.2076 30.4481 52.1896 30.4601 52.1656C30.4841 52.1236 30.5081 52.0876 30.5321 52.0456C30.5441 52.0276 30.5501 52.0035 30.5621 51.9795C30.5681 51.9615 30.5741 51.9555 30.5801 51.9495C30.5861 51.9195 30.5921 51.8895 30.5981 51.8715C30.6101 51.8235 30.6221 51.7815 30.6341 51.7335C30.6401 51.7215 30.6461 51.6735 30.6521 51.6375C30.6521 51.6015 30.6581 51.5474 30.6581 51.5354C30.6581 51.5054 30.6581 51.4814 30.6581 51.4514C30.6641 51.4034 30.6581 51.3734 30.6521 51.3434Z" fill="#A1A1E6"/>
<path d="M31.8403 49.975C31.5822 49.819 31.3002 49.735 30.9942 49.735H30.8802C30.6522 49.723 30.4362 49.777 30.2382 49.885C30.2382 49.885 30.2322 49.885 30.2322 49.891C30.4362 49.903 30.6282 49.933 30.7842 49.975C31.0902 50.0531 31.4022 50.2211 31.6062 50.4732C31.8703 50.8033 31.9963 51.2174 31.9543 51.6435C31.9003 52.2256 31.6783 52.8378 31.2402 53.2339C31.3782 53.2099 31.5102 53.1679 31.6423 53.1018C31.8523 53.0298 32.0263 52.9098 32.1823 52.7417C32.3443 52.5797 32.4583 52.3937 32.5303 52.1776C32.6323 51.9675 32.6803 51.7455 32.6743 51.4994C32.6563 51.3434 32.6323 51.1874 32.6143 51.0313C32.5363 50.7312 32.3923 50.4732 32.1823 50.2571C32.0683 50.1551 31.9543 50.0651 31.8403 49.975Z" fill="#A1A1E6"/>
<path d="M30.5321 51.2594C30.4961 51.2414 30.4781 51.2474 30.5201 51.2654C30.5381 51.2714 30.5502 51.2714 30.5682 51.2774C30.5562 51.2714 30.5441 51.2654 30.5321 51.2594Z" fill="#F7C300"/>
<path d="M29.5061 51.6555C29.5001 51.6495 29.4941 51.6615 29.4941 51.6915V51.6975C29.4941 51.6855 29.5001 51.6735 29.5001 51.6615C29.5001 51.6554 29.5061 51.6555 29.5061 51.6555Z" fill="#F7C300"/>
<path d="M30.3581 51.2174C30.3641 51.2174 30.3761 51.2174 30.3821 51.2174C30.3701 51.2174 30.3521 51.2174 30.3401 51.2113H30.3461C30.3521 51.2113 30.3521 51.2174 30.3581 51.2174Z" fill="#F7C300"/>
<path d="M30.5981 51.2834C30.5861 51.2834 30.5741 51.2774 30.5681 51.2714C30.5801 51.2774 30.5861 51.2834 30.5981 51.2834Z" fill="#F7C300"/>
<path d="M14.5052 37.942C14.5052 37.942 14.5352 37.93 14.5532 37.918C14.5772 37.912 14.5772 37.912 14.5592 37.912C14.5712 37.906 14.5772 37.9 14.5772 37.906C14.6192 37.882 14.6552 37.858 14.6972 37.834C14.7152 37.816 14.7452 37.798 14.7572 37.792C14.7992 37.75 14.8352 37.708 14.8772 37.666C14.8892 37.648 14.9012 37.6299 14.9132 37.6119C14.9372 37.5699 14.9612 37.5279 14.9792 37.4859C14.9792 37.4919 14.9792 37.4979 14.9792 37.4979C14.9792 37.4979 14.9792 37.4859 14.9852 37.4739C14.9912 37.4679 14.9912 37.4559 14.9972 37.4499C15.0152 37.4199 15.0092 37.4139 15.0032 37.4259V37.4199C15.0212 37.3659 15.0272 37.3119 15.0392 37.2578C15.0392 37.2398 15.0392 37.2158 15.0392 37.1978C15.0392 37.1738 15.0392 37.1498 15.0392 37.1258C15.0332 37.0838 15.0212 37.0418 15.0092 36.9998C15.0092 36.9938 15.0092 36.9878 15.0032 36.9878C14.9972 36.9698 14.9912 36.9578 14.9792 36.9398C14.9612 36.9098 14.9132 36.8497 14.8952 36.8137C14.8832 36.8017 14.8712 36.7897 14.8592 36.7777C14.8472 36.7657 14.8292 36.7477 14.8172 36.7357C14.7692 36.7117 14.7272 36.6757 14.6792 36.6457C14.6792 36.6457 14.6792 36.6457 14.6732 36.6457C14.6672 36.6457 14.6612 36.6397 14.6552 36.6397C14.6252 36.6277 14.5952 36.6217 14.5652 36.6157C14.5532 36.6157 14.5472 36.6157 14.5352 36.6157C14.4151 36.7357 14.2531 36.8137 14.0851 36.8017C14.0491 36.8017 14.0131 36.8017 13.9771 36.8017C13.9291 36.8137 13.8871 36.8257 13.8391 36.8377C13.8211 36.8497 13.8031 36.8557 13.7851 36.8677C13.7791 36.8737 13.7671 36.8858 13.7491 36.8978C13.7611 36.8858 13.7551 36.8797 13.7251 36.9038C13.7191 36.9098 13.7131 36.9158 13.7071 36.9218C13.7011 36.9278 13.6891 36.9278 13.6831 36.9278C13.6891 36.9278 13.6951 36.9218 13.7071 36.9218C13.6771 36.9578 13.6351 37.0118 13.6051 37.0358C13.6051 37.0358 13.6051 37.0358 13.6051 37.0418C13.5931 37.0658 13.5811 37.0838 13.5691 37.1078C13.5631 37.1318 13.5451 37.1678 13.5451 37.1678C13.5391 37.1918 13.5331 37.2158 13.5271 37.2458C13.5271 37.2939 13.5331 37.3539 13.5331 37.4019C13.5391 37.4199 13.5391 37.4379 13.5451 37.4559C13.5511 37.4739 13.5631 37.5039 13.5751 37.5399C13.5631 37.5279 13.5631 37.5339 13.5871 37.5819C13.5871 37.5879 13.5931 37.5879 13.5931 37.5939C13.5931 37.5999 13.5991 37.6059 13.5931 37.6119C13.5931 37.6059 13.5931 37.5999 13.5931 37.5939C13.6051 37.6119 13.6111 37.6359 13.6231 37.6539C13.6351 37.6779 13.6531 37.702 13.6711 37.726C13.7011 37.756 13.7371 37.792 13.7671 37.828C13.7611 37.822 13.7551 37.822 13.7551 37.822C13.7551 37.822 13.7671 37.828 13.7791 37.84C13.7851 37.846 13.7851 37.846 13.7911 37.852C13.8271 37.888 13.8211 37.876 13.8031 37.852C13.8151 37.864 13.8331 37.87 13.8271 37.87C13.8391 37.876 13.8871 37.906 13.9291 37.924C13.9471 37.93 13.9591 37.936 13.9771 37.942C14.0011 37.948 14.0311 37.96 14.0551 37.966C14.0731 37.972 14.0911 37.972 14.1031 37.978C14.1391 37.978 14.2591 37.984 14.2771 37.984C14.3011 37.984 14.3191 37.984 14.3431 37.978C14.4031 37.966 14.4571 37.948 14.5172 37.93C14.5112 37.93 14.5052 37.936 14.5052 37.942Z" fill="#A1A1E6"/>
<path d="M12.3032 36.8197C12.5132 36.0696 13.2333 35.4934 14.0073 35.4934C14.0373 35.4634 14.0673 35.4394 14.1033 35.4154C14.0133 35.3974 13.9173 35.3854 13.8213 35.3854C13.7553 35.3854 13.6953 35.3914 13.6293 35.3974C13.2813 35.3914 12.9273 35.4814 12.6452 35.6674C12.4592 35.7935 12.3032 35.9495 12.1712 36.1176C12.0752 36.2136 11.9912 36.3216 11.9012 36.4897C11.6732 36.8978 11.5952 37.4019 11.7212 37.864C11.8592 38.3501 12.1472 38.7642 12.5672 39.0163C12.9693 39.2624 13.4373 39.3344 13.8813 39.2503C13.6053 39.2023 13.3473 39.1123 13.1193 38.9563C12.4532 38.5002 12.0752 37.6299 12.3032 36.8197Z" fill="#A1A1E6"/>
<path d="M19.7797 53.852C22.9719 55.2564 26.4881 55.9945 29.9982 55.9945C30.2323 55.9945 30.4663 55.9886 30.6943 55.9826C34.6185 55.8745 38.1827 54.6862 40.9848 52.5437C42.4249 51.4454 43.6549 50.1311 44.639 48.6367C45.6231 47.1423 46.3971 45.3059 47.0691 42.8453C47.6512 40.7207 48.2152 38.4521 48.1432 36.1836C48.0772 34.2331 47.4531 32.3486 46.1811 30.2481C43.751 26.2451 41.2068 23.4304 38.3867 21.6359C35.2305 19.6314 31.5103 18.7972 27.9041 19.2893C26.9381 19.4214 26.044 19.6194 25.174 19.9015C24.97 19.9675 24.844 20.1055 24.802 20.3156C24.748 20.5556 24.82 20.8377 24.976 21.0058C25.108 21.1438 25.27 21.1858 25.474 21.1258C28.7682 20.0635 32.3684 20.2256 35.6145 21.5699C38.4767 22.7582 41.0868 25.0028 43.5769 28.4296C44.651 29.906 45.7431 31.5204 46.4211 33.2668C47.1051 35.0313 47.1891 37.0358 46.6851 39.5924C46.0371 42.8633 44.927 46.9923 42.1069 49.951C37.6486 54.6262 30.3343 55.9765 22.5459 53.5579C19.2937 52.5497 16.6415 51.0133 14.6734 48.9968C12.2493 46.5182 10.8992 43.1693 10.7792 39.3164C10.6592 35.5354 11.5233 31.7244 13.2214 28.5736C15.0635 25.1528 17.7156 22.7822 20.8958 21.7199C21.6698 21.4619 22.4438 21.2938 23.1939 21.2158C23.4759 21.1858 23.7819 20.9757 23.7819 20.5856C23.7819 20.4176 23.6979 20.2256 23.5719 20.0935C23.5179 20.0395 23.4099 19.9495 23.2719 19.9495H23.2419C19.8337 20.2976 16.6295 22.074 14.2174 24.9607C11.8293 27.8115 10.3052 31.5984 9.80119 35.9015C9.27316 40.4507 10.0772 44.6217 12.0693 47.6345C13.8154 50.2751 16.4075 52.3697 19.7797 53.852Z" fill="black"/>
<path d="M28.8521 24.8047C28.8581 24.8107 28.8641 24.8107 28.8701 24.8167C28.8581 24.8047 28.8461 24.7987 28.8401 24.7927C28.8461 24.7987 28.8521 24.7987 28.8521 24.8047Z" fill="black"/>
<path d="M29.6141 24.8887C29.6201 24.8887 29.6201 24.8887 29.6261 24.8827C29.6321 24.8827 29.6321 24.8767 29.6321 24.8767C29.6201 24.8767 29.6021 24.8827 29.5901 24.8887C29.5961 24.8947 29.6081 24.8947 29.6141 24.8887Z" fill="black"/>
<path d="M28.7859 23.8925C28.8039 23.8865 28.8159 23.8745 28.8279 23.8625C28.8099 23.8745 28.7979 23.8865 28.7859 23.8925Z" fill="black"/>
<path d="M30.058 24.4446C30.064 24.4266 30.076 24.4026 30.076 24.3966C30.064 24.4086 30.052 24.4326 30.052 24.4566C30.052 24.4506 30.058 24.4506 30.058 24.4446Z" fill="black"/>
<path d="M28.1921 25.933C28.5341 26.167 28.9601 26.2691 29.3801 26.2571C27.9641 25.5849 28.2041 22.8962 30.0882 22.8962C30.5802 22.8962 30.9522 23.0763 31.2222 23.3583C30.9162 22.7162 30.2382 22.254 29.5302 22.2721C29.3621 22.2781 29.2001 22.3501 29.0801 22.4641C28.3061 22.4641 27.5861 23.0403 27.376 23.7905C27.148 24.6007 27.52 25.4709 28.1921 25.933Z" fill="black"/>
<path d="M30.088 22.8902C28.2039 22.8902 27.9699 25.5789 29.3799 26.2511C29.758 26.2391 30.136 26.125 30.436 25.921C31.126 25.4529 31.5101 24.6367 31.366 23.7965C31.342 23.6404 31.282 23.4964 31.216 23.3524C30.952 23.0763 30.574 22.8902 30.088 22.8902ZM30.112 24.2286C30.1 24.2826 30.088 24.3366 30.076 24.3906V24.3966C30.082 24.3906 30.088 24.3906 30.07 24.4206C30.064 24.4266 30.064 24.4386 30.058 24.4446C30.052 24.4566 30.052 24.4626 30.052 24.4686C30.052 24.4626 30.052 24.4626 30.052 24.4566C30.028 24.4986 30.01 24.5406 29.986 24.5827C29.974 24.6007 29.962 24.6187 29.95 24.6367C29.908 24.6787 29.872 24.7207 29.83 24.7627C29.818 24.7747 29.794 24.7927 29.77 24.8047C29.728 24.8287 29.692 24.8527 29.65 24.8767C29.65 24.8767 29.644 24.8827 29.632 24.8827C29.644 24.8767 29.65 24.8827 29.626 24.8887C29.602 24.9007 29.578 24.9127 29.578 24.9127C29.578 24.9067 29.584 24.9007 29.59 24.9007C29.53 24.9187 29.4759 24.9308 29.4159 24.9488C29.3919 24.9488 29.3739 24.9547 29.3499 24.9547C29.3319 24.9547 29.2119 24.9488 29.1759 24.9488C29.1579 24.9428 29.1399 24.9427 29.1279 24.9367C29.0979 24.9307 29.0739 24.9248 29.0499 24.9127C29.0319 24.9067 29.0199 24.9007 29.0019 24.8947C28.9599 24.8707 28.9059 24.8467 28.8999 24.8407C28.8999 24.8407 28.8879 24.8347 28.8759 24.8227C28.8939 24.8407 28.9059 24.8587 28.8639 24.8227C28.8579 24.8167 28.8579 24.8167 28.8519 24.8107C28.8399 24.7987 28.8279 24.7927 28.8279 24.7927C28.8279 24.7927 28.8339 24.7927 28.8399 24.7987C28.8099 24.7687 28.7739 24.7327 28.7439 24.6967C28.7259 24.6727 28.7139 24.6487 28.6959 24.6247C28.6839 24.6067 28.6719 24.5887 28.6659 24.5647C28.6659 24.5707 28.6659 24.5767 28.6659 24.5827C28.6659 24.5767 28.6659 24.5707 28.6659 24.5647C28.6659 24.5587 28.6599 24.5587 28.6599 24.5527C28.6359 24.5046 28.6419 24.4986 28.6479 24.5106C28.6359 24.4806 28.6179 24.4446 28.6179 24.4266C28.6119 24.4086 28.6119 24.3906 28.6059 24.3726C28.6059 24.3186 28.6059 24.2646 28.5999 24.2166C28.6059 24.1926 28.6119 24.1626 28.6179 24.1385C28.6179 24.1385 28.6299 24.0965 28.6419 24.0785C28.6539 24.0545 28.6659 24.0305 28.6779 24.0125C28.6779 24.0125 28.6779 24.0125 28.6779 24.0065C28.7079 23.9885 28.7499 23.9285 28.7799 23.8925C28.7739 23.8985 28.7679 23.8985 28.7559 23.8985C28.7619 23.8985 28.7679 23.8925 28.7799 23.8925C28.7859 23.8865 28.7919 23.8745 28.7979 23.8745C28.8279 23.8445 28.8279 23.8505 28.8219 23.8685C28.8339 23.8565 28.8519 23.8445 28.8579 23.8385C28.8759 23.8265 28.8939 23.8205 28.9119 23.8085C28.9599 23.7965 29.0019 23.7845 29.0499 23.7724C29.0859 23.7724 29.1219 23.7724 29.1579 23.7724C29.3259 23.7845 29.4879 23.7064 29.608 23.5864C29.62 23.5864 29.632 23.5864 29.638 23.5864C29.668 23.5924 29.698 23.6044 29.728 23.6104C29.734 23.6104 29.74 23.6164 29.746 23.6164C29.746 23.6164 29.746 23.6164 29.752 23.6164C29.794 23.6464 29.842 23.6764 29.89 23.7064C29.902 23.7184 29.92 23.7365 29.932 23.7485C29.944 23.7605 29.956 23.7725 29.968 23.7845C29.986 23.8265 30.034 23.8805 30.052 23.9105C30.058 23.9225 30.07 23.9405 30.076 23.9525C30.076 23.9585 30.076 23.9585 30.082 23.9645C30.094 24.0065 30.106 24.0485 30.112 24.0905C30.112 24.1146 30.112 24.1386 30.112 24.1626C30.118 24.1926 30.118 24.2106 30.112 24.2286Z" fill="black"/>
<path d="M28.6659 24.5646C28.6659 24.5406 28.6599 24.5166 28.6479 24.5106C28.6599 24.5286 28.6599 24.5466 28.6659 24.5646Z" fill="black"/>
<path d="M29.716 52.1356C29.722 52.1356 29.722 52.1356 29.716 52.1356C29.716 52.1356 29.716 52.1356 29.71 52.1296C29.716 52.1296 29.716 52.1296 29.716 52.1356Z" fill="black"/>
<path d="M29.506 51.6555V51.6615C29.506 51.6735 29.5 51.6855 29.5 51.6975C29.5 51.7035 29.5 51.7095 29.5 51.7155C29.506 51.6795 29.506 51.6555 29.506 51.6555Z" fill="black"/>
<path d="M30.3641 52.2736C30.3701 52.2676 30.3821 52.2616 30.3941 52.2496C30.4001 52.2436 30.3821 52.2496 30.3521 52.2796C30.3521 52.2796 30.3581 52.2796 30.3641 52.2736Z" fill="black"/>
<path d="M30.8862 53.2459C30.5862 53.2459 30.3041 53.1678 30.0401 53.0058C29.9261 52.9158 29.8121 52.8257 29.7041 52.7297C29.4941 52.5137 29.3561 52.2496 29.2721 51.9555L29.2121 51.4874C29.2061 51.2474 29.2541 51.0193 29.3561 50.8092C29.4221 50.5932 29.5361 50.4011 29.7041 50.2451C29.8541 50.0771 30.0281 49.957 30.2321 49.885C29.5961 49.843 28.8641 49.993 28.7321 50.6592C28.6061 50.7072 28.492 50.7972 28.414 50.9293C28.018 51.6254 28.216 52.5437 28.8101 53.0598C29.3981 53.5699 30.2741 53.846 30.9822 53.4199C31.0782 53.3599 31.1622 53.2939 31.2402 53.2219C31.1622 53.2339 31.0782 53.2399 30.9942 53.2399H30.8862V53.2459Z" fill="black"/>
<path d="M31.9602 51.6375C32.0022 51.2114 31.8762 50.7972 31.6122 50.4672C31.4081 50.2151 31.0961 50.0471 30.7901 49.969C30.6281 49.927 30.4361 49.897 30.2381 49.885C30.0341 49.957 29.8601 50.0771 29.7101 50.2451C29.548 50.4071 29.434 50.5932 29.362 50.8092C29.26 51.0193 29.212 51.2414 29.218 51.4874L29.278 51.9555C29.356 52.2556 29.5 52.5137 29.7101 52.7297C29.8241 52.8197 29.9381 52.9098 30.0461 53.0058C30.3041 53.1618 30.5861 53.2459 30.8921 53.2459H31.0061C31.0901 53.2519 31.1681 53.2399 31.2521 53.2279C31.6782 52.8318 31.9062 52.2256 31.9602 51.6375ZM30.6701 51.6195C30.6641 51.6555 30.6581 51.6975 30.6521 51.7155C30.6401 51.7635 30.6281 51.8055 30.6161 51.8535C30.6101 51.8715 30.6041 51.9015 30.5981 51.9315C30.5981 51.9375 30.5921 51.9435 30.5801 51.9615C30.5681 51.9795 30.5621 52.0035 30.5501 52.0276C30.5261 52.0696 30.5081 52.1116 30.4781 52.1476C30.4661 52.1656 30.4541 52.1836 30.4421 52.2076C30.4421 52.2076 30.4421 52.2076 30.4421 52.2136C30.4241 52.2316 30.4121 52.2436 30.3941 52.2556C30.3821 52.2676 30.3701 52.2736 30.3701 52.2796C30.3521 52.2916 30.3341 52.3096 30.3221 52.3216C30.3281 52.3156 30.3341 52.3096 30.3401 52.3036C30.3461 52.2976 30.3521 52.2916 30.3581 52.2856C30.3461 52.2916 30.3281 52.2976 30.3161 52.3096C30.2981 52.3156 30.2741 52.3216 30.2561 52.3276C30.2261 52.3276 30.1961 52.3276 30.1661 52.3276C30.1481 52.3216 30.1361 52.3216 30.1181 52.3156C30.1061 52.3096 29.9921 52.2736 29.9561 52.2616C29.9441 52.2556 29.9321 52.2496 29.9201 52.2436C29.8661 52.2136 29.8121 52.1836 29.7581 52.1476C29.7521 52.1416 29.7461 52.1416 29.7401 52.1356C29.7641 52.1536 29.7701 52.1656 29.7341 52.1296C29.7221 52.1176 29.7101 52.1116 29.6981 52.0996C29.7101 52.1056 29.7161 52.1116 29.7281 52.1176C29.6861 52.0816 29.6501 52.0336 29.608 51.9915C29.602 51.9795 29.59 51.9675 29.584 51.9495C29.572 51.9255 29.56 51.9075 29.548 51.8835C29.548 51.8835 29.548 51.8775 29.542 51.8775C29.536 51.8535 29.524 51.8295 29.512 51.7995C29.512 51.7935 29.512 51.7935 29.512 51.7815C29.512 51.7515 29.512 51.7275 29.512 51.6975C29.512 51.7035 29.506 51.7155 29.506 51.7215C29.506 51.7275 29.506 51.7575 29.512 51.7815C29.506 51.7575 29.5 51.7395 29.506 51.7275C29.506 51.7335 29.506 51.7335 29.506 51.7335C29.512 51.7155 29.512 51.6975 29.518 51.6795V51.6735C29.518 51.6435 29.524 51.6375 29.53 51.6375C29.536 51.6255 29.536 51.6135 29.542 51.6015C29.548 51.5954 29.548 51.5894 29.554 51.5834C29.584 51.5354 29.602 51.4814 29.614 51.4214C29.7341 51.3734 29.8421 51.2954 29.9141 51.1873C30.0101 51.1813 30.1061 51.1813 30.2021 51.1873C30.2441 51.1873 30.2801 51.1933 30.3221 51.1933C30.3281 51.1933 30.3341 51.1933 30.3401 51.1933C30.3461 51.1933 30.3581 51.1933 30.3641 51.1933C30.3761 51.1933 30.3941 51.1993 30.4061 51.1993C30.3941 51.1993 30.3881 51.1993 30.3821 51.1993C30.4361 51.2113 30.4901 51.2294 30.5441 51.2414C30.5081 51.2234 30.5201 51.2173 30.5561 51.2353C30.5681 51.2414 30.5741 51.2474 30.5861 51.2534C30.5981 51.2534 30.6101 51.2594 30.6161 51.2654C30.6041 51.2654 30.5981 51.2594 30.5861 51.2594C30.5921 51.2654 30.6041 51.2654 30.6101 51.2714C30.6221 51.2774 30.6281 51.2834 30.6401 51.2894C30.6521 51.3014 30.6581 51.3074 30.6701 51.3194C30.6701 51.3194 30.6701 51.3254 30.6761 51.3254C30.6821 51.3554 30.6941 51.3914 30.7001 51.4214C30.7001 51.4514 30.7001 51.4754 30.7001 51.5054C30.6761 51.5354 30.6701 51.5894 30.6701 51.6195Z" fill="black"/>
<path d="M30.568 51.2714C30.55 51.2654 30.538 51.2654 30.52 51.2594C30.532 51.2654 30.55 51.2714 30.568 51.2714C30.568 51.2774 30.568 51.2774 30.568 51.2714Z" fill="black"/>
<path d="M30.3582 51.2173C30.3522 51.2173 30.3522 51.2173 30.3462 51.2113H30.3402C30.3282 51.2113 30.3102 51.2054 30.2982 51.2054C30.2622 51.2114 30.2562 51.2173 30.3582 51.2173Z" fill="black"/>
<path d="M30.3161 51.2113C30.3101 51.2113 30.3041 51.2113 30.2981 51.2113C30.3101 51.2113 30.3221 51.2114 30.3401 51.2174C30.3341 51.2114 30.3221 51.2113 30.3161 51.2113Z" fill="black"/>
<path d="M44.8609 35.6674C44.9029 35.7275 44.945 35.7935 44.987 35.8595C45.041 35.9975 45.101 36.1416 45.155 36.2796C45.227 36.5137 45.233 36.7477 45.185 36.9818C45.173 37.2158 45.107 37.4319 44.987 37.6359C44.8849 37.84 44.7409 38.002 44.5549 38.1281C44.3929 38.2841 44.2069 38.3861 43.9849 38.4401C43.9189 38.4701 43.7269 38.4821 43.7449 38.4761C43.6309 38.4941 43.5889 38.5062 43.5049 38.5062C43.4149 38.5062 43.3249 38.5002 43.2349 38.4821C43.3069 38.5182 43.3849 38.5542 43.4629 38.5842C43.7449 38.6862 44.0509 38.6862 44.3449 38.6382C44.6389 38.5902 44.9089 38.4341 45.137 38.2361C45.365 38.032 45.521 37.75 45.617 37.4559C45.719 37.1498 45.713 36.8317 45.665 36.5197C45.611 36.1896 45.437 35.8475 45.197 35.6254C45.035 35.4754 44.8489 35.3554 44.6329 35.2953C44.6089 35.2893 44.5789 35.2833 44.5489 35.2773C44.5729 35.2953 44.5909 35.3134 44.6149 35.3314C44.7109 35.4274 44.7949 35.5414 44.8609 35.6674Z" fill="black"/>
<path d="M43.9788 35.3073C43.8168 35.3734 43.6848 35.4514 43.5948 35.6074C43.4568 35.5834 43.3068 35.6074 43.1688 35.6794C42.6648 35.9495 42.3587 36.5677 42.3887 37.1378C42.4067 37.4259 42.4787 37.726 42.6528 37.966C42.8148 38.1881 43.0068 38.3561 43.2348 38.4761C43.3248 38.4941 43.4148 38.5001 43.5048 38.5001C43.5888 38.5001 43.6308 38.4822 43.7448 38.4701C43.7268 38.4701 43.9188 38.4581 43.9848 38.4341C44.2008 38.3801 44.3928 38.2781 44.5549 38.122C44.7349 37.996 44.8789 37.834 44.9869 37.6299C45.1069 37.4259 45.1729 37.2098 45.1849 36.9758C45.2329 36.7417 45.2269 36.5077 45.1549 36.2736C45.1009 36.1356 45.0409 35.9915 44.9869 35.8535C44.9509 35.7875 44.9089 35.7215 44.8609 35.6614C44.7949 35.5354 44.7169 35.4274 44.6149 35.3253C44.5909 35.3073 44.5729 35.2893 44.5489 35.2713C44.3568 35.2353 44.1528 35.2413 43.9788 35.3073ZM44.3748 36.6877C44.3868 36.7297 44.3988 36.7657 44.4048 36.8077C44.4108 36.8617 44.4108 36.9158 44.4048 36.9638C44.3928 37.0058 44.3868 37.0538 44.3688 37.0958C44.3508 37.1378 44.3268 37.1738 44.3028 37.2098C44.2788 37.2338 44.2548 37.2578 44.2308 37.2818C44.2128 37.2938 44.1948 37.3058 44.1708 37.3178C44.1348 37.3299 44.0928 37.3419 44.0568 37.3479C44.0208 37.3479 43.9788 37.3479 43.9428 37.3479C43.9068 37.3419 43.8708 37.3299 43.8348 37.3178C43.8108 37.3058 43.7808 37.2878 43.7568 37.2758C43.7448 37.2638 43.7388 37.2578 43.7268 37.2458C43.7208 37.2338 43.7088 37.2158 43.7028 37.2038C43.6968 37.1798 43.6908 37.1558 43.6848 37.1318C43.6848 37.1018 43.6848 37.0658 43.6848 37.0358C43.6908 36.9998 43.7028 36.9698 43.7148 36.9338C43.7208 36.9158 43.7328 36.8977 43.7448 36.8857C43.7568 36.8677 43.7748 36.8557 43.7928 36.8377C43.8048 36.8317 43.8108 36.8257 43.8228 36.8197C43.9188 36.7657 43.9908 36.6817 44.0508 36.5857C44.1348 36.6037 44.2248 36.6037 44.3088 36.5797C44.3208 36.5917 44.3268 36.5977 44.3388 36.6097C44.3448 36.6337 44.3628 36.6637 44.3748 36.6877Z" fill="black"/>
<path d="M14.4574 35.3014C14.3314 35.3074 14.2054 35.3494 14.1034 35.4154C14.4934 35.4814 14.8474 35.6734 15.1414 35.9555C15.3814 36.1896 15.5914 36.5437 15.6634 36.8857C15.7654 37.3659 15.7114 37.81 15.4954 38.2361C15.2914 38.6442 14.9014 38.9083 14.4994 39.0403C14.4754 39.0463 14.4514 39.0523 14.4274 39.0583C14.2534 39.1543 14.0734 39.2143 13.8813 39.2503C14.3974 39.3344 14.9494 39.2324 15.3694 38.9443C16.0595 38.4762 16.4435 37.66 16.2995 36.8197C16.1495 35.9615 15.3154 35.2714 14.4574 35.3014Z" fill="black"/>
<path d="M14.4992 39.0463C14.9012 38.9083 15.2912 38.6442 15.4952 38.2421C15.7112 37.81 15.7652 37.3659 15.6632 36.8917C15.5912 36.5557 15.3812 36.1956 15.1412 35.9615C14.8472 35.6734 14.4932 35.4874 14.1032 35.4214C14.0672 35.4454 14.0372 35.4694 14.0072 35.4994C13.2331 35.4994 12.5131 36.0755 12.3031 36.8257C12.0811 37.6359 12.4531 38.5001 13.1251 38.9683C13.3471 39.1243 13.6111 39.2203 13.8871 39.2624C14.0792 39.2263 14.2592 39.1663 14.4332 39.0703C14.4512 39.0583 14.4752 39.0523 14.4992 39.0463ZM14.2832 37.978C14.2652 37.978 14.1452 37.972 14.1092 37.972C14.0912 37.966 14.0732 37.966 14.0612 37.96C14.0312 37.954 14.0072 37.948 13.9832 37.936C13.9652 37.93 13.9532 37.924 13.9352 37.918C13.8931 37.894 13.8391 37.87 13.8331 37.864C13.8331 37.864 13.8211 37.858 13.8091 37.846C13.8271 37.864 13.8391 37.882 13.7971 37.846C13.7911 37.84 13.7911 37.84 13.7851 37.834C13.7731 37.822 13.7611 37.816 13.7611 37.816C13.7611 37.816 13.7671 37.816 13.7731 37.822C13.7431 37.792 13.7071 37.756 13.6771 37.72C13.6591 37.696 13.6471 37.672 13.6291 37.6479C13.6171 37.6299 13.6051 37.6119 13.5991 37.5879C13.5991 37.5939 13.5991 37.5999 13.5991 37.6059C13.5991 37.5999 13.5991 37.5939 13.5991 37.5879C13.5991 37.5819 13.5931 37.5819 13.5931 37.5759C13.5691 37.5279 13.5751 37.5219 13.5811 37.5339C13.5691 37.5039 13.5511 37.4679 13.5511 37.4499C13.5451 37.4319 13.5451 37.4139 13.5391 37.3959C13.5391 37.3419 13.5391 37.2878 13.5331 37.2398C13.5391 37.2158 13.5451 37.1858 13.5511 37.1618C13.5511 37.1618 13.5631 37.1198 13.5751 37.1018C13.5871 37.0778 13.5991 37.0538 13.6111 37.0358C13.6111 37.0358 13.6111 37.0358 13.6111 37.0298C13.6411 37.0118 13.6831 36.9518 13.7131 36.9158C13.7071 36.9218 13.7011 36.9217 13.6891 36.9217C13.6951 36.9217 13.7011 36.9158 13.7131 36.9158C13.7191 36.9098 13.7251 36.8978 13.7311 36.8978C13.7611 36.8677 13.7611 36.8737 13.7551 36.8917C13.7671 36.8797 13.7851 36.8678 13.7911 36.8617C13.8091 36.8497 13.8271 36.8437 13.8451 36.8317C13.8931 36.8197 13.9352 36.8077 13.9832 36.7957C14.0192 36.7957 14.0552 36.7957 14.0912 36.7957C14.2592 36.8077 14.4212 36.7297 14.5412 36.6097C14.5532 36.6097 14.5652 36.6097 14.5712 36.6097C14.6012 36.6157 14.6312 36.6277 14.6612 36.6337C14.6672 36.6337 14.6732 36.6397 14.6792 36.6397C14.6792 36.6397 14.6792 36.6397 14.6852 36.6397C14.7272 36.6697 14.7752 36.6997 14.8232 36.7297C14.8352 36.7417 14.8532 36.7597 14.8652 36.7717C14.8772 36.7837 14.8892 36.7957 14.9012 36.8077C14.9192 36.8497 14.9672 36.9038 14.9852 36.9338C14.9912 36.9458 15.0032 36.9638 15.0092 36.9818C15.0092 36.9878 15.0092 36.9878 15.0152 36.9938C15.0272 37.0358 15.0392 37.0778 15.0452 37.1198C15.0452 37.1438 15.0452 37.1678 15.0452 37.1918C15.0452 37.2098 15.0452 37.2338 15.0452 37.2518C15.0332 37.3059 15.0212 37.3599 15.0092 37.4139V37.4199C15.0152 37.4139 15.0212 37.4139 15.0032 37.4439C14.9972 37.4499 14.9972 37.4619 14.9912 37.4679C14.9852 37.4799 14.9852 37.4859 14.9852 37.4919C14.9852 37.4859 14.9852 37.4859 14.9852 37.4799C14.9612 37.5219 14.9432 37.5639 14.9192 37.6059C14.9072 37.6239 14.8952 37.6419 14.8832 37.6599C14.8412 37.702 14.8052 37.744 14.7632 37.786C14.7512 37.798 14.7272 37.816 14.7032 37.828C14.6612 37.852 14.6252 37.876 14.5832 37.9C14.5832 37.9 14.5772 37.906 14.5652 37.906C14.5772 37.9 14.5832 37.906 14.5592 37.912C14.5352 37.924 14.5112 37.936 14.5112 37.936C14.5112 37.93 14.5172 37.924 14.5232 37.924C14.4632 37.942 14.4092 37.954 14.3492 37.972C14.3252 37.972 14.3012 37.972 14.2832 37.978Z" fill="black"/>
<path d="M36.8506 28.1115C36.8626 28.1295 36.8686 28.1536 36.8806 28.1716C36.8866 28.1836 36.8926 28.1896 36.8986 28.2016C36.9346 28.2556 36.9766 28.3096 37.0186 28.3576C37.0246 28.3636 37.0306 28.3756 37.0426 28.3816C37.0846 28.4236 37.1386 28.4656 37.1926 28.4956C37.1986 28.5016 37.2046 28.5076 37.2106 28.5076C37.2646 28.5376 37.3246 28.5617 37.3846 28.5857C37.3966 28.5917 37.4146 28.5917 37.4266 28.5977C37.4866 28.6097 37.5526 28.6217 37.6126 28.6217C37.6186 28.6217 37.6306 28.6217 37.6366 28.6217C37.6966 28.6157 37.7626 28.6097 37.8226 28.5977C37.8286 28.5977 37.8346 28.5977 37.8467 28.5917C37.9127 28.5737 37.9787 28.5437 38.0387 28.5136C38.0567 28.5076 38.0687 28.4956 38.0807 28.4896C38.1407 28.4536 38.1947 28.4056 38.2487 28.3576C38.2607 28.3456 38.2727 28.3336 38.2847 28.3216C38.3327 28.2676 38.3747 28.2136 38.4107 28.1536C38.4227 28.1355 38.4287 28.1235 38.4347 28.1055C38.4647 28.0395 38.4947 27.9735 38.5127 27.9075C38.5127 27.9015 38.5187 27.8895 38.5187 27.8835C38.5307 27.8235 38.5367 27.7575 38.5427 27.6914C38.5427 27.6734 38.5427 27.6554 38.5427 27.6374C38.5367 27.5654 38.5307 27.4934 38.5127 27.4214C38.4947 27.3494 38.4587 27.2833 38.4287 27.2173C38.4227 27.1993 38.4107 27.1873 38.4047 27.1753C38.3627 27.1153 38.3207 27.0613 38.2727 27.0073C38.2607 26.9953 38.2427 26.9773 38.2307 26.9652C38.1827 26.9232 38.1347 26.8872 38.0807 26.8512C38.0627 26.8272 38.0447 26.8032 38.0267 26.7792C37.9487 26.6952 37.8526 26.6412 37.7446 26.6112C37.7386 26.6112 37.7266 26.6052 37.7206 26.6052C37.6786 26.5992 37.5886 26.5812 37.5466 26.5812C37.5406 26.5812 37.5406 26.5812 37.5346 26.5812C37.5286 26.5812 37.5166 26.5812 37.5106 26.5812C37.4506 26.5872 37.3786 26.5932 37.3186 26.6112C37.2586 26.6292 37.1986 26.6592 37.1446 26.6832C37.1386 26.6892 37.1266 26.6892 37.1206 26.6952C37.1146 26.7012 37.1026 26.7072 37.0966 26.7132C37.0486 26.7492 36.9946 26.7852 36.9466 26.8332C36.9406 26.8392 36.9346 26.8452 36.9286 26.8512C36.8926 26.8992 36.8506 26.9472 36.8146 27.0013C36.7726 27.0613 36.7486 27.1333 36.7246 27.2053C36.7186 27.2233 36.7126 27.2473 36.7066 27.2713C36.6946 27.3494 36.6766 27.4334 36.6826 27.5114C36.6886 27.5894 36.7006 27.6674 36.7126 27.7455C36.7186 27.7695 36.7246 27.7995 36.7366 27.8235C36.7666 27.9195 36.8086 28.0155 36.8506 28.1115Z" fill="black"/>
<path d="M42.4967 31.6044C42.4907 31.5864 42.4907 31.5684 42.4847 31.5504C42.4607 31.4904 42.4367 31.4304 42.4127 31.3764C42.4067 31.3704 42.4067 31.3644 42.4007 31.3524C42.3767 31.3103 42.3467 31.2743 42.3227 31.2383C42.2987 31.2023 42.2747 31.1663 42.2387 31.1363C42.2327 31.1303 42.2267 31.1243 42.2147 31.1183C42.1667 31.0763 42.1187 31.0343 42.0647 31.0043C42.0587 30.9983 42.0527 30.9983 42.0407 30.9923C41.9867 30.9623 41.9267 30.9383 41.8667 30.9143C41.8487 30.9083 41.8307 30.9023 41.8067 30.8962C41.7527 30.8902 41.6807 30.8782 41.6327 30.8722C41.6267 30.8722 41.6207 30.8722 41.6147 30.8722C41.6027 30.8722 41.5967 30.8722 41.5847 30.8722C41.5307 30.8782 41.4587 30.8902 41.4047 30.8962C41.3987 30.8962 41.3927 30.8962 41.3867 30.9022C41.3747 30.9022 41.3687 30.9083 41.3567 30.9143C41.2006 30.9743 41.1646 30.9923 41.0386 31.1063C41.0326 31.1123 41.0266 31.1183 41.0206 31.1243C41.0206 31.1243 41.0146 31.1303 41.0146 31.1363C40.9846 31.1783 40.9366 31.2323 40.9066 31.2743C40.9006 31.2803 40.8946 31.2863 40.8946 31.2983C40.8946 31.2983 40.8946 31.3043 40.8886 31.3043C40.8646 31.3524 40.8346 31.4184 40.8166 31.4724C40.7926 31.5444 40.7866 31.6164 40.7866 31.6884C40.7866 31.6944 40.7866 31.7004 40.7866 31.7124C40.7926 31.7605 40.7986 31.8385 40.8106 31.8865C40.8106 31.9045 40.8046 31.9165 40.8106 31.9345C40.8226 32.0905 40.8406 32.1926 40.9186 32.3306C40.9366 32.3606 40.9606 32.3906 40.9786 32.4146C40.9966 32.4386 41.0206 32.4686 41.0386 32.4927C41.0866 32.5407 41.1466 32.5827 41.2006 32.6247C41.2546 32.6607 41.3266 32.6847 41.3867 32.7087C41.3987 32.7147 41.4167 32.7207 41.4347 32.7207C41.4947 32.7327 41.5607 32.7387 41.6207 32.7447C41.6267 32.7447 41.6387 32.7447 41.6447 32.7447C41.6507 32.7447 41.6627 32.7447 41.6687 32.7447C41.7287 32.7387 41.7947 32.7327 41.8547 32.7207C41.8727 32.7207 41.8847 32.7147 41.8967 32.7087C41.9507 32.6907 42.0107 32.6607 42.0647 32.6367C42.0707 32.6307 42.0827 32.6307 42.0887 32.6247C42.0947 32.6187 42.1007 32.6187 42.1067 32.6127C42.1547 32.5767 42.2087 32.5407 42.2507 32.4986C42.2627 32.4866 42.2747 32.4746 42.2807 32.4626C42.3167 32.4146 42.3587 32.3666 42.3947 32.3126C42.4007 32.3066 42.4007 32.3006 42.4067 32.2946C42.4367 32.2286 42.4667 32.1626 42.4907 32.0905C42.5087 32.0245 42.5147 31.9345 42.5207 31.8745C42.5207 31.8565 42.5207 31.8385 42.5207 31.8205C42.5207 31.7845 42.5087 31.7485 42.5087 31.7124C42.5087 31.6824 42.5027 31.6404 42.4967 31.6044Z" fill="black"/>
<path d="M43.0188 43.5114C43.0188 43.4994 43.0128 43.4934 43.0128 43.4814C42.9948 43.4334 42.9648 43.3674 42.9468 43.3194C42.9468 43.3134 42.9408 43.3074 42.9408 43.3014C42.9108 43.2413 42.8627 43.1933 42.8267 43.1453L42.8207 43.1393C42.7607 43.0733 42.6947 43.0313 42.6107 43.0013C42.5327 42.9593 42.4487 42.9413 42.3647 42.9473C42.3527 42.9473 42.3407 42.9533 42.3287 42.9533C42.2447 42.9353 42.1607 42.9353 42.0707 42.9653C41.9987 42.9893 41.9267 43.0133 41.8667 43.0553C41.8607 43.0613 41.8607 43.0613 41.8547 43.0673C41.8127 43.0973 41.7587 43.1393 41.7167 43.1753C41.7107 43.1813 41.7107 43.1813 41.7047 43.1873C41.6927 43.1993 41.6867 43.2053 41.6807 43.2053C41.6807 43.2053 41.6807 43.2053 41.6747 43.2113C41.6627 43.2233 41.5787 43.3314 41.5727 43.3434V43.3494C41.5727 43.3554 41.5667 43.3674 41.5547 43.3854C41.5247 43.4514 41.4887 43.5174 41.4707 43.5894C41.4527 43.6615 41.4407 43.7395 41.4407 43.8175C41.4467 43.8775 41.4587 43.9315 41.4647 43.9915C41.4887 44.0455 41.5067 44.0936 41.5307 44.1476C41.5367 44.1536 41.5367 44.1596 41.5427 44.1596C41.5487 44.1716 41.5607 44.1836 41.5727 44.1956C41.5847 44.2436 41.6027 44.2976 41.6327 44.3396C41.6927 44.4537 41.8007 44.5617 41.9147 44.6217C42.0407 44.6937 42.1607 44.7237 42.3047 44.7297C42.4427 44.7357 42.5687 44.6937 42.6947 44.6277C42.9108 44.5137 43.0548 44.2496 43.0308 44.0035C43.0308 43.9795 43.0248 43.9615 43.0248 43.9375C43.0428 43.8715 43.0488 43.7995 43.0548 43.7335C43.0488 43.6615 43.0308 43.5834 43.0188 43.5114Z" fill="black"/>
<path d="M38.6985 48.6487C38.6445 48.6007 38.5905 48.5527 38.5305 48.5167C38.5245 48.5167 38.5245 48.5107 38.5185 48.5107C38.4705 48.4867 38.4045 48.4567 38.3565 48.4447C38.3445 48.4387 38.3385 48.4387 38.3265 48.4387C38.2664 48.4266 38.2004 48.4147 38.1404 48.4147C38.1344 48.4147 38.1344 48.4147 38.1284 48.4147C38.0804 48.4147 38.0024 48.4326 37.9484 48.4387C37.9424 48.4387 37.9304 48.4387 37.9244 48.4447C37.8884 48.4567 37.7984 48.4987 37.7684 48.5107C37.7624 48.5107 37.7624 48.5167 37.7564 48.5167C37.7324 48.5287 37.6964 48.5587 37.6784 48.5767C37.6304 48.5947 37.5764 48.6127 37.5284 48.6427C37.4984 48.6607 37.4624 48.6907 37.4264 48.7207C37.4024 48.7387 37.3784 48.7567 37.3604 48.7747C37.2824 48.8588 37.2224 48.9548 37.1924 49.0628C37.1924 49.0688 37.1924 49.0808 37.1864 49.0868C37.1804 49.0988 37.1804 49.1108 37.1744 49.1228C37.1624 49.1828 37.1564 49.2489 37.1504 49.3089C37.1504 49.3149 37.1504 49.3269 37.1504 49.3329C37.1504 49.4049 37.1624 49.4769 37.1744 49.5429C37.1744 49.5489 37.1804 49.5609 37.1804 49.5669C37.1984 49.6149 37.2284 49.687 37.2524 49.735C37.2584 49.741 37.2584 49.747 37.2644 49.753C37.2644 49.759 37.2704 49.759 37.2704 49.765C37.3064 49.807 37.3364 49.855 37.3724 49.897C37.4144 49.951 37.4744 49.987 37.5344 50.029C37.6124 50.0771 37.6964 50.0951 37.7864 50.1071C37.8284 50.1251 37.8764 50.1371 37.9244 50.1431C37.9724 50.1671 38.0204 50.1911 38.0744 50.2031C38.1344 50.2091 38.1884 50.2211 38.2484 50.2271C38.3385 50.2331 38.4225 50.2091 38.4945 50.1731C38.5485 50.1551 38.5965 50.1311 38.6385 50.0891C38.7105 50.0411 38.7645 49.981 38.8065 49.903C38.8485 49.807 38.8905 49.717 38.9265 49.615C38.9325 49.591 38.9385 49.5729 38.9445 49.5489C38.9565 49.4829 38.9625 49.4169 38.9745 49.3509C38.9745 49.3389 38.9805 49.3269 38.9805 49.3089C38.9805 49.2969 38.9805 49.2849 38.9805 49.2729C38.9745 49.2069 38.9685 49.1408 38.9565 49.0748C38.9445 49.0088 38.8965 48.9068 38.8785 48.8648C38.8725 48.8468 38.8605 48.8288 38.8485 48.8167C38.8125 48.7687 38.7765 48.7147 38.7345 48.6727C38.7105 48.6667 38.7045 48.6547 38.6985 48.6487Z" fill="black"/>
<path d="M21.7955 49.999C21.8135 50.0711 21.8495 50.1371 21.8795 50.2031C21.8855 50.2211 21.8975 50.2331 21.9035 50.2451C21.9455 50.3051 21.9875 50.3591 22.0355 50.4132C22.0475 50.4252 22.0655 50.4432 22.0775 50.4552C22.1255 50.4972 22.1735 50.5332 22.2275 50.5692C22.2455 50.5932 22.2635 50.6172 22.2815 50.6412C22.3596 50.7252 22.4556 50.7792 22.5636 50.8093C22.5696 50.8093 22.5816 50.8153 22.5876 50.8153C22.6296 50.8213 22.7196 50.8393 22.7616 50.8393C22.7676 50.8393 22.7676 50.8393 22.7736 50.8393C22.7796 50.8393 22.7916 50.8393 22.7976 50.8393C22.8576 50.8333 22.9296 50.8273 22.9896 50.8093C23.0496 50.7913 23.1096 50.7612 23.1636 50.7372C23.1696 50.7312 23.1816 50.7312 23.1876 50.7252C23.1936 50.7192 23.2056 50.7132 23.2116 50.7072C23.2596 50.6712 23.3136 50.6352 23.3616 50.5872C23.3676 50.5812 23.3736 50.5752 23.3796 50.5692C23.4156 50.5212 23.4576 50.4732 23.4936 50.4192C23.5356 50.3591 23.5596 50.2871 23.5836 50.2151C23.5896 50.1971 23.5956 50.1731 23.6016 50.1491C23.6136 50.0711 23.6316 49.987 23.6256 49.909C23.6196 49.831 23.6076 49.753 23.5956 49.675C23.5896 49.651 23.5836 49.621 23.5716 49.597C23.5356 49.4949 23.4936 49.3989 23.4516 49.3029C23.4396 49.2849 23.4336 49.2609 23.4216 49.2429C23.4156 49.2309 23.4096 49.2249 23.4036 49.2129C23.3676 49.1588 23.3256 49.1048 23.2836 49.0568C23.2776 49.0508 23.2716 49.0388 23.2596 49.0328C23.2176 48.9908 23.1636 48.9488 23.1096 48.9188C23.1036 48.9128 23.0976 48.9068 23.0916 48.9068C23.0376 48.8768 22.9776 48.8528 22.9176 48.8287C22.9056 48.8227 22.8876 48.8228 22.8756 48.8168C22.8156 48.8047 22.7496 48.7927 22.6896 48.7927C22.6836 48.7927 22.6716 48.7927 22.6656 48.7927C22.6056 48.7987 22.5396 48.8047 22.4796 48.8168C22.4736 48.8168 22.4676 48.8168 22.4556 48.8228C22.3896 48.8408 22.3236 48.8708 22.2635 48.9008C22.2455 48.9068 22.2335 48.9188 22.2215 48.9248C22.1615 48.9608 22.1075 49.0088 22.0535 49.0568C22.0415 49.0688 22.0295 49.0808 22.0175 49.0928C21.9695 49.1468 21.9275 49.2008 21.8915 49.2609C21.8795 49.2789 21.8735 49.2909 21.8675 49.3089C21.8375 49.3749 21.8075 49.4409 21.7895 49.5069C21.7895 49.5129 21.7835 49.5249 21.7835 49.5309C21.7715 49.5909 21.7655 49.657 21.7595 49.723C21.7595 49.741 21.7595 49.759 21.7595 49.777C21.7715 49.855 21.7715 49.933 21.7955 49.999Z" fill="black"/>
<path d="M16.8453 46.0621C16.8513 46.0801 16.8513 46.0981 16.8573 46.1161C16.8813 46.1761 16.9053 46.2361 16.9293 46.2901C16.9353 46.2961 16.9353 46.3021 16.9413 46.3141C16.9653 46.3561 16.9953 46.3921 17.0193 46.4282C17.0433 46.4642 17.0673 46.5002 17.1033 46.5302C17.1093 46.5362 17.1153 46.5422 17.1273 46.5482C17.1753 46.5902 17.2233 46.6322 17.2773 46.6622C17.2833 46.6682 17.2893 46.6682 17.3013 46.6742C17.3553 46.7042 17.4153 46.7282 17.4753 46.7522C17.4933 46.7582 17.5113 46.7642 17.5353 46.7702C17.5893 46.7762 17.6613 46.7883 17.7093 46.7943C17.7153 46.7943 17.7213 46.7943 17.7273 46.7943C17.7393 46.7943 17.7453 46.7943 17.7573 46.7943C17.8113 46.7883 17.8833 46.7762 17.9373 46.7702C17.9433 46.7702 17.9493 46.7703 17.9553 46.7643C17.9673 46.7643 17.9733 46.7582 17.9853 46.7522C18.1414 46.6922 18.1774 46.6742 18.3034 46.5602C18.3094 46.5542 18.3154 46.5482 18.3214 46.5422C18.3214 46.5422 18.3274 46.5362 18.3274 46.5302C18.3574 46.4882 18.4054 46.4342 18.4354 46.3921C18.4414 46.3861 18.4474 46.3802 18.4474 46.3681C18.4474 46.3681 18.4474 46.3621 18.4534 46.3621C18.4774 46.3141 18.5074 46.2481 18.5254 46.1941C18.5494 46.1221 18.5554 46.0501 18.5554 45.978C18.5554 45.972 18.5554 45.966 18.5554 45.954C18.5494 45.906 18.5434 45.828 18.5314 45.78C18.5314 45.762 18.5374 45.75 18.5314 45.732C18.5194 45.576 18.5014 45.4739 18.4234 45.3359C18.4054 45.3059 18.3814 45.2759 18.3634 45.2519C18.3454 45.2279 18.3214 45.1978 18.3034 45.1738C18.2554 45.1258 18.1954 45.0838 18.1414 45.0418C18.0874 45.0058 18.0154 44.9818 17.9553 44.9578C17.9433 44.9518 17.9253 44.9458 17.9073 44.9458C17.8473 44.9338 17.7813 44.9278 17.7213 44.9218C17.7153 44.9218 17.7033 44.9218 17.6973 44.9218C17.6913 44.9218 17.6793 44.9218 17.6733 44.9218C17.6133 44.9278 17.5473 44.9338 17.4873 44.9458C17.4693 44.9458 17.4573 44.9518 17.4453 44.9578C17.3913 44.9758 17.3313 45.0058 17.2773 45.0298C17.2713 45.0358 17.2593 45.0358 17.2533 45.0418C17.2473 45.0478 17.2413 45.0478 17.2353 45.0538C17.1873 45.0898 17.1333 45.1258 17.0913 45.1678C17.0793 45.1799 17.0673 45.1918 17.0613 45.1978C17.0253 45.2459 16.9833 45.2939 16.9473 45.3479C16.9413 45.3539 16.9413 45.3599 16.9353 45.3659C16.9053 45.4319 16.8753 45.4979 16.8513 45.5699C16.8333 45.636 16.8273 45.726 16.8213 45.786C16.8213 45.804 16.8213 45.822 16.8213 45.84C16.8213 45.876 16.8333 45.912 16.8333 45.948C16.8333 45.984 16.8393 46.0261 16.8453 46.0621Z" fill="black"/>
<path d="M16.6293 31.8265C16.6413 31.8265 16.6533 31.8205 16.6653 31.8205C16.7493 31.8385 16.8333 31.8385 16.9233 31.8085C16.9953 31.7845 17.0673 31.7605 17.1273 31.7185C17.1333 31.7125 17.1333 31.7124 17.1393 31.7064C17.1813 31.6764 17.2354 31.6344 17.2774 31.5984C17.2834 31.5924 17.2834 31.5924 17.2894 31.5864C17.3014 31.5744 17.3074 31.5684 17.3134 31.5684C17.3134 31.5684 17.3134 31.5684 17.3194 31.5624C17.3314 31.5504 17.4154 31.4424 17.4214 31.4304C17.4214 31.4304 17.4214 31.4244 17.4274 31.4244C17.4274 31.4184 17.4334 31.4064 17.4454 31.3884C17.4754 31.3223 17.5114 31.2563 17.5294 31.1843C17.5474 31.1123 17.5594 31.0343 17.5594 30.9562C17.5534 30.8962 17.5414 30.8422 17.5354 30.7822C17.5114 30.7282 17.4934 30.6802 17.4694 30.6262C17.4634 30.6202 17.4634 30.6142 17.4574 30.6142C17.4514 30.6022 17.4394 30.5902 17.4274 30.5782C17.4154 30.5302 17.3974 30.4761 17.3674 30.4341C17.3074 30.3201 17.1993 30.2121 17.0853 30.152C16.9593 30.08 16.8393 30.05 16.6953 30.044C16.5573 30.038 16.4313 30.08 16.3053 30.1461C16.0893 30.2601 15.9453 30.5241 15.9693 30.7702C15.9693 30.7942 15.9753 30.8122 15.9753 30.8362C15.9573 30.9022 15.9513 30.9743 15.9453 31.0403C15.9393 31.1123 15.9573 31.1903 15.9693 31.2623C15.9693 31.2743 15.9753 31.2803 15.9753 31.2923C15.9933 31.3404 16.0233 31.4064 16.0413 31.4544C16.0413 31.4604 16.0473 31.4664 16.0473 31.4724C16.0773 31.5324 16.1253 31.5804 16.1613 31.6284L16.1673 31.6344C16.2273 31.7004 16.2933 31.7425 16.3773 31.7725C16.4613 31.8085 16.5393 31.8265 16.6293 31.8265Z" fill="black"/>
<path d="M21.9096 27.4694C21.9456 27.4574 22.0356 27.4154 22.0656 27.4034C22.0716 27.4034 22.0716 27.3974 22.0776 27.3974C22.1016 27.3854 22.1376 27.3553 22.1556 27.3373C22.2036 27.3193 22.2576 27.3013 22.3056 27.2713C22.3356 27.2533 22.3716 27.2233 22.4076 27.1933C22.4316 27.1753 22.4556 27.1573 22.4736 27.1393C22.5516 27.0553 22.6116 26.9592 22.6416 26.8512C22.6416 26.8452 22.6416 26.8332 22.6476 26.8272C22.6536 26.8152 22.6536 26.8032 22.6596 26.7912C22.6716 26.7312 22.6776 26.6652 22.6836 26.6052C22.6836 26.5992 22.6836 26.5872 22.6836 26.5812C22.6836 26.5091 22.6716 26.4371 22.6596 26.3711C22.6596 26.3651 22.6536 26.3531 22.6536 26.3471C22.6356 26.2991 22.6056 26.2271 22.5816 26.1791C22.5756 26.173 22.5756 26.167 22.5696 26.161C22.5696 26.155 22.5636 26.1551 22.5636 26.1491C22.5276 26.107 22.4976 26.059 22.4616 26.017C22.4196 25.963 22.3596 25.927 22.2996 25.885C22.2216 25.837 22.1376 25.819 22.0476 25.807C22.0056 25.789 21.9576 25.777 21.9096 25.771C21.8616 25.7469 21.8136 25.7229 21.7596 25.7109C21.6996 25.7049 21.6456 25.6929 21.5856 25.6869C21.4955 25.6809 21.4115 25.7049 21.3395 25.741C21.2855 25.759 21.2375 25.783 21.1955 25.825C21.1235 25.873 21.0695 25.933 21.0275 26.011C20.9855 26.107 20.9435 26.1971 20.9075 26.2991C20.9015 26.3231 20.8955 26.3411 20.8895 26.3651C20.8775 26.4311 20.8715 26.4971 20.8595 26.5632C20.8595 26.5752 20.8535 26.5871 20.8535 26.6052C20.8535 26.6172 20.8535 26.6292 20.8535 26.6412C20.8595 26.7072 20.8655 26.7732 20.8775 26.8392C20.8895 26.9052 20.9375 27.0073 20.9555 27.0493C20.9615 27.0673 20.9735 27.0853 20.9855 27.0973C21.0215 27.1453 21.0575 27.1993 21.0995 27.2413C21.1055 27.2473 21.1115 27.2593 21.1235 27.2653C21.1775 27.3133 21.2315 27.3613 21.2915 27.3974C21.2975 27.3974 21.2975 27.4034 21.3035 27.4034C21.3515 27.4274 21.4175 27.4574 21.4655 27.4694C21.4775 27.4754 21.4835 27.4754 21.4955 27.4754C21.5556 27.4874 21.6216 27.4994 21.6816 27.4994C21.6876 27.4994 21.6876 27.4994 21.6936 27.4994C21.7416 27.4994 21.8196 27.4814 21.8736 27.4754C21.8916 27.4754 21.8976 27.4694 21.9096 27.4694Z" fill="black"/>
<path d="M30.0399 36.5857C30.0219 36.5797 30.0099 36.5797 29.9919 36.5737C30.0039 36.5737 30.0159 36.5797 30.0399 36.5857C30.0459 36.5857 30.0459 36.5857 30.0399 36.5857Z" fill="black"/>
<path d="M27.0818 39.2503C27.3098 39.7665 27.6878 40.1446 28.2219 40.3306C28.9479 40.5827 29.7879 40.4026 30.424 39.9645C29.6919 40.1206 28.8939 40.0185 28.2939 39.5324C27.7238 39.0703 27.4958 38.3501 27.5678 37.6419C27.5198 36.7357 28.0059 35.8655 28.7559 35.3854C29.1639 35.1273 29.6799 34.9893 30.184 34.9893C30.076 33.861 29.968 32.7387 29.86 31.6104C29.7399 30.3741 29.6799 29.1198 29.4219 27.9015C29.2719 27.1873 28.1019 27.3373 28.1559 28.0755C28.3299 30.4821 28.4919 32.9007 28.2639 35.3133C27.2918 35.5894 26.7158 36.5797 26.6918 37.5579C26.6798 38.1521 26.8418 38.7222 27.0818 39.2503Z" fill="black"/>
<path d="M31.1142 39.7305C30.9102 39.8265 30.6942 39.8985 30.4722 39.9465C31.1262 40.0786 31.7322 40.4927 32.2783 40.9128C32.2843 40.9188 32.2963 40.9248 32.3023 40.9308C34.0784 42.4732 35.8604 44.0035 37.6665 45.5159C37.9366 45.738 38.3146 45.786 38.5786 45.5159C38.5906 45.5039 38.5966 45.4919 38.6086 45.4799C38.8846 45.2098 38.9566 44.6877 38.5426 44.4056C37.5225 43.7035 36.5685 42.9173 35.6564 42.077C35.6264 41.999 35.5784 41.933 35.5124 41.879C35.3204 41.723 35.1284 41.5669 34.9364 41.4049C34.0004 40.5107 33.1003 39.5744 32.2003 38.6502C31.9542 39.1183 31.5582 39.5204 31.1142 39.7305Z" fill="black"/>
<path d="M28.7561 35.3854C28.0061 35.8655 27.5201 36.7297 27.5681 37.6419C27.4961 38.3501 27.7241 39.0703 28.2941 39.5324C28.8941 40.0185 29.6922 40.1206 30.4242 39.9645C30.4362 39.9585 30.4482 39.9525 30.4542 39.9465C30.4602 39.9465 30.4662 39.9525 30.4782 39.9525C30.7002 39.8985 30.9162 39.8265 31.1202 39.7365C31.5643 39.5264 31.9603 39.1243 32.2063 38.6622C32.0143 38.4642 31.8223 38.2661 31.6243 38.068C31.7083 37.6239 31.7023 37.1618 31.6003 36.7117C31.4743 36.1476 31.1262 35.6494 30.5982 35.4154C30.4722 35.3614 30.3462 35.3134 30.2142 35.2834C30.2022 35.1873 30.1962 35.0913 30.1842 34.9953C29.6802 34.9893 29.1641 35.1273 28.7561 35.3854ZM30.1542 36.6457C30.1782 36.6697 30.1962 36.6877 30.2202 36.7117C30.2262 36.7177 30.2262 36.7177 30.2262 36.7177C30.2502 36.7597 30.2742 36.7957 30.2922 36.8377C30.2982 36.8497 30.3042 36.8617 30.3042 36.8737C30.3162 36.9158 30.3282 36.9518 30.3402 36.9938C30.3522 37.0418 30.3642 37.0958 30.3762 37.1498C30.3762 37.1618 30.3822 37.1978 30.3882 37.2218C30.3882 37.2458 30.3942 37.2698 30.3942 37.2758C30.3942 37.3179 30.4002 37.3539 30.4002 37.3959C30.4002 37.4859 30.3942 37.5759 30.3942 37.666C30.3942 37.678 30.3942 37.69 30.3942 37.696C30.3882 37.726 30.3822 37.762 30.3762 37.792C30.3582 37.882 30.3342 37.972 30.3102 38.056C30.2982 38.0921 30.2862 38.1341 30.2742 38.1701C30.2682 38.1761 30.2562 38.2121 30.2442 38.2361C30.2322 38.2541 30.2202 38.2841 30.2202 38.2901C30.1962 38.3321 30.1722 38.3801 30.1482 38.4221C30.1302 38.4581 30.1062 38.4882 30.0822 38.5242C30.0762 38.5362 30.0702 38.5422 30.0642 38.5542C30.0642 38.5602 30.0582 38.5602 30.0582 38.5662C30.0462 38.5782 30.0342 38.5902 30.0222 38.6082C29.8062 38.6382 29.6142 38.7942 29.5302 38.9983C29.5062 39.0103 29.4822 39.0223 29.4582 39.0343H29.4522C29.3802 39.0523 29.3082 39.0823 29.2302 39.1003C29.1941 39.1123 29.1521 39.1123 29.1161 39.1243C29.0321 39.1243 28.9481 39.1363 28.8581 39.1303C28.8581 39.1303 28.7861 39.1183 28.7561 39.1183C28.7381 39.1123 28.7201 39.1123 28.7141 39.1063C28.6721 39.0943 28.6361 39.0883 28.5941 39.0763C28.5881 39.0763 28.5521 39.0583 28.5281 39.0523C28.5101 39.0403 28.4801 39.0223 28.4741 39.0223C28.4681 39.0163 28.4621 39.0163 28.4561 39.0163C28.4261 38.9863 28.3961 38.9623 28.3721 38.9263C28.3541 38.9022 28.3421 38.8782 28.3241 38.8542C28.1741 38.5962 28.0481 38.2361 28.0001 37.918C28.0001 37.906 27.9881 37.822 27.9881 37.816C27.9821 37.756 27.9821 37.702 27.9821 37.6419C27.9821 37.5939 27.9821 37.5519 27.9881 37.5039C27.9881 37.4739 27.9881 37.4559 27.9881 37.4499C27.9881 37.4379 27.9941 37.4259 28.0001 37.4019C28.0181 37.3059 28.0481 37.2158 28.0781 37.1198V37.1138C28.0781 37.1198 28.0781 37.1198 28.0721 37.1198C28.0721 37.1138 28.0781 37.1138 28.0781 37.1078C28.0841 37.0898 28.0961 37.0658 28.0961 37.0658C28.1081 37.0418 28.1201 37.0178 28.1321 36.9938C28.1501 36.9638 28.1681 36.9278 28.1921 36.8978C28.2041 36.8858 28.2101 36.8738 28.2161 36.8618C28.2701 36.8017 28.3241 36.7417 28.3841 36.6877C28.3841 36.6877 28.3841 36.6877 28.3901 36.6877C28.4381 36.6577 28.4801 36.6337 28.5281 36.6037C28.5281 36.6037 28.5281 36.6037 28.5341 36.6037C28.5281 36.6037 28.5281 36.6037 28.5221 36.6097C28.5281 36.6097 28.5281 36.6097 28.5341 36.6037C28.5581 36.5917 28.5881 36.5857 28.5761 36.5917C28.6121 36.5797 28.6421 36.5677 28.6781 36.5617C28.7261 36.5497 28.7741 36.5257 28.8221 36.5017C28.8881 36.5257 28.9601 36.5377 29.0381 36.5317C29.1941 36.5137 29.3502 36.5017 29.5062 36.5017C29.5782 36.5017 29.6562 36.5016 29.7282 36.5076C29.7342 36.5076 29.7582 36.5137 29.7762 36.5137C29.8062 36.5197 29.8422 36.5257 29.8542 36.5257C29.9022 36.5377 29.9562 36.5557 30.0042 36.5677C29.9862 36.5617 30.0222 36.5617 30.0462 36.5797H30.0522C30.0462 36.5797 30.0462 36.5797 30.0462 36.5797C30.0762 36.6037 30.1182 36.6337 30.1542 36.6457Z" fill="black"/>
<path d="M28.5281 36.5977C28.5521 36.5917 28.5641 36.5857 28.5701 36.5857C28.5581 36.5917 28.5401 36.5917 28.5281 36.5977Z" fill="black"/>
<path d="M28.072 37.1018C28.09 37.0718 28.096 37.0598 28.09 37.0598C28.084 37.0778 28.078 37.0898 28.072 37.1018Z" fill="black"/>
<path d="M47.0751 27.4094C46.8051 27.6794 46.8531 28.0575 47.0751 28.3336C48.9472 30.6922 49.9792 33.6809 50.0152 36.6997C50.0272 37.5399 51.3173 37.5459 51.3053 36.6997C51.2633 33.3089 50.0752 30.044 47.9871 27.4094C47.7711 27.1333 47.3031 27.1753 47.0751 27.4094Z" fill="#7469F6"/>
<path d="M52.5412 32.5287C52.8832 32.4086 53.0632 32.0725 52.9792 31.7185C52.7812 30.9023 52.5112 30.098 52.1812 29.3298C52.1092 29.1678 52.0372 29.0358 51.8812 28.9458C51.7432 28.8677 51.5392 28.8317 51.3831 28.8857C51.2271 28.9398 51.0771 29.0418 51.0051 29.1918C50.9331 29.3359 50.8791 29.5399 50.9451 29.696C51.2811 30.4701 51.5452 31.2683 51.7432 32.0845C51.8212 32.4206 52.2232 32.6427 52.5412 32.5287Z" fill="black"/>
<path d="M7.53892 39.7245C7.49092 39.3764 7.0469 39.1843 6.74688 39.2684C6.37486 39.3704 6.24886 39.7245 6.29686 40.0726C6.86689 44.3036 8.66098 48.3006 11.3791 51.5534C11.9192 52.1956 12.8252 51.2654 12.2912 50.6292C9.71704 47.5444 8.07895 43.7275 7.53892 39.7245Z" fill="#7469F6"/>
<path d="M32.9083 57.699C32.5663 57.735 32.3682 58.1851 32.4403 58.5032C32.5303 58.8933 32.8603 59.0313 33.2023 58.9953C37.3065 58.5452 41.2247 56.8228 44.4529 54.1161C45.0949 53.5819 44.2249 52.6097 43.5888 53.1438C40.5227 55.7065 36.7905 57.2729 32.9083 57.699Z" fill="#7469F6"/>
<path d="M7.25688 47.8745C7.16688 47.7305 7.08287 47.5864 7.00487 47.4424C6.98687 47.4124 6.96887 47.3764 6.95687 47.3464C6.95087 47.3404 6.94487 47.3284 6.93887 47.3164C6.90887 47.2503 6.87286 47.1843 6.84286 47.1183C6.71085 46.8302 6.59685 46.5362 6.50684 46.2361C6.45884 46.0861 6.41684 45.936 6.38084 45.78C6.37484 45.762 6.34484 45.6239 6.33884 45.6059C6.32683 45.5339 6.30883 45.4679 6.29683 45.3959C6.23683 45.0598 5.97282 44.7477 5.6008 44.7957C5.28278 44.8377 4.94676 45.1378 5.00677 45.4979C5.25278 46.9203 5.83481 48.2706 6.74686 49.3869C6.96287 49.651 7.35289 49.777 7.6469 49.5489C7.90492 49.3509 8.03692 48.9188 7.80891 48.6367C7.6049 48.3906 7.42489 48.1386 7.25688 47.8745Z" fill="black"/>
<path d="M43.2108 12.9637C43.1988 12.9577 43.1808 12.9517 43.1688 12.9457C44.7589 14.9802 45.2689 18.071 44.3029 20.3876C44.2909 20.6157 44.2789 20.8377 44.2549 21.0598C44.2009 21.6359 44.0389 22.2361 43.6188 22.6202C43.4568 22.4521 43.2888 22.2901 43.1208 22.122C42.8268 22.3981 42.4968 22.6382 42.1248 22.8362C42.4128 23.1243 42.7008 23.4124 42.9768 23.7124C43.1208 23.8685 43.2888 23.9165 43.4448 23.8985C43.6008 23.9705 43.7868 23.9825 43.9789 23.8685C45.5149 22.9982 45.5029 21.0658 45.5389 19.5054C45.5809 17.843 45.4969 16.1385 44.7709 14.6141C44.4349 13.906 43.9309 13.3058 43.2108 12.9637Z" fill="black"/>
<path d="M39.5146 19.1333C38.7405 18.6111 37.9365 18.131 37.1024 17.7049C36.3524 17.3148 35.5904 16.9667 34.7623 16.8227C34.9543 15.8625 35.2783 14.8722 36.0344 14.236C37.0304 13.3958 38.5725 13.3838 39.7906 13.4559C40.5226 13.4979 41.2427 13.6239 41.9447 13.8219C42.5507 13.99 43.1027 14.218 43.4568 14.7702C44.1888 15.9225 44.3148 17.3688 44.3268 18.7072C44.3328 19.2653 44.3268 19.8295 44.2968 20.3936C45.2629 18.077 44.7528 14.9862 43.1628 12.9517C42.3767 12.5856 41.4947 12.4176 40.6426 12.3036C39.0825 12.0995 37.2524 12.0935 35.8304 12.8857C34.3303 13.7259 33.7423 15.4544 33.4843 17.0748C33.4362 17.3928 33.5623 17.7169 33.8803 17.8189C33.9763 17.909 34.1023 17.969 34.2583 17.981C35.1343 18.041 35.9504 18.4791 36.7184 18.8812C37.5045 19.2953 38.2665 19.7574 39.0045 20.2616C40.1146 21.0238 41.1526 21.888 42.1187 22.8362C42.4907 22.6322 42.8267 22.3921 43.1147 22.122C42.0107 21.0177 40.8106 20.0095 39.5146 19.1333Z" fill="black"/>
<path d="M13.2092 23.3463C13.5092 23.5804 13.9473 23.4184 14.1093 23.0943C14.4033 22.7462 14.7213 22.4221 15.0513 22.11C14.5653 22.4401 14.0973 22.7822 13.6533 23.1243C13.5152 23.2323 13.3652 23.3043 13.2092 23.3463Z" fill="black"/>
<path d="M22.2517 13.0297C21.0936 11.7274 19.5816 11.1693 17.8775 11.0733C16.4374 10.9892 14.8353 11.0432 13.6772 11.9555C15.4233 11.4153 17.0974 11.6374 18.5615 12.3816C19.5156 12.5316 20.4096 12.8797 21.1296 13.6179C21.7297 14.23 22.2397 14.9442 22.7737 15.6164C23.1637 16.1085 23.6618 16.6186 23.9798 17.1948C23.5118 17.2008 23.0377 17.2308 22.5697 17.2848C22.5397 17.8549 22.2217 18.3471 21.7837 18.6531C22.7677 18.4671 23.7698 18.3951 24.7838 18.4431C25.1918 18.4611 25.3839 18.137 25.3659 17.8129C25.4079 17.7049 25.4199 17.5729 25.3839 17.4228C25.1438 16.5526 24.5438 15.8865 23.9978 15.1963C23.4218 14.4761 22.8637 13.7199 22.2517 13.0297Z" fill="black"/>
<path d="M22.5698 17.2848C19.2276 17.6629 16.0234 19.2473 13.6953 21.7259C12.5552 19.2173 12.1772 16.2285 13.6953 13.7919C14.0553 13.2098 14.5233 12.7117 15.1834 12.5076C15.8674 12.2915 16.6055 12.2916 17.3135 12.2916C17.7335 12.2976 18.1475 12.3216 18.5556 12.3876C17.0915 11.6374 15.4174 11.4213 13.6713 11.9615C13.4973 12.0995 13.3293 12.2555 13.1793 12.4356C12.0692 13.7499 11.5352 15.5024 11.4752 17.2128C11.3972 19.3013 12.0632 21.3478 13.0473 23.1603C13.0953 23.2443 13.1493 23.3043 13.2093 23.3523C13.3593 23.3103 13.5093 23.2383 13.6533 23.1243C14.0973 22.7822 14.5654 22.4461 15.0514 22.11C16.9235 20.3276 19.2756 19.1213 21.7837 18.6531C22.2218 18.3471 22.5398 17.8549 22.5698 17.2848Z" fill="black"/>
<path d="M31.9242 15.5504C32.0382 15.3763 32.0322 15.1063 31.9242 14.9262C31.5102 14.254 30.7481 14.23 30.0401 14.248C29.6561 14.26 29.278 14.2721 28.894 14.2901C28.438 14.17 27.892 14.2181 27.49 14.3381C27.0999 14.4581 26.6679 14.6502 26.4339 15.0102C26.1459 15.4604 26.2899 16.0425 26.7819 16.2646C27.1599 16.4326 27.622 16.4806 28.03 16.5106C28.234 16.5226 28.432 16.5286 28.636 16.5226C28.66 16.8887 28.69 17.2608 28.714 17.6269C28.738 17.957 28.978 18.2451 29.3201 18.2451C29.6321 18.2451 29.9501 17.963 29.9261 17.6269C29.8961 17.2128 29.8661 16.7987 29.8361 16.3846C30.1241 16.3366 30.4061 16.2766 30.6881 16.2105C31.1741 16.0965 31.6362 15.9885 31.9242 15.5504Z" fill="black"/>
</svg>
