<svg width="69" height="56" viewBox="0 0 69 56" fill="none" xmlns="http://www.w3.org/2000/svg">
<path fill-rule="evenodd" clip-rule="evenodd" d="M47.635 7.14197C54.2754 7.73611 58.4429 13.8797 62.1451 19.4243C66.0575 25.2838 70.2555 31.6299 68.5504 38.4661C66.6815 45.9585 60.7971 52.2083 53.4082 54.4517C46.3019 56.6093 39.2723 53.0599 32.8679 49.2998C26.0735 45.3108 17.5095 41.0685 17.2034 33.1957C16.905 25.5208 25.7655 21.6864 31.6 16.6913C36.5719 12.4347 41.1159 6.55868 47.635 7.14197Z" fill="#D0E3FF"/>
<path d="M63.4536 2.55287C63.4467 2.19092 63.3606 1.83423 63.201 1.5052C63.0413 1.17616 62.8115 0.881886 62.5258 0.640845C62.16 0.405364 61.7295 0.275767 61.287 0.267895L60.0036 0.178598L57.3648 0C57.1438 0 56.9319 0.0830166 56.7756 0.230781C56.6194 0.378545 56.5315 0.578953 56.5315 0.787924C56.5358 0.995631 56.6249 1.19371 56.7803 1.34061C56.9357 1.48751 57.1451 1.57181 57.3648 1.57585L59.6259 1.73343L60.8092 1.81223L61.3314 1.849H61.387H61.4537H61.5036L61.5369 1.88051L61.6203 2.01183V2.0381C61.6181 2.05203 61.6181 2.06619 61.6203 2.08012C61.6536 2.19568 61.6925 2.31124 61.7147 2.42681C61.737 2.54237 61.7147 2.53712 61.7425 2.5949C61.7703 2.65268 61.7425 2.65793 61.7425 2.68945L62.0092 4.89038C62.0092 5.09935 62.097 5.29977 62.2533 5.44753C62.4095 5.59529 62.6215 5.67831 62.8425 5.67831C63.0635 5.67831 63.2755 5.59529 63.4318 5.44753C63.588 5.29977 63.6758 5.09935 63.6758 4.89038C63.648 4.14448 63.5647 3.34605 63.4536 2.55287Z" fill="#7469F6"/>
<path d="M21.5659 1.33948L6.8607 1.37099C4.3552 1.37099 4.34965 5.04797 6.8607 5.04797L21.5659 5.01646C24.0603 5.01646 24.0658 1.33948 21.5659 1.33948Z" fill="#7469F6"/>
<path d="M14.4549 6.13538C14.2339 6.13538 14.0219 6.21839 13.8656 6.36616C13.7094 6.51392 13.6216 6.71433 13.6216 6.9233C13.6216 7.13227 13.7094 7.33268 13.8656 7.48045C14.0219 7.62821 14.2339 7.71122 14.4549 7.71122C14.6759 7.71122 14.8879 7.62821 15.0441 7.48045C15.2004 7.33268 15.2882 7.13227 15.2882 6.9233C15.2882 6.71433 15.2004 6.51392 15.0441 6.36616C14.8879 6.21839 14.6759 6.13538 14.4549 6.13538Z" fill="black"/>
<path d="M11.994 6.06702C11.7729 6.06702 11.561 6.15003 11.4047 6.29779C11.2484 6.44556 11.1606 6.64597 11.1606 6.85494C11.1606 7.06391 11.2484 7.26432 11.4047 7.41209C11.561 7.55985 11.7729 7.64286 11.994 7.64286C12.215 7.64286 12.4269 7.55985 12.5832 7.41209C12.7395 7.26432 12.8273 7.06391 12.8273 6.85494C12.8273 6.64597 12.7395 6.44556 12.5832 6.29779C12.4269 6.15003 12.215 6.06702 11.994 6.06702Z" fill="black"/>
<path d="M63.859 41.0455C63.4812 40.037 62.4868 39.559 61.4868 39.2071C61.9053 30.0181 61.9053 20.8274 61.4868 11.635C61.372 8.94204 61.2146 6.25084 61.0146 3.56139C61.0056 3.43876 60.9677 3.31958 60.9037 3.21258C60.8397 3.10558 60.7512 3.01346 60.6447 2.94297C60.5382 2.87247 60.4163 2.82539 60.2881 2.80515C60.1599 2.78491 60.0285 2.79203 59.9035 2.826C44.9669 2.44779 30.0246 2.33048 15.0768 2.47406C10.8288 2.51258 6.58077 2.57386 2.33272 2.6579C2.16155 2.66093 1.99522 2.71214 1.85497 2.80498C1.75306 2.8062 1.65246 2.82703 1.55936 2.86622C1.46626 2.90541 1.38261 2.96213 1.31346 3.03292C1.24432 3.10371 1.19115 3.18707 1.15722 3.27793C1.12328 3.3688 1.10925 3.46525 1.11605 3.56139C1.39382 12.9534 1.39382 22.349 1.11605 31.748C1.05494 34.0803 0.966083 36.4126 0.866085 38.7448C-0.439438 39.4907 -0.178296 41.471 1.0439 42.2905C1.94035 42.7892 2.95929 43.0572 3.99935 43.0679C5.2271 43.1782 6.46041 43.2045 7.69372 43.2045C12.9214 43.2045 18.149 43.1099 23.3767 43.1362C33.882 43.194 44.3706 43.5091 54.8592 43.9293C56.237 43.9871 57.6369 44.0239 58.9924 43.9819C60.198 43.9451 61.6757 43.9819 62.7868 43.5039C63.267 43.3047 63.6469 42.9374 63.8468 42.479C64.0468 42.0207 64.0511 41.5069 63.859 41.0455ZM2.97161 11.5562C2.93828 9.10487 2.88641 6.66231 2.81604 4.2285C17.6305 3.94485 32.432 3.91683 47.2205 4.14445C51.2945 4.20749 55.3573 4.28978 59.4091 4.39133C60.0424 13.5733 60.2628 22.7675 60.0702 31.9739C60.0147 34.4007 59.9313 36.8293 59.8202 39.2596C52.6204 39.1545 45.4205 39.06 38.2207 38.9759H38.1707C37.9972 39.0028 37.8339 39.0716 37.6967 39.1755C37.5595 39.2795 37.4529 39.4152 37.3874 39.5695C37.3461 39.6623 37.3163 39.7592 37.2985 39.8584H36.743L35.2486 39.8111C34.293 39.7744 33.3375 39.7113 32.382 39.6535C31.4264 39.5958 30.4709 39.5537 29.5154 39.5432C29.0154 39.5432 28.521 39.5432 28.021 39.5432C27.7765 39.5432 27.3988 39.622 27.0766 39.6273V39.4907C27.0737 39.3702 27.0422 39.2518 26.9844 39.1443C26.9265 39.0369 26.8438 38.9431 26.7425 38.8699C26.6411 38.7968 26.5236 38.7462 26.3987 38.7218C26.2738 38.6974 26.1448 38.6999 26.021 38.729L25.6432 38.7868L15.5157 38.6555L2.78824 38.5032C2.718 38.4975 2.64737 38.4975 2.57713 38.5032C2.9549 29.5454 3.08642 20.563 2.97161 11.5562ZM62.3312 41.9175C62.1812 42.2117 61.5757 42.2169 61.2924 42.2537C60.6757 42.3272 60.0535 42.364 59.4313 42.3903C57.2925 42.4848 55.1536 42.364 53.0148 42.2747C48.5927 42.0856 44.1687 41.9333 39.7429 41.8177C30.8876 41.5866 22.0322 41.506 13.1769 41.5761C10.7492 41.5761 8.31036 41.6811 5.88264 41.6023C4.75842 41.6369 3.63502 41.5129 2.54939 41.2346C2.1994 41.1138 1.78829 40.9247 1.70496 40.5465C1.70765 40.5309 1.70765 40.5149 1.70496 40.4993C1.80145 40.3113 1.97023 40.1654 2.17675 40.0912C2.38326 40.017 2.61192 40.0201 2.81604 40.1C10.3973 40.1911 17.9786 40.2856 25.5599 40.3837C25.6395 40.6542 25.8163 40.8901 26.0599 41.0508C26.6154 41.3607 27.3376 41.1664 27.9265 41.1454C29.4216 41.106 30.918 41.1375 32.4098 41.2399C33.8597 41.324 35.3152 41.4238 36.7708 41.4448C37.3263 41.4448 38.0874 41.5708 38.5818 41.2977C38.6968 41.2343 38.7964 41.1487 38.8739 41.0464C38.9515 40.9441 39.0053 40.8274 39.0318 40.7041C39.0371 40.6552 39.0371 40.6059 39.0318 40.557L47.9205 40.6673L60.6479 40.8459C60.7999 40.8455 60.9484 40.8035 61.0757 40.7251C61.6313 40.93 62.6201 41.345 62.3312 41.9175Z" fill="black"/>
<path d="M32.5157 5.50496C32.4055 5.47579 32.2908 5.46512 32.1768 5.47344C32.0158 5.48623 31.8591 5.52908 31.7157 5.59951H31.6712C31.5291 5.62688 31.3993 5.6947 31.2991 5.79386C31.1894 5.90063 31.1075 6.03013 31.0601 6.17206C30.9852 6.37259 30.9852 6.59137 31.0601 6.7919C31.1127 6.92726 31.1919 7.05202 31.2935 7.1596C31.3688 7.23881 31.4569 7.30619 31.5546 7.3592C31.6508 7.41378 31.756 7.45283 31.8657 7.47477C31.9854 7.50364 32.1091 7.51428 32.2323 7.50628C32.3516 7.50104 32.4694 7.47982 32.5823 7.44325C32.7444 7.39063 32.895 7.31053 33.0268 7.20687C33.1303 7.11712 33.2122 7.00732 33.2668 6.88495C33.3215 6.76258 33.3476 6.63051 33.3434 6.49774C33.3329 6.2711 33.2474 6.05332 33.0989 5.87517C32.9503 5.69701 32.7463 5.56751 32.5157 5.50496Z" fill="black"/>
<path d="M9.2381 6.13538C9.01709 6.13538 8.80513 6.21839 8.64885 6.36616C8.49258 6.51392 8.40479 6.71433 8.40479 6.9233C8.40479 7.13227 8.49258 7.33268 8.64885 7.48045C8.80513 7.62821 9.01709 7.71122 9.2381 7.71122C9.45911 7.71122 9.671 7.62821 9.82728 7.48045C9.98355 7.33268 10.0714 7.13227 10.0714 6.9233C10.0714 6.71433 9.98355 6.51392 9.82728 6.36616C9.671 6.21839 9.45911 6.13538 9.2381 6.13538Z" fill="black"/>
<path d="M6.74403 6.83394C6.74403 6.62497 6.65624 6.42456 6.49997 6.2768C6.34369 6.12903 6.13173 6.04602 5.91072 6.04602C5.68971 6.04602 5.47782 6.12903 5.32154 6.2768C5.16527 6.42456 5.07741 6.62497 5.07741 6.83394C4.77001 16.4536 4.86631 26.0698 5.3663 35.6825C5.42186 36.733 7.08848 36.7593 7.03293 35.6825C6.53294 26.0768 6.43663 16.4606 6.74403 6.83394Z" fill="black"/>
<path d="M57.1206 9.11364C57.0651 8.09984 55.3984 8.09459 55.454 9.11364C55.9207 18.2536 56.0743 27.4005 55.9151 36.5544C55.9151 37.5682 57.5817 37.5682 57.5817 36.5544C57.7335 27.404 57.5799 18.2571 57.1206 9.11364Z" fill="black"/>
<path d="M58.1151 22.0881C58.0199 21.8606 57.8401 21.6738 57.6095 21.5628C57.453 21.487 57.2798 21.4474 57.1039 21.4472C57.003 21.3473 56.8754 21.275 56.7346 21.2381C56.5937 21.2011 56.445 21.2008 56.304 21.2371C55.9664 21.3466 55.6636 21.535 55.4237 21.7848C55.1838 22.0346 55.0146 22.3377 54.9318 22.6659C54.8088 23.004 54.8034 23.3703 54.9164 23.7115C55.0293 24.0527 55.2546 24.3508 55.5595 24.5622C55.7626 24.6697 55.9938 24.7207 56.2262 24.7092C56.4868 24.6913 56.7405 24.6215 56.9706 24.5044C57.2535 24.3782 57.5066 24.1996 57.715 23.9791C57.957 23.7211 58.1185 23.4047 58.1817 23.0651C58.2586 22.7401 58.2355 22.4011 58.1151 22.0881Z" fill="#7469F6"/>
<path d="M58.6812 22.2194C58.5362 21.7227 58.2119 21.2897 57.7646 20.9955C57.3943 20.7848 56.9853 20.6422 56.559 20.5752C56.4168 20.5451 56.269 20.5476 56.1279 20.5823C55.9869 20.617 55.8566 20.683 55.7479 20.7749L55.559 20.8379C54.6535 21.2161 54.3591 22.2089 54.2924 23.0598C54.2468 23.4866 54.3481 23.9158 54.5813 24.2837C54.8618 24.666 55.2843 24.9342 55.7646 25.0349C56.1845 25.1463 56.6277 25.153 57.0512 25.0546C57.4746 24.9561 57.8639 24.7557 58.1812 24.4728C58.4646 24.1708 58.6598 23.804 58.7475 23.4088C58.8352 23.0137 58.8123 22.6037 58.6812 22.2194ZM56.0924 24.1839H56.0646L55.8035 24.1262C55.7723 24.1154 55.7424 24.1013 55.7146 24.0841C55.5448 23.9506 55.4307 23.7645 55.3924 23.5589C55.3924 23.4223 55.3924 23.2857 55.3924 23.1491C55.3924 23.0914 55.3924 23.0336 55.3924 22.981C55.4513 22.6884 55.5273 22.399 55.6202 22.1143L55.6868 22.004C55.7717 21.928 55.8693 21.8659 55.9757 21.8202C56.1806 21.7209 56.4131 21.6842 56.641 21.7152C56.8689 21.7463 57.081 21.8435 57.2479 21.9935C57.4324 22.1695 57.5547 22.3952 57.5979 22.6396C57.6415 22.8848 57.6263 23.1361 57.5535 23.375C57.4909 23.5814 57.3629 23.7647 57.1868 23.9003C56.9893 24.0369 56.7612 24.1286 56.5202 24.1682H56.4591C56.3372 24.1797 56.2148 24.185 56.0924 24.1839Z" fill="black"/>
<path d="M39.7316 23.1335C39.0496 22.8403 38.3482 22.5894 37.6317 22.3823C38.1261 22.3351 38.6261 22.2773 39.1261 22.209C40.9316 21.9516 40.7316 19.3304 39.1261 18.9417C34.282 17.7592 29.2611 17.3613 24.2765 17.7651C22.3376 17.9227 22.0543 20.3915 23.3987 21.0113C22.3543 21.815 22.2877 23.7901 23.9543 24.0002C24.2598 24.0422 24.5709 24.0737 24.882 24.1053L24.682 24.1841C23.0154 24.8984 23.9042 27.3673 25.5875 27.3357C29.4763 27.2832 33.304 27.2412 37.0983 28.0081C37.3746 28.058 37.6592 28.0484 37.931 27.98C38.2028 27.9116 38.4547 27.7862 38.6682 27.6131C38.8817 27.44 39.0512 27.2237 39.1641 26.9801C39.2771 26.7366 39.3305 26.4721 39.3205 26.2064C40.6538 25.8019 41.2427 23.7796 39.7316 23.1335Z" fill="#7469F6"/>
<path d="M41.3872 22.5871C39.8469 21.9689 38.3994 21.1618 37.0817 20.1866C36.9503 20.0672 36.7751 20.0005 36.5929 20.0005C36.4106 20.0005 36.2354 20.0672 36.104 20.1866C35.9751 20.3096 35.9027 20.4757 35.9027 20.6488C35.9027 20.822 35.9751 20.9881 36.104 21.1111C37.1235 21.8814 38.2193 22.5569 39.3761 23.1282C38.2304 23.6306 37.1173 24.1972 36.0429 24.8248C35.9641 24.8683 35.8951 24.926 35.8399 24.9947C35.7847 25.0633 35.7443 25.1416 35.7211 25.225C35.6979 25.3084 35.6923 25.3953 35.7046 25.4808C35.7169 25.5662 35.7469 25.6486 35.7928 25.7231C35.8388 25.7976 35.8999 25.8628 35.9725 25.915C36.0451 25.9672 36.1279 26.0053 36.2161 26.0273C36.3043 26.0492 36.3962 26.0546 36.4866 26.0429C36.577 26.0313 36.664 26.0029 36.7428 25.9595C38.172 25.1153 39.6758 24.3894 41.2372 23.79C41.3633 23.7539 41.4765 23.6859 41.5646 23.5933C41.6527 23.5007 41.7124 23.3871 41.7372 23.2648C41.7612 23.1314 41.7404 22.9942 41.6776 22.8727C41.6148 22.7511 41.5132 22.6512 41.3872 22.5871Z" fill="black"/>
<path d="M21.8989 23.4591C23.4393 24.0792 24.8869 24.888 26.2043 25.8649C26.3364 25.9831 26.5114 26.049 26.6932 26.049C26.8751 26.049 27.05 25.9831 27.1821 25.8649C27.3114 25.741 27.3839 25.574 27.3839 25.4C27.3839 25.226 27.3114 25.059 27.1821 24.9351C26.1598 24.1684 25.0644 23.4931 23.91 22.9181C25.0568 22.4177 26.17 21.8511 27.2432 21.2214C27.4023 21.1336 27.5181 20.9897 27.565 20.8212C27.6119 20.6528 27.5861 20.4736 27.4932 20.3232C27.4004 20.1727 27.2482 20.0633 27.07 20.0189C26.8919 19.9746 26.7023 19.999 26.5432 20.0868C25.1129 20.9306 23.6094 21.6581 22.0489 22.2615C21.9225 22.297 21.809 22.3649 21.7207 22.4576C21.6325 22.5503 21.5731 22.6642 21.5489 22.7867C21.5261 22.9193 21.5476 23.0553 21.6103 23.1758C21.673 23.2963 21.7739 23.3953 21.8989 23.4591Z" fill="black"/>
<path d="M35.3321 17.5234C35.172 17.4397 34.984 17.4176 34.807 17.4616C34.6301 17.5056 34.4779 17.6124 34.3821 17.7598C31.9073 20.8442 29.854 24.2116 28.2711 27.7822C28.2249 27.9507 28.2502 28.1296 28.3415 28.2807C28.4329 28.4319 28.583 28.5433 28.76 28.5911C28.9366 28.6309 29.1225 28.6058 29.2803 28.521C29.4381 28.4362 29.5559 28.2979 29.61 28.1341C31.1532 24.6717 33.1543 21.4082 35.5654 18.4217C35.6583 18.2728 35.6858 18.0955 35.6422 17.9276C35.5986 17.7598 35.4874 17.6147 35.3321 17.5234Z" fill="black"/>
</svg>
