<svg width="75" height="57" viewBox="0 0 75 57" fill="none" xmlns="http://www.w3.org/2000/svg">
<path fill-rule="evenodd" clip-rule="evenodd" d="M72.198 37.9101C75.8833 32.3543 73.6908 25.2617 71.6751 18.9068C69.5449 12.1909 67.2133 4.94794 60.8105 2.0077C53.7931 -1.21478 45.2366 -0.525638 38.8682 3.84149C32.7434 8.04159 31.1222 15.7478 30.0561 23.0975C28.9251 30.8947 26.8862 40.2318 32.8416 45.3901C38.6473 50.4187 47.1774 45.8967 54.723 44.4626C61.153 43.2405 68.58 43.3643 72.198 37.9101Z" fill="#D0E3FF"/>
<path d="M62.3071 26.9717C62.3609 25.9319 63.9756 25.9373 63.9218 26.9717C63.7171 30.6125 63.8089 34.2641 64.1963 37.8898C64.192 38.1048 64.1038 38.3095 63.9507 38.4595C63.7976 38.6095 63.5919 38.6928 63.3782 38.6914C63.1663 38.6844 62.9653 38.5955 62.8169 38.4432C62.6686 38.2909 62.5843 38.0869 62.5816 37.8736C62.1949 34.2532 62.103 30.6071 62.3071 26.9717Z" fill="#7469F6"/>
<path d="M8.15595 12.9611L22.4083 12.9936C24.8303 12.9936 24.8357 16.7846 22.4083 16.7846L8.15595 16.7521C5.76082 16.7467 5.75544 12.9556 8.15595 12.9611Z" fill="#7469F6"/>
<path d="M48.2 17.9164C48.4141 17.9164 48.6195 18.002 48.7709 18.1543C48.9223 18.3067 49.0073 18.5133 49.0073 18.7287C49.0073 18.9442 48.9223 19.1508 48.7709 19.3032C48.6195 19.4555 48.4141 19.5411 48.2 19.5411C47.9859 19.5411 47.7805 19.4555 47.6291 19.3032C47.4777 19.1508 47.3926 18.9442 47.3926 18.7287C47.3926 18.5133 47.4777 18.3067 47.6291 18.1543C47.7805 18.002 47.9859 17.9164 48.2 17.9164Z" fill="black"/>
<path d="M50.5845 17.8461C50.7986 17.8461 51.004 17.9317 51.1554 18.084C51.3068 18.2364 51.3918 18.443 51.3918 18.6584C51.3918 18.8739 51.3068 19.0805 51.1554 19.2329C51.004 19.3852 50.7986 19.4708 50.5845 19.4708C50.3704 19.4708 50.165 19.3852 50.0136 19.2329C49.8622 19.0805 49.7772 18.8739 49.7772 18.6584C49.7772 18.443 49.8622 18.2364 50.0136 18.084C50.165 17.9317 50.3704 17.8461 50.5845 17.8461Z" fill="black"/>
<path d="M0.335377 53.915C0.701374 52.8751 1.66481 52.3769 2.63363 52.0195C2.22816 42.5455 2.22816 33.0697 2.63363 23.5922C2.75204 20.8121 2.90632 18.0374 3.0965 15.2682C3.10524 15.1417 3.14198 15.0188 3.20399 14.9085C3.266 14.7982 3.35171 14.7032 3.4549 14.6306C3.55809 14.5579 3.67612 14.5093 3.80036 14.4885C3.9246 14.4676 4.0519 14.4749 4.17296 14.5099C18.6478 14.12 33.1244 13.9973 47.6028 14.1417C51.722 14.185 55.8358 14.25 59.9443 14.3366C60.1124 14.3362 60.2763 14.3893 60.4126 14.4883C60.5113 14.4895 60.6088 14.511 60.699 14.5514C60.7892 14.5918 60.8702 14.6503 60.9372 14.7233C61.0042 14.7963 61.0557 14.8822 61.0886 14.9759C61.1215 15.0696 61.1351 15.169 61.1285 15.2682C60.8594 24.9515 60.8504 34.6385 61.1015 44.3291C61.1661 46.7337 61.2486 49.1383 61.3491 51.5429C62.6139 52.3119 62.361 54.3536 61.1769 55.1985C60.3073 55.7101 59.3207 55.9863 58.3135 56C57.124 56.1138 55.9292 56.1408 54.7343 56.1354C49.6696 56.1354 44.6048 56.0434 39.5401 56.0704C29.3622 56.13 19.2004 56.455 9.03858 56.8882C7.70377 56.9478 6.34739 56.9857 5.02872 56.9424C3.86615 56.9045 2.43449 56.9424 1.35803 56.4495C0.895691 56.2412 0.531185 55.8613 0.340633 55.389C0.150078 54.9167 0.148193 54.3886 0.335377 53.915ZM59.3254 23.5272C59.3577 20.9998 59.4079 18.4725 59.4761 15.9451C45.1233 15.6527 30.7831 15.622 16.4554 15.8531C12.5084 15.918 8.57209 16.0047 4.6466 16.113C4.03302 25.5797 3.81955 35.0591 4.00614 44.5511C4.05996 47.0532 4.14067 49.5553 4.24832 52.0574L25.1693 51.7649H25.2231C25.3913 51.7926 25.5494 51.8635 25.6824 51.9707C25.8153 52.0779 25.9185 52.2178 25.982 52.3769C26.023 52.4718 26.0502 52.5721 26.0628 52.6748H26.601L28.0542 52.626C28.98 52.5827 29.9057 52.5231 30.8315 52.4635C31.7573 52.404 32.683 52.3606 33.6088 52.3444C34.0878 52.3444 34.5722 52.3444 35.0566 52.3444C35.2934 52.3444 35.6594 52.4256 35.9716 52.431V52.2902C35.9744 52.166 36.0049 52.0439 36.061 51.9331C36.117 51.8223 36.1971 51.7256 36.2953 51.6502C36.3935 51.5748 36.5073 51.5226 36.6283 51.4974C36.7493 51.4723 36.8743 51.4749 36.9942 51.505L37.3602 51.5645C40.6273 51.5212 43.8997 51.467 47.1668 51.4291L59.503 51.2721C59.5709 51.2635 59.6396 51.2635 59.7075 51.2721C59.3415 42.0436 59.2141 32.7953 59.3254 23.5272ZM1.81551 54.8302C1.96083 55.1335 2.54212 55.1389 2.82199 55.1768C3.41943 55.2527 4.02224 55.2906 4.62505 55.3176C6.69724 55.4151 8.76945 55.3176 10.8416 55.1985C15.1259 55.0035 19.4121 54.8465 23.7 54.7273C32.2793 54.489 40.8569 54.4042 49.4327 54.4728C51.7901 54.4728 54.153 54.5865 56.505 54.5053C57.5942 54.5409 58.6826 54.4131 59.7344 54.1262C60.0735 54.0016 60.4718 53.8067 60.5525 53.4167C60.5502 53.3987 60.5502 53.3805 60.5525 53.3626C60.3937 53.3658 60.2374 53.3225 60.1026 53.2379C59.9678 53.1533 59.8605 53.031 59.7936 52.886C59.6934 52.9302 59.5855 52.9541 59.4761 52.9564C52.1274 53.0466 44.7716 53.1441 37.4087 53.2488C37.337 53.5274 37.1666 53.7701 36.9296 53.9312C36.3914 54.2562 35.6917 54.0558 35.1212 54.0341C33.6726 53.9935 32.223 54.026 30.7777 54.1316C29.3675 54.2182 27.9628 54.3211 26.5472 54.3428C26.009 54.3428 25.277 54.4728 24.798 54.1858C24.6856 54.1215 24.5885 54.0336 24.5132 53.9279C24.4379 53.8222 24.3863 53.7014 24.362 53.5738C24.3593 53.5251 24.3593 53.4763 24.362 53.4276L15.7503 53.5413L3.41942 53.72C3.27244 53.7237 3.12789 53.6821 3.00504 53.6009C2.49372 53.7958 1.53563 54.2237 1.81551 54.814V54.8302Z" fill="black"/>
<path d="M30.7024 17.272C30.8073 17.2422 30.9166 17.2312 31.0253 17.2395C31.183 17.2527 31.3366 17.2968 31.4774 17.3695H31.5205C31.6578 17.4019 31.7829 17.4734 31.8811 17.5753C31.986 17.6843 32.0652 17.8157 32.1125 17.9598C32.1851 18.1684 32.1851 18.3956 32.1125 18.6043C32.0616 18.7438 31.9849 18.8724 31.8865 18.9834C31.8134 19.0634 31.728 19.131 31.6335 19.1837C31.5417 19.244 31.4395 19.2862 31.3321 19.3083C31.2162 19.3381 31.0962 19.349 30.9769 19.3408C30.8616 19.3333 30.7477 19.3115 30.6378 19.2758C30.4807 19.2216 30.3348 19.139 30.2072 19.0321C30.1074 18.9391 30.0285 18.8258 29.9756 18.6998C29.9227 18.5737 29.8971 18.4378 29.9004 18.301C29.9095 18.0664 29.9918 17.8406 30.1358 17.6559C30.2798 17.4711 30.4781 17.3368 30.7024 17.272Z" fill="black"/>
<path d="M53.2539 17.9164C53.4681 17.9164 53.6734 18.002 53.8248 18.1543C53.9762 18.3067 54.0613 18.5133 54.0613 18.7287C54.0613 18.9442 53.9762 19.1508 53.8248 19.3032C53.6734 19.4555 53.4681 19.5411 53.2539 19.5411C53.0398 19.5411 52.8345 19.4555 52.6831 19.3032C52.5316 19.1508 52.4466 18.9442 52.4466 18.7287C52.4466 18.5133 52.5316 18.3067 52.6831 18.1543C52.8345 18.002 53.0398 17.9164 53.2539 17.9164Z" fill="black"/>
<path d="M55.6708 18.6529C55.6708 18.4375 55.7558 18.2309 55.9073 18.0785C56.0587 17.9262 56.264 17.8406 56.4781 17.8406C56.6923 17.8406 56.8976 17.9262 57.049 18.0785C57.2004 18.2309 57.2855 18.4375 57.2855 18.6529C57.5833 28.5674 57.49 38.4818 57.0056 48.3963C56.9518 49.4794 55.3371 49.4794 55.3909 48.3963C55.8753 38.4854 55.9686 28.571 55.6708 18.6529Z" fill="black"/>
<path d="M6.86935 20.9926C6.92317 19.9474 8.53786 19.942 8.48404 20.9926C8.03192 30.4124 7.88304 39.8413 8.03733 49.2791C8.03733 49.4946 7.95227 49.7012 7.80087 49.8535C7.64946 50.0059 7.4441 50.0915 7.22998 50.0915C7.01586 50.0915 6.81051 50.0059 6.6591 49.8535C6.50769 49.7012 6.42264 49.4946 6.42264 49.2791C6.26476 39.8485 6.41364 30.4196 6.86935 20.9926Z" fill="black"/>
<path d="M5.90081 43.6413C5.9925 43.4081 6.16437 43.2159 6.38517 43.0997C6.5392 43.0223 6.70825 42.9798 6.88036 42.9751C6.97939 42.874 7.10331 42.8012 7.23949 42.7641C7.37567 42.727 7.51918 42.7269 7.65538 42.7639C7.98242 42.8768 8.27583 43.071 8.50826 43.3286C8.74069 43.5861 8.90465 43.8986 8.98486 44.237C9.10432 44.586 9.10913 44.9644 8.99866 45.3164C8.88819 45.6684 8.66827 45.9754 8.37127 46.1921C8.17409 46.3019 7.95045 46.3544 7.72535 46.3437C7.47469 46.3245 7.23085 46.2525 7.00953 46.1325C6.73702 46.0119 6.49168 45.8368 6.28832 45.618C6.05468 45.3494 5.89831 45.0217 5.83616 44.6703C5.75676 44.3283 5.77929 43.9704 5.90081 43.6413Z" fill="#7469F6"/>
<path d="M5.3515 43.7767C5.48859 43.2631 5.80349 42.8156 6.23953 42.5149C6.59795 42.296 6.99422 42.1472 7.40751 42.0762C7.54492 42.0468 7.68734 42.0506 7.82301 42.0873C7.95868 42.124 8.08377 42.1926 8.18798 42.2874C8.25233 42.3042 8.31529 42.3259 8.37635 42.3524C9.25366 42.7423 9.53887 43.7659 9.60346 44.6433C9.64693 45.0832 9.54887 45.5256 9.32364 45.9051C9.05192 46.2992 8.64256 46.5757 8.1772 46.6796C7.7703 46.7928 7.34126 46.799 6.9313 46.6975C6.52134 46.5961 6.14413 46.3903 5.83585 46.1001C5.56176 45.7884 5.37302 45.4103 5.2881 45.0029C5.20317 44.5956 5.22502 44.173 5.3515 43.7767ZM7.8596 45.8022L8.15565 45.7318C8.18365 45.7195 8.21065 45.705 8.2364 45.6885C8.40435 45.553 8.51726 45.3604 8.55394 45.1469C8.56198 45.0062 8.56198 44.8652 8.55394 44.7245C8.55394 44.6649 8.55394 44.6054 8.55394 44.5458C8.49764 44.2451 8.42211 43.9485 8.32786 43.6576C8.31025 43.6186 8.29049 43.5806 8.26866 43.5439C8.18552 43.4667 8.09113 43.4028 7.98877 43.3543C7.79025 43.2519 7.56504 43.2141 7.34424 43.2461C7.12343 43.2782 6.91799 43.3784 6.75627 43.533C6.57775 43.7154 6.45774 43.9474 6.4118 44.1992C6.36953 44.452 6.38422 44.7111 6.45483 44.9574C6.51399 45.1695 6.63605 45.3584 6.80469 45.499C6.99825 45.6358 7.21832 45.7299 7.45054 45.7752H7.51519C7.62946 45.7903 7.74439 45.7993 7.8596 45.8022Z" fill="black"/>
<path d="M28.1188 33.6113C28.8077 32.1111 30.3793 31.3692 31.8864 31.1796C32.8976 31.0379 33.9244 31.2918 34.7552 31.8891C34.9961 31.917 35.2258 32.0065 35.4226 32.149C36.499 32.891 37.4033 33.7738 37.5109 35.2523C37.5557 35.9955 37.4093 36.7378 37.0859 37.4075C36.7625 38.0772 36.2731 38.6518 35.6648 39.0758C33.2212 40.7872 29.6796 39.834 28.1726 37.3752C27.8529 36.802 27.6806 36.1574 27.6712 35.5001C27.6618 34.8428 27.8156 34.1936 28.1188 33.6113Z" fill="#7469F6"/>
<path d="M23.7161 40.6842C23.8307 40.5157 23.9684 40.3644 24.1252 40.2347C24.2759 40.0993 24.4266 39.9639 24.5826 39.8339C24.8957 39.5725 25.2307 39.3388 25.5837 39.1353C25.9605 38.9133 26.348 38.6912 26.7409 38.5017C27.0341 38.346 27.3764 38.313 27.6936 38.4096L27.8658 38.285L28.2265 38.0413L27.9304 37.7055C27.6518 37.4019 27.4081 37.0676 27.2038 36.7091C26.1274 34.8352 27.3868 32.6797 29.1468 31.5262C30.1757 30.8985 31.354 30.5621 32.5571 30.5526C33.7603 30.543 34.9437 30.8607 35.9823 31.472C36.0887 31.5212 36.181 31.5966 36.2506 31.6913C36.3203 31.786 36.365 31.8969 36.3806 32.0136V32.3061L36.682 32.4089H36.7412C37.1742 32.6275 37.5507 32.9443 37.8412 33.3344C38.1317 33.7244 38.3282 34.177 38.4151 34.6565C38.5442 35.7065 38.256 36.7654 37.6132 37.6027C36.2837 39.5415 34.3138 40.5217 32.3493 40.2185C31.2702 40.0268 30.2466 39.5977 29.3513 38.962L29.0768 38.7725L28.8185 38.9566L28.4148 39.2382C28.4618 39.3306 28.4875 39.4324 28.4902 39.5361C28.4711 39.6723 28.4244 39.8031 28.3531 39.9204C28.2819 40.0378 28.1875 40.1392 28.0757 40.2185C27.7841 40.4803 27.4787 40.7262 27.1608 40.955C26.5899 41.3701 25.9742 41.719 25.3254 41.9948C25.1109 42.1244 24.8632 42.1874 24.6133 42.1758C24.3633 42.1642 24.1224 42.0787 23.9206 41.9298C23.7522 41.7756 23.6404 41.5688 23.6033 41.3428C23.5662 41.1167 23.6059 40.8847 23.7161 40.6842ZM29.2168 37.4727C29.846 38.0397 30.5598 38.5039 31.3321 38.8483C31.5329 38.934 31.7397 39.0046 31.951 39.0595C32.6436 39.2501 33.3746 39.2476 34.0659 39.052C34.7571 38.8564 35.3824 38.4752 35.8747 37.9493C36.5969 37.3248 37.0976 36.4807 37.301 35.5447C37.3883 35.1287 37.3432 34.6956 37.1722 34.3068C37.0013 33.918 36.713 33.5932 36.3483 33.3784C36.2438 33.33 36.1541 33.2542 36.0887 33.1589C36.0234 33.0636 35.9848 32.9523 35.9769 32.8368V32.5552L35.6325 32.4306C34.8974 31.9688 34.0668 31.6828 33.2046 31.5945C32.3425 31.5063 31.4717 31.6182 30.6593 31.9215C29.3944 32.4144 27.6667 33.9199 27.9681 35.5717C28.1623 36.3277 28.6017 36.9967 29.2168 37.4727ZM24.7764 41.0254C24.7963 41.0498 24.8223 41.0685 24.8518 41.0796C24.8901 41.1091 24.9383 41.1227 24.9863 41.1175C25.2247 41.0763 25.4541 40.9938 25.6645 40.8738C25.872 40.7663 26.0733 40.647 26.2673 40.5163C26.5149 40.3593 26.8808 40.1751 26.9723 39.8773C26.9949 39.8417 27.0068 39.8003 27.0068 39.7581C27.0068 39.7159 26.9949 39.6746 26.9723 39.639C26.9557 39.6122 26.9337 39.5893 26.9078 39.5716C26.8818 39.5539 26.8525 39.5418 26.8217 39.5361C26.782 39.5201 26.7376 39.5201 26.6978 39.5361C26.5626 39.5856 26.4312 39.6453 26.3049 39.7148C25.936 39.8843 25.5766 40.0741 25.2285 40.2835C25.0455 40.4134 24.5127 40.7005 24.7764 41.0254Z" fill="black" stroke="black" stroke-width="0.5" stroke-miterlimit="10"/>
</svg>
