<svg width="70" height="57" viewBox="0 0 70 57" fill="none" xmlns="http://www.w3.org/2000/svg">
<path fill-rule="evenodd" clip-rule="evenodd" d="M26.3414 36.6219C23.0012 30.852 25.6216 23.9061 28.0205 17.6857C30.5556 11.112 33.324 4.02444 39.8939 1.47952C47.0945 -1.30967 55.5931 -0.100799 61.6838 4.646C67.5415 9.21126 68.6905 17.0019 69.3071 24.4029C69.9612 32.2544 71.4278 41.6984 65.1693 46.4845C59.0681 51.1502 50.8292 46.1172 43.3849 44.2263C37.0413 42.6149 29.6206 42.2863 26.3414 36.6219Z" fill="#D0E3FF"/>
<path d="M1.88933 26.979C1.83012 25.9392 0.215313 25.9446 0.274523 26.979C0.473859 30.6199 0.382053 34.2711 0 37.8972C0.00283807 38.1117 0.0899206 38.3164 0.242195 38.4665C0.394469 38.6167 0.599577 38.7001 0.812792 38.6987C1.02518 38.6918 1.22684 38.6031 1.3761 38.4509C1.52535 38.2987 1.61078 38.0947 1.61481 37.8809C1.9962 34.2602 2.08801 30.6145 1.88933 26.979Z" fill="#7469F6"/>
<path d="M56.0122 12.9685L41.7589 13.001C39.3367 13.001 39.3313 16.792 41.7589 16.792L56.0122 16.7595C58.4398 16.7541 58.4398 12.9631 56.0122 12.9685Z" fill="#7469F6"/>
<path d="M15.9976 17.9238C15.7835 17.9238 15.5781 18.0094 15.4267 18.1618C15.2752 18.3141 15.1902 18.5207 15.1902 18.7362C15.1902 18.9516 15.2752 19.1583 15.4267 19.3106C15.5781 19.463 15.7835 19.5486 15.9976 19.5486C16.2117 19.5486 16.417 19.463 16.5684 19.3106C16.7199 19.1583 16.805 18.9516 16.805 18.7362C16.805 18.5207 16.7199 18.3141 16.5684 18.1618C16.417 18.0094 16.2117 17.9238 15.9976 17.9238Z" fill="black"/>
<path d="M13.6075 17.8535C13.3933 17.8535 13.1879 17.9391 13.0365 18.0915C12.8851 18.2438 12.8 18.4504 12.8 18.6659C12.8 18.8813 12.8851 19.088 13.0365 19.2403C13.1879 19.3927 13.3933 19.4782 13.6075 19.4782C13.8216 19.4782 14.027 19.3927 14.1784 19.2403C14.3298 19.088 14.4149 18.8813 14.4149 18.6659C14.4149 18.4504 14.3298 18.2438 14.1784 18.0915C14.027 17.9391 13.8216 17.8535 13.6075 17.8535Z" fill="black"/>
<path d="M63.8657 53.9224C63.4997 52.8826 62.5308 52.3843 61.5673 52.0269C61.9656 42.5529 61.9656 33.0772 61.5673 23.5996C61.4489 20.8195 61.2964 18.0449 61.1098 15.2756C61.1001 15.1496 61.0628 15.0272 61.0005 14.9174C60.9382 14.8076 60.8525 14.7131 60.7496 14.6406C60.6466 14.5681 60.529 14.5194 60.4051 14.4981C60.2813 14.4768 60.1543 14.4834 60.0332 14.5174C45.5574 14.1275 31.078 14.0047 16.5949 14.1491C12.4826 14.1925 8.36837 14.2574 4.25241 14.3441C4.08598 14.3437 3.92379 14.3968 3.7895 14.4957C3.69054 14.497 3.59284 14.5185 3.50236 14.5588C3.41189 14.5992 3.33048 14.6576 3.26306 14.7305C3.19564 14.8034 3.14365 14.8892 3.11016 14.9829C3.07667 15.0766 3.06241 15.1762 3.06824 15.2756C3.34455 24.959 3.34455 34.6459 3.06824 44.3365C3.00365 46.7411 2.91749 49.1457 2.82598 51.5503C1.55566 52.3193 1.81407 54.3611 2.99287 55.2059C3.86282 55.7169 4.84921 55.993 5.85644 56.0075C7.04601 56.1212 8.24098 56.1483 9.43594 56.1429C14.5011 56.1429 19.5662 56.0508 24.6367 56.0779C34.8099 56.1375 44.9725 56.4624 55.1404 56.8957C56.4753 56.9552 57.8317 56.9931 59.1451 56.9498C60.3077 56.9119 61.7396 56.9498 62.8215 56.457C63.2869 56.2516 63.6553 55.8732 63.8499 55.4009C64.0445 54.9285 64.0502 54.3988 63.8657 53.9224ZM4.87143 23.5346C4.83913 21.0073 4.78708 18.4799 4.71531 15.9526C19.0692 15.6601 33.4123 15.6294 47.7446 15.8605C51.6919 15.9255 55.6284 16.0121 59.5542 16.1205C60.1606 25.5872 60.3724 35.0666 60.1894 44.5586C60.1409 47.0607 60.0548 49.5627 59.9471 52.0648L39.0246 51.7724H38.9708C38.8028 51.8006 38.6449 51.8716 38.512 51.9788C38.3791 52.0859 38.2757 52.2256 38.2118 52.3843C38.1736 52.4802 38.1465 52.5801 38.1311 52.6822H37.5928C37.1084 52.6822 36.6239 52.6551 36.1449 52.6335C35.2136 52.5901 34.2878 52.5306 33.362 52.471C32.4362 52.4114 31.5158 52.3681 30.5846 52.3518C30.1055 52.3518 29.621 52.3518 29.142 52.3518C28.8997 52.3518 28.5337 52.4331 28.2269 52.4385C28.2241 52.3916 28.2241 52.3446 28.2269 52.2977C28.2241 52.1734 28.1936 52.0513 28.1376 51.9406C28.0815 51.8298 28.0014 51.7331 27.9032 51.6577C27.805 51.5822 27.6911 51.53 27.5701 51.5049C27.4491 51.4797 27.3241 51.4823 27.2042 51.5124L26.8382 51.572C23.5709 51.5287 20.2982 51.4745 17.0309 51.4366L4.69915 51.2795C4.62943 51.271 4.559 51.271 4.48928 51.2795C4.85171 42.0511 4.97908 32.8028 4.87143 23.5346ZM62.3801 54.8377C62.2348 55.141 61.6534 55.1464 61.3735 55.1843C60.7761 55.2601 60.1732 55.298 59.5757 55.3251C57.5034 55.4226 55.4256 55.3251 53.3533 55.2059C49.0687 55.011 44.7823 54.8539 40.494 54.7348C31.9212 54.4965 23.343 54.4116 14.7594 54.4802C12.4018 54.4802 10.0442 54.594 7.68657 54.5127C6.59732 54.5477 5.50895 54.4199 4.45695 54.1336C4.11784 54.0091 3.71952 53.8141 3.64416 53.4242C3.64125 53.4062 3.64125 53.3879 3.64416 53.37C3.80209 53.3722 3.95731 53.3284 4.09103 53.2438C4.22475 53.1593 4.33126 53.0376 4.39775 52.8934C4.49988 52.9376 4.60954 52.9615 4.7207 52.9638L26.7575 53.2563C26.8314 53.5353 27.0035 53.7778 27.2419 53.9387C27.7532 54.2636 28.4799 54.0632 29.0451 54.0416C30.4938 54.0009 31.9435 54.0334 33.3889 54.139C34.7992 54.2257 36.2094 54.3286 37.6197 54.3503C38.158 54.3503 38.89 54.4802 39.3691 54.1932C39.4822 54.1293 39.5802 54.0415 39.6564 53.9358C39.7326 53.8302 39.7852 53.7092 39.8105 53.5812C39.8132 53.5325 39.8132 53.4837 39.8105 53.435C42.6741 53.4729 45.5431 53.5054 48.4228 53.5487L60.7545 53.7274C60.9031 53.7306 61.0493 53.6891 61.1744 53.6083C61.7019 53.8033 62.66 54.2311 62.3801 54.8214V54.8377Z" fill="black"/>
<path d="M33.4965 17.2794C33.3897 17.2499 33.2786 17.2389 33.1681 17.2469C33.0104 17.2601 32.8568 17.3043 32.716 17.3769H32.6784C32.5395 17.4093 32.4125 17.4807 32.3123 17.5827C32.2074 17.6917 32.1282 17.8231 32.0808 17.9672C32.0082 18.1758 32.0082 18.4031 32.0808 18.6117C32.1295 18.7524 32.2065 18.8814 32.3069 18.9908C32.377 19.0719 32.4608 19.1397 32.5545 19.1912C32.6468 19.2505 32.7489 19.2927 32.856 19.3157C32.9738 19.3453 33.0955 19.3562 33.2166 19.3482C33.3301 19.3402 33.4421 19.3184 33.5504 19.2833C33.708 19.2303 33.8541 19.1476 33.9809 19.0395C34.0807 18.9466 34.1597 18.8333 34.2126 18.7072C34.2655 18.5812 34.2912 18.4452 34.2878 18.3084C34.2794 18.0752 34.1986 17.8505 34.0566 17.6659C33.9147 17.4813 33.7188 17.3461 33.4965 17.2794Z" fill="black"/>
<path d="M10.9431 17.9238C10.729 17.9238 10.5236 18.0094 10.3722 18.1618C10.2208 18.3141 10.1357 18.5207 10.1357 18.7362C10.1357 18.9516 10.2208 19.1583 10.3722 19.3106C10.5236 19.463 10.729 19.5486 10.9431 19.5486C11.1573 19.5486 11.3627 19.463 11.5141 19.3106C11.6655 19.1583 11.7505 18.9516 11.7505 18.7362C11.7505 18.5207 11.6655 18.3141 11.5141 18.1618C11.3627 18.0094 11.1573 17.9238 10.9431 17.9238Z" fill="black"/>
<path d="M8.52101 18.6605C8.52101 18.4451 8.43595 18.2384 8.28453 18.0861C8.13311 17.9337 7.92774 17.8481 7.7136 17.8481C7.49947 17.8481 7.2941 17.9337 7.14268 18.0861C6.99126 18.2384 6.9062 18.4451 6.9062 18.6605C6.60836 28.5749 6.7016 38.4894 7.18604 48.4038C7.23987 49.487 8.85468 49.487 8.80085 48.4038C8.32359 38.493 8.23034 28.5786 8.52101 18.6605Z" fill="black"/>
<path d="M57.3256 21.0001C57.2771 19.9548 55.6623 19.9494 55.7108 21.0001C56.1629 30.4199 56.3137 39.8487 56.163 49.2866C56.163 50.3372 57.7778 50.3372 57.7778 49.2866C57.9285 39.8559 57.7777 30.4271 57.3256 21.0001Z" fill="black"/>
<path d="M58.2945 43.6487C58.2028 43.4156 58.0308 43.2234 57.81 43.1071C57.656 43.0297 57.4869 42.9872 57.3148 42.9826C57.2169 42.8815 57.094 42.8085 56.9586 42.7714C56.8232 42.7342 56.6805 42.7342 56.5451 42.7714C56.2173 42.8839 55.923 43.078 55.6897 43.3355C55.4563 43.593 55.2914 43.9057 55.2102 44.2445C55.0925 44.5936 55.0885 44.9715 55.1988 45.3231C55.3092 45.6747 55.5282 45.9817 55.8238 46.1995C56.0213 46.3085 56.2447 46.361 56.4697 46.3512C56.7205 46.3326 56.9645 46.2606 57.1856 46.14C57.4598 46.0194 57.707 45.8444 57.9123 45.6255C58.1481 45.3512 58.3012 45.0149 58.3537 44.6561C58.4334 44.3218 58.4128 43.9712 58.2945 43.6487Z" fill="#7469F6"/>
<path d="M58.8436 43.7841C58.7064 43.2704 58.3915 42.8229 57.9554 42.5222C57.5984 42.3043 57.2041 42.1556 56.7927 42.0836C56.6544 42.0541 56.5112 42.0579 56.3747 42.0946C56.2381 42.1313 56.1121 42.1999 56.0069 42.2948C55.9443 42.3116 55.8831 42.3333 55.8239 42.3598C54.9465 42.7497 54.6558 43.7733 54.5966 44.6506C54.5484 45.0901 54.6448 45.5334 54.8711 45.9125C55.1436 46.3058 55.5527 46.5821 56.0176 46.6869C56.4245 46.8007 56.8537 46.8071 57.2638 46.7057C57.6739 46.6042 58.0511 46.3981 58.3591 46.1075C58.6341 45.7963 58.8236 45.4182 58.9085 45.0106C58.9935 44.6031 58.9711 44.1802 58.8436 43.7841ZM56.3352 45.8096L56.0876 45.75C56.0574 45.7389 56.0285 45.7243 56.0015 45.7067C55.8374 45.5678 55.7254 45.3767 55.6839 45.1651C55.6839 45.0243 55.6839 44.8835 55.6839 44.7427V44.564C55.7428 44.2639 55.8182 43.9674 55.9099 43.6758L55.9691 43.562C56.0532 43.4861 56.1475 43.4223 56.2491 43.3725C56.4476 43.2701 56.6729 43.2323 56.8937 43.2643C57.1145 43.2963 57.32 43.3966 57.4817 43.5512C57.6622 43.7321 57.7826 43.9648 57.8262 44.2174C57.8667 44.4706 57.8502 44.7297 57.7778 44.9756C57.7186 45.1877 57.5966 45.3766 57.4279 45.5171C57.2343 45.6539 57.0142 45.7481 56.7819 45.7933H56.7173C56.5904 45.8062 56.4628 45.8116 56.3352 45.8096Z" fill="black"/>
<path d="M36.1126 31.3116C36.8818 32.2426 37.3928 33.3614 37.5941 34.5549C37.7954 35.7484 37.6799 36.9742 37.2591 38.1084C37.0632 38.647 36.7458 39.1326 36.3321 39.5273C35.9185 39.9219 35.4196 40.2148 34.8746 40.383C33.6441 40.7978 32.329 40.8909 31.0529 40.6538C30.8416 40.6149 30.6331 40.5624 30.4285 40.4967C31.5361 41.1377 32.8445 41.3313 34.0887 41.0383C35.2603 40.7691 36.3147 40.1278 37.0961 39.209C37.8774 38.2903 38.344 37.1429 38.4271 35.9367C38.524 33.8949 37.2806 31.7665 35.5797 30.5805C35.4653 30.4984 35.3468 30.4225 35.2245 30.353L35.0414 30.2501C35.4348 30.5648 35.7939 30.9206 36.1126 31.3116Z" fill="#7469F6"/>
<path d="M30.1915 31.5012C30.2398 31.6707 30.2192 31.8525 30.1345 32.0068C30.0497 32.1611 29.9076 32.2753 29.7393 32.3244C29.3161 32.4951 28.9323 32.7513 28.6113 33.0771C28.2903 33.403 28.0391 33.7915 27.8731 34.2188C27.7072 34.6461 27.6301 35.1031 27.6464 35.5616C27.6628 36.02 27.7724 36.4702 27.9685 36.8844C28.7059 38.5091 30.5252 39.3865 32.1993 39.419C33.1752 39.4658 34.1466 39.2588 35.0198 38.8178C35.7949 38.3792 36.1286 37.4097 36.2793 36.5541C36.4204 35.6708 36.3473 34.7664 36.0661 33.9177C35.7849 33.069 35.3041 32.3013 34.6645 31.6799C33.6741 30.6996 32.1669 29.9793 30.8266 30.2447C30.396 30.4722 29.9762 30.7321 29.5617 30.9813C29.7047 30.9993 29.8397 31.0578 29.9512 31.1498C30.0626 31.2418 30.146 31.3636 30.1915 31.5012ZM30.7298 34.7506C30.9579 35.1199 31.2231 35.4647 31.521 35.7796C31.6879 35.9529 31.8601 36.1208 32.0593 36.2779L32.1131 36.3212L32.1615 36.267L32.5168 35.8392L33.195 35.0106C33.631 34.469 34.0617 33.9274 34.4815 33.3479C34.5767 33.1982 34.7265 33.0922 34.8988 33.0526C35.071 33.0131 35.2517 33.0433 35.4019 33.1367C35.5563 33.2324 35.6688 33.3835 35.7167 33.5594C35.7647 33.7353 35.7445 33.9229 35.6603 34.0845C34.7775 35.2651 33.8625 36.4295 32.8936 37.5506C32.8265 37.6369 32.7429 37.7089 32.6477 37.7623C32.5525 37.8158 32.4478 37.8495 32.3395 37.8616C32.2312 37.8737 32.1216 37.864 32.0171 37.8329C31.9126 37.8018 31.8153 37.75 31.731 37.6805C31.4382 37.4781 31.1611 37.2536 30.902 37.009C30.3962 36.5283 29.9563 35.9819 29.594 35.3843C29.548 35.3086 29.5175 35.2246 29.504 35.137C29.4905 35.0494 29.4943 34.9599 29.5153 34.8738C29.5364 34.7877 29.5741 34.7067 29.6264 34.6353C29.6787 34.564 29.7445 34.5038 29.8201 34.4582C29.9791 34.3831 30.1604 34.3709 30.3279 34.4241C30.4955 34.4773 30.637 34.5919 30.7244 34.7452L30.7298 34.7506Z" fill="#7469F6"/>
<path d="M28.1731 38.1571C27.2203 36.2779 27.3926 34.3174 28.0385 32.5139C28.3901 31.8864 28.9057 31.3676 29.5294 31.0138C29.4622 30.9979 29.3922 30.9979 29.3249 31.0138C28.2868 31.3842 27.4161 32.1186 26.8724 33.0824C26.3287 34.0463 26.1483 35.1749 26.3644 36.2616C26.5892 37.2733 27.0839 38.2043 27.7952 38.9543C28.5065 39.7043 29.4075 40.2451 30.4014 40.5184C29.445 39.9677 28.6702 39.1467 28.1731 38.1571Z" fill="black"/>
<path d="M35.0414 30.2502C33.4266 28.9504 31.2143 28.3276 29.4003 29.2753C28.6468 29.6707 29.3519 30.9 30.1055 30.483C30.3316 30.3673 30.5725 30.2835 30.8214 30.2339C31.4068 29.8991 32.0603 29.7028 32.7323 29.6598C33.5407 29.6443 34.3384 29.8482 35.0414 30.2502Z" fill="black"/>
<path d="M34.6701 31.6583C35.3096 32.2797 35.7905 33.0474 36.0716 33.8961C36.3528 34.7447 36.426 35.6492 36.2849 36.5324C36.1341 37.3881 35.8004 38.3576 35.0253 38.7962C34.1521 39.2372 33.1807 39.4442 32.2048 39.3974C30.5308 39.3649 28.7114 38.5146 27.974 36.8628C27.778 36.4486 27.6684 35.9984 27.652 35.5399C27.6356 35.0815 27.7127 34.6245 27.8787 34.1972C28.0446 33.7699 28.2959 33.3814 28.6168 33.0555C28.9378 32.7297 29.3217 32.4735 29.7449 32.3027C29.9132 32.2537 30.0553 32.1395 30.14 31.9852C30.2248 31.8309 30.2452 31.649 30.197 31.4796C30.1545 31.3372 30.0719 31.2102 29.9591 31.1141C29.8464 31.018 29.7085 30.9568 29.5619 30.938C28.9382 31.2918 28.4225 31.8106 28.0709 32.4381C27.4249 34.2416 27.2527 36.2021 28.2054 38.0814C28.7089 39.0767 29.4936 39.9001 30.4608 40.448C30.6654 40.5137 30.8739 40.5662 31.0852 40.6051C32.3613 40.8423 33.6764 40.7491 34.9069 40.3343C35.4519 40.1661 35.9508 39.8732 36.3645 39.4786C36.7782 39.0839 37.0954 38.5983 37.2914 38.0597C37.7122 36.9256 37.8278 35.6997 37.6265 34.5062C37.4251 33.3127 36.914 32.1939 36.1449 31.2629C35.8257 30.8641 35.4648 30.501 35.0684 30.1798C34.3653 29.7778 33.5676 29.5739 32.7592 29.5895C32.0872 29.6324 31.4337 29.8287 30.8484 30.1635C32.1617 29.9686 33.6689 30.6889 34.6701 31.6583Z" fill="black"/>
<path d="M29.8255 34.4636C29.75 34.5092 29.6841 34.5694 29.6318 34.6408C29.5795 34.7121 29.5418 34.7932 29.5208 34.8793C29.4998 34.9654 29.4958 35.0548 29.5093 35.1424C29.5228 35.23 29.5535 35.3141 29.5994 35.3897C29.9617 35.9874 30.4016 36.5338 30.9074 37.0144C31.1665 37.259 31.4436 37.4835 31.7364 37.686C31.8207 37.7554 31.918 37.8072 32.0225 37.8383C32.127 37.8694 32.2366 37.8792 32.3449 37.8671C32.4532 37.855 32.558 37.8212 32.6531 37.7678C32.7483 37.7144 32.8319 37.6424 32.899 37.556C33.8679 36.4349 34.783 35.2706 35.6657 34.0899C35.7499 33.9284 35.7701 33.7407 35.7222 33.5648C35.6742 33.3889 35.5617 33.2379 35.4074 33.1422C35.2571 33.0488 35.0763 33.0186 34.9041 33.0581C34.7319 33.0976 34.5821 33.2037 34.4869 33.3534C34.0671 33.895 33.6365 34.469 33.2005 35.016L32.5222 35.8446L32.167 36.2725L32.1185 36.3266L32.0647 36.2833C31.8817 36.1262 31.7095 35.9584 31.5265 35.7851C31.2285 35.4701 30.9633 35.1253 30.7352 34.7561C30.6485 34.6005 30.5065 34.4837 30.3376 34.4294C30.1688 34.3752 29.9858 34.3874 29.8255 34.4636Z" fill="black"/>
</svg>
