<svg width="59" height="50" viewBox="0 0 59 50" fill="none" xmlns="http://www.w3.org/2000/svg">
<path fill-rule="evenodd" clip-rule="evenodd" d="M10.1303 6.07431C15.6739 2.37072 22.7736 4.53995 29.1352 6.53469C35.858 8.64274 43.1086 10.9506 46.0699 17.3437C49.3154 24.3504 48.6545 32.9091 44.3083 39.2918C40.1284 45.4304 32.4275 47.077 25.0814 48.1673C17.288 49.3239 7.95756 51.3935 2.77974 45.4551C-2.2679 39.6659 2.22601 31.121 3.63529 23.5707C4.83622 17.1368 4.68798 9.71021 10.1303 6.07431Z" fill="#D0E3FF"/>
<path d="M45.8045 39.5069C45.8405 41.1632 45.8405 43.2876 45.5525 45.418C46.2784 45.37 46.9624 44.7639 46.9504 43.5876C46.8544 37.2984 45.9005 31.1172 44.0585 25.2661C43.6986 24.1259 42.7746 23.8138 42.0366 24.0839C43.9445 26.8204 44.8385 30.2411 45.2465 32.8156C45.5645 34.79 45.7505 36.9804 45.8045 39.5069Z" fill="#7469F6"/>
<path d="M44.7728 38.9307C44.7128 37.0884 44.5868 34.6699 44.1248 32.2755C43.6868 30.013 42.8349 27.1085 41.2029 24.81C41.0049 25.1941 40.9509 25.6922 41.1369 26.2743C42.8829 31.8254 43.8308 37.6165 43.9208 43.5816C43.9328 44.2958 44.1968 44.7999 44.5688 45.0999C44.8508 42.9875 44.8388 40.8931 44.7728 38.9307Z" fill="#7469F6"/>
<path d="M55.8181 42.2374C55.7701 40.7971 55.6741 39.3508 55.3981 37.9465C54.9721 35.7441 54.1201 33.4937 52.6082 32.1374C52.1942 31.7653 51.7502 31.5253 51.2823 31.4173C51.2103 31.9214 51.3423 32.4675 51.7682 32.9176C54.3661 35.6601 55.1461 40.413 54.7801 44.4638C54.6901 45.43 55.1221 46.0061 55.6801 46.2041C55.8601 44.8959 55.8601 43.5636 55.8181 42.2374Z" fill="#7469F6"/>
<path d="M56.6521 38.1566C56.8861 39.6209 56.9881 41.1032 57.0241 42.5914C57.0481 43.7497 57.0361 44.9139 56.9101 46.0601C57.372 45.7841 57.744 45.256 57.816 44.4638C58.266 39.5129 57.0601 33.5417 53.9162 30.2231C53.2922 29.5689 52.5602 29.659 52.0203 30.097C52.6262 30.3491 53.1902 30.7692 53.6882 31.2973C55.3201 33.0136 56.2441 35.5881 56.6521 38.1566Z" fill="#7469F6"/>
<path d="M18.0077 41.7813C18.0857 42.9815 18.1937 44.1818 18.4097 45.352C19.1537 45.1119 19.7896 44.2598 19.5436 43.0535C18.8477 39.6449 19.0397 36.3202 20.0236 33.0376C20.2576 32.2515 20.0716 31.6213 19.6936 31.2193C18.7037 32.8696 18.2057 34.976 18.0137 37.0044C17.8577 38.5887 17.9057 40.197 18.0077 41.7813Z" fill="#7469F6"/>
<path d="M16.6577 37.4425C16.8017 35.12 17.3117 32.7315 18.3437 30.7632C17.8217 30.8592 17.3297 31.2553 17.1017 32.0294C15.9318 35.9182 15.7998 40.059 16.6157 44.0677C16.6877 44.4338 16.8257 44.7159 16.9937 44.9319C16.8677 44.0857 16.7837 43.2276 16.7237 42.3694C16.6037 40.7311 16.5557 39.0868 16.6577 37.4425Z" fill="#7469F6"/>
<path d="M57.9001 21.8275C57.3001 23.1057 56.1541 23.7598 55.1342 24.2159C54.5282 24.486 53.9042 24.672 53.2683 24.792C52.9803 24.846 52.6863 24.882 52.3983 24.9C52.2243 24.912 51.9963 24.87 51.8043 24.9C51.7383 25.0741 51.7023 25.2961 51.6543 25.4702C51.5703 25.7702 51.4863 26.0763 51.4023 26.3763C51.3123 26.7064 51.0184 27.0004 50.7124 26.7784C50.5984 26.6944 50.5204 26.5744 50.4364 26.4663C50.3344 26.3403 50.2204 26.2323 50.1124 26.1063C49.9024 25.8602 49.7104 25.6022 49.5064 25.3501C49.1704 24.9421 48.7745 24.492 48.2825 24.3239C48.2705 24.3179 48.2525 24.3179 48.2405 24.3119C48.5225 24.462 48.7625 24.666 48.9904 25.0441C49.4344 25.7822 50.2084 28.4767 51.3843 27.7626C51.9303 27.4325 51.9783 26.4123 52.1403 25.8182C52.2183 25.5422 52.1283 25.6202 52.3923 25.5782C52.5243 25.5602 52.6503 25.5302 52.7763 25.5062C53.2143 25.4221 53.6523 25.3261 54.0902 25.2241C55.3742 24.918 56.8921 24.606 57.8821 23.5618C58.866 22.5296 59.04 20.9333 58.686 19.541C58.59 19.1629 58.4581 18.7909 58.2961 18.4308C58.4821 19.589 58.3321 20.8973 57.9001 21.8275Z" fill="#A1A1E6"/>
<path d="M50.4003 25.0681C50.5383 24.576 50.7122 24.1139 50.9942 23.8558C51.2702 23.6038 51.5942 23.5978 51.9182 23.5978C52.3082 23.5918 52.6922 23.5678 53.0761 23.5138C54.3541 23.3277 55.716 22.8297 56.808 21.9055C57.24 21.5394 57.6 21.0833 57.744 20.3872C57.8819 19.7271 57.9359 18.8449 57.744 18.1848C57.546 17.5126 57.054 16.9365 56.676 16.4564C56.664 16.4444 56.658 16.4324 56.646 16.4204C56.514 16.3424 56.382 16.2704 56.238 16.2164C54.7381 15.6043 53.0102 15.5983 51.4382 15.7363C50.2443 15.8443 49.0383 16.1324 48.0004 16.7985C46.2424 17.6567 45.0245 19.8231 45.6125 21.8215C46.3624 22.6916 47.4004 22.7216 48.3063 23.0637C49.2123 23.3938 49.8543 24.1379 50.4003 25.0681ZM53.9221 17.9627C54.3301 17.9327 54.3721 18.6408 53.9581 18.6709C53.5501 18.7009 53.5141 17.9927 53.9221 17.9627ZM52.3082 20.6092C52.3442 20.7352 52.3802 20.8673 52.4282 20.9873C52.4282 20.9933 52.4462 21.0353 52.4522 21.0533C52.4582 21.0653 52.4822 21.1193 52.4882 21.1253C52.5182 21.1793 52.5482 21.2273 52.5782 21.2754C52.5842 21.2814 52.5842 21.2814 52.5842 21.2874C52.5842 21.2874 52.5902 21.2874 52.5962 21.2934C52.6202 21.3174 52.6442 21.3354 52.6682 21.3594C52.6802 21.3654 52.6922 21.3774 52.7042 21.3834C52.7222 21.3954 52.7402 21.4014 52.7642 21.4134C52.7522 21.4014 52.8662 21.4254 52.8542 21.4314C52.8782 21.4314 52.9022 21.4314 52.9262 21.4314C52.9322 21.4314 52.9562 21.4254 52.9742 21.4254C52.9862 21.4194 53.0401 21.4074 53.0461 21.4074C53.0701 21.3954 53.1001 21.3894 53.1241 21.3774C53.1301 21.3774 53.1361 21.3714 53.1421 21.3714C53.1481 21.3714 53.1481 21.3654 53.1541 21.3654C53.1781 21.3474 53.2021 21.3354 53.2261 21.3174C53.2321 21.3114 53.2681 21.2814 53.2801 21.2694C53.2921 21.2573 53.3281 21.2153 53.3341 21.2093C53.3521 21.1853 53.3701 21.1613 53.3941 21.1313C53.4001 21.1193 53.4061 21.1193 53.4061 21.1133C53.4061 21.1073 53.4061 21.1073 53.4121 21.0953C53.4421 21.0353 53.4721 20.9693 53.5021 20.9033C53.5081 20.8853 53.5141 20.8733 53.5201 20.8553C53.5081 20.8913 53.5081 20.8853 53.5201 20.8493C53.5261 20.8193 53.5381 20.7833 53.5441 20.7533C53.5621 20.6872 53.5741 20.6212 53.5801 20.5552C53.5861 20.5192 53.5861 20.4772 53.5921 20.4412C53.5921 20.4292 53.5921 20.4292 53.5921 20.4292C53.5921 20.4172 53.5921 20.3992 53.5921 20.3872C53.5981 20.1891 53.7061 20.0331 53.8921 20.0091C54.0541 19.9911 54.2401 20.1531 54.2281 20.3392C54.2101 20.7292 54.1441 21.1253 53.9521 21.4554C53.7541 21.7975 53.4661 22.0315 53.1001 22.1095C52.7522 22.1875 52.3802 22.0675 52.1402 21.7734C51.9182 21.5034 51.8042 21.1733 51.7082 20.8313C51.6542 20.6392 51.7442 20.4532 51.9062 20.3812C52.0562 20.3212 52.2542 20.4352 52.3082 20.6092ZM51.8522 17.8607C52.2602 17.8307 52.3022 18.5388 51.8882 18.5688C51.4802 18.5928 51.4442 17.8847 51.8522 17.8607Z" fill="#A1A1E6"/>
<path d="M46.5481 11.5887C45.6901 13.4131 44.0522 14.3493 42.5942 14.9974C41.7303 15.3875 40.8303 15.6515 39.9243 15.8195C39.5104 15.8976 39.0964 15.9456 38.6764 15.9756C38.4244 15.9936 38.1004 15.9276 37.8304 15.9756C37.7344 16.2276 37.6804 16.5397 37.6144 16.7857C37.5005 17.1938 37.3865 17.6019 37.2725 18.01C37.6024 18.196 38.0524 18.094 38.1184 17.5779C38.1364 17.4519 38.1484 17.3258 38.1664 17.1938C38.2564 17.0618 38.3044 16.8938 38.2984 16.7257C38.3584 16.7197 38.4244 16.7017 38.4184 16.7017C38.9044 16.6717 39.4144 16.4977 39.8944 16.4017C40.8183 16.2156 41.7423 16.0356 42.6602 15.8375C44.2382 15.4955 45.6781 14.8894 46.6381 13.3831C47.502 12.0268 48.042 10.1665 47.976 8.50414C47.94 7.56196 47.598 6.72179 47.202 5.90564C46.9141 5.31752 46.6201 4.70541 46.2121 4.20131C46.3561 4.45336 46.4881 4.70541 46.6081 4.95745C47.496 6.85382 47.412 9.75838 46.5481 11.5887Z" fill="#A1A1E6"/>
<path d="M35.8269 16.3779C36.0249 15.6758 36.2768 15.0156 36.6788 14.6436C37.0748 14.2775 37.5428 14.2775 38.0048 14.2715C38.5567 14.2655 39.1147 14.2295 39.6607 14.1515C41.4906 13.8874 43.4345 13.1733 45.0005 11.853C45.6185 11.3309 46.1284 10.6768 46.3384 9.68662C46.5364 8.74444 46.6144 7.48419 46.3384 6.53601C46.0564 5.57583 45.3545 4.75367 44.8085 4.06354C44.5025 3.67946 44.1845 3.31339 43.8485 2.98933C43.1286 2.8393 42.3786 2.8273 41.6526 2.8393C39.9367 2.8633 38.2028 2.91732 36.5228 3.3554C34.8849 3.78148 33.379 4.71166 32.071 5.88189C30.8771 6.94409 30.2291 8.41437 30.2651 10.1247C30.2891 11.1989 30.5591 12.1351 30.9851 12.9512C31.603 13.1493 32.245 13.2813 32.845 13.5034C34.1349 13.9834 35.0469 15.0456 35.8269 16.3779ZM40.8667 6.22395C41.4546 6.18194 41.5086 7.19614 40.9207 7.23815C40.3327 7.27415 40.2787 6.25996 40.8667 6.22395ZM38.5568 10.0047C38.6107 10.1907 38.6587 10.3707 38.7307 10.5448C38.7367 10.5568 38.7547 10.6108 38.7667 10.6408C38.7787 10.6588 38.8087 10.7308 38.8147 10.7428C38.8567 10.8148 38.8987 10.8868 38.9467 10.9529C38.9527 10.9649 38.9527 10.9649 38.9587 10.9709C38.9647 10.9709 38.9647 10.9709 38.9767 10.9829C39.0127 11.0129 39.0427 11.0489 39.0787 11.0789C39.0967 11.0909 39.1087 11.1029 39.1267 11.1089C39.1507 11.1269 39.1807 11.1389 39.2107 11.1509C39.1987 11.1389 39.3547 11.1749 39.3367 11.1809C39.3727 11.1809 39.4087 11.1809 39.4387 11.1809C39.4447 11.1809 39.4807 11.1749 39.5047 11.1749C39.5227 11.1689 39.5947 11.1509 39.6067 11.1449C39.6427 11.1329 39.6787 11.1149 39.7207 11.0969C39.7327 11.0909 39.7387 11.0909 39.7447 11.0909C39.7507 11.0849 39.7507 11.0849 39.7627 11.0789C39.7987 11.0549 39.8287 11.0369 39.8647 11.0069C39.8707 11.0009 39.9247 10.9589 39.9427 10.9409C39.9607 10.9229 40.0087 10.8688 40.0147 10.8568C40.0447 10.8208 40.0687 10.7848 40.0987 10.7488C40.1107 10.7308 40.1107 10.7308 40.1167 10.7248C40.1227 10.7188 40.1167 10.7188 40.1287 10.7008C40.1767 10.6108 40.2187 10.5208 40.2547 10.4308C40.2607 10.4068 40.2727 10.3888 40.2787 10.3647C40.2667 10.4128 40.2667 10.4128 40.2847 10.3527C40.2967 10.3047 40.3087 10.2627 40.3207 10.2147C40.3447 10.1247 40.3567 10.0287 40.3747 9.93266C40.3807 9.87865 40.3867 9.81864 40.3927 9.76463C40.3927 9.75263 40.3927 9.75263 40.3927 9.74663C40.3927 9.72863 40.3927 9.70462 40.3927 9.68662C40.4047 9.40456 40.5547 9.18252 40.8187 9.15251C41.0466 9.12851 41.3106 9.36256 41.2986 9.62661C41.2746 10.1787 41.1786 10.7488 40.9027 11.2169C40.6147 11.703 40.2067 12.0451 39.6907 12.1531C39.1927 12.2611 38.6647 12.0931 38.3228 11.673C38.0108 11.2889 37.8428 10.8148 37.7048 10.3227C37.6268 10.0527 37.7528 9.78264 37.9868 9.68062C38.2028 9.5906 38.4848 9.75263 38.5568 10.0047ZM37.9088 6.07392C38.4968 6.03191 38.5507 7.04611 37.9628 7.08812C37.3748 7.12412 37.3208 6.10993 37.9088 6.07392Z" fill="#A1A1E6"/>
<path d="M19.2437 11.5775C18.0258 11.5535 16.6278 11.4695 15.5719 12.3816C15.0799 12.8077 14.6719 13.3598 14.2999 13.966C13.9399 14.5481 13.472 15.2502 13.334 16.0183C13.202 16.7685 13.364 17.7287 13.598 18.4308C13.8439 19.169 14.2879 19.613 14.8039 19.9551C16.1119 20.8073 17.6658 21.1553 19.0877 21.1673C19.5137 21.1733 19.9457 21.1433 20.3657 21.0893C20.7197 21.0473 21.0736 20.9993 21.4096 21.2393C21.7516 21.4794 21.9976 21.9595 22.2076 22.4756C22.6936 21.3774 23.3056 20.4652 24.2535 19.9671C24.7995 19.679 25.4055 19.493 25.9574 19.187C26.3474 18.5448 26.5874 17.7947 26.6474 16.9785C26.7314 15.9523 26.6954 14.7821 26.3774 13.7619C25.4955 12.9818 24.3135 12.5917 23.3715 12.2796C22.0156 11.8235 20.6297 11.6015 19.2437 11.5775ZM19.7537 14.7941C20.2037 14.7641 20.2517 15.5443 19.7957 15.5743C19.3457 15.6043 19.2977 14.8241 19.7537 14.7941ZM17.4978 15.2142C17.9478 15.1842 17.9958 15.9643 17.5398 15.9943C17.0898 16.0243 17.0478 15.2442 17.4978 15.2142ZM19.9097 19.1389C19.6817 19.499 19.2917 19.679 18.9017 19.649C18.4938 19.613 18.1518 19.397 17.8938 19.0549C17.6418 18.7189 17.5218 18.2988 17.4558 17.8727C17.4258 17.6687 17.6118 17.4646 17.7858 17.4586C17.9958 17.4526 18.1278 17.6087 18.1578 17.8247C18.1578 17.8427 18.1638 17.8547 18.1638 17.8727C18.1638 17.8727 18.1638 17.8727 18.1638 17.8847C18.1758 17.9267 18.1818 17.9687 18.1938 18.0107C18.2118 18.0827 18.2358 18.1548 18.2598 18.2208C18.2718 18.2568 18.2838 18.2868 18.2958 18.3228C18.3138 18.3648 18.3138 18.3648 18.3018 18.3288C18.3078 18.3468 18.3198 18.3588 18.3258 18.3768C18.3618 18.4428 18.4038 18.5088 18.4458 18.5748C18.4518 18.5868 18.4518 18.5868 18.4578 18.5928C18.4638 18.5988 18.4638 18.5988 18.4758 18.6108C18.4998 18.6348 18.5238 18.6649 18.5477 18.6889C18.5537 18.6949 18.5957 18.7309 18.6137 18.7429C18.6317 18.7549 18.6737 18.7789 18.6797 18.7849C18.7097 18.8029 18.7337 18.8149 18.7637 18.8269C18.7697 18.8329 18.7757 18.8329 18.7757 18.8329C18.7817 18.8329 18.7877 18.8329 18.7937 18.8389C18.8237 18.8449 18.8537 18.8569 18.8837 18.8629C18.8897 18.8629 18.9497 18.8689 18.9617 18.8749C18.9797 18.8749 19.0097 18.8749 19.0157 18.8749C19.0397 18.8749 19.0697 18.8689 19.0937 18.8629C19.0757 18.8629 19.1957 18.8149 19.1897 18.8269C19.2077 18.8149 19.2317 18.8029 19.2497 18.7849C19.2617 18.7729 19.2737 18.7669 19.2857 18.7549C19.3097 18.7249 19.3337 18.6949 19.3517 18.6709C19.3577 18.6649 19.3577 18.6649 19.3637 18.6589C19.3637 18.6529 19.3637 18.6529 19.3697 18.6469C19.3997 18.5868 19.4297 18.5328 19.4537 18.4728C19.4597 18.4668 19.4777 18.4068 19.4837 18.3888C19.4897 18.3648 19.5017 18.3168 19.5017 18.3108C19.5377 18.1668 19.5617 18.0227 19.5857 17.8787C19.6217 17.6747 19.8197 17.5246 20.0057 17.5786C20.1917 17.6327 20.3117 17.8247 20.2757 18.0407C20.2097 18.4308 20.1197 18.8089 19.9097 19.1389Z" fill="#A1A1E6"/>
<path d="M20.6473 22.3436C20.4313 22.3376 20.1913 22.4216 19.9993 22.4336C19.6753 22.4576 19.3573 22.4576 19.0333 22.4456C18.3254 22.4096 17.6174 22.2956 16.9214 22.0915C15.7515 21.7434 14.4195 21.1973 13.6095 19.8831C12.7996 18.5688 12.4876 16.3544 13.0036 14.8061C13.3936 13.6239 14.1255 12.4477 14.9115 11.6135C14.7015 11.7575 14.4915 11.9196 14.2935 12.0936C12.4516 13.7619 11.2996 16.8345 12.1276 19.427C12.7036 21.2273 14.2935 21.7074 15.7995 22.1335C17.4134 22.5956 19.0573 22.8477 20.7193 22.9557C20.7792 22.9617 20.8332 22.9557 20.8872 22.9437V22.9377C20.8032 22.7576 20.7373 22.5236 20.6473 22.3436Z" fill="#A1A1E6"/>
<path d="M31.0211 14.8001C31.5971 15.0401 32.215 15.1062 32.797 15.3042C33.493 15.5442 34.063 16.1864 34.5429 16.7745C34.8369 17.1285 35.1129 17.5006 35.4129 17.8547C35.5629 18.0287 35.7249 18.1908 35.8749 18.3648C36.0009 18.5208 36.1089 18.6948 36.2709 18.8089C36.7088 19.1269 37.1288 18.7008 37.2608 18.2328C37.2668 18.2088 37.2728 18.1847 37.2848 18.1547C37.1828 18.0947 37.0928 18.0167 37.0328 17.9087C36.9848 17.8847 36.9428 17.8547 36.8948 17.8187C36.6068 17.5666 36.3369 17.2906 36.0669 17.0145C34.051 16.2104 32.029 14.9261 30.9911 12.9457C30.1811 12.6877 29.4011 12.3096 28.7832 11.4455C27.8772 10.1792 27.8712 8.0368 28.6392 6.71054C29.5991 5.03622 31.4771 4.15405 32.899 3.45792C34.5789 2.64176 36.3309 2.11366 38.1128 1.84361C39.6787 1.60356 41.4666 1.25549 42.9486 2.24569C43.2666 2.45573 43.5666 2.71378 43.8485 2.98983C44.5445 3.13386 45.2165 3.40391 45.7925 3.902C45.9485 4.03403 46.0925 4.19006 46.2184 4.35209C45.3965 2.91181 44.2025 1.59756 43.0686 0.835414C41.4966 -0.214788 39.7567 -0.0647593 38.0828 0.169286C36.4269 0.403331 34.7769 0.847416 33.205 1.56155C31.6391 2.26969 29.9291 3.19987 28.6992 4.73616C27.5832 6.12843 27.1512 8.27084 27.4932 10.3112C27.9012 12.7117 29.3951 14.128 31.0211 14.8001Z" fill="black"/>
<path d="M45.7925 3.90146C45.2165 3.40337 44.5445 3.13332 43.8486 2.98929C44.1846 3.31935 44.5025 3.67942 44.8085 4.06349C45.3545 4.75363 46.0565 5.57579 46.3385 6.53597C46.6145 7.47815 46.5365 8.7444 46.3385 9.68658C46.1285 10.6768 45.6185 11.3309 45.0005 11.853C43.4346 13.1792 41.4907 13.8874 39.6607 14.1514C39.1088 14.2295 38.5568 14.2655 38.0048 14.2715C37.5428 14.2775 37.0809 14.2775 36.6789 14.6435C36.2709 15.0156 36.0189 15.6757 35.8269 16.3779C35.0469 15.0456 34.135 13.9834 32.845 13.5033C32.2451 13.2813 31.6031 13.1492 30.9851 12.9512C32.0231 14.9316 34.039 16.2158 36.0609 17.02C36.3309 17.296 36.6009 17.5721 36.8889 17.8241C36.9309 17.8661 36.9789 17.8902 37.0269 17.9142C37.0869 18.0222 37.1768 18.1062 37.2788 18.1602C37.3928 17.7521 37.5068 17.344 37.6208 16.936C37.6928 16.6899 37.7408 16.3779 37.8368 16.1258C38.1128 16.0838 38.4308 16.1438 38.6828 16.1258C39.0968 16.1018 39.5168 16.0478 39.9307 15.9698C40.8367 15.8018 41.7307 15.5377 42.6006 15.1476C44.0586 14.4935 45.6965 13.5633 46.5545 11.739C47.4184 9.90862 47.5024 7.00406 46.6205 5.10169C46.5005 4.84965 46.3685 4.5976 46.2245 4.34555C46.0925 4.18952 45.9485 4.03949 45.7925 3.90146Z" fill="black"/>
<path d="M37.9748 9.69303C37.7408 9.79503 37.6148 10.065 37.6928 10.335C37.8308 10.827 37.9988 11.301 38.3107 11.6851C38.6527 12.1051 39.1867 12.2731 39.6787 12.1651C40.1947 12.0511 40.6086 11.7151 40.8906 11.229C41.1666 10.755 41.2626 10.191 41.2866 9.63903C41.2986 9.37502 41.0286 9.13502 40.8066 9.16502C40.5366 9.19502 40.3927 9.41702 40.3807 9.69903C40.3807 9.71703 40.3807 9.74103 40.3807 9.75903C40.3807 9.75903 40.3807 9.76503 40.3807 9.77703C40.3747 9.83103 40.3687 9.89103 40.3627 9.94503C40.3507 10.041 40.3327 10.131 40.3087 10.227C40.2967 10.275 40.2847 10.317 40.2727 10.365C40.2547 10.419 40.2547 10.425 40.2667 10.377C40.2607 10.401 40.2487 10.419 40.2427 10.443C40.2067 10.539 40.1647 10.629 40.1167 10.713C40.1047 10.731 40.1047 10.731 40.1047 10.737C40.0987 10.743 40.0987 10.743 40.0867 10.761C40.0627 10.797 40.0327 10.833 40.0027 10.869C39.9967 10.875 39.9427 10.929 39.9307 10.953C39.9127 10.971 39.8587 11.013 39.8527 11.019C39.8167 11.043 39.7867 11.067 39.7507 11.091C39.7447 11.097 39.7387 11.097 39.7327 11.103C39.7267 11.103 39.7207 11.109 39.7087 11.109C39.6727 11.127 39.6367 11.139 39.5947 11.157C39.5827 11.163 39.5107 11.181 39.4927 11.187C39.4687 11.187 39.4327 11.193 39.4267 11.193C39.3907 11.193 39.3547 11.193 39.3247 11.193C39.3487 11.187 39.1867 11.151 39.1987 11.163C39.1687 11.151 39.1447 11.139 39.1147 11.121C39.0967 11.109 39.0847 11.103 39.0667 11.091C39.0367 11.061 39.0007 11.025 38.9647 10.995C38.9527 10.983 38.9527 10.983 38.9467 10.983C38.9407 10.977 38.9467 10.977 38.9347 10.965C38.8867 10.899 38.8447 10.827 38.8027 10.755C38.7967 10.743 38.7607 10.671 38.7547 10.653C38.7427 10.623 38.7187 10.569 38.7187 10.557C38.6527 10.377 38.5987 10.197 38.5447 10.017C38.4847 9.75303 38.2027 9.59103 37.9748 9.69303Z" fill="black"/>
<path d="M37.963 7.08242C38.551 7.04041 38.497 6.0324 37.9091 6.0684C37.3211 6.1104 37.3751 7.12442 37.963 7.08242Z" fill="black"/>
<path d="M40.9208 7.23246C41.5088 7.19045 41.4548 6.18244 40.8668 6.21844C40.2788 6.26044 40.3328 7.27446 40.9208 7.23246Z" fill="black"/>
<path d="M23.1494 28.9685C23.9234 29.0405 24.7694 29.2685 25.4953 29.7245C25.6153 29.7725 25.7413 29.8205 25.8673 29.8385C25.8673 29.8385 25.8853 29.8385 25.8913 29.8445C25.8973 29.8445 25.9033 29.8445 25.9033 29.8445C25.9333 29.8445 25.9573 29.8445 25.9873 29.8445C26.0353 29.8445 26.0833 29.8385 26.1313 29.8265C26.1373 29.8265 26.1553 29.8205 26.1613 29.8205C26.1673 29.8205 26.1793 29.8145 26.1853 29.8145C26.2093 29.8085 26.2333 29.7965 26.2513 29.7905C26.2753 29.7785 26.3053 29.7665 26.3293 29.7545C26.3353 29.7545 26.3593 29.7365 26.3653 29.7365C26.4073 29.7065 26.4493 29.6765 26.4913 29.6345C26.4973 29.6285 26.5153 29.6105 26.5153 29.6045C26.5333 29.5805 26.5513 29.5565 26.5633 29.5325C26.5633 29.5325 26.5633 29.5325 26.5633 29.5265C26.5693 29.5145 26.5753 29.5025 26.5813 29.4905C26.5873 29.4845 26.5933 29.4545 26.5993 29.4485C26.6173 29.3885 26.6233 29.3225 26.6293 29.2625C26.6413 28.9685 26.5093 28.6325 26.3233 28.4645C26.2033 28.3565 26.0593 28.2725 25.9273 28.1765C25.8373 28.1225 25.7473 28.0685 25.6513 28.0265C24.5774 27.5045 23.3174 27.1625 22.1655 27.3605C20.9895 27.5645 19.9756 28.3625 19.1776 29.4365C18.8656 29.8505 18.5896 30.3005 18.3376 30.7745C18.8236 30.6845 19.3396 30.8585 19.6876 31.2305C19.9156 30.8525 20.1676 30.4985 20.4496 30.1745C21.2115 29.2985 22.1235 28.8725 23.1494 28.9685Z" fill="black"/>
<path d="M16.9939 44.9319C17.1079 45.6939 17.2519 46.4439 17.4499 47.1819C17.7259 48.19 18.9738 47.656 18.6978 46.6479C18.5838 46.2219 18.4878 45.7899 18.4038 45.3519C17.9119 45.5139 17.3659 45.3999 16.9939 44.9319Z" fill="black"/>
<path d="M18.3438 30.7692C17.3118 32.7316 16.8019 35.12 16.6579 37.4485C16.5559 39.0928 16.6039 40.7371 16.7239 42.3754C16.7839 43.2336 16.8679 44.0917 16.9939 44.9379C17.3658 45.406 17.9118 45.52 18.4098 45.358C18.1938 44.1878 18.0858 42.9935 18.0078 41.7873C17.9058 40.203 17.8638 38.5947 18.0138 37.0104C18.2058 34.982 18.7038 32.8756 19.6937 31.2253C19.3458 30.8532 18.8298 30.6792 18.3438 30.7692Z" fill="black"/>
<path d="M14.9058 11.7575C17.1437 10.2092 20.0055 10.4553 22.5194 10.8873C23.7974 11.1094 25.1353 11.4635 25.9153 12.7177C26.1133 13.0358 26.2633 13.3898 26.3773 13.7619C26.5693 13.9359 26.7553 14.116 26.9173 14.332C27.6132 15.2682 27.7872 16.9125 27.1993 17.9747C26.8693 18.5688 26.4313 18.9229 25.9513 19.1869C25.6513 19.679 25.2673 20.1171 24.7874 20.4592C24.2714 20.8253 23.7014 21.0953 23.1434 21.3654C23.1494 21.6354 23.0774 21.9055 22.8914 22.0855C22.4774 22.4996 21.9015 22.8416 21.3315 22.8176C21.2055 22.9617 21.0495 23.0637 20.8815 23.0997C21.0075 23.4178 21.1395 23.7358 21.2655 24.0539C21.4035 24.4019 21.7635 24.678 22.0695 24.3959C22.1835 24.2879 22.2495 24.1439 22.3395 24.0119C22.4354 23.8618 22.5494 23.7238 22.6514 23.5738C22.8494 23.2737 23.0294 22.9617 23.2274 22.6556C23.5454 22.1575 23.9294 21.6054 24.4394 21.3474C24.8713 21.1313 25.3393 21.0173 25.7593 20.7772C26.9533 20.0931 27.9792 18.8569 28.0872 16.9785C28.1832 15.3762 27.6732 13.7799 26.6953 12.8257C25.6273 11.7815 24.2354 11.2414 22.9754 10.8573C21.7095 10.4733 20.4075 10.3052 19.1176 10.2932C17.8156 10.2872 16.4717 10.3472 15.3557 11.3134C15.2057 11.4455 15.0558 11.5955 14.9058 11.7575Z" fill="black"/>
<path d="M22.8915 22.0855C23.0775 21.8995 23.1495 21.6354 23.1435 21.3654C23.7015 21.0953 24.2715 20.8313 24.7875 20.4592C25.2674 20.1171 25.6514 19.685 25.9514 19.1869C25.3994 19.493 24.7935 19.679 24.2475 19.9671C23.2995 20.4712 22.6876 21.3774 22.2016 22.4756C21.9916 21.9595 21.7456 21.4794 21.4036 21.2393C21.0676 20.9993 20.7136 21.0473 20.3597 21.0893C19.9337 21.1433 19.5077 21.1733 19.0817 21.1673C17.6598 21.1493 16.1058 20.8073 14.7979 19.9551C14.2819 19.619 13.8319 19.1689 13.5919 18.4308C13.3579 17.7287 13.1959 16.7685 13.3279 16.0183C13.4659 15.2502 13.9339 14.548 14.2939 13.9659C14.6659 13.3598 15.0739 12.8077 15.5659 12.3816C16.6218 11.4695 18.0197 11.5535 19.2377 11.5775C20.6236 11.6015 22.0096 11.8235 23.3655 12.2796C24.3075 12.5917 25.4894 12.9817 26.3714 13.7619C26.2574 13.3898 26.1074 13.0358 25.9094 12.7177C25.1295 11.4635 23.7915 11.1094 22.5136 10.8873C19.9997 10.4553 17.1378 10.2092 14.8999 11.7575C14.1139 12.5917 13.3879 13.7739 12.992 14.9501C12.476 16.4984 12.788 18.7128 13.5979 20.0271C14.4079 21.3414 15.7398 21.8815 16.9098 22.2355C17.6058 22.4456 18.3137 22.5536 19.0217 22.5896C19.3457 22.6076 19.6697 22.6016 19.9877 22.5776C20.1797 22.5656 20.4256 22.4816 20.6356 22.4876C20.7316 22.6736 20.7976 22.9077 20.8696 23.0877V23.0937C21.0436 23.0577 21.1936 22.9557 21.3196 22.8116C21.9076 22.8416 22.4776 22.4996 22.8915 22.0855Z" fill="black"/>
<path d="M19.9996 17.5726C19.8196 17.5186 19.6156 17.6746 19.5797 17.8726C19.5557 18.0166 19.5317 18.1666 19.4957 18.3046C19.4957 18.3106 19.4837 18.3586 19.4777 18.3826C19.4717 18.4006 19.4537 18.4606 19.4477 18.4666C19.4237 18.5266 19.3937 18.5866 19.3637 18.6406C19.3577 18.6526 19.3577 18.6466 19.3577 18.6526C19.3577 18.6526 19.3517 18.6526 19.3457 18.6646C19.3217 18.6946 19.2977 18.7186 19.2797 18.7486C19.2677 18.7606 19.2557 18.7666 19.2437 18.7786C19.2257 18.7906 19.2017 18.8086 19.1837 18.8206C19.1897 18.8086 19.0757 18.8506 19.0877 18.8566C19.0637 18.8626 19.0337 18.8626 19.0097 18.8686C19.0037 18.8686 18.9797 18.8686 18.9557 18.8686C18.9437 18.8686 18.8837 18.8566 18.8777 18.8566C18.8477 18.8506 18.8177 18.8386 18.7877 18.8326C18.7817 18.8326 18.7757 18.8266 18.7697 18.8266C18.7637 18.8266 18.7637 18.8206 18.7577 18.8206C18.7277 18.8086 18.7037 18.7906 18.6737 18.7786C18.6677 18.7726 18.6257 18.7486 18.6077 18.7366C18.5957 18.7246 18.5477 18.6886 18.5417 18.6826C18.5177 18.6586 18.4937 18.6346 18.4697 18.6046C18.4577 18.5926 18.4577 18.5926 18.4517 18.5866C18.4517 18.5806 18.4517 18.5806 18.4397 18.5686C18.3977 18.5086 18.3557 18.4426 18.3197 18.3706C18.3137 18.3526 18.3017 18.3406 18.2957 18.3226C18.3137 18.3586 18.3077 18.3586 18.2897 18.3166C18.2777 18.2806 18.2657 18.2506 18.2537 18.2146C18.2297 18.1486 18.2057 18.0766 18.1877 18.0046C18.1757 17.9626 18.1697 17.9206 18.1577 17.8786C18.1577 17.8666 18.1577 17.8666 18.1577 17.8666C18.1577 17.8486 18.1517 17.8366 18.1517 17.8186C18.1217 17.6026 17.9837 17.4466 17.7797 17.4526C17.6057 17.4586 17.4197 17.6626 17.4497 17.8666C17.5157 18.2866 17.6357 18.7126 17.8877 19.0486C18.1457 19.3906 18.4937 19.6067 18.8957 19.6427C19.2857 19.6727 19.6756 19.4926 19.9036 19.1326C20.1136 18.8086 20.2036 18.4246 20.2636 18.0346C20.3116 17.8246 20.1916 17.6266 19.9996 17.5726Z" fill="black"/>
<path d="M19.7957 15.5741C20.2516 15.5441 20.2036 14.7641 19.7537 14.7941C19.2977 14.8241 19.3457 15.6041 19.7957 15.5741Z" fill="black"/>
<path d="M17.4978 15.2142C17.0418 15.2442 17.0898 16.0242 17.5398 15.9942C17.9958 15.9642 17.9538 15.1842 17.4978 15.2142Z" fill="black"/>
<path d="M56.7842 47.0141C56.8381 46.7021 56.8801 46.3841 56.9101 46.0661C56.5202 46.2941 56.0762 46.3421 55.6862 46.2101C55.6622 46.3781 55.6382 46.5401 55.6142 46.7021C55.4582 47.6441 56.6222 47.9561 56.7842 47.0141Z" fill="black"/>
<path d="M52.0204 30.103C51.6364 29.947 51.2404 29.851 50.8264 29.845C49.7765 29.827 48.6725 30.307 47.7485 30.919C47.6705 30.973 47.5925 31.033 47.5146 31.093C47.4066 31.201 47.2866 31.291 47.1846 31.405C47.0346 31.579 46.9446 31.903 46.9806 32.161C46.9866 32.215 47.0046 32.275 47.0226 32.323C47.0286 32.329 47.0346 32.353 47.0406 32.359C47.0466 32.371 47.0526 32.377 47.0586 32.389C47.0586 32.395 47.0586 32.395 47.0586 32.395C47.0766 32.419 47.0946 32.437 47.1126 32.455C47.1186 32.461 47.1306 32.473 47.1366 32.479C47.1726 32.509 47.2146 32.533 47.2566 32.551C47.2626 32.551 47.2866 32.563 47.2926 32.563C47.3166 32.569 47.3406 32.581 47.3646 32.587C47.3886 32.593 47.4066 32.593 47.4306 32.599C47.4366 32.599 47.4486 32.599 47.4546 32.605C47.4606 32.605 47.4726 32.605 47.4846 32.605C47.5266 32.605 47.5685 32.605 47.6165 32.599C47.6405 32.599 47.6645 32.593 47.6885 32.587C47.6885 32.587 47.6945 32.587 47.7005 32.587C47.7065 32.587 47.7185 32.581 47.7245 32.581C47.8385 32.545 47.9465 32.485 48.0485 32.425C48.6605 31.921 49.3985 31.603 50.0884 31.429C50.5024 31.327 50.9044 31.327 51.2884 31.417C51.3604 30.895 51.6424 30.409 52.0204 30.103Z" fill="black"/>
<path d="M56.91 46.0601C57.0359 44.9139 57.0479 43.7497 57.0239 42.5914C56.9879 41.1032 56.886 39.6209 56.652 38.1566C56.244 35.5941 55.32 33.0136 53.6941 31.3033C53.1961 30.7752 52.6321 30.3551 52.0262 30.103C51.6482 30.4151 51.3662 30.8952 51.2942 31.4173C51.7622 31.5253 52.2062 31.7654 52.6201 32.1374C54.1261 33.4937 54.978 35.7441 55.41 37.9466C55.68 39.3508 55.782 40.7971 55.83 42.2374C55.872 43.5696 55.872 44.8959 55.698 46.2041C56.076 46.3422 56.526 46.2942 56.91 46.0601Z" fill="black"/>
<path d="M51.9783 13.7319C50.8203 13.8939 49.6684 14.206 48.5644 14.7041C47.4664 15.2022 46.2725 15.8503 45.4085 16.9245C44.6286 17.8967 44.3226 19.397 44.5626 20.8253C44.8446 22.4996 45.8885 23.4958 47.0285 23.9639C47.4184 24.1259 47.8324 24.1739 48.2284 24.306C48.0064 24.1859 47.7604 24.0959 47.4724 23.9879C46.9445 23.7779 46.5005 23.4178 46.1525 22.9257C45.9005 22.5716 45.7265 22.1995 45.6125 21.8215C45.5585 21.7615 45.5045 21.6954 45.4565 21.6234C44.8266 20.7353 44.8206 19.241 45.3545 18.3108C46.0325 17.1406 47.3465 16.5165 48.3424 16.0364C49.5184 15.4663 50.7423 15.0942 51.9903 14.9081C53.0822 14.7401 54.3362 14.4941 55.3741 15.1902C55.8481 15.5083 56.2561 15.9403 56.6461 16.4264C57.372 16.8645 57.924 17.6027 58.296 18.4368C58.224 17.9867 58.11 17.5607 57.942 17.1946C57.384 15.9884 56.3941 14.8301 55.4641 14.206C54.3662 13.4619 53.1482 13.5639 51.9783 13.7319Z" fill="black"/>
<path d="M56.6521 16.4144C56.6641 16.4264 56.6701 16.4384 56.6821 16.4504C57.066 16.9305 57.552 17.5066 57.75 18.1787C57.942 18.8389 57.888 19.721 57.75 20.3812C57.606 21.0713 57.246 21.5274 56.814 21.8995C55.7221 22.8236 54.3601 23.3217 53.0822 23.5078C52.6982 23.5618 52.3082 23.5858 51.9242 23.5918C51.6003 23.5978 51.2763 23.5978 51.0003 23.8498C50.7183 24.1079 50.5383 24.57 50.4063 25.0621C49.8603 24.1319 49.2244 23.3877 48.3184 23.0517C47.4124 22.7096 46.3805 22.6796 45.6245 21.8094C45.7385 22.1875 45.9125 22.5596 46.1645 22.9136C46.5125 23.4057 46.9565 23.7658 47.4844 23.9759C47.7724 24.0899 48.0184 24.1799 48.2404 24.2939C48.2524 24.2999 48.2704 24.2999 48.2824 24.3059C48.7684 24.4739 49.1644 24.924 49.5064 25.3321C49.7103 25.5842 49.9083 25.8422 50.1123 26.0883C50.2143 26.2143 50.3343 26.3223 50.4363 26.4483C50.5263 26.5563 50.5983 26.6764 50.7123 26.7604C51.0183 26.9824 51.3123 26.6824 51.4023 26.3583C51.4863 26.0583 51.5703 25.7522 51.6543 25.4521C51.7023 25.2781 51.7383 25.0621 51.8043 24.882C51.9962 24.852 52.2242 24.894 52.3982 24.882C52.6922 24.864 52.9802 24.828 53.2682 24.774C53.9042 24.654 54.5281 24.4679 55.1341 24.1979C56.1541 23.7418 57.3 23.0877 57.9 21.8094C58.332 20.8853 58.482 19.571 58.302 18.4128C57.924 17.5966 57.378 16.8525 56.6521 16.4144Z" fill="black"/>
<path d="M51.9002 20.3871C51.7382 20.4591 51.6482 20.6451 51.7022 20.8371C51.7982 21.1791 51.9122 21.5151 52.1342 21.7791C52.3742 22.0731 52.7462 22.1871 53.0942 22.1151C53.4542 22.0371 53.7421 21.7971 53.9461 21.4611C54.1381 21.1311 54.2101 20.7351 54.2221 20.3451C54.2281 20.1591 54.0421 19.9911 53.8861 20.0151C53.7001 20.0391 53.5921 20.1891 53.5861 20.3931C53.5861 20.4051 53.5861 20.4231 53.5861 20.4351C53.5861 20.4351 53.5861 20.4351 53.5861 20.4471C53.5801 20.4831 53.5801 20.5251 53.5741 20.5611C53.5621 20.6271 53.5501 20.6931 53.5381 20.7591C53.5321 20.7891 53.5201 20.8251 53.5141 20.8551C53.5021 20.8971 53.5021 20.8971 53.5141 20.8611C53.5081 20.8791 53.5022 20.8911 53.4962 20.9091C53.4722 20.9751 53.4422 21.0351 53.4062 21.1011C53.4002 21.1131 53.4002 21.1131 53.4002 21.1191C53.3942 21.1251 53.3942 21.1251 53.3882 21.1371C53.3702 21.1611 53.3522 21.1911 53.3282 21.2151C53.3222 21.2211 53.2862 21.2571 53.2742 21.2751C53.2622 21.2871 53.2262 21.3171 53.2202 21.3231C53.1962 21.3411 53.1722 21.3591 53.1482 21.3711C53.1422 21.3771 53.1422 21.3771 53.1362 21.3771C53.1302 21.3771 53.1302 21.3771 53.1182 21.3831C53.0942 21.3951 53.0642 21.4071 53.0402 21.4131C53.0342 21.4131 52.9802 21.4311 52.9682 21.4311C52.9502 21.4311 52.9262 21.4371 52.9202 21.4371C52.8962 21.4371 52.8722 21.4371 52.8482 21.4371C52.8602 21.4311 52.7522 21.4071 52.7582 21.4191C52.7402 21.4131 52.7162 21.4011 52.6982 21.3891C52.6862 21.3831 52.6742 21.3771 52.6622 21.3651C52.6382 21.3411 52.6142 21.3171 52.5902 21.2991C52.5842 21.2931 52.5842 21.2931 52.5782 21.2931C52.5782 21.2871 52.5782 21.2871 52.5722 21.2811C52.5422 21.2331 52.5062 21.1851 52.4822 21.1311C52.4762 21.1251 52.4522 21.0711 52.4462 21.0591C52.4402 21.0411 52.4222 20.9991 52.4222 20.9931C52.3742 20.8671 52.3382 20.7411 52.3022 20.6151C52.2542 20.4351 52.0562 20.3211 51.9002 20.3871Z" fill="black"/>
<path d="M51.8883 18.5687C52.2963 18.5387 52.2603 17.8307 51.8523 17.8607C51.4443 17.8847 51.4803 18.5927 51.8883 18.5687Z" fill="black"/>
<path d="M53.9584 18.6707C54.3664 18.6407 54.3304 17.9327 53.9224 17.9627C53.5144 17.9927 53.5504 18.7007 53.9584 18.6707Z" fill="black"/>
<path d="M57.93 13.6176C58.104 13.4616 58.29 13.3176 58.494 13.1856C58.584 13.1256 58.65 13.0236 58.674 12.8976C58.698 12.7716 58.674 12.6456 58.608 12.5496C58.482 12.3576 58.254 12.3036 58.062 12.4296C57.612 12.7176 57.21 13.0896 56.8561 13.5276C56.7841 13.6176 56.7481 13.7436 56.7541 13.8636C56.7601 13.9836 56.8141 14.0916 56.8921 14.1636C56.9761 14.2416 57.078 14.2716 57.18 14.2656C57.282 14.2596 57.384 14.2116 57.456 14.1156C57.534 14.0196 57.612 13.9296 57.69 13.8396C57.732 13.7976 57.768 13.7556 57.822 13.7076L57.93 13.6176Z" fill="black"/>
<path d="M58.998 14.788C58.986 14.662 58.938 14.554 58.86 14.482C58.764 14.398 58.65 14.356 58.548 14.38C58.32 14.428 58.116 14.5 57.936 14.596C57.87 14.632 57.78 14.686 57.726 14.806C57.6781 14.914 57.6661 15.052 57.708 15.16C57.75 15.274 57.822 15.364 57.912 15.412C57.978 15.448 58.05 15.46 58.116 15.454C58.158 15.454 58.2 15.442 58.242 15.418C58.38 15.346 58.53 15.286 58.686 15.256C58.758 15.238 58.836 15.202 58.902 15.118C58.968 15.028 59.01 14.902 58.998 14.788Z" fill="black"/>
<path d="M55.35 12.7655C55.362 12.8855 55.41 12.9875 55.488 13.0595C55.572 13.1375 55.674 13.1675 55.776 13.1615C55.878 13.1555 55.98 13.1015 56.052 13.0115C56.298 12.6935 56.556 12.3815 56.826 12.0934C56.9039 12.0094 56.9399 11.8954 56.9399 11.7694C56.9339 11.6374 56.886 11.5234 56.796 11.4454C56.628 11.2954 56.4 11.3074 56.244 11.4754C55.962 11.7754 55.692 12.0994 55.44 12.4295C55.38 12.5195 55.344 12.6395 55.35 12.7655Z" fill="black"/>
<path d="M11.3357 18.3048C11.1317 18.3588 10.9517 18.5808 11.0117 18.8628C11.3177 20.3328 12.1517 21.6588 13.3156 22.5048C13.3876 22.5588 13.4716 22.5828 13.5496 22.5768C13.6636 22.5708 13.7656 22.5048 13.8376 22.3848C13.9516 22.1868 13.9396 21.8928 13.7236 21.7308C12.7636 21.0288 12.0557 19.8948 11.7917 18.6228C11.7377 18.3828 11.5457 18.2508 11.3357 18.3048Z" fill="black"/>
<path d="M46.3985 3.03728C46.4765 3.22329 46.6325 3.32529 46.7945 3.31929C46.8305 3.31929 46.8665 3.30729 46.9025 3.29529C47.0105 3.25329 47.1004 3.15728 47.1484 3.03728C47.1904 2.92328 47.1904 2.80928 47.1484 2.70128C46.7645 1.78927 46.2185 1.00925 45.5405 0.385245C45.4265 0.277244 45.2825 0.253244 45.1505 0.307244C45.0125 0.367245 44.9045 0.505247 44.8805 0.667249C44.8565 0.817252 44.9045 0.967254 45.0185 1.06926C45.6005 1.60926 46.0805 2.28727 46.3985 3.03728Z" fill="black"/>
<path d="M44.8568 46.5939C44.9408 46.618 45.3607 46.696 45.4507 46.1379C45.4927 45.8979 45.5227 45.6579 45.5587 45.4119C45.2107 45.4359 44.8628 45.3279 44.5688 45.0999C44.5328 45.3579 44.4968 45.6159 44.4548 45.8739C44.3588 46.4319 44.7728 46.5699 44.8568 46.5939Z" fill="black"/>
<path d="M42.0369 24.0779C41.6829 23.5678 41.2929 23.0757 40.8609 22.6256C39.571 21.2693 38.143 20.5432 36.7331 20.5132C36.5831 20.5132 36.4271 20.5132 36.2711 20.5252C35.0351 20.6212 33.6192 21.1673 32.2333 22.0975C29.8214 23.7118 28.5434 26.8924 28.3154 31.8194C28.2134 34.0338 28.2614 36.3142 28.3094 38.5167L28.3334 39.5489C28.3934 42.6335 28.5314 45.1359 28.7654 47.4164C28.8194 47.9505 29.2154 48.0285 29.4074 47.9925C29.5694 47.9685 29.8274 47.8545 29.7854 47.4044C29.3414 43.0775 29.3174 38.5887 29.2934 34.6339C29.2754 31.3753 29.2514 26.9164 31.5193 24.2639C32.7792 22.7936 34.5792 22.1695 35.5391 21.9295C37.0091 21.5634 38.455 21.9655 39.715 23.0997C40.2789 23.6038 40.7709 24.1799 41.2089 24.804C41.3889 24.456 41.6889 24.2039 42.0369 24.0779Z" fill="black"/>
<path d="M45.5586 45.418C45.8465 43.2876 45.8465 41.1632 45.8105 39.5068C45.7506 36.9864 45.5706 34.7959 45.2526 32.8156C44.8386 30.2351 43.9506 26.8144 42.0427 24.0839C41.6947 24.2099 41.3947 24.4619 41.2087 24.816C42.8347 27.1085 43.6926 30.019 44.1306 32.2815C44.5986 34.6759 44.7246 37.0944 44.7786 38.9367C44.8386 40.8991 44.8506 42.9935 44.5746 45.1119C44.8566 45.334 45.2106 45.436 45.5586 45.418Z" fill="black"/>
</svg>
