<svg width="55" height="56" viewBox="0 0 55 56" fill="none" xmlns="http://www.w3.org/2000/svg">
<path fill-rule="evenodd" clip-rule="evenodd" d="M10.1863 45.5307C5.89427 40.429 7.26775 33.1334 8.54918 26.5908C9.9034 19.6765 11.398 12.2158 17.4258 8.56788C24.0321 4.56984 32.6115 4.28348 39.4344 7.89964C45.9963 11.3775 48.4816 18.85 50.3749 26.0312C52.3835 33.6496 55.4689 42.6951 50.1373 48.4959C44.9398 54.1508 35.9516 50.6261 28.292 50.0576C21.7649 49.5732 14.3999 50.539 10.1863 45.5307Z" fill="#D0E3FF"/>
<path d="M31.2371 28.896C31.0871 29.268 30.9251 29.58 30.7211 29.88C30.5111 30.186 30.2711 30.474 30.0131 30.708C29.2991 31.332 28.453 31.782 27.541 32.04C27.871 32.004 28.195 31.944 28.507 31.86C31.4652 31.062 33.2592 28.05 32.7492 25.062C32.4912 23.556 31.6932 22.194 30.5651 21.366C32.1552 23.7 31.9992 26.724 31.2371 28.896Z" fill="#A1A1E6"/>
<path d="M25.531 30.726C25.9991 30.726 26.4671 30.654 26.9051 30.522C27.3131 30.402 27.7031 30.228 28.0751 29.994C29.2152 29.28 29.9832 28.134 30.0972 26.994C30.1812 26.484 30.2112 26.028 30.1932 25.536C30.1152 24.066 29.6232 22.812 28.6992 21.714L28.6752 21.684C28.2551 21.228 27.7511 20.874 27.1871 20.634C26.9831 20.682 26.7731 20.736 26.5631 20.814C26.2091 20.94 25.8911 21.108 25.597 21.306C25.159 21.132 24.643 21.144 24.109 21.474C21.9069 22.836 20.0889 25.398 20.7069 28.014C21.7449 29.448 23.515 30.726 25.531 30.726Z" fill="#A1A1E6"/>
<path d="M44.7017 47.046C44.7437 47.028 44.7917 47.01 44.8337 46.992C44.7977 46.974 44.7737 46.962 44.7497 46.968C44.7317 46.98 44.7137 47.004 44.7017 47.046Z" fill="#F7C300"/>
<path d="M39.4816 44.88C39.5176 44.832 39.5416 44.766 39.5356 44.73C39.5236 44.718 39.4576 44.712 39.4396 44.712C39.3616 44.712 39.2535 44.712 39.1335 44.694C39.1815 44.826 39.2295 44.958 39.2955 45.084C39.3315 45.042 39.3676 45.006 39.4036 44.964C39.4276 44.94 39.4576 44.91 39.4816 44.88Z" fill="#F7C300"/>
<path d="M41.6894 46.956C41.6714 46.962 41.6474 46.98 41.6174 47.01C41.6594 47.022 41.7074 47.04 41.7494 47.052C41.7254 46.998 41.7014 46.962 41.6894 46.956Z" fill="#F7C300"/>
<path d="M46.9218 44.802C46.9158 44.82 46.9278 44.838 46.9398 44.862C46.9518 44.826 46.9698 44.784 46.9818 44.748C46.9458 44.766 46.9218 44.79 46.9218 44.802Z" fill="#F7C300"/>
<path d="M46.9998 41.712C46.9818 41.682 46.9638 41.646 46.9458 41.616C46.9278 41.634 46.9158 41.652 46.9158 41.664C46.9158 41.676 46.9518 41.7 46.9998 41.712Z" fill="#F7C300"/>
<path d="M41.7076 39.486C41.7196 39.486 41.7256 39.474 41.7316 39.456C41.7496 39.396 41.7556 39.312 41.7676 39.222C41.7676 39.21 41.7676 39.198 41.7736 39.192C41.6776 39.228 41.5816 39.27 41.4856 39.312C41.4916 39.318 41.5036 39.324 41.5096 39.336C41.5756 39.408 41.6416 39.474 41.7076 39.486Z" fill="#F7C300"/>
<path d="M44.1077 42.63C44.1257 42.69 44.1557 42.744 44.1797 42.804C44.1617 42.744 44.1377 42.684 44.1077 42.63Z" fill="#F7C300"/>
<path d="M44.8756 39.42C44.8516 39.408 44.8336 39.396 44.8096 39.384C44.8156 39.408 44.8156 39.432 44.8216 39.456C44.8396 39.444 44.8576 39.432 44.8756 39.42Z" fill="#F7C300"/>
<path d="M45.3018 40.164C45.2298 40.242 45.1578 40.32 45.0858 40.362C44.9658 40.428 44.8458 40.452 44.7198 40.428C44.2158 40.398 44.0778 40.008 43.9637 39.69C43.9037 39.528 43.8557 39.39 43.7597 39.276C43.6577 39.174 43.2677 39.21 42.9497 39.24C42.8297 39.252 42.7337 39.258 42.6377 39.264C42.6137 39.516 42.5237 39.858 42.5117 39.9C42.3617 40.218 42.0557 40.422 41.7377 40.422C41.4977 40.416 41.3357 40.278 41.2217 40.176C41.1256 40.092 41.0596 40.038 40.9876 40.032C40.9756 40.032 40.9276 40.056 40.9096 40.062C40.8256 40.116 40.2796 40.656 40.0936 40.89C40.3516 41.178 40.4716 41.454 40.4656 41.73C40.4596 41.826 40.4416 41.922 40.4056 42.03C40.3156 42.45 39.9196 42.468 39.6796 42.474C39.5056 42.48 39.3976 42.492 39.3556 42.558C39.1876 42.828 39.1456 43.278 39.2536 43.626C39.2836 43.722 39.3376 43.8 39.3976 43.836C39.4636 43.878 39.5596 43.89 39.6556 43.896C39.7096 43.902 39.7396 43.908 39.7756 43.914C39.9976 43.95 40.1596 44.04 40.2616 44.178C40.3216 44.262 40.3516 44.352 40.3816 44.43L40.3996 44.49C40.4776 44.718 40.5556 44.928 40.3156 45.21C40.2796 45.252 40.2436 45.288 40.2016 45.324C40.1176 45.402 40.0696 45.45 40.0696 45.498C40.0696 45.54 40.1056 45.6 40.1356 45.648C40.3336 45.966 40.6156 46.23 40.9456 46.404C40.9576 46.41 40.9816 46.422 40.9876 46.428C41.0236 46.428 41.1016 46.338 41.1617 46.272C41.2517 46.164 41.3597 46.05 41.5037 46.008C41.6537 45.966 41.8157 45.984 41.9837 46.062C42.3797 46.236 42.6257 46.608 42.6377 47.046C43.0037 47.088 43.3817 47.106 43.7537 47.112C43.8437 47.112 43.8677 47.1 43.8737 47.1C43.8737 47.1 43.8797 47.088 43.8857 47.04C43.8917 46.992 43.8857 46.95 43.8857 46.902C43.8857 46.836 43.8797 46.776 43.8857 46.716C43.9157 46.32 44.2578 46.188 44.3838 46.14L44.4558 46.11C44.5578 46.068 44.6658 46.02 44.8038 46.014C44.9358 46.014 45.2718 46.194 45.4698 46.344C45.6018 46.206 45.7578 46.092 45.8958 45.996C46.0038 45.918 46.0998 45.852 46.1958 45.768C46.2738 45.696 46.3218 45.636 46.3338 45.582C46.3518 45.51 46.2918 45.432 46.1898 45.312C46.0878 45.192 45.9738 45.06 45.9498 44.874C45.9078 44.568 46.1478 44.256 46.2918 44.118C46.5018 43.92 46.7839 43.818 47.0659 43.836C47.0839 43.836 47.1139 43.842 47.1319 43.842C47.1499 43.788 47.1859 43.602 47.1499 43.044L47.1439 42.972C47.1259 42.666 47.0119 42.588 46.9099 42.552C46.8559 42.534 46.7899 42.528 46.7238 42.522C46.5678 42.504 46.3758 42.486 46.2378 42.33C46.1658 42.24 46.1358 42.144 46.1058 42.054L46.0878 41.994C46.0818 41.976 46.0698 41.952 46.0578 41.928C46.0278 41.862 45.9918 41.778 45.9798 41.676C45.9618 41.454 46.1298 41.286 46.2618 41.148C46.3518 41.058 46.3998 40.998 46.4058 40.974C46.2798 40.578 45.8658 40.134 45.4878 40.008C45.4458 40.014 45.3858 40.074 45.3018 40.164ZM45.0318 44.184C44.9838 44.304 44.9298 44.406 44.8638 44.502C44.7978 44.604 44.7198 44.694 44.6298 44.772C44.2638 45.09 43.7957 45.264 43.3037 45.264C43.1957 45.264 43.0877 45.258 42.9797 45.24C42.8357 45.216 42.6977 45.18 42.5597 45.132C41.8817 44.916 41.3177 44.304 41.1737 43.62C41.1437 43.494 41.1196 43.356 41.1136 43.218C41.1076 42.642 41.3537 42.102 41.7977 41.7C42.2777 41.268 42.9377 41.058 43.5497 41.136C43.7057 41.154 43.8497 41.196 43.9878 41.25C44.1318 41.31 44.2698 41.388 44.3958 41.478C45.3138 42.204 45.3078 43.392 45.0318 44.184Z" fill="#A1A1E6"/>
<path d="M39.3733 41.742C39.4573 41.742 39.5113 41.706 39.5173 41.688C39.5233 41.658 39.4633 41.574 39.4213 41.52C39.3913 41.484 39.3673 41.448 39.3433 41.412C39.2893 41.52 39.2473 41.628 39.2053 41.742C39.2233 41.742 39.2413 41.742 39.2533 41.742C39.2953 41.742 39.3373 41.742 39.3733 41.742Z" fill="#F7C300"/>
<path d="M1.50017 9.276C1.55417 9.21 1.58417 9.114 1.57817 9.066C1.56017 9.048 1.47017 9.04201 1.44017 9.04201C1.38016 9.04201 1.30216 9.042 1.21216 9.036C1.25416 9.168 1.29616 9.306 1.34416 9.438C1.35616 9.426 1.36816 9.408 1.38616 9.396C1.42817 9.354 1.46417 9.318 1.50017 9.276Z" fill="#F7C300"/>
<path d="M12.8944 8.94C12.7264 9.018 12.5584 9.03 12.4084 9.042C12.3544 9.048 12.3064 9.048 12.2524 9.054C12.1204 9.072 12.0304 9.126 12.0184 9.168C12.0004 9.228 12.0844 9.312 12.2164 9.444C12.3244 9.552 12.4564 9.678 12.5344 9.84C12.6484 10.08 12.7384 10.578 12.0544 11.232C11.5384 11.724 10.9804 12.168 10.3863 12.564C10.2723 12.642 10.1523 12.708 10.0023 12.732C9.69631 12.78 9.4443 12.564 9.2643 12.414C9.14429 12.312 9.01829 12.204 8.95229 12.234C8.89829 12.258 8.85628 12.378 8.85628 12.528V12.636C8.85628 12.84 8.86228 13.068 8.73028 13.278C8.61628 13.47 8.42427 13.59 8.16626 13.644C10.8724 13.152 12.8164 11.514 13.1704 8.724C13.0924 8.82 13.0024 8.892 12.8944 8.94Z" fill="#A1A1E6"/>
<path d="M1.54824 4.764C1.56025 4.722 1.47024 4.608 1.41024 4.524C1.39224 4.5 1.37424 4.47 1.35624 4.446C1.29624 4.572 1.24223 4.704 1.18823 4.836C1.24823 4.842 1.29624 4.84201 1.35024 4.84201C1.46424 4.83601 1.54224 4.788 1.54824 4.764Z" fill="#F7C300"/>
<path d="M7.64422 13.68L5.91016 13.596C6.58818 13.758 7.30821 13.794 8.05823 13.668C8.07023 13.668 8.07623 13.662 8.08823 13.662C8.00423 13.674 7.91423 13.686 7.81222 13.686C7.75222 13.68 7.69222 13.68 7.64422 13.68Z" fill="#F7C300"/>
<path d="M4.72823 12.588C4.72823 12.54 4.72223 12.492 4.72223 12.444C4.71023 12.306 4.64423 12.222 4.62623 12.216C4.59023 12.222 4.51222 12.3 4.45222 12.36C4.41622 12.402 4.37422 12.438 4.33822 12.474C4.23021 12.57 4.09821 12.642 3.96021 12.684C4.26622 12.9 4.59023 13.092 4.92624 13.248C4.90824 13.224 4.89024 13.206 4.87224 13.182C4.74023 12.984 4.73423 12.774 4.72823 12.588Z" fill="#A1A1E6"/>
<path d="M11.2925 3.732C11.1185 3.174 10.5244 2.544 9.99043 2.364C9.93043 2.394 9.84643 2.478 9.72642 2.61C9.63042 2.718 9.52841 2.826 9.42041 2.886C9.25241 2.982 9.0784 3.012 8.89839 2.982C8.18437 2.94 7.98636 2.388 7.83036 1.944C7.74635 1.716 7.68035 1.518 7.54235 1.362C7.39834 1.218 6.84032 1.272 6.39631 1.314C6.2283 1.326 6.09029 1.344 5.95829 1.35C5.92829 1.704 5.80229 2.19 5.78428 2.244C5.57428 2.688 5.13626 2.976 4.69225 2.982C4.35023 2.976 4.12823 2.778 3.96622 2.634C3.82822 2.514 3.73821 2.436 3.63621 2.43C3.61821 2.43 3.54621 2.46 3.52821 2.472C3.4142 2.55 2.64017 3.312 2.37617 3.636C2.74218 4.038 2.91018 4.434 2.89818 4.824C2.89218 4.962 2.86818 5.1 2.80818 5.25C2.68218 5.844 2.11816 5.868 1.78214 5.88C1.53614 5.892 1.38013 5.904 1.32013 5.994C1.08012 6.378 1.02012 7.014 1.17612 7.506C1.21812 7.644 1.29613 7.752 1.38013 7.806C1.47613 7.866 1.61414 7.878 1.74614 7.896C1.81815 7.908 1.86615 7.914 1.91415 7.92C2.22616 7.974 2.45417 8.094 2.59817 8.292C2.68218 8.412 2.73018 8.538 2.76618 8.646L2.79618 8.73C2.91018 9.048 3.01219 9.354 2.68218 9.744C2.63417 9.798 2.57417 9.852 2.51417 9.912C2.39417 10.02 2.32216 10.092 2.32816 10.158C2.32816 10.218 2.37617 10.296 2.41817 10.368C2.70018 10.818 3.09619 11.19 3.56421 11.442C3.57621 11.448 3.61221 11.472 3.62421 11.472C3.67821 11.466 3.78621 11.346 3.87022 11.25C4.00222 11.1 4.14623 10.932 4.35623 10.878C4.56624 10.818 4.79425 10.848 5.04026 10.956C5.59828 11.196 5.94629 11.73 5.97029 12.348C6.49231 12.402 7.02033 12.438 7.54835 12.444C7.68035 12.444 7.71035 12.432 7.72235 12.426C7.72235 12.426 7.73435 12.408 7.74035 12.342C7.74635 12.276 7.74035 12.21 7.74035 12.144C7.74035 12.048 7.73435 11.964 7.74035 11.88C7.78835 11.316 8.26237 11.13 8.44238 11.064L8.55038 11.022C8.68839 10.962 8.85039 10.896 9.0364 10.89C9.2224 10.89 9.69642 11.142 9.97843 11.358C10.1584 11.16 10.3804 11.004 10.5785 10.866C10.7285 10.758 10.8725 10.656 10.9985 10.542C11.1065 10.44 11.1725 10.356 11.1965 10.278C11.2265 10.176 11.1365 10.068 10.9925 9.894C10.8485 9.726 10.6805 9.534 10.6505 9.276C10.5905 8.844 10.9265 8.4 11.1305 8.208C11.4305 7.926 11.8265 7.782 12.2285 7.812C12.2525 7.812 12.2945 7.818 12.3185 7.818C12.3425 7.74 12.3905 7.476 12.3425 6.69L12.3365 6.582C12.3125 6.144 12.1445 6.036 12.0065 5.988C11.9285 5.964 11.8385 5.958 11.7425 5.946C11.5205 5.922 11.2505 5.898 11.0525 5.67C10.9445 5.544 10.9025 5.412 10.8605 5.28L10.8305 5.196C10.8185 5.166 10.8065 5.136 10.7885 5.106C10.7465 5.01 10.6925 4.89 10.6805 4.752C10.6565 4.434 10.8905 4.2 11.0765 4.008C11.2085 3.846 11.2805 3.768 11.2925 3.732ZM9.37241 8.526C9.34841 8.724 9.31241 8.922 9.25241 9.108C9.1924 9.288 9.1024 9.45 8.9944 9.6C8.55038 10.02 7.90836 10.278 7.08033 10.35C6.1623 10.428 5.46027 10.314 4.92025 9.966C4.65624 9.684 4.41024 9.36 4.20023 8.988C3.97222 8.598 3.78021 8.208 3.67221 7.806C3.64821 7.686 3.62421 7.566 3.60021 7.44C3.55821 7.068 3.60621 6.69 3.79221 6.294C3.84022 6.192 3.90622 6.078 3.97822 5.97C4.14023 5.52 4.41024 5.112 4.78825 4.77C5.46627 4.164 6.39631 3.858 7.27234 3.972C7.48834 4.002 7.69835 4.056 7.89636 4.134C8.10036 4.218 8.29837 4.326 8.47238 4.458C9.75642 5.49001 9.74442 7.164 9.35441 8.286C9.34841 8.304 9.34241 8.316 9.33041 8.334C9.33641 8.406 9.35441 8.466 9.37241 8.526Z" fill="#A1A1E6"/>
<path d="M9.18628 1.512C9.13228 1.488 9.08428 1.47 9.03027 1.452C9.03627 1.5 9.04827 1.55401 9.05427 1.60801C9.09028 1.58401 9.13828 1.548 9.18628 1.512Z" fill="#F7C300"/>
<path d="M12.0125 4.728C12.0185 4.746 12.0905 4.8 12.1985 4.806C12.2525 4.812 12.3065 4.806 12.3785 4.806C12.4025 4.806 12.4205 4.806 12.4445 4.806C12.3845 4.692 12.3245 4.578 12.2645 4.464C12.2345 4.494 12.1985 4.53 12.1625 4.56C12.1085 4.608 12.0065 4.698 12.0125 4.728Z" fill="#F7C300"/>
<path d="M45.4816 17.76C45.8836 17.37 46.0936 16.794 45.8956 16.086C44.2876 10.302 40.0934 5.754 34.5672 3.486C33.7152 3.138 33.0552 3.48 32.7012 4.068C33.5592 4.374 34.3992 4.734 35.2153 5.148C40.2254 7.716 43.9756 12.372 45.4816 17.76Z" fill="#7469F6"/>
<path d="M32.4612 5.598C32.5872 6.168 32.9472 6.69 33.6072 6.96C37.9334 8.736 41.1795 12.57 42.4215 17.046C42.6675 17.934 43.3696 18.318 44.0836 18.318C43.8256 17.352 43.4956 16.41 43.0876 15.504C40.9935 10.896 37.1353 7.35 32.4612 5.598Z" fill="#7469F6"/>
<path d="M13.1825 8.67C13.1825 8.688 13.1765 8.706 13.1705 8.73C13.3445 8.532 13.4525 8.238 13.4945 7.854C13.5545 7.32 13.5485 6.78 13.5365 6.252C13.5305 5.976 13.5005 5.754 13.4465 5.556C13.3385 5.178 13.1345 4.938 12.8345 4.848C12.6965 4.806 12.5585 4.8 12.4385 4.806C13.0505 6 13.3385 7.35 13.1825 8.67Z" fill="black"/>
<path d="M12.4565 3.042C12.2825 2.634 11.9585 2.322 11.6405 2.046C11.3045 1.758 10.9505 1.482 10.5845 1.236C10.4645 1.152 10.3385 1.074 10.1765 1.044C9.81644 0.984004 9.54043 1.218 9.31242 1.41C9.26442 1.452 9.22242 1.488 9.18042 1.518C9.48043 1.656 9.77444 1.824 10.0745 2.034C10.9625 2.664 11.7125 3.51 12.2585 4.464C12.2645 4.458 12.2765 4.452 12.2825 4.44C12.6485 4.05 12.6305 3.456 12.4565 3.042Z" fill="black"/>
<path d="M1.18812 4.836C1.18212 4.836 1.17612 4.836 1.17012 4.836C1.03812 4.83 0.888114 4.824 0.732109 4.866C0.438098 4.95 0.19809 5.208 0.084086 5.55C-0.00591717 5.826 8.3048e-05 6.10801 8.3048e-05 6.36001L0.0120835 7.752C0.0120835 7.998 0.0180837 8.334 0.21009 8.604C0.456099 8.946 0.888114 9.02401 1.20012 9.04201C0.77411 7.63201 0.702108 6.126 1.18812 4.836Z" fill="black"/>
<path d="M2.8923 2.67C4.80636 1.356 6.95444 0.587999 9.03051 1.452C8.98851 1.158 8.89851 0.912001 8.7605 0.714001C8.45449 0.270001 7.87847 0.012 7.18245 0C6.78043 0 6.37842 0.0360029 6.00041 0.0780029L5.9344 0.0839996C5.7784 0.102 5.62839 0.114004 5.47239 0.126004C4.83637 0.174004 4.77036 0.84 4.72236 1.284C4.71036 1.41 4.69836 1.53 4.67436 1.614C4.66836 1.638 4.65636 1.656 4.64436 1.656C4.54836 1.632 4.45835 1.542 4.35635 1.434C4.24235 1.32 4.11634 1.188 3.93633 1.11C3.63632 0.978004 3.26431 1.038 2.9223 1.266C2.55029 1.512 2.27428 1.812 2.05827 2.076C1.98027 2.166 1.89626 2.25 1.81226 2.34C1.62625 2.532 1.42825 2.736 1.29024 2.994C1.09824 3.36 0.990231 3.912 1.28424 4.362C1.30224 4.392 1.32624 4.422 1.35024 4.452C1.68026 3.768 2.18427 3.156 2.8923 2.67Z" fill="black"/>
<path d="M1.39816 9.606C1.38015 9.552 1.36215 9.498 1.33815 9.438C1.21815 9.564 1.09815 9.696 1.03214 9.876C0.900138 10.272 1.11015 10.65 1.31415 10.932C1.53016 11.238 1.77017 11.544 2.01618 11.826C2.28619 12.138 2.5862 12.444 2.98221 12.618C3.30622 12.762 3.65423 12.774 3.94824 12.678C3.72024 12.516 3.50423 12.342 3.29422 12.15C2.49019 11.598 1.84217 10.764 1.39816 9.606Z" fill="black"/>
<path d="M5.81434 13.59L5.91034 13.596C5.56833 13.512 5.23232 13.398 4.91431 13.248C5.16632 13.554 5.61633 13.578 5.81434 13.59Z" fill="black"/>
<path d="M8.16652 13.644C8.13652 13.65 8.11252 13.656 8.08252 13.662C8.11852 13.656 8.14252 13.65 8.16652 13.644Z" fill="black"/>
<path d="M10.0745 2.028C9.78047 1.818 9.48046 1.65 9.18045 1.512C9.13245 1.548 9.09045 1.584 9.04845 1.602C9.04245 1.548 9.03645 1.5 9.02445 1.446C6.94838 0.582001 4.8003 1.35 2.88623 2.664C2.17821 3.15 1.67419 3.762 1.34418 4.44C1.36218 4.464 1.38018 4.494 1.39818 4.518C1.46418 4.602 1.54819 4.716 1.53619 4.758C1.53019 4.782 1.45218 4.83 1.33818 4.836C1.29018 4.836 1.23618 4.836 1.17617 4.83C0.690157 6.12 0.762159 7.626 1.19417 9.036C1.27818 9.042 1.35618 9.042 1.42218 9.042C1.45818 9.042 1.54219 9.042 1.56019 9.066C1.56619 9.114 1.53619 9.21 1.48218 9.276C1.44618 9.318 1.41018 9.354 1.36818 9.402C1.35618 9.414 1.34418 9.432 1.32618 9.444C1.34418 9.498 1.36218 9.552 1.38618 9.612C1.8242 10.764 2.47822 11.598 3.28225 12.162C3.49225 12.354 3.70826 12.528 3.93627 12.69C4.07428 12.642 4.20628 12.576 4.31428 12.48C4.35629 12.444 4.39229 12.408 4.42829 12.366C4.48829 12.3 4.56629 12.228 4.60229 12.222C4.62629 12.228 4.6863 12.312 4.6983 12.45C4.7043 12.498 4.7043 12.546 4.7043 12.594C4.7103 12.78 4.7163 12.996 4.8423 13.188C4.8603 13.212 4.8783 13.23 4.8963 13.254C5.21431 13.398 5.55033 13.518 5.89234 13.602L7.6264 13.686C7.6744 13.686 7.7344 13.692 7.7944 13.692C7.89641 13.692 7.98641 13.68 8.07041 13.668C8.10042 13.662 8.12442 13.656 8.15442 13.65C8.41243 13.596 8.59843 13.476 8.71844 13.284C8.84444 13.074 8.84444 12.846 8.84444 12.642V12.534C8.84444 12.384 8.88644 12.258 8.94044 12.24C9.00045 12.21 9.12645 12.318 9.25246 12.42C9.43246 12.57 9.68447 12.786 9.99048 12.738C10.1405 12.72 10.2605 12.648 10.3745 12.57C10.9685 12.18 11.5265 11.73 12.0426 11.238C12.7326 10.584 12.6426 10.086 12.5226 9.846C12.4446 9.684 12.3126 9.552 12.2046 9.45C12.0726 9.324 11.9886 9.234 12.0066 9.174C12.0186 9.132 12.1086 9.078 12.2406 9.06C12.2946 9.054 12.3426 9.048 12.3966 9.048C12.5466 9.036 12.7206 9.024 12.8826 8.946C12.9906 8.898 13.0806 8.82 13.1586 8.73C13.1586 8.712 13.1646 8.694 13.1706 8.67C13.3266 7.356 13.0326 6.006 12.4266 4.806C12.4026 4.806 12.3786 4.806 12.3606 4.806C12.2886 4.806 12.2346 4.812 12.1806 4.806C12.0726 4.8 12.0006 4.746 11.9946 4.728C11.9946 4.692 12.0906 4.608 12.1446 4.554C12.1806 4.524 12.2106 4.488 12.2466 4.458C11.7125 3.504 10.9625 2.658 10.0745 2.028ZM10.7885 5.082C10.8065 5.118 10.8185 5.142 10.8305 5.172L10.8605 5.256C10.9025 5.388 10.9445 5.526 11.0525 5.646C11.2445 5.868 11.5205 5.898 11.7425 5.922C11.8445 5.934 11.9285 5.94 12.0066 5.964C12.1506 6.012 12.3186 6.12 12.3366 6.558L12.3426 6.666C12.3906 7.452 12.3426 7.716 12.3186 7.794C12.2946 7.794 12.2526 7.788 12.2286 7.788C11.8265 7.758 11.4305 7.902 11.1305 8.184C10.9265 8.376 10.5905 8.82 10.6505 9.252C10.6865 9.51 10.8485 9.702 10.9925 9.87C11.1365 10.038 11.2265 10.146 11.1965 10.254C11.1725 10.332 11.1065 10.422 10.9985 10.518C10.8665 10.632 10.7285 10.734 10.5785 10.842C10.3805 10.98 10.1585 11.142 9.97848 11.334C9.69647 11.118 9.22246 10.866 9.03645 10.866C8.85044 10.872 8.68844 10.938 8.55043 10.998L8.44243 11.04C8.26242 11.112 7.7824 11.292 7.7404 11.856C7.7344 11.94 7.7344 12.024 7.7404 12.12C7.7404 12.186 7.7464 12.252 7.7404 12.318C7.7344 12.384 7.7224 12.402 7.7224 12.402C7.7164 12.408 7.6804 12.42 7.5484 12.42C7.02638 12.414 6.49236 12.384 5.97034 12.324C5.95234 11.706 5.59833 11.178 5.04031 10.932C4.7943 10.824 4.56629 10.8 4.35629 10.854C4.14628 10.914 4.00227 11.082 3.87027 11.226C3.78626 11.322 3.67826 11.448 3.62426 11.448C3.61226 11.442 3.57626 11.424 3.56426 11.418C3.09624 11.166 2.70023 10.794 2.41822 10.344C2.37622 10.272 2.32821 10.194 2.32821 10.134C2.32821 10.068 2.39422 9.996 2.51422 9.888C2.57422 9.834 2.63422 9.78 2.68223 9.72C3.01824 9.33 2.91023 9.024 2.79623 8.706L2.76623 8.622C2.73023 8.508 2.68823 8.382 2.59822 8.268C2.45422 8.076 2.22621 7.95 1.9142 7.896C1.8662 7.89 1.8182 7.884 1.74619 7.872C1.61419 7.854 1.47618 7.842 1.38018 7.782C1.29018 7.728 1.21818 7.62 1.17617 7.482C1.02017 6.984 1.08017 6.348 1.32018 5.97C1.38018 5.88 1.53019 5.868 1.7822 5.856C2.11821 5.844 2.68223 5.82 2.80823 5.226C2.86223 5.076 2.89223 4.938 2.89823 4.8C2.91023 4.404 2.74223 4.014 2.37622 3.612C2.64023 3.282 3.40825 2.52 3.52826 2.448C3.54626 2.436 3.61826 2.406 3.63626 2.406C3.73826 2.412 3.82827 2.49 3.96627 2.61C4.12828 2.754 4.35629 2.952 4.6923 2.958C5.14231 2.952 5.58033 2.664 5.78433 2.22C5.80234 2.16 5.92834 1.68 5.95834 1.326C6.09035 1.32 6.22835 1.308 6.39636 1.29C6.84037 1.248 7.39839 1.194 7.5424 1.338C7.6804 1.494 7.7464 1.692 7.83041 1.92C7.98641 2.364 8.18442 2.916 8.89844 2.958C9.07845 2.988 9.25246 2.958 9.42046 2.862C9.52847 2.802 9.63047 2.688 9.72647 2.586C9.84648 2.454 9.93048 2.37 9.99048 2.34C10.5245 2.52 11.1125 3.15 11.2925 3.708C11.2805 3.738 11.2145 3.822 11.0825 3.954C10.8965 4.146 10.6625 4.38 10.6865 4.698C10.6925 4.866 10.7465 4.986 10.7885 5.082Z" fill="black"/>
<path d="M9.38436 7.638C9.37236 7.398 9.34836 7.164 9.33636 6.936C9.31835 6.708 9.35436 6.516 9.42036 6.348C8.87434 5.244 7.02027 4.344 6.14424 4.41C5.35822 4.47 4.45218 5.244 3.97817 5.97C3.87016 6.27 3.81616 6.588 3.81616 6.918C3.82816 7.116 3.85216 7.314 3.90016 7.488C4.11017 8.454 4.9022 9.318 5.86223 9.624C6.05424 9.696 6.25225 9.744 6.45625 9.774C6.60626 9.798 6.76227 9.81 6.91227 9.81C7.60229 9.81 8.26832 9.57 8.78434 9.12C8.91034 9.006 9.01834 8.874 9.11435 8.736C9.19835 8.61 9.26435 8.478 9.33035 8.334C9.28235 8.118 9.29435 7.884 9.38436 7.638ZM8.22032 7.398C8.19031 7.722 7.95631 8.07 7.61429 8.286C7.50029 8.358 7.38029 8.412 7.26028 8.448C7.12228 8.49 6.97827 8.514 6.83427 8.514C6.09624 8.514 5.45422 7.962 5.14821 7.422C4.8722 6.906 4.9862 6.276 5.43622 5.814C5.81423 5.46 6.31825 5.244 6.78027 5.244C7.17028 5.244 7.51229 5.394 7.7643 5.664C8.06431 6.024 8.22632 6.432 8.25032 6.912C8.26232 7.062 8.25032 7.218 8.22032 7.398Z" fill="black"/>
<path d="M8.46632 4.464C8.28632 4.332 8.09431 4.22399 7.8903 4.13999C7.6983 4.06199 7.48829 4.008 7.26628 3.978C6.39625 3.864 5.46022 4.17 4.7822 4.776C4.40418 5.118 4.13417 5.526 3.97217 5.976C4.45218 5.25 5.35822 4.476 6.13824 4.416C7.01427 4.35 8.87434 5.24399 9.41436 6.35399C9.34836 6.52199 9.31235 6.714 9.33036 6.942C9.34836 7.17 9.36636 7.404 9.37836 7.644C9.28835 7.89 9.27635 8.124 9.31835 8.346C9.32435 8.328 9.33035 8.316 9.34236 8.298C9.74437 7.17 9.75037 5.496 8.46632 4.464Z" fill="black"/>
<path d="M39.1935 41.736C39.1095 41.736 39.0255 41.73 38.9355 41.76C38.7254 41.82 38.5574 42 38.4794 42.246C38.4194 42.438 38.4194 42.642 38.4194 42.816L38.4314 43.8C38.4314 43.974 38.4374 44.214 38.5754 44.406C38.7134 44.598 38.9355 44.67 39.1335 44.7C39.1215 44.67 39.1095 44.646 39.0975 44.616C38.7914 43.638 38.8574 42.63 39.1935 41.736Z" fill="black"/>
<path d="M41.7434 47.052C41.7494 47.07 41.7554 47.094 41.7554 47.118C41.7614 47.154 41.7614 47.184 41.7614 47.22C41.7674 47.352 41.7734 47.502 41.8574 47.64C42.0254 47.904 42.3794 47.922 42.5294 47.928L43.8255 47.994C43.8615 47.994 43.8975 48 43.9455 48C44.2695 48 44.4795 47.904 44.5935 47.712C44.6835 47.562 44.6835 47.4 44.6835 47.256V47.178C44.6835 47.13 44.6895 47.082 44.7015 47.046C43.7955 47.37 42.7214 47.358 41.7434 47.052Z" fill="black"/>
<path d="M45.0017 46.926C44.9477 46.95 44.8877 46.968 44.8337 46.992C44.8757 47.016 44.9237 47.058 44.9717 47.094C45.0977 47.202 45.2778 47.352 45.4938 47.322C45.6018 47.31 45.6858 47.262 45.7638 47.202C46.1838 46.926 46.5798 46.608 46.9458 46.26C47.4318 45.798 47.3658 45.444 47.2878 45.276C47.2338 45.162 47.1378 45.072 47.0658 44.994C47.0118 44.94 46.9698 44.898 46.9458 44.862C46.6218 45.726 45.9738 46.476 45.0017 46.926Z" fill="black"/>
<path d="M47.1017 44.304C47.0717 44.454 47.0297 44.604 46.9817 44.748C47.0117 44.736 47.0417 44.724 47.0837 44.718C47.1197 44.712 47.1557 44.712 47.1917 44.706C47.2997 44.7 47.4197 44.688 47.5397 44.634C47.7797 44.52 47.9237 44.262 47.9657 43.86C48.0077 43.482 48.0017 43.098 47.9957 42.726C47.9897 42.534 47.9717 42.372 47.9297 42.234C47.8517 41.97 47.7077 41.796 47.4977 41.73C47.3777 41.694 47.2637 41.7 47.1677 41.7C47.1197 41.7 47.0777 41.706 47.0417 41.7C47.0237 41.7 47.0117 41.694 46.9937 41.694C47.2097 42.072 47.3957 42.474 47.5637 42.876C47.8337 43.542 47.5637 44.046 47.1017 44.304Z" fill="black"/>
<path d="M41.4794 39.312C41.4014 39.234 41.3174 39.156 41.2034 39.102C40.9934 39.006 40.7294 39.048 40.4834 39.21C40.2194 39.384 40.0274 39.594 39.8714 39.78C39.8174 39.846 39.7574 39.906 39.6974 39.966C39.5654 40.104 39.4274 40.242 39.3314 40.428C39.1934 40.686 39.1214 41.076 39.3254 41.4L39.3314 41.406C39.7754 40.488 40.5194 39.726 41.4794 39.312Z" fill="black"/>
<path d="M44.8096 39.384C44.7796 39.162 44.7196 38.976 44.6116 38.826C44.3956 38.514 43.9876 38.328 43.4955 38.322C43.2135 38.322 42.9255 38.346 42.6615 38.376L42.6135 38.382C42.5055 38.394 42.3975 38.406 42.2895 38.412C41.8575 38.448 41.7975 38.886 41.7615 39.198C41.8995 39.15 42.0435 39.108 42.1935 39.072C43.2015 38.832 44.0716 38.988 44.8096 39.384Z" fill="black"/>
<path d="M39.2895 45.09C39.2355 45.156 39.1875 45.222 39.1575 45.312C39.0615 45.594 39.2115 45.858 39.3555 46.056C39.5115 46.272 39.6735 46.488 39.8535 46.692C40.0456 46.908 40.2556 47.13 40.5376 47.25C40.8736 47.4 41.2516 47.358 41.4856 47.142C41.5156 47.118 41.5396 47.088 41.5696 47.064C41.5876 47.046 41.6056 47.028 41.6176 47.016C40.6156 46.668 39.7455 46.008 39.2895 45.09Z" fill="black"/>
<path d="M46.6515 39.762C46.4175 39.558 46.1655 39.366 45.9075 39.186C45.8235 39.126 45.7335 39.072 45.6195 39.054C45.3675 39.012 45.1695 39.174 45.0075 39.312C44.9595 39.354 44.9175 39.384 44.8755 39.414C45.7275 39.888 46.4115 40.692 46.9456 41.616C46.9696 41.592 46.9996 41.562 47.0176 41.544C47.0476 41.514 47.0776 41.49 47.1016 41.46C47.3596 41.184 47.3476 40.764 47.2216 40.47C47.1016 40.182 46.8796 39.96 46.6515 39.762Z" fill="black"/>
<path d="M44.8758 39.42C44.8578 39.432 44.8398 39.45 44.8218 39.456C44.8218 39.432 44.8158 39.408 44.8098 39.384C44.0658 38.988 43.2017 38.838 42.1937 39.066C42.0437 39.102 41.9057 39.144 41.7617 39.192C41.7617 39.204 41.7617 39.216 41.7557 39.222C41.7437 39.312 41.7377 39.396 41.7197 39.456C41.7137 39.474 41.7077 39.486 41.6957 39.486C41.6297 39.468 41.5637 39.408 41.4917 39.33C41.4857 39.324 41.4737 39.318 41.4677 39.306C40.5076 39.726 39.7636 40.482 39.3256 41.406C39.3496 41.442 39.3796 41.478 39.4036 41.514C39.4516 41.574 39.5116 41.652 39.4996 41.682C39.4936 41.7 39.4396 41.736 39.3556 41.736C39.3136 41.736 39.2776 41.736 39.2296 41.73C39.2116 41.73 39.1936 41.73 39.1816 41.73C38.8456 42.618 38.7796 43.626 39.0796 44.604C39.0916 44.634 39.1036 44.658 39.1156 44.688C39.2356 44.706 39.3436 44.706 39.4216 44.706C39.4456 44.706 39.5056 44.706 39.5176 44.724C39.5236 44.76 39.4996 44.826 39.4636 44.874C39.4396 44.904 39.4156 44.928 39.3796 44.964C39.3436 45 39.3016 45.042 39.2716 45.084C39.7276 46.008 40.6036 46.662 41.5997 47.01C41.6297 46.98 41.6597 46.962 41.6717 46.956C41.6837 46.956 41.7137 46.992 41.7317 47.052C42.7037 47.358 43.7777 47.37 44.6898 47.046C44.7018 47.004 44.7198 46.98 44.7378 46.968C44.7558 46.962 44.7858 46.974 44.8218 46.992C44.8758 46.968 44.9358 46.95 44.9898 46.926C45.9618 46.476 46.6158 45.72 46.9279 44.862C46.9099 44.838 46.9039 44.82 46.9099 44.802C46.9159 44.784 46.9399 44.766 46.9759 44.748C47.0239 44.604 47.0659 44.454 47.0959 44.304C47.5579 44.046 47.8279 43.542 47.5579 42.888C47.3959 42.486 47.2039 42.09 46.9879 41.706C46.9399 41.694 46.9099 41.67 46.9039 41.658C46.9039 41.646 46.9159 41.628 46.9339 41.61C46.4118 40.698 45.7278 39.894 44.8758 39.42ZM46.4058 40.962C46.3998 40.986 46.3518 41.046 46.2618 41.136C46.1298 41.268 45.9618 41.442 45.9798 41.664C45.9858 41.766 46.0278 41.85 46.0578 41.916C46.0698 41.94 46.0758 41.958 46.0878 41.982L46.1058 42.042C46.1358 42.138 46.1658 42.234 46.2378 42.318C46.3758 42.474 46.5678 42.498 46.7238 42.51C46.7959 42.516 46.8559 42.522 46.9099 42.54C47.0119 42.57 47.1319 42.648 47.1439 42.96L47.1499 43.032C47.1859 43.59 47.1499 43.776 47.1319 43.83C47.1139 43.83 47.0839 43.83 47.0659 43.824C46.7839 43.806 46.5018 43.908 46.2918 44.106C46.1478 44.244 45.9078 44.556 45.9498 44.862C45.9738 45.048 46.0878 45.18 46.1898 45.3C46.2918 45.42 46.3578 45.498 46.3338 45.57C46.3158 45.624 46.2738 45.69 46.1958 45.756C46.1058 45.84 46.0038 45.912 45.8958 45.984C45.7578 46.08 45.6018 46.194 45.4698 46.332C45.2718 46.182 44.9358 46.002 44.8038 46.002C44.6718 46.008 44.5578 46.056 44.4558 46.098L44.3838 46.128C44.2578 46.176 43.9217 46.308 43.8857 46.704C43.8797 46.764 43.8797 46.824 43.8857 46.89C43.8857 46.938 43.8857 46.98 43.8857 47.028C43.8797 47.076 43.8737 47.088 43.8737 47.088C43.8677 47.094 43.8437 47.1 43.7537 47.1C43.3817 47.094 43.0097 47.07 42.6377 47.034C42.6257 46.596 42.3737 46.224 41.9837 46.05C41.8097 45.972 41.6477 45.954 41.5037 45.996C41.3537 46.038 41.2517 46.158 41.1617 46.26C41.1016 46.332 41.0236 46.416 40.9876 46.416C40.9756 46.416 40.9516 46.398 40.9456 46.392C40.6156 46.212 40.3336 45.954 40.1356 45.636C40.1056 45.588 40.0696 45.528 40.0696 45.486C40.0696 45.438 40.1176 45.39 40.2016 45.312C40.2436 45.276 40.2856 45.234 40.3156 45.198C40.5496 44.922 40.4776 44.706 40.3996 44.478L40.3816 44.418C40.3576 44.34 40.3276 44.25 40.2616 44.166C40.1596 44.028 39.9976 43.938 39.7756 43.902C39.7396 43.896 39.7096 43.89 39.6556 43.884C39.5596 43.872 39.4636 43.86 39.3976 43.824C39.3376 43.788 39.2836 43.71 39.2536 43.614C39.1456 43.26 39.1876 42.81 39.3556 42.546C39.3976 42.48 39.5056 42.474 39.6796 42.462C39.9196 42.45 40.3156 42.438 40.4056 42.018C40.4476 41.91 40.4656 41.814 40.4656 41.718C40.4776 41.436 40.3516 41.16 40.0936 40.878C40.2796 40.644 40.8256 40.104 40.9096 40.05C40.9216 40.044 40.9756 40.02 40.9876 40.02C41.0596 40.026 41.1256 40.08 41.2217 40.164C41.3357 40.266 41.4977 40.41 41.7377 40.41C42.0557 40.404 42.3617 40.206 42.5117 39.888C42.5237 39.846 42.6137 39.504 42.6377 39.252C42.7337 39.246 42.8297 39.24 42.9497 39.228C43.2677 39.198 43.6577 39.162 43.7597 39.264C43.8557 39.372 43.9037 39.516 43.9637 39.678C44.0778 39.99 44.2098 40.38 44.7198 40.416C44.8458 40.44 44.9658 40.416 45.0858 40.35C45.1638 40.308 45.2358 40.23 45.3018 40.152C45.3858 40.056 45.4458 40.002 45.4878 39.978C45.8658 40.122 46.2798 40.566 46.4058 40.962Z" fill="black"/>
<path d="M44.1796 42.804C44.2216 42.93 44.2516 43.062 44.2576 43.206C44.2636 43.32 44.2516 43.428 44.2336 43.554C44.2156 43.782 44.0476 44.028 43.8016 44.184C43.7236 44.232 43.6396 44.274 43.5496 44.298C43.4536 44.328 43.3516 44.34 43.2496 44.34C42.7276 44.34 42.2715 43.95 42.0555 43.566C41.8575 43.2 41.9415 42.756 42.2595 42.432C42.5295 42.18 42.8836 42.03 43.2136 42.03C43.4896 42.03 43.7356 42.132 43.9096 42.33C43.9876 42.426 44.0536 42.528 44.1016 42.636C44.0536 42.468 44.0356 42.294 44.0476 42.126C43.7716 41.838 43.4476 41.64 43.0816 41.634C42.1875 41.616 41.7435 42.294 41.6595 43.092C41.5575 44.088 42.3735 44.688 43.3396 44.622C43.9936 44.574 44.9416 43.842 44.3596 43.134C44.2936 43.02 44.2336 42.912 44.1796 42.804Z" fill="black"/>
<path d="M44.4077 41.478C44.2817 41.382 44.1437 41.304 43.9997 41.25C43.8617 41.196 43.7117 41.154 43.5617 41.136C42.9437 41.058 42.2836 41.268 41.8096 41.7C41.3656 42.102 41.1196 42.642 41.1256 43.218C41.1316 43.356 41.1496 43.494 41.1856 43.62C41.3356 44.304 41.8936 44.916 42.5716 45.132C42.7096 45.18 42.8477 45.216 42.9917 45.24C43.0997 45.258 43.2077 45.264 43.3157 45.264C43.8077 45.264 44.2757 45.096 44.6417 44.772C44.7317 44.688 44.8097 44.598 44.8757 44.502C44.9417 44.406 44.9957 44.304 45.0437 44.184C45.3077 43.392 45.3137 42.204 44.4077 41.478ZM43.3517 44.616C42.3856 44.682 41.5636 44.082 41.6716 43.086C41.7556 42.294 42.1996 41.616 43.0937 41.628C43.4597 41.634 43.7837 41.838 44.0597 42.12C44.0477 42.288 44.0597 42.456 44.1137 42.63C44.1437 42.684 44.1677 42.744 44.1857 42.804C44.2337 42.912 44.2937 43.02 44.3777 43.122C44.9537 43.836 44.0117 44.568 43.3517 44.616Z" fill="black"/>
<path d="M23.4369 8.592L23.2029 8.616C22.8129 8.658 22.4229 8.694 22.0389 8.724C21.3608 8.778 21.1028 9.288 20.9348 10.914L20.9288 10.962C20.8928 11.31 20.8568 11.64 20.7788 11.928C20.6048 12.552 20.1008 12.774 19.6748 12.72L19.5908 12.708C19.0748 12.594 18.7208 12.228 18.3727 11.88C18.1027 11.604 17.8567 11.352 17.5507 11.22C17.0647 11.004 16.4227 11.124 15.7866 11.55C14.9106 12.132 14.2506 12.858 13.7106 13.494C13.4826 13.764 13.2366 14.016 13.0206 14.232C12.5525 14.718 12.1085 15.168 11.8145 15.732C11.4305 16.464 11.2085 17.544 11.7545 18.384C11.8385 18.51 11.9285 18.63 12.0305 18.756C12.3545 19.17 12.7145 19.638 12.5585 20.208C12.4085 20.796 11.7425 21.084 11.1545 21.102C11.0045 21.108 10.8425 21.102 10.6565 21.09H10.6085C10.3205 21.078 10.0204 21.06 9.77444 21.138C9.29442 21.276 8.89841 21.72 8.7064 22.32C8.52039 22.896 8.52639 23.526 8.53239 24.138L8.5684 27.792C8.5744 28.344 8.5804 29.022 8.92241 29.496C9.46243 30.252 10.6985 30.258 11.3585 30.264C11.6165 30.264 12.1025 30.264 12.4325 30.642L12.6125 30.846L12.6545 31.116C12.7205 31.578 12.4985 32.094 12.2525 32.4C12.1445 32.538 12.0245 32.658 11.8985 32.784C11.5865 33.096 11.3225 33.36 11.2205 33.684C11.0525 34.194 11.2325 34.77 11.8265 35.616C12.3845 36.402 12.9845 37.17 13.6086 37.89C14.2386 38.616 14.9406 39.342 15.8106 39.72C16.7227 40.122 17.7367 40.026 18.3367 39.486C18.4267 39.408 18.5107 39.318 18.5887 39.234C18.9248 38.88 19.1888 38.664 19.5128 38.586L19.7168 38.538L19.9208 38.58C20.5328 38.712 20.8568 39.39 20.9168 40.002C20.9288 40.14 20.9348 40.278 20.9408 40.416C20.9588 40.866 20.9708 41.232 21.1628 41.532C21.5228 42.096 22.4889 42.138 22.9029 42.162L27.7451 42.396C27.8531 42.402 27.9671 42.408 28.0991 42.408C29.2151 42.408 29.5511 42.06 29.7131 41.796C29.9111 41.472 29.9051 41.052 29.9051 40.608V40.314C29.9111 39.468 30.2232 38.868 30.7512 38.664C31.4112 38.376 32.0052 38.88 32.4852 39.276L32.5272 39.312C32.8812 39.612 33.3133 39.978 33.6913 39.924C33.9013 39.9 34.0693 39.804 34.3273 39.63C35.8333 38.634 37.2614 37.488 38.5694 36.246C39.5895 35.274 39.9675 34.362 39.6375 33.672C39.5055 33.396 39.2355 33.132 38.9955 32.892C38.5454 32.448 38.0414 31.95 38.2214 31.26C38.3834 30.642 39.0495 30.342 39.6135 30.27C39.7755 30.252 39.9315 30.24 40.0815 30.228C40.4295 30.204 40.7535 30.186 41.0295 30.054C41.5935 29.79 41.9476 29.076 42.0736 27.936C42.2176 26.664 42.2056 25.356 42.1816 24.078C42.1756 24.03 42.1696 23.976 42.1636 23.928C42.1636 23.886 42.1696 23.844 42.1756 23.802C42.1636 23.196 42.0976 22.698 41.9776 22.284C41.6896 21.276 41.1615 21.108 40.9875 21.054C40.7115 20.964 40.3995 20.982 40.0995 20.994L39.9915 21C39.8115 21.006 39.6615 21.006 39.5175 21C38.9895 20.964 38.3714 20.682 38.2034 20.142L38.1674 20.022L38.1614 19.896C38.1494 19.386 38.5034 19.056 38.8455 18.738C38.9535 18.642 39.0435 18.558 39.1275 18.468C39.7935 17.748 39.7395 16.584 39.4095 15.804C39.0255 14.904 38.2694 14.178 37.5134 13.524C36.6614 12.786 35.7553 12.096 34.8373 11.46C34.6033 11.298 34.3693 11.154 34.1413 11.112C33.6613 11.028 33.2353 11.352 32.6412 11.862C32.3592 12.102 32.0832 12.33 31.8132 12.486L30.5472 13.218L30.4152 11.76C30.3432 10.968 30.1451 10.344 29.8091 9.858C29.1791 8.946 27.9491 8.412 26.425 8.388C25.351 8.406 24.2649 8.508 23.4369 8.592ZM28.0931 10.428C28.5671 10.968 28.7831 11.592 29.0171 12.246C29.4671 13.518 29.8031 14.292 30.9972 14.364L31.0932 14.376C31.3572 14.424 31.5912 14.376 31.8552 14.232C32.0052 14.148 32.2392 13.896 32.4252 13.686C32.8212 13.254 33.0853 12.996 33.3673 12.846L33.7273 12.654L34.1113 12.786C35.7673 13.35 37.5614 15.228 38.1134 16.98L38.1974 17.256L38.1134 17.532C38.0354 17.802 37.8614 18.03 37.3394 18.564C36.9614 18.948 36.5294 19.386 36.5594 19.8C36.5774 20.004 36.6674 20.214 36.7574 20.418C36.8054 20.526 36.8474 20.616 36.8774 20.706L36.9674 20.976C37.0634 21.288 37.1354 21.522 37.2854 21.696C37.5254 21.978 37.9094 22.032 38.4674 22.092L38.5334 22.098C38.7975 22.128 39.0735 22.152 39.3555 22.248C40.3035 22.554 40.8135 23.358 40.8795 24.648L40.8975 24.918C40.9995 26.538 40.9695 27.648 40.7955 28.206L40.5915 28.878L39.8835 28.866C39.8055 28.866 39.6855 28.854 39.6015 28.848C38.8095 28.794 38.0174 29.082 37.4234 29.64C36.9974 30.042 36.3554 30.93 36.4454 31.638C36.4994 32.046 36.8054 32.4 37.1234 32.772C37.5674 33.288 38.0714 33.87 37.8554 34.644C37.7414 35.034 37.4894 35.394 37.0634 35.784C36.6914 36.12 36.3074 36.396 35.8994 36.69C35.3953 37.044 34.8553 37.428 34.4413 37.878L33.8593 38.502L33.1813 37.986C32.5092 37.476 31.5672 37.002 31.2732 36.954C30.9732 36.972 30.6852 37.092 30.3792 37.224L30.0911 37.344C29.4551 37.59 28.8851 37.914 28.8191 38.7C28.8191 38.718 28.8191 38.736 28.8191 38.754C28.7771 38.952 28.7531 39.156 28.7351 39.372C28.7351 39.396 28.7291 39.438 28.7291 39.444C28.7231 39.474 28.7231 39.504 28.7171 39.528C28.6991 39.612 28.6871 39.696 28.6631 39.78C28.6211 39.948 28.5671 40.11 28.5071 40.272C28.5011 40.284 28.5011 40.29 28.5011 40.296C28.4831 40.332 28.4711 40.362 28.4531 40.398C28.4231 40.464 28.3871 40.53 28.3451 40.59C28.3391 40.596 28.3151 40.62 28.3031 40.632C28.2371 40.668 28.1771 40.716 28.1111 40.752C27.9731 40.83 27.8291 40.908 27.6791 40.974C27.6431 40.992 27.6071 41.01 27.5651 41.022C27.5591 41.022 27.5471 41.028 27.5351 41.034C27.4871 41.034 27.4391 41.04 27.3911 41.04C25.963 41.022 24.541 40.938 23.1549 40.788L22.3449 40.698L22.3209 39.882C22.2789 38.61 21.5769 37.554 20.4488 37.062C20.0048 36.87 19.6148 36.816 19.2788 36.906C19.0028 36.984 18.7268 37.296 18.4627 37.602C18.0727 38.046 17.7067 38.472 17.1667 38.508L16.9987 38.52L16.8307 38.466C16.7587 38.442 16.6687 38.412 16.4767 38.304C15.1266 37.578 13.9686 36.492 13.1406 35.172C12.9485 34.86 12.7685 34.53 12.7565 34.158C12.7325 33.528 13.1646 33.132 13.5546 32.784C13.6926 32.658 13.8126 32.544 13.9026 32.442C14.4306 31.818 14.3166 31.488 14.0406 30.69L13.9626 30.468C13.8786 30.21 13.7946 29.976 13.6506 29.778C13.4286 29.478 13.0266 29.274 12.4625 29.178C12.3545 29.16 12.2345 29.148 12.0545 29.124C11.6285 29.076 11.1485 29.016 10.7285 28.764C10.3085 28.512 9.96644 28.044 9.78644 27.462C9.29442 25.896 9.49243 23.94 10.2665 22.71C10.6925 22.032 11.5085 22.002 12.2285 21.972C13.3566 21.93 13.8906 21.786 14.0406 21.06L14.0766 20.934C14.1906 20.628 14.2446 20.376 14.2506 20.112C14.2746 19.326 13.9086 18.516 13.1166 17.646L12.5825 17.052L13.0806 16.428C13.7466 15.6 15.8647 13.464 16.3147 13.17L16.3747 13.134C16.5007 13.062 16.8307 12.906 17.1427 12.912C17.7787 12.948 18.1987 13.32 18.6007 13.686C18.9728 14.016 19.3568 14.358 19.9088 14.37C20.6888 14.364 21.4868 13.824 21.8829 13.026C21.9549 12.768 22.2189 11.694 22.2909 10.932L22.3629 10.128L23.1669 10.08C23.5029 10.062 23.8509 10.032 24.2709 9.99C26.137 9.81 27.4031 9.744 28.0451 10.392L28.0931 10.428Z" fill="black"/>
<path d="M26.5391 18.834C26.2571 18.798 25.9751 18.78 25.6871 18.78C23.923 18.78 22.1349 19.464 20.7729 20.694C19.3148 22.008 18.5228 23.754 18.5348 25.626C18.5528 26.046 18.6188 26.49 18.7268 26.904C19.2188 29.166 21.0369 31.14 23.257 31.854C23.737 32.028 24.199 32.148 24.661 32.214C25.6451 32.364 26.6231 32.298 27.5411 32.04C25.159 32.31 22.3629 31.392 21.1809 29.256C20.9529 28.848 20.7969 28.434 20.7009 28.02C20.5449 27.81 20.4129 27.594 20.2869 27.384C19.3508 25.644 19.7108 23.556 21.1929 22.056L21.2229 22.032C22.3869 20.94 23.947 20.292 25.393 20.292C26.0231 20.292 26.6291 20.412 27.1811 20.646C28.4531 20.37 29.6232 20.688 30.5652 21.378C30.2112 20.856 29.7732 20.37 29.2332 19.938C28.8372 19.644 28.3991 19.398 27.9371 19.212C27.5051 19.038 27.0431 18.918 26.5571 18.846L26.5391 18.834Z" fill="black"/>
<path d="M27.181 20.634C27.7451 20.874 28.2491 21.228 28.6691 21.684L28.6931 21.714C29.6231 22.818 30.1092 24.066 30.1872 25.536C30.2052 26.028 30.1752 26.484 30.0912 26.994C29.9771 28.128 29.2091 29.274 28.0691 29.994C27.7031 30.222 27.3071 30.402 26.899 30.522C26.461 30.654 25.993 30.726 25.525 30.726C23.5089 30.726 21.7389 29.448 20.6948 28.014C20.7908 28.428 20.9468 28.842 21.1748 29.25C22.3509 31.386 25.147 32.304 27.5351 32.034C28.4471 31.776 29.2931 31.326 30.0071 30.702C30.2592 30.468 30.5052 30.18 30.7152 29.874C30.9192 29.574 31.0812 29.262 31.2312 28.89C31.9872 26.718 32.1432 23.694 30.5592 21.36C29.6231 20.676 28.4591 20.358 27.181 20.634Z" fill="black"/>
<path d="M44.0837 18.318C44.2577 18.96 44.3957 19.614 44.5038 20.274C44.5698 20.676 45.0678 20.898 45.4278 20.796C45.8538 20.682 46.0158 20.274 45.9498 19.872C45.8298 19.158 45.6738 18.456 45.4818 17.76C45.1158 18.114 44.5938 18.318 44.0837 18.318Z" fill="black"/>
<path d="M29.8151 4.818C30.7211 5.016 31.6032 5.28 32.4612 5.604C32.3472 5.076 32.4432 4.512 32.7012 4.08C31.8912 3.792 31.0571 3.552 30.2171 3.372C29.2751 3.168 28.8731 4.614 29.8151 4.818Z" fill="black"/>
<path d="M32.4614 5.598C37.1355 7.35 40.9937 10.896 43.0817 15.498C43.4958 16.404 43.8258 17.346 44.0778 18.312C44.5938 18.312 45.1098 18.114 45.4758 17.754C43.9698 12.366 40.2196 7.71 35.2095 5.148C34.3994 4.734 33.5594 4.374 32.6954 4.068C32.4434 4.506 32.3474 5.07 32.4614 5.598Z" fill="black"/>
<path d="M37.9395 2.652C37.0334 2.322 36.5114 3.726 37.4174 4.056C39.6915 4.884 41.6116 6.426 42.9436 8.436C43.1656 8.772 43.7177 8.76601 43.9997 8.52601C44.3417 8.23801 44.3177 7.806 44.0897 7.47C42.6316 5.262 40.4355 3.558 37.9395 2.652Z" fill="black"/>
<path d="M15.0127 42.852C15.3127 43.086 15.6127 43.35 15.9847 43.476C16.3927 43.608 16.7887 43.53 17.1727 43.356C17.2447 43.326 17.3227 43.272 17.4067 43.248C17.4787 43.362 17.5147 43.554 17.5267 43.698C17.5267 43.71 17.5267 43.716 17.5327 43.728V43.734C17.5387 43.86 17.5747 43.974 17.6287 44.064C17.7488 44.334 17.9648 44.568 18.2168 44.7C18.4148 44.808 18.6368 44.868 18.8468 44.946C19.0328 45.018 19.2188 45.096 19.4048 45.162C20.2148 45.444 21.0969 45.438 21.9489 45.42C22.3389 45.414 22.7169 45.078 22.6989 44.67C22.6809 44.268 22.3689 43.914 21.9489 43.92C21.6069 43.926 21.2709 43.932 20.9289 43.914C20.7849 43.908 20.6409 43.896 20.4968 43.878C20.4608 43.872 20.4068 43.866 20.3888 43.86C20.2988 43.842 20.2148 43.824 20.1248 43.806C19.8188 43.728 19.5368 43.602 19.2428 43.494C19.1828 43.47 19.1168 43.452 19.0568 43.428C19.0448 43.314 19.0088 43.2 18.9428 43.098C18.8588 42.756 18.7148 42.432 18.4748 42.18C18.0428 41.724 17.4307 41.622 16.8607 41.856C16.7527 41.898 16.5907 42.018 16.4707 42.03C16.4647 42.03 16.4587 42.03 16.4527 42.03C16.4467 42.024 16.4347 42.018 16.3987 42.006C16.1467 41.922 15.8647 41.61 15.6607 41.448C15.1747 41.058 14.7006 40.656 14.2386 40.236C13.2786 39.372 12.3666 38.46 11.5145 37.494C11.1185 37.05 10.7165 36.6 10.3625 36.12C10.0445 35.682 9.67247 35.148 9.68447 34.584C9.69647 34.026 10.0745 33.552 10.0505 32.976C10.0265 32.322 9.58847 31.872 9.00045 31.65C8.60443 31.5 8.14842 31.506 7.7824 31.284C7.38639 31.038 7.12238 30.612 6.97838 30.18C6.78037 29.592 6.73237 28.974 6.69637 28.362C6.65436 27.666 6.63636 26.964 6.64236 26.268C6.65436 24.912 6.75037 23.556 6.95438 22.218C7.05038 21.594 7.11638 20.922 7.35039 20.334C7.5364 19.866 7.7104 19.752 8.17242 19.674C8.98845 19.536 9.42046 18.792 9.18645 18.006C9.10245 17.718 8.91644 17.46 8.88644 17.154C8.86244 16.878 8.96445 16.65 9.12045 16.428C9.35446 16.098 9.18045 15.594 8.85044 15.402C8.47843 15.186 8.05841 15.336 7.82441 15.672C7.44639 16.212 7.32639 16.866 7.42839 17.514C7.47039 17.772 7.5844 17.994 7.6744 18.234C7.5964 18.246 7.52439 18.264 7.50039 18.27C6.40836 18.528 5.90434 19.662 5.70033 20.658C5.14831 23.37 4.98031 26.238 5.23232 28.992C5.34632 30.234 5.66433 31.53 6.68437 32.346C7.14038 32.712 7.6324 32.862 8.19042 32.988C8.29242 33.012 8.40643 33.066 8.50843 33.072C8.49043 33.072 8.51443 33.084 8.53243 33.096C8.50243 33.234 8.44843 33.372 8.40043 33.504C7.90841 34.83 8.38843 36.018 9.21045 37.086C9.99048 38.1 10.8605 39.054 11.7665 39.966C12.7926 41.004 13.8726 41.964 15.0127 42.852Z" fill="black"/>
<path d="M5.11221 36.612C5.16022 36.432 5.14222 36.192 5.03421 36.036C4.8302 35.718 4.35019 35.526 4.00818 35.766C3.36015 36.216 2.66413 36.6 1.9381 36.912C1.8841 36.936 1.8301 36.954 1.7761 36.978C1.59009 37.05 1.43409 37.14 1.32608 37.32C1.23008 37.482 1.19408 37.716 1.24808 37.896C1.30808 38.076 1.42209 38.25 1.59009 38.346C1.7581 38.436 1.9861 38.496 2.16611 38.424C3.07814 38.064 3.94817 37.62 4.7522 37.062C4.92621 36.948 5.05821 36.81 5.11221 36.612Z" fill="#7469F6"/>
<path d="M4.22422 43.326C5.49626 42.594 6.6843 41.694 7.74034 40.674C8.02235 40.398 8.03435 39.882 7.74034 39.612C7.43433 39.336 6.98431 39.318 6.6783 39.612C6.43229 39.852 6.18028 40.08 5.92227 40.302C5.79027 40.416 5.65827 40.524 5.52626 40.632C5.45426 40.686 5.38826 40.746 5.31625 40.8C5.28025 40.83 5.23825 40.86 5.20225 40.89C4.64423 41.304 4.06821 41.688 3.46219 42.036C3.12018 42.234 2.97617 42.726 3.19218 43.062C3.41419 43.398 3.8582 43.53 4.22422 43.326Z" fill="#7469F6"/>
<path d="M10.8005 41.85C10.4344 41.658 9.99043 41.76 9.77442 42.12C9.42041 42.708 9.06639 43.29 8.71238 43.878C8.61038 44.04 8.58638 44.274 8.63438 44.454C8.68238 44.628 8.81438 44.814 8.97639 44.904C9.3424 45.096 9.78642 44.994 10.0024 44.634C10.3564 44.046 10.7105 43.464 11.0645 42.876C11.1665 42.714 11.1905 42.48 11.1425 42.3C11.1005 42.126 10.9685 41.934 10.8005 41.85Z" fill="#7469F6"/>
<path d="M37.0333 26.16C37.0813 26.268 37.1233 26.376 37.1713 26.484C37.1953 26.538 37.2313 26.586 37.2793 26.628C37.3153 26.676 37.3513 26.724 37.3873 26.772C37.3873 26.772 37.3933 26.772 37.3933 26.778C37.4233 26.814 37.4473 26.85 37.4773 26.88C37.4833 26.886 37.6693 27.042 37.7713 27.102C38.0953 27.306 38.5213 27.342 38.8873 27.252C39.0133 27.222 39.1393 27.162 39.2533 27.096C39.3433 27.024 39.4333 26.958 39.5293 26.886C39.6613 26.766 39.7513 26.616 39.8113 26.454C39.8893 26.268 39.9374 26.154 39.9314 25.92C39.9314 25.854 39.9254 25.794 39.9074 25.728C39.9014 25.662 39.8893 25.602 39.8833 25.536C39.8653 25.476 39.8293 25.41 39.8053 25.356C39.7753 25.284 39.7633 25.248 39.7393 25.2C39.7393 25.212 39.5653 24.948 39.4993 24.882C39.4573 24.834 39.3733 24.786 39.3433 24.762C39.3013 24.726 39.2413 24.678 39.1873 24.642C39.1693 24.63 39.1453 24.618 39.1213 24.606C39.0133 24.558 38.8753 24.48 38.7433 24.45C38.6233 24.432 38.5033 24.42 38.3833 24.402C38.3173 24.402 38.2573 24.408 38.1913 24.426C38.1253 24.432 38.0653 24.438 37.9993 24.45C37.8913 24.498 37.7833 24.54 37.6753 24.588C37.6213 24.612 37.5733 24.654 37.5253 24.702C37.4713 24.732 37.4233 24.774 37.3813 24.816C37.3093 24.906 37.2433 24.996 37.1713 25.092C37.1413 25.146 37.1173 25.2 37.0993 25.26C37.0633 25.314 37.0392 25.368 37.0272 25.428C37.0092 25.548 36.9972 25.668 36.9792 25.788C36.9792 25.854 36.9852 25.914 37.0032 25.974C37.0092 26.034 37.0212 26.1 37.0333 26.16Z" fill="#A1A1E6"/>
<path d="M33.1451 17.772C33.1511 17.778 33.1571 17.784 33.1571 17.79C33.2051 17.832 33.2591 17.874 33.3071 17.91C33.4812 18.042 33.4212 18.006 33.6252 18.096C33.8352 18.186 33.7572 18.162 33.9852 18.192C34.0572 18.204 34.1232 18.216 34.1952 18.216C34.2612 18.21 34.3212 18.204 34.3872 18.192C34.4532 18.192 34.5192 18.18 34.5852 18.162C34.6932 18.114 34.8012 18.072 34.9092 18.024L35.1852 17.814C35.2572 17.724 35.3232 17.634 35.3952 17.538C35.4912 17.382 35.5452 17.214 35.5572 17.034C35.5872 16.914 35.5872 16.794 35.5572 16.674C35.5572 16.554 35.5272 16.44 35.4672 16.332C35.4372 16.218 35.3772 16.116 35.2932 16.032C35.2632 15.984 35.2272 15.948 35.1912 15.912C35.1192 15.822 35.0472 15.744 34.9512 15.684C34.8432 15.588 34.7172 15.522 34.5792 15.474C34.5732 15.468 34.5612 15.462 34.5552 15.456C34.3992 15.36 34.2312 15.306 34.0512 15.294C33.8712 15.252 33.6912 15.264 33.5112 15.318C33.3371 15.36 33.1811 15.438 33.0491 15.558C32.9051 15.654 32.7851 15.78 32.7011 15.936C32.5331 16.248 32.4551 16.626 32.5631 16.974C32.6651 17.31 32.8571 17.598 33.1451 17.772Z" fill="#A1A1E6"/>
<path d="M25.0991 12.084C25.0571 12.096 25.0151 12.12 24.9731 12.138C24.8771 12.156 24.7871 12.186 24.7031 12.234C24.5351 12.288 24.3911 12.384 24.2711 12.516C24.1391 12.636 24.0491 12.786 23.9891 12.948C23.9051 13.11 23.8631 13.284 23.8751 13.47C23.8931 13.818 24.0071 14.184 24.2711 14.424C24.5351 14.664 24.8591 14.82 25.2251 14.82C25.3151 14.82 25.4111 14.82 25.5011 14.82C25.6451 14.826 25.7891 14.802 25.9571 14.772C26.1311 14.73 26.2871 14.652 26.4192 14.532C26.5632 14.436 26.6832 14.31 26.7672 14.154C26.8152 14.046 26.8572 13.938 26.9052 13.83C26.9592 13.65 26.9712 13.47 26.9292 13.29C26.9292 13.17 26.8992 13.056 26.8392 12.948C26.7852 12.78 26.6892 12.636 26.5572 12.516C26.4612 12.432 26.3591 12.36 26.2571 12.3C26.2211 12.276 26.1911 12.246 26.1491 12.222C25.9931 12.126 25.8251 12.072 25.6451 12.06C25.4591 12.018 25.2791 12.03 25.0991 12.084Z" fill="#A1A1E6"/>
<path d="M16.2365 18.396C16.3085 18.486 16.3745 18.576 16.4465 18.672C16.5665 18.804 16.7166 18.894 16.8786 18.954C16.9866 19.014 17.0946 19.044 17.2206 19.044C17.3406 19.074 17.4606 19.074 17.5806 19.044C17.7006 19.044 17.8146 19.014 17.9226 18.954C18.0906 18.9 18.2346 18.804 18.3546 18.672L18.5466 18.45C18.6786 18.33 18.7686 18.18 18.8286 18.018C18.9126 17.856 18.9546 17.682 18.9426 17.496C18.9486 17.31 18.9126 17.136 18.8286 16.974C18.7746 16.806 18.6786 16.662 18.5466 16.542C18.4566 16.47 18.3666 16.404 18.2706 16.332C18.1326 16.254 17.9886 16.2 17.8386 16.176C17.8206 16.17 17.8086 16.164 17.7906 16.158C17.6706 16.14 17.5506 16.128 17.4306 16.11C17.1846 16.11 16.9626 16.17 16.7466 16.296L16.4705 16.506C16.3025 16.674 16.1885 16.872 16.1225 17.1C16.0865 17.202 16.0805 17.304 16.0685 17.406C16.0565 17.514 16.0325 17.61 16.0445 17.718C16.0625 17.838 16.0745 17.958 16.0925 18.078C16.1465 18.18 16.1885 18.288 16.2365 18.396Z" fill="#A1A1E6"/>
<path d="M15.6547 25.584C15.6487 25.518 15.6427 25.458 15.6307 25.392C15.6307 25.326 15.6187 25.26 15.6007 25.2C15.5527 25.092 15.5107 24.984 15.4627 24.876C15.4567 24.87 15.4567 24.858 15.4507 24.852C15.3787 24.762 15.3127 24.672 15.2407 24.576C15.2347 24.57 15.2287 24.564 15.2227 24.558C15.1807 24.528 15.1447 24.498 15.1027 24.468C15.1027 24.468 15.0967 24.462 15.0967 24.456C14.8987 24.264 14.7067 24.174 14.4547 24.078C14.1847 23.976 13.8727 24 13.5967 24.066C13.4226 24.108 13.2666 24.186 13.1346 24.306C12.9906 24.402 12.8706 24.528 12.7866 24.684C12.6906 24.84 12.6366 25.008 12.6246 25.188C12.5826 25.368 12.5946 25.548 12.6486 25.728C12.6966 25.836 12.7386 25.944 12.7866 26.052C12.8106 26.094 12.8466 26.13 12.8766 26.166C12.9066 26.244 12.9366 26.322 12.9786 26.4C13.0986 26.604 13.2606 26.766 13.4647 26.886C13.6207 26.982 13.7887 27.036 13.9687 27.048C14.1487 27.09 14.3287 27.078 14.5087 27.024C14.6827 26.976 14.8387 26.898 14.9767 26.79C15.0727 26.73 15.1627 26.664 15.2467 26.58C15.3247 26.484 15.4087 26.388 15.4747 26.286C15.5827 26.082 15.6667 25.818 15.6547 25.584Z" fill="#A1A1E6"/>
<path d="M17.7427 32.862C17.3947 32.784 17.0107 32.802 16.7047 33C16.6387 33.042 16.5847 33.09 16.5247 33.138C16.5127 33.138 16.5007 33.138 16.4887 33.144C16.4527 33.156 16.4167 33.162 16.3807 33.174C16.1707 33.228 15.9366 33.366 15.7866 33.522C15.5766 33.732 15.4566 34.002 15.4146 34.296C15.3786 34.542 15.4086 34.764 15.5046 34.998C15.6066 35.244 15.8046 35.532 16.0567 35.646C16.3627 35.778 16.5787 35.874 16.9267 35.868C17.2507 35.862 17.5087 35.784 17.7967 35.64C18.2347 35.418 18.5527 34.992 18.6907 34.53C18.7867 34.194 18.7267 33.786 18.5527 33.492C18.3847 33.198 18.0667 32.934 17.7427 32.862Z" fill="#A1A1E6"/>
<path d="M26.557 37.284C26.509 37.2 26.449 37.116 26.371 37.044C26.251 36.912 26.101 36.822 25.939 36.762C25.777 36.678 25.603 36.636 25.417 36.648C25.405 36.648 25.3869 36.654 25.3749 36.654C25.3149 36.654 25.2549 36.66 25.1949 36.678C25.1769 36.678 25.1649 36.684 25.1529 36.684C25.1229 36.69 25.0869 36.69 25.0569 36.696C25.0509 36.696 25.0389 36.702 25.0329 36.702C24.9129 36.726 24.7989 36.768 24.6909 36.834C24.5349 36.918 24.4089 37.032 24.3129 37.182C24.1929 37.314 24.1149 37.464 24.0729 37.644L24.0249 38.004C24.0249 38.25 24.0849 38.472 24.2109 38.688C24.2349 38.718 24.2589 38.748 24.2829 38.784C24.2889 38.79 24.2889 38.796 24.2949 38.802C24.3069 38.814 24.4449 39.03 24.5409 39.108L24.8169 39.318C24.9249 39.366 25.0329 39.408 25.1409 39.456L25.501 39.504C25.687 39.51 25.861 39.474 26.023 39.39C26.137 39.36 26.239 39.3 26.323 39.216C26.425 39.156 26.503 39.078 26.563 38.976C26.647 38.892 26.707 38.79 26.737 38.676C26.821 38.514 26.863 38.34 26.851 38.154C26.833 38.022 26.839 37.872 26.791 37.746C26.689 37.5 26.659 37.416 26.557 37.284Z" fill="#A1A1E6"/>
<path d="M35.0114 33.726C34.9874 33.672 34.9574 33.63 34.9274 33.582C34.9094 33.552 34.9034 33.516 34.8854 33.486C34.8014 33.33 34.6874 33.204 34.5374 33.108C34.4054 32.988 34.2554 32.91 34.0754 32.868C33.9554 32.85 33.8354 32.838 33.7154 32.82C33.5534 32.82 33.4034 32.85 33.2593 32.904C33.2233 32.91 33.1873 32.916 33.1513 32.922C32.9773 32.964 32.8213 33.042 32.6893 33.162C32.5453 33.258 32.4253 33.384 32.3413 33.54C32.2453 33.696 32.1913 33.864 32.1793 34.044C32.1373 34.224 32.1493 34.404 32.2033 34.584C32.2513 34.692 32.2933 34.8 32.3413 34.908C32.4613 35.112 32.6233 35.274 32.8273 35.394L32.9713 35.454C33.1213 35.568 33.2953 35.658 33.4874 35.712C33.6074 35.73 33.7274 35.742 33.8474 35.76C33.9674 35.742 34.0874 35.73 34.2074 35.712C34.3154 35.664 34.4234 35.622 34.5314 35.574C34.6874 35.49 34.8134 35.376 34.9094 35.226C34.9934 35.142 35.0534 35.04 35.0834 34.926C35.1434 34.818 35.1734 34.71 35.1734 34.584C35.2034 34.464 35.2034 34.344 35.1734 34.224C35.1674 34.044 35.1134 33.876 35.0114 33.726Z" fill="#A1A1E6"/>
</svg>
