<svg width="571" height="559" viewBox="0 0 571 559" fill="none" xmlns="http://www.w3.org/2000/svg">
<path d="M65.9703 329.71C43.3207 284.841 32.435 229.449 56.8134 195.784C81.1918 162.119 140.848 150.163 187.598 122.332C234.389 94.9232 268.337 52.0499 305.352 46.6011C342.598 41.3343 382.961 73.921 417.301 107.849C451.228 141.826 479.382 177.341 495.061 218.995C510.98 260.838 514.649 309.011 497.379 347.155C480.157 385.712 441.755 414.034 402.405 437.801C362.825 461.385 322.28 480.414 281.045 480.631C239.81 480.848 198.115 462.435 160.351 435.707C122.405 409.209 88.421 374.812 65.9703 329.71Z" fill="white"/>
<path d="M461.852 262.435C462.029 249.917 462.043 237.404 461.894 224.895C461.838 220.309 462.508 214.787 458.843 211.311C455.688 208.323 450.942 208.142 446.872 207.869C434.747 207.06 422.601 206.92 410.455 206.878C385.186 206.79 359.92 206.732 334.655 206.704L249.592 206.515C249.156 206.501 248.723 206.585 248.324 206.761C247.925 206.938 247.571 207.202 247.289 207.534C245.16 207.479 243.01 207.423 240.902 207.534C239.261 207.632 237.788 208.037 236.797 209.419C235.401 211.366 235.82 214.375 235.778 216.609C235.722 219.275 235.666 221.942 235.632 224.601C235.464 236.133 235.548 247.686 236.616 259.175C237.132 264.76 237.858 270.288 238.884 275.774C239.687 280.081 240.42 284.849 243.282 288.339C246.277 292.011 250.744 292.66 255.191 293.225C260.052 293.836 264.958 294.006 269.849 293.735C271.152 298.374 272.893 302.878 275.05 307.186C276.006 309.113 278.54 309.071 279.985 307.828L289.199 299.717C291.254 298.066 293.167 296.245 294.916 294.273C326.677 295.082 358.444 295.28 390.219 294.866C390.671 295.139 391.185 295.293 391.713 295.313L428.842 297.142C438.098 297.595 451.465 300.736 457.72 291.76C463.311 283.809 461.726 271.558 461.852 262.435Z" fill="#D0E3FF"/>
<path d="M116.763 414.852C123.045 423.822 136.392 420.687 145.648 420.234L182.776 418.405C183.303 418.377 183.815 418.224 184.27 417.958C216.038 418.37 262.45 418.175 294.232 417.365C295.977 419.339 297.887 421.16 299.942 422.809L309.156 430.914C310.552 432.163 313.135 432.198 314.091 430.279C316.25 425.971 317.994 421.466 319.299 416.827C324.19 417.099 329.097 416.929 333.958 416.318C338.411 415.752 342.871 415.11 345.873 411.432C348.728 407.941 349.461 403.16 350.271 398.867C351.297 393.373 352.023 387.824 352.539 382.267C353.607 370.778 353.691 359.232 353.523 347.694C353.489 345.034 353.433 342.367 353.377 339.701C353.328 337.467 353.761 334.459 352.358 332.504C351.36 331.108 349.894 330.724 348.246 330.626C346.152 330.501 343.995 330.564 341.859 330.626C341.579 330.292 341.225 330.026 340.826 329.849C340.427 329.672 339.992 329.59 339.556 329.607L254.493 329.796C229.231 329.852 189.303 329.872 164.041 329.963C151.895 330.012 139.742 330.145 127.624 330.961C123.555 331.234 118.801 331.415 115.653 334.403C111.988 337.893 112.651 343.401 112.602 347.987C112.453 360.496 112.453 373.009 112.602 385.527C112.77 394.637 111.213 406.88 116.763 414.852Z" fill="#A1A1E6"/>
<path d="M290.428 108.273C296.752 113.439 307.181 117.487 317.232 118.744C325.986 121.697 335.612 122.89 344.309 123.211C356.874 123.679 370.514 108.783 380.189 129.85C387.93 113.236 397.786 110.724 404.92 103.234C413.394 94.3406 419.251 76.708 415.447 64.5412C415.73 62.9757 415.662 61.3669 415.249 59.8305C414.837 58.2941 414.089 56.8681 413.059 55.6552C410.658 47.9768 405.241 41.2966 396.879 37.0246C380.719 28.7738 358.773 29.9186 341.168 31.2797C323.564 32.6409 301.38 35.7539 287.419 47.6066C278.638 55.0407 275.895 65.0579 276.683 75.3121C273.961 87.5627 280.669 100.295 290.428 108.273ZM387.274 85.7476C388.132 83.7861 390.617 82.446 392.718 83.1091C393.237 83.2823 393.711 83.5663 394.109 83.9411C394.507 84.316 394.818 84.7727 395.022 85.2799C395.054 85.3109 395.084 85.3436 395.113 85.3778C395.466 85.8962 395.709 86.481 395.829 87.0966C395.949 87.7122 395.943 88.3456 395.811 88.9586C395.67 89.6579 395.388 90.321 394.982 90.9079C394.576 91.4947 394.056 91.993 393.451 92.3721C392.9 92.6966 392.274 92.875 391.634 92.8909C390.994 92.9067 390.361 92.7595 389.794 92.4628C388.64 91.83 387.751 90.8045 387.289 89.5725C386.826 88.3404 386.821 86.9832 387.274 85.7476V85.7476ZM351.764 86.2571C352.44 85.8229 353.201 85.5397 353.996 85.4265C354.791 85.3133 355.602 85.3727 356.371 85.601C357.089 85.7662 357.759 86.0937 358.33 86.5584C358.901 87.0231 359.358 87.6125 359.666 88.2814C359.976 88.6921 360.184 89.1706 360.274 89.6774C360.417 90.6583 360.259 91.6601 359.82 92.549C359.381 93.438 358.683 94.1723 357.816 94.6547C356.842 95.053 355.774 95.1644 354.738 94.9758C353.684 94.8569 352.688 94.4293 351.876 93.7471C351.115 93.1033 350.537 92.2703 350.201 91.3319C349.87 90.4314 349.844 89.4475 350.127 88.5309C350.409 87.6142 350.984 86.8154 351.764 86.2571V86.2571ZM318.691 90.2289C318.761 88.8887 319.313 87.2275 320.785 86.9204C321.196 86.8367 321.62 86.8393 322.03 86.9282C322.44 87.0172 322.826 87.1903 323.166 87.4368C324.103 87.6102 324.94 88.1345 325.504 88.9027C326.072 89.7388 326.34 90.7427 326.265 91.7508C326.236 92.7461 325.929 93.7134 325.379 94.5429C325.109 94.9815 324.733 95.3443 324.285 95.5971C323.836 95.8499 323.331 95.9843 322.817 95.9877C321.462 95.9179 320.471 94.9546 319.71 93.8936C318.964 92.8232 318.605 91.5308 318.691 90.2289V90.2289Z" fill="#A1A1E6"/>
<path d="M288.075 100.595C289.471 101.991 290.47 103.757 291.775 105.3C292.215 105.824 292.662 106.333 293.108 106.843C293.527 107.234 293.96 107.617 294.4 107.987C296.684 109.829 299.179 111.393 301.834 112.643C304.507 113.642 307.027 115.017 309.743 115.91C312.325 116.762 314.978 117.446 317.602 118.207V118.151C322.115 119.342 326.693 120.274 331.312 120.943C343.88 122.726 356.647 122.587 369.174 120.531L376.245 135.378C376.516 135.853 376.909 136.246 377.382 136.518C377.856 136.791 378.393 136.932 378.939 136.928C379.484 136.918 380.017 136.771 380.489 136.5C380.961 136.229 381.357 135.843 381.641 135.378C384.962 130.429 387.939 125.256 390.548 119.896C390.548 119.84 390.548 119.784 390.596 119.735C414.532 118.563 436.144 99.0036 433.756 73.8184C432.702 62.7126 427.474 52.7445 418.343 46.162C407.615 38.3998 393.78 36.0336 380.845 35.2797C354.906 33.765 326.335 35.203 302.916 47.5513C297.708 50.2946 292.787 53.7915 289.143 58.4544C285.297 63.3407 283.294 69.2461 282.666 75.4098C281.793 83.8002 283.538 93.1819 288.075 100.595ZM290.686 68.0804C294.811 57.6098 306.148 52.1511 316.081 48.5353C327.152 44.5146 338.844 42.5533 350.557 41.7366C362.5 40.8989 374.744 40.7454 386.66 41.9949C397.996 43.1816 410.393 46.3227 418.727 54.6363C425.373 61.2816 428.2 70.8725 427.565 80.1215C426.168 100.455 406.672 113.977 387.288 113.544C384.705 113.488 383.798 116.043 384.531 117.899C382.92 121.124 381.18 124.282 379.309 127.372C377.448 123.463 375.586 119.552 373.725 115.638C373.519 115.238 373.216 114.895 372.845 114.642C372.473 114.388 372.044 114.232 371.596 114.186C371.088 114.025 370.549 113.991 370.025 114.088C349.795 117.827 328.933 116.116 309.582 109.132C303.663 106.989 297.876 103.981 294.225 98.6615C288.452 90.1105 286.889 77.7203 290.686 68.0804V68.0804Z" fill="#1E1E1E"/>
<path d="M390.729 91.9322L390.945 91.9881H390.868H390.806H390.75C390.697 91.9788 390.647 91.9574 390.603 91.9254H390.645L390.533 91.8906H390.485C390.567 91.8952 390.649 91.9089 390.729 91.9322V91.9322Z" fill="#1E1E1E"/>
<path d="M382.946 90.8784C383.368 92.6341 384.195 94.2669 385.361 95.646C386.665 97.1016 388.475 98.0054 390.422 98.173C393.752 98.5709 397.074 96.6999 398.861 93.9497C400.774 91.0039 400.871 87.039 399.782 83.7862C399.617 83.2515 399.315 82.7694 398.906 82.3874C398.497 82.0054 397.996 81.7369 397.451 81.6086C397.357 81.1928 397.18 80.8 396.931 80.4545C396.681 80.109 396.364 79.8176 395.999 79.5979C394.351 78.718 392.475 78.3553 390.617 78.557C388.76 78.7587 387.006 79.5156 385.584 80.7289C382.611 83.1999 382.059 87.3882 382.946 90.8784ZM389.731 91.1088C389.591 90.8854 389.473 90.6481 389.354 90.4107C389.319 90.299 389.249 90.1525 389.221 90.0757C389.05 89.5286 388.912 88.9714 388.809 88.4073C388.809 88.3724 388.809 88.3444 388.809 88.3095C388.809 88.1419 388.809 87.9674 388.809 87.7999C388.809 87.6324 388.809 87.5208 388.809 87.3742C388.809 87.437 388.747 87.3744 388.809 87.2068C388.827 87.1311 388.827 87.0522 388.809 86.9764C388.813 87.0042 388.813 87.0321 388.809 87.0599C388.809 86.9413 388.858 86.8226 388.893 86.7109C388.928 86.5992 388.963 86.4736 388.998 86.3479C388.986 86.3681 388.972 86.3869 388.956 86.4038C388.956 86.4038 388.956 86.3481 389.005 86.3271C389.054 86.3062 389.005 86.2574 389.04 86.2225C389.103 86.0131 389.151 86.0479 389.123 86.1526C389.193 86.02 389.256 85.8943 389.319 85.7896C389.351 85.7431 389.388 85.7007 389.431 85.6639L389.514 85.5804C389.459 85.5804 389.514 85.5384 389.605 85.4546L389.759 85.35C389.801 85.3188 389.841 85.2838 389.877 85.2453L389.801 85.3288L389.926 85.2453C390.024 85.1825 390.164 85.0847 390.31 85.0009H390.352L390.645 84.9031C390.841 84.8473 391.036 84.8056 391.232 84.7637C391.162 84.7672 391.092 84.7672 391.022 84.7637C391.118 84.7706 391.213 84.7706 391.308 84.7637H391.392C391.56 84.7288 391.664 84.7637 391.518 84.7637H392.076H392.167L392.642 84.9031L392.837 85.0077C393.114 85.1596 393.413 85.2678 393.724 85.3288C393.724 85.3777 393.724 85.4199 393.724 85.4617C393.842 85.8177 393.947 86.1596 394.031 86.5436C394.114 86.9275 394.184 87.8211 394.122 86.8299C394.182 87.4562 394.2 88.0856 394.177 88.7144C394.174 88.7608 394.174 88.8076 394.177 88.8541C394.177 88.9379 394.163 89.0147 394.135 89.0845C394.066 89.4196 393.954 89.7336 393.863 90.0617L393.738 90.3129C393.626 90.5293 393.444 90.7388 393.326 90.9622L393.095 91.1926L392.921 91.3532C392.753 91.4579 392.586 91.5695 392.411 91.6602L392.223 91.7509L391.664 91.9114C391.776 91.9114 391.664 91.9602 391.518 91.9602H391.483C391.385 91.9602 391.267 91.9602 391.169 92.0161L391.413 91.9602H390.938L391.092 92.0093L390.862 91.9602H390.778C390.76 91.9672 390.74 91.9672 390.722 91.9602C390.589 91.9602 390.541 91.9184 390.575 91.8975L390.513 91.8627L390.38 91.8208L390.436 91.8767C390.416 91.8599 390.397 91.8411 390.38 91.8208H390.338H390.373L390.289 91.7369H390.233C390.087 91.6602 390.052 91.5625 390.164 91.6463L389.87 91.36C389.82 91.2883 389.773 91.2138 389.731 91.1367V91.1088Z" fill="#1E1E1E"/>
<path d="M390.303 91.7649L390.463 91.8622H390.372L390.303 91.7649Z" fill="#1E1E1E"/>
<path d="M390.302 91.7643L390.177 91.6462L390.302 91.7643Z" fill="#1E1E1E"/>
<path d="M390.381 91.8492L390.373 91.8416L390.381 91.8492Z" fill="#1E1E1E"/>
<path d="M389.521 85.6083C389.605 85.5385 389.689 85.4547 389.765 85.3779H389.807C389.724 85.4689 389.628 85.5466 389.521 85.6083V85.6083Z" fill="#1E1E1E"/>
<path d="M391.497 91.9951H391.42C391.502 91.9716 391.587 91.955 391.672 91.946L391.497 91.9951Z" fill="#1E1E1E"/>
<path d="M389.012 86.3541C389.058 86.3014 389.098 86.243 389.13 86.1804C389.106 86.255 389.063 86.3219 389.005 86.3748L389.012 86.3541Z" fill="#1E1E1E"/>
<path d="M388.809 87.3881C388.809 87.2904 388.809 87.1926 388.809 87.1018C388.829 87.1962 388.829 87.2937 388.809 87.3881Z" fill="#1E1E1E"/>
<path d="M353.488 93.5236L353.377 93.4473H353.335C353.516 93.5028 353.55 93.5444 353.488 93.5236Z" fill="#1E1E1E"/>
<path d="M352.762 91.6251C352.762 91.3878 352.714 91.0457 352.762 91.6251V91.6251Z" fill="#1E1E1E"/>
<path d="M346.341 89.2169C346.337 90.0134 346.393 90.8088 346.508 91.597C346.599 92.5149 346.746 93.4266 346.948 94.3264C347.18 95.282 347.6 96.1816 348.183 96.9727C348.767 97.7638 349.503 98.4306 350.348 98.9336C351.839 99.7509 353.542 100.099 355.234 99.9319C357.005 99.7801 358.717 99.2192 360.234 98.2938C361.752 97.3684 363.034 96.1037 363.98 94.5988C365.914 91.3599 365.642 86.8295 362.794 84.1909C362.425 83.8621 361.986 83.6232 361.509 83.4929C361.39 83.2058 361.206 82.9503 360.972 82.7461C359.964 81.8945 358.733 81.3494 357.426 81.1755C356.34 81.0556 355.242 81.1072 354.173 81.3289C352.172 81.599 350.281 82.4048 348.7 83.6605C347.944 84.3731 347.344 85.2349 346.938 86.1913C346.532 87.1477 346.328 88.1779 346.341 89.2169V89.2169ZM352.623 88.9378C352.623 88.8331 352.672 88.7282 352.7 88.6235C352.672 88.6627 352.642 88.7002 352.609 88.7353C352.669 88.6422 352.72 88.5438 352.763 88.4418C352.763 88.4418 352.763 88.407 352.839 88.3232L352.916 88.2537L353.056 88.1559C353.154 88.0931 353.321 88.037 353.44 87.9602C353.559 87.8835 353.88 87.8138 354.138 87.751C354.64 87.6114 355.15 87.4857 355.66 87.388H355.799H356.023C356.071 87.388 356.323 87.3881 356.539 87.3532L356.77 87.4088C356.902 87.4995 357.014 87.5763 356.832 87.4088H356.944C357.234 87.6067 357.548 87.7663 357.879 87.8835C358.002 88.1577 358.173 88.4082 358.382 88.6235C358.487 88.7212 358.577 88.8259 358.675 88.9306L358.801 89.1539C358.801 89.119 358.801 89.0911 358.801 89.0492C358.798 89.0911 358.798 89.1331 358.801 89.175C358.828 89.2277 358.859 89.2787 358.892 89.3284C358.996 89.5168 358.892 89.5239 358.85 89.3843C358.899 89.5309 358.94 89.6637 358.975 89.7963C359.01 89.929 358.975 89.9706 358.975 90.0544C358.975 90.1381 358.975 90.2919 358.975 90.4105C358.975 90.5292 358.857 90.8573 358.794 91.1086L358.584 91.4855C358.528 91.5833 358.403 91.7227 358.34 91.8414C358.179 92.029 358.009 92.2084 357.831 92.3789L357.6 92.5885C357.186 92.8808 356.752 93.1443 356.302 93.3772H356.232L356.106 93.4191C355.878 93.5019 355.645 93.5717 355.408 93.6284L355.087 93.6911H354.592H354.208C354.288 93.7036 354.367 93.7223 354.445 93.747C354.361 93.747 354.278 93.7052 354.187 93.6843H354.103C353.935 93.6843 353.817 93.6214 353.977 93.6424L353.747 93.5936H353.656L353.545 93.5238C353.504 93.503 353.467 93.4773 353.433 93.4471H353.398L353.349 93.412H353.384L353.209 93.1816C353.057 92.7079 352.933 92.2255 352.839 91.7367C352.842 91.7042 352.842 91.6714 352.839 91.6389C352.839 91.6948 352.839 91.7366 352.839 91.7994C352.839 91.6738 352.805 91.5481 352.791 91.4225C352.756 91.1433 352.721 90.8573 352.7 90.5711C352.595 90.0126 352.602 89.4822 352.602 88.9378H352.623Z" fill="#1E1E1E"/>
<path d="M354.131 93.7052L353.921 93.6636C354 93.6725 354.077 93.6887 354.152 93.7123L354.131 93.7052Z" fill="#1E1E1E"/>
<path d="M352.791 88.4145C352.768 88.4892 352.73 88.5579 352.679 88.6166C352.679 88.6166 352.679 88.6167 352.679 88.5818C352.692 88.5299 352.713 88.4805 352.742 88.4353V88.4353C352.742 88.4353 352.742 88.3933 352.798 88.3654L352.867 88.3167C352.848 88.3536 352.822 88.3868 352.791 88.4145V88.4145Z" fill="#1E1E1E"/>
<path d="M358.773 89.1613C358.773 89.2311 358.773 89.3007 358.822 89.3705C358.788 89.2979 358.766 89.22 358.759 89.1401L358.773 89.1613Z" fill="#1E1E1E"/>
<path d="M321.812 88.9026C321.844 88.8987 321.877 88.8987 321.909 88.9026H322.056H322.195C322.195 88.9026 322.112 88.9096 321.812 88.9026Z" fill="#1E1E1E"/>
<path d="M315.201 96.7276C315.898 98.1354 317.004 99.2997 318.374 100.067C319.745 100.835 321.315 101.169 322.88 101.028C326.37 100.72 329.665 98.6613 330.677 95.1642C331.605 91.9532 330.628 88.1 328.792 85.3916C328.494 84.9233 328.08 84.5389 327.592 84.275C327.103 84.0112 326.555 83.8764 326 83.8837C325.703 83.4938 325.322 83.1751 324.886 82.9505C324.45 82.7259 323.97 82.6012 323.48 82.5855C320.067 82.5436 316.171 83.5348 314.608 86.9203C313.142 90.0196 313.805 93.7051 315.201 96.7276ZM320.087 91.6389L320.046 91.4016C320.046 91.2132 320.011 91.0178 320.004 90.8294C319.997 90.6409 320.004 90.3547 320.004 90.1313C320.004 90.0755 320.004 90.0125 320.039 89.9916C320.073 89.9706 320.074 89.8731 320.094 89.8103C320.168 89.7021 320.235 89.5902 320.297 89.4752C320.325 89.4432 320.356 89.4127 320.388 89.3842C320.45 89.3493 320.506 89.3075 320.569 89.2796C320.623 89.2452 320.679 89.2149 320.737 89.1889L321.225 89.0284C321.414 88.9795 321.602 88.9515 321.791 88.9166H321.686C321.753 88.9228 321.821 88.9228 321.888 88.9166H321.993C322.052 88.8952 322.116 88.8952 322.175 88.9166C322.593 88.9166 323.005 88.8747 323.424 88.9166H323.522C323.647 89.112 323.773 89.3075 323.885 89.51C323.996 89.7124 324.073 89.8728 324.164 90.0543C324.38 90.4871 324.094 89.873 324.094 89.873C324.269 89.873 324.59 91.4644 324.625 91.6389C324.66 91.8134 324.625 92.3369 324.667 91.8413V91.9252C324.684 92.2297 324.684 92.5351 324.667 92.8396C324.667 92.9583 324.667 93.1329 324.667 93.2865C324.667 93.44 324.576 93.6075 324.527 93.7681L324.464 93.8935L324.401 93.9845L324.178 94.2078L324.066 94.3124C323.885 94.4241 323.703 94.5429 323.515 94.6406L323.438 94.6754H323.375L322.984 94.7872C323.026 94.7872 322.984 94.8359 322.824 94.8499H322.712C322.636 94.858 322.561 94.8743 322.489 94.8987C322.531 94.8794 322.576 94.8656 322.621 94.8571H322.161H321.923L321.47 94.7313L321.658 94.8499C321.569 94.7965 321.475 94.75 321.379 94.7105V94.7105C321.239 94.6686 321.183 94.6055 321.239 94.6195L321.072 94.5149L320.974 94.4102L320.82 94.1798L320.716 93.9774C320.771 94.1309 320.827 94.3056 320.716 94.0125C320.713 93.987 320.713 93.961 320.716 93.9354L320.66 93.824C320.66 93.824 320.66 93.8586 320.702 93.8935C320.625 93.6771 320.555 93.4608 320.485 93.2374C320.325 92.665 320.192 92.1554 320.087 91.6389Z" fill="#1E1E1E"/>
<path d="M323.012 94.7178L322.845 94.7597H322.74H322.649C322.766 94.7205 322.89 94.7062 323.012 94.7178V94.7178Z" fill="#1E1E1E"/>
<path d="M321.407 94.6407L321.267 94.5569C321.354 94.581 321.436 94.6188 321.511 94.6687L321.407 94.6407Z" fill="#1E1E1E"/>
<path d="M320.708 93.8656C320.708 93.8656 320.708 93.8659 320.708 93.8242L320.743 93.9073L320.708 93.8656Z" fill="#1E1E1E"/>
<path d="M291.196 41.2269C303.548 34.3761 316.753 29.1934 330.467 25.8142C334.369 24.8509 336.052 30.8749 332.129 31.8381C318.937 35.0721 306.233 40.0439 294.351 46.6227C290.826 48.5772 287.671 43.1814 291.196 41.2269Z" fill="#1E1E1E"/>
<path d="M414.742 117.459C423.599 113.219 430.504 105.759 434.049 96.6022C434.287 95.8149 434.817 95.1489 435.532 94.7422C436.247 94.3355 437.09 94.219 437.889 94.417C439.41 94.8359 440.681 96.6717 440.073 98.2562C436.096 108.989 428.161 117.791 417.897 122.855C417.176 123.25 416.331 123.354 415.537 123.145C414.742 122.936 414.058 122.43 413.625 121.732C412.822 120.363 413.22 118.192 414.742 117.459Z" fill="#1E1E1E"/>
<path d="M189.938 299.843C189.263 299.164 188.521 298.554 187.725 298.021C186.306 296.208 184.304 294.94 182.057 294.433C179.495 292.772 176.145 292.828 173.199 294.14C163.999 298.231 155.525 302.859 155.546 314.251C155.546 323.095 161.13 333.628 169.674 336.846C188.682 343.987 202.258 312.47 189.938 299.843Z" fill="white"/>
<path d="M203.152 364.007C198.056 356.726 187.467 343.652 176.962 346.06C175.391 345.441 173.669 345.317 172.026 345.704C157.514 348.866 150.967 361.689 147.651 374.973C144.161 388.892 142.618 400.654 159.197 402.483C167.643 403.411 176.138 403.921 184.633 404.06C191.648 404.179 200.081 404.898 205.574 399.502C214.998 390.183 209.623 373.249 203.152 364.007Z" fill="white"/>
<path d="M162.652 327.409C164.578 331.548 167.147 335.499 171.084 337.963C175.035 340.335 179.719 341.176 184.249 340.329C192.569 338.933 199.354 331.548 200.855 323.36C202.321 315.346 199.745 306.726 193.568 301.274C193.425 301.154 193.273 301.044 193.114 300.946C195.613 300.499 197.072 296.758 194.252 295.194C184.968 290.098 173.66 295.292 166.777 302.133C163.741 305.162 161.193 309.001 160.25 313.245C159.175 318.236 160.543 322.892 162.652 327.409ZM167.105 312.282C168.481 309.418 170.488 306.902 172.976 304.925C177.597 301.023 185.059 297.407 190.95 300.52C188.688 300.932 186.957 303.766 189.149 305.693C191.572 307.846 193.352 310.628 194.292 313.73C195.232 316.832 195.295 320.133 194.475 323.269C192.877 329.154 187.579 334.194 181.31 334.403C173.75 334.661 169.492 328.532 167.133 322.089C165.932 318.809 165.66 315.535 167.105 312.282Z" fill="#1E1E1E"/>
<path d="M207.005 372.502C204.367 364.125 200.29 356.147 193.044 350.918C186.141 345.948 177.36 344.727 169.667 348.608C161.786 352.594 157.102 360.607 154.359 368.691C152.729 373.827 151.402 379.055 150.387 384.347C149.18 390.113 148.293 395.97 148.747 401.868C149.026 405.861 155.281 405.889 155.029 401.868C154.415 393.171 156.586 384.536 158.729 376.173C160.607 368.851 163.252 361.319 169.262 356.342C175.028 351.574 182.344 351.456 188.577 355.4C194.936 359.435 198.482 366.38 200.758 373.333C203.676 382.24 206.342 392.089 205.204 401.512C204.737 405.491 210.984 405.463 211.452 401.512C212.506 391.837 209.86 381.674 207.005 372.502Z" fill="#1E1E1E"/>
<path d="M172.801 370.366C172.206 369.791 171.415 369.465 170.588 369.451H164.683C163.857 369.461 163.067 369.789 162.477 370.366C161.892 370.952 161.563 371.747 161.563 372.575C161.563 373.404 161.892 374.198 162.477 374.785C163.069 375.359 163.858 375.685 164.683 375.699H170.588C171.416 375.688 172.208 375.361 172.801 374.785C173.386 374.198 173.715 373.404 173.715 372.575C173.715 371.747 173.386 370.952 172.801 370.366V370.366Z" fill="#1E1E1E"/>
<path d="M170.553 383.28C167.87 383.445 165.177 383.351 162.512 383C161.732 382.832 160.917 382.948 160.215 383.328C159.531 383.754 159.033 384.422 158.819 385.199C158.71 385.601 158.682 386.021 158.736 386.435C158.789 386.848 158.925 387.246 159.133 387.607C159.332 387.959 159.599 388.267 159.919 388.513C160.24 388.759 160.606 388.938 160.997 389.038C164.169 389.534 167.383 389.701 170.588 389.534C171.414 389.51 172.202 389.182 172.801 388.612C173.381 388.024 173.709 387.233 173.716 386.407C173.611 384.801 172.306 383.175 170.553 383.28Z" fill="#1E1E1E"/>
<path d="M178.448 397.359C178.23 396.575 177.717 395.904 177.017 395.488C176.273 395.113 175.424 395.003 174.609 395.174H174.456H174.358C174.044 395.209 173.729 395.251 173.415 395.279C172.871 395.342 172.327 395.391 171.782 395.432C170.651 395.521 169.52 395.577 168.39 395.6C166.12 395.645 163.85 395.556 161.591 395.335C159.957 395.181 158.394 396.885 158.463 398.462C158.486 399.284 158.823 400.065 159.405 400.646C159.987 401.226 160.769 401.561 161.591 401.582C166.476 402.024 171.397 401.883 176.249 401.163C177.035 400.947 177.705 400.431 178.113 399.726C178.53 399.011 178.65 398.161 178.448 397.359V397.359Z" fill="#1E1E1E"/>
<path d="M425.247 141.947C422.876 141.108 420.338 140.854 417.847 141.207C415.357 141.559 412.989 142.507 410.944 143.971C408.917 144.436 407.149 145.667 406.009 147.405C400.271 155.691 397.312 166.343 401.611 176.067C405.981 185.951 416.738 189.881 426.552 187.78C448.715 183.019 443.996 148.257 425.247 141.947Z" fill="white"/>
<path d="M448.624 242.045C446.293 230.018 443.41 213.817 434.028 204.456C426.936 197.378 413.96 195.011 406.03 202.425C397.458 210.431 399.747 226.947 399.405 237.096C399.07 246.304 396.153 262.037 401.178 271.363C401.385 271.762 401.618 272.147 401.876 272.515C401.988 272.682 402.107 272.85 402.225 273.01C402.344 273.171 402.4 273.248 402.498 273.359C402.784 273.736 403.063 274.12 403.384 274.469C407.859 279.23 413.855 279.048 418.546 276.298C423.167 275.872 427.774 275.293 432.416 275.935C437.742 276.668 441.923 277.834 446.509 274.079C455.437 266.742 450.418 251.308 448.624 242.045Z" fill="white"/>
<path d="M438.914 162.239C437.937 157.716 435.194 153.625 431.934 150.372C424.605 143.071 412.543 137.542 402.616 142.973C399.608 144.62 401.165 148.627 403.831 149.102C403.659 149.207 403.496 149.326 403.342 149.458C396.76 155.265 394.017 164.452 395.58 172.996C397.179 181.721 404.41 189.553 413.276 191.082C418.103 191.984 423.094 191.088 427.306 188.562C431.494 185.93 434.245 181.721 436.297 177.309C438.6 172.549 440.059 167.565 438.914 162.239ZM431.578 171.662C429.058 178.538 424.528 185.072 416.466 184.793C409.778 184.569 404.138 179.208 402.435 172.926C401.558 169.584 401.623 166.064 402.625 162.756C403.627 159.449 405.526 156.484 408.11 154.191C410.449 152.131 408.599 149.109 406.191 148.676C412.473 145.36 420.423 149.207 425.352 153.367C428.01 155.475 430.158 158.157 431.634 161.213C433.17 164.682 432.856 168.165 431.578 171.662Z" fill="#1E1E1E"/>
<path d="M441.072 236.65C439.334 226.221 438.007 214.368 431.299 205.524C425.17 197.448 412.745 192.22 404.173 200.464C400.09 204.394 398.589 209.719 397.975 215.017C397.221 221.174 396.984 227.415 396.739 233.599C396.159 248.106 396.392 262.634 397.437 277.115C397.724 281.101 404.418 281.129 404.097 277.115C403.287 265.867 402.956 254.606 403.105 243.33C403.189 237.699 403.394 232.068 403.72 226.438C404.034 221.132 403.985 215.464 405.618 210.334C406.868 206.418 409.953 202.376 414.756 202.453C419.558 202.529 423.523 205.873 426.029 209.356C431.788 217.37 432.891 228.015 434.468 237.32C436.562 249.612 438.517 263.999 439.299 276.41C439.55 280.403 446.209 280.431 445.958 276.41C445.176 263.783 443.152 249.166 441.072 236.65Z" fill="#1E1E1E"/>
<path d="M425.98 227.694C421.694 227.694 421.687 234.353 425.98 234.353C430.273 234.353 430.273 227.694 425.98 227.694Z" fill="#1E1E1E"/>
<path d="M428.004 240.133C423.718 240.133 423.711 246.792 428.004 246.792C432.297 246.792 432.297 240.133 428.004 240.133Z" fill="#1E1E1E"/>
<path d="M430.322 249.04C426.036 249.04 426.029 255.28 430.322 255.28C434.615 255.28 434.615 249.04 430.322 249.04Z" fill="#1E1E1E"/>
<path d="M363.017 402.525C362.361 405.847 361.621 410.447 357.67 411.159C353.719 411.871 349.217 411.194 345.266 411.159C336.359 411.076 327.454 410.91 318.552 410.664C317.866 410.671 317.202 410.899 316.656 411.314C316.11 411.729 315.713 412.309 315.522 412.967C314.58 416.262 313.812 419.578 313.184 422.921L307.6 415.801C305.164 412.695 302.713 409.973 298.79 408.821C298.087 408.582 297.318 408.627 296.647 408.947C268.335 409.603 240.015 409.859 211.689 409.714C197.347 409.631 183.004 409.447 168.662 409.163C161.724 409.024 154.785 408.861 147.846 408.674C144.147 408.57 140.44 408.479 136.741 408.346C135.198 408.297 131.436 408.542 130.256 406.95C130.005 390.341 130.107 373.733 130.563 357.124C130.793 349.041 130.989 340.93 131.505 332.86C131.638 330.766 132.566 330.843 134.451 330.766C136.336 330.69 138.395 330.766 140.363 330.766H152.858C156.9 330.766 156.907 324.484 152.858 324.484L139.051 324.519C135.673 324.519 131.498 323.974 128.455 325.831C125.411 327.688 125.314 331.052 125.153 334.277C124.925 339.126 124.723 343.978 124.546 348.832C123.867 367.911 123.673 386.991 123.967 406.071C123.822 406.408 123.747 406.771 123.747 407.139C123.747 407.506 123.822 407.869 123.967 408.207C125.314 411.809 128.232 413.596 131.938 414.238C137.111 415.124 142.625 414.796 147.86 414.936C159.881 415.257 171.908 415.508 183.942 415.69C186.434 415.731 188.926 415.753 191.418 415.781C191.064 425.688 190.711 435.593 190.357 445.496C190.043 454.284 188.759 463.959 194.161 471.568C205.002 486.82 226.746 484.244 243.024 484.719C263.728 485.312 284.404 486.631 305.115 486.743C315.585 486.806 326.139 486.617 336.603 485.731C345.168 485.033 353.133 482.939 358.612 475.847C364.483 468.245 365.593 458.542 365.823 449.23C366.102 437.524 366.109 425.811 366.249 414.105C366.258 413.623 366.155 413.145 365.949 412.709C367.659 410.224 368.448 407.201 369.041 404.2C369.851 400.242 363.799 398.553 363.017 402.525ZM206.894 415.934C223.535 416.055 240.178 416.034 256.824 415.871C270.473 415.741 284.122 415.508 297.771 415.173C297.827 415.176 297.883 415.176 297.939 415.173C300.926 416.52 302.951 419.969 304.877 422.433L312.933 432.743C314.831 435.172 318.014 432.847 318.3 430.523C318.866 425.965 319.745 421.452 320.932 417.016C331.328 417.291 341.724 417.453 352.12 417.504H353.88C353.824 425.085 353.77 432.668 353.719 440.253C353.67 447.059 354.11 455.031 349.259 460.497C344.638 465.683 337.259 467.184 330.642 467.54C322.789 467.966 314.859 467.672 306.992 467.665C291.028 467.665 275.057 467.666 259.086 467.554C250.961 467.489 242.833 467.379 234.703 467.226C230.822 467.149 226.941 467.093 223.074 466.94C219.444 466.8 215.486 466.591 212.422 464.399C205.749 459.624 205.895 449.984 205.881 442.683C205.867 433.741 206.23 424.827 206.894 415.934ZM356.386 467.526C352.756 475.393 346.152 478.534 337.818 479.351C328.352 480.272 318.775 480.447 309.275 480.468C290.868 480.517 272.481 479.511 254.095 478.806C244.595 478.443 235.094 478.388 225.594 478.108C217.615 477.843 208.953 476.873 202.594 471.533C194.692 464.894 196.311 454.78 196.639 445.524C196.988 435.644 197.342 425.762 197.7 415.878L200.604 415.913C199.906 424.827 199.578 433.755 199.592 442.69C199.592 450.222 199.808 458.319 204.234 464.762C208.422 470.856 214.774 472.803 221.88 473.18C231.004 473.669 240.19 473.641 249.327 473.753C267.399 473.962 285.472 473.941 303.551 473.955C312.556 473.955 321.644 474.332 330.635 473.829C337.902 473.424 345.224 471.903 351.066 467.324C356.511 463.066 358.745 457.021 359.576 450.522C359.422 456.344 358.843 462.235 356.386 467.526Z" fill="#1E1E1E"/>
<path d="M472.958 279.042C473.233 259.962 473.037 240.882 472.372 221.803C472.2 216.944 471.997 212.091 471.765 207.242C471.611 204.024 471.541 200.673 468.463 198.795C465.385 196.918 461.245 197.49 457.867 197.483H444.059C440.011 197.483 440.018 203.765 444.059 203.765H456.554C458.523 203.765 460.505 203.71 462.474 203.765C464.442 203.821 465.266 203.765 465.412 205.86C465.929 213.929 466.11 222.04 466.355 230.123C466.82 246.732 466.922 263.34 466.662 279.949C465.482 281.513 461.72 281.261 460.177 281.345C456.477 281.471 452.778 281.569 449.078 281.666C442.14 281.852 435.199 282.018 428.256 282.162C413.918 282.446 399.576 282.627 385.229 282.707C356.907 282.86 328.588 282.604 300.27 281.939C299.598 281.625 298.83 281.582 298.127 281.82C294.232 282.993 291.754 285.715 289.318 288.8C287.457 291.164 285.595 293.538 283.734 295.921C283.113 292.57 282.338 289.254 281.395 285.96C281.204 285.302 280.806 284.723 280.261 284.308C279.715 283.893 279.051 283.664 278.366 283.656C269.468 283.898 260.564 284.065 251.652 284.159C247.708 284.193 243.136 284.857 239.248 284.159C235.36 283.46 234.557 278.839 233.901 275.517C233.119 271.552 227.067 273.241 227.842 277.192C228.617 281.143 229.768 285.233 232.986 287.984C236.351 290.853 240.665 290.504 244.804 290.483C255.2 290.441 265.594 290.28 275.986 290.001C277.175 294.435 278.057 298.946 278.624 303.501C278.903 305.826 282.114 308.15 283.985 305.728C286.675 302.284 289.36 298.845 292.041 295.411C293.967 292.947 295.991 289.498 299.021 288.158C299.077 288.158 299.126 288.158 299.188 288.158C312.837 288.479 326.484 288.712 340.128 288.856C344.498 288.898 348.868 288.926 353.238 288.94C353.037 301.407 353.021 313.872 353.189 326.334C304.507 328.126 255.808 328.358 207.089 327.032C203.041 326.92 203.048 333.203 207.089 333.314C256.175 334.673 305.271 334.441 354.375 332.616C355.232 332.978 356.164 333.124 357.091 333.042C358.864 333.042 360.755 332.93 362.354 333.405C365.307 334.285 364.727 337.907 364.699 340.385C364.63 346.193 364.553 352.01 364.469 357.836C364.306 369.689 364.15 381.54 364.001 393.388C363.945 397.429 370.228 397.436 370.284 393.388C370.47 378.752 370.663 364.114 370.863 349.474C370.905 345.984 371.01 342.493 370.996 339.003C370.996 336.344 370.884 333.552 369.453 331.213C368.869 330.26 368.095 329.437 367.178 328.797C366.262 328.157 365.223 327.713 364.127 327.493C364.281 314.891 364.439 302.294 364.602 289.701C364.602 289.486 364.583 289.271 364.546 289.059C380.703 289.087 396.86 288.984 413.018 288.752C425.052 288.57 437.081 288.316 449.106 287.991C454.335 287.851 459.856 288.179 465.021 287.293C468.728 286.657 471.646 284.864 472.993 281.262C473.145 280.91 473.221 280.531 473.215 280.148C473.209 279.765 473.121 279.388 472.958 279.042V279.042Z" fill="#1E1E1E"/>
<path d="M389.891 199.982C381.25 200.219 372.608 200.401 363.966 200.526C363.997 200.335 364.013 200.141 364.015 199.947C363.868 186.984 364.273 173.882 363.512 160.941C362.912 150.756 358.626 142.533 348.19 139.853C342.606 138.457 336.701 138.31 330.998 138.136C324.352 137.926 317.735 137.863 311.055 137.745L271.748 137.047L226.229 136.23C225.75 136.206 225.272 136.294 224.833 136.488C218.991 137.535 212.743 138.792 207.529 141.654C202.314 144.516 199.25 149.605 197.058 155.021C192.172 167.202 192.87 180.723 193.617 193.56C193.606 193.676 193.606 193.793 193.617 193.909C194.203 227.019 194.794 260.129 195.39 293.24C195.46 297.281 201.742 297.295 201.672 293.24C201.081 260.25 200.49 227.259 199.899 194.265C199.92 194.049 199.92 193.832 199.899 193.616C199.236 182.447 198.503 170.895 201.902 160.11C203.48 155.063 205.853 149.765 210.677 147.105C215.5 144.446 221.336 143.476 226.655 142.547L299.251 143.859C311.39 144.076 323.578 143.999 335.703 144.655C340.638 144.921 346.096 145.088 350.55 147.447C355.003 149.807 356.553 154.498 357.021 159.272C356.488 158.298 355.884 157.365 355.213 156.48C350.983 150.896 344.91 148.836 338.09 148.515C329.616 148.117 321.086 148.236 312.604 148.111C312.149 148.088 311.694 148.175 311.28 148.366C310.865 148.557 310.503 148.845 310.224 149.207C309.765 149.566 309.43 150.06 309.266 150.62C309.102 151.179 309.117 151.776 309.31 152.327C312.465 162.748 290.023 160.284 284.969 160.291C279.629 160.291 274.164 160.647 268.837 160.291C264.161 159.97 260.021 157.283 259.323 152.362C259.672 150.882 259.093 149.297 257.152 148.983C250.132 147.825 243.038 147.161 235.925 146.994C229.391 146.861 221.713 146.428 215.424 148.509C203.25 152.543 203.096 168.968 203.075 179.481C203.075 183.522 209.358 183.529 209.358 179.481C209.358 174.301 209.358 169.01 210.635 163.956C212.073 158.442 214.516 154.609 220.47 153.834C231.283 152.438 242.703 153.136 253.509 154.735C254.091 157.134 255.24 159.359 256.859 161.223C258.478 163.087 260.52 164.537 262.813 165.45C266.178 166.776 269.884 166.609 273.437 166.602H286.323C293.304 166.602 301.541 167.663 308.123 164.731C312.311 162.867 315.446 158.902 315.802 154.47L333.699 154.728C340.484 154.826 346.962 155.098 350.997 161.352C354.564 166.937 354.843 174.036 355.122 180.444C355.405 187.214 355.23 193.996 354.598 200.743C316.676 201.208 278.75 200.717 240.818 199.27C240.131 199.227 239.45 199.43 238.899 199.842C234.585 200.038 230.02 200.003 227.472 204.17C226.041 206.508 225.936 209.308 225.929 211.967C225.929 215.458 226.02 218.948 226.069 222.438C226.255 237.073 226.448 251.711 226.648 266.351C226.697 270.4 232.979 270.4 232.93 266.351C232.767 254.508 232.609 242.66 232.456 230.807C232.386 225 232.295 219.185 232.232 213.356C232.232 210.899 231.618 207.276 234.571 206.376C236.665 205.755 239.234 206.167 241.391 205.936C241.794 205.893 242.187 205.777 242.549 205.594C291.621 207.428 340.717 207.66 389.835 206.292C393.912 206.152 393.912 199.87 389.891 199.982Z" fill="#1E1E1E"/>
<path d="M353.126 223.01C318.689 222.451 284.264 222.293 249.851 222.535C245.809 222.535 245.802 228.817 249.851 228.817C284.287 228.575 318.712 228.734 353.126 229.292C357.174 229.362 357.174 223.08 353.126 223.01Z" fill="#1E1E1E"/>
<path d="M294.002 234.674H250.647C246.605 234.674 246.598 240.956 250.647 240.956H294.002C298.043 240.956 298.05 234.674 294.002 234.674Z" fill="#1E1E1E"/>
<path d="M341.727 234.506C330.832 235.164 319.904 235.064 309.024 234.206C304.989 233.885 305.01 240.175 309.024 240.489C319.904 241.346 330.832 241.446 341.727 240.789C345.713 240.544 345.74 234.262 341.727 234.506Z" fill="#1E1E1E"/>
<path d="M361.404 247.106C324.748 246.353 288.089 246.032 251.428 246.143C247.386 246.143 247.38 252.426 251.428 252.426C288.089 252.314 324.748 252.635 361.404 253.389C365.46 253.473 365.46 247.19 361.404 247.106Z" fill="#1E1E1E"/>
<path d="M271.532 257.521C264.174 257.349 256.817 257.465 249.46 257.87C245.439 258.093 245.411 264.376 249.46 264.152C256.817 263.747 264.174 263.631 271.532 263.803C275.58 263.901 275.58 257.619 271.532 257.521Z" fill="#1E1E1E"/>
<path d="M316.472 257.507C316.343 257.535 316.209 257.535 316.081 257.507H286.512C282.47 257.507 282.463 263.789 286.512 263.789H316.081C316.15 263.789 316.206 263.789 316.276 263.789C316.346 263.789 316.402 263.789 316.472 263.789C320.513 263.789 320.52 257.507 316.472 257.507Z" fill="#1E1E1E"/>
<path d="M371.658 257.961C357.991 258.189 344.326 258.021 330.663 257.458C326.621 257.291 326.628 263.573 330.663 263.74C344.321 264.304 357.986 264.471 371.658 264.243C375.7 264.173 375.714 257.891 371.658 257.961Z" fill="#1E1E1E"/>
<path d="M355.101 350.179C314.764 349.904 274.427 350.165 234.089 350.96C230.055 351.037 230.041 357.32 234.089 357.243C274.422 356.456 314.759 356.196 355.101 356.461C359.178 356.489 359.178 350.207 355.101 350.179Z" fill="#1E1E1E"/>
<path d="M279.811 361.975L234.089 361.473C230.047 361.431 230.04 367.713 234.089 367.755L279.811 368.258C283.859 368.307 283.859 362.024 279.811 361.975Z" fill="#1E1E1E"/>
<path d="M321.204 361.941C311.739 362.131 302.278 362.018 292.822 361.599C288.78 361.424 288.787 367.707 292.822 367.881C302.278 368.3 311.739 368.414 321.204 368.223C325.239 368.139 325.253 361.857 321.204 361.941Z" fill="#1E1E1E"/>
<path d="M248.28 371.818C243.017 371.739 237.761 371.874 232.511 372.223C228.498 372.488 228.47 378.77 232.511 378.505C237.761 378.165 243.017 378.031 248.28 378.1C252.322 378.156 252.322 371.874 248.28 371.818Z" fill="#1E1E1E"/>
<path d="M325.937 374.415C304.381 374.317 282.833 373.803 261.292 372.872C257.25 372.697 257.257 378.98 261.292 379.154C282.828 380.085 304.377 380.599 325.937 380.697C329.978 380.711 329.985 374.429 325.937 374.415Z" fill="#1E1E1E"/>
<path d="M290.456 384.494L232.518 382.1C228.477 381.932 228.484 388.215 232.518 388.382L290.456 390.776C294.497 390.944 294.49 384.662 290.456 384.494Z" fill="#1E1E1E"/>
<path d="M207.794 189.434C207.731 185.393 201.448 185.386 201.511 189.434C202.144 229.991 202.451 270.547 202.433 311.103C202.433 315.145 208.715 315.151 208.715 311.103C208.738 270.547 208.431 229.991 207.794 189.434Z" fill="#1E1E1E"/>
<path d="M156.621 247.127C159.752 250.554 161.901 254.761 162.843 259.306C163.786 263.851 163.486 268.566 161.975 272.955C161.274 275.119 160.107 277.103 158.556 278.768C157.005 280.432 155.107 281.736 152.998 282.588C148.328 284.619 143.223 285.447 138.151 284.996C137.328 284.907 136.51 284.777 135.701 284.605C140.191 286.702 145.317 286.984 150.01 285.394C159.085 282.308 166.142 273.911 166.254 264.166C166.345 256.244 161.235 248.46 154.464 244.489C154.003 244.216 153.529 243.958 153.068 243.728C152.83 243.609 152.586 243.504 152.37 243.4C153.92 244.481 155.346 245.731 156.621 247.127Z" fill="#7469F6"/>
<path d="M133.607 249.947C133.808 250.61 133.748 251.325 133.439 251.945C133.13 252.566 132.595 253.045 131.945 253.284C130.329 254.064 128.884 255.156 127.693 256.497C126.501 257.838 125.587 259.402 125.003 261.099C124.419 262.795 124.177 264.59 124.29 266.381C124.403 268.171 124.87 269.921 125.663 271.53C128.769 277.652 135.945 280.291 142.472 279.83C146.143 279.572 150.269 278.567 153.368 276.508C156.335 274.532 157.5 270.686 157.989 267.328C158.454 263.94 158.062 260.489 156.849 257.292C155.636 254.094 153.64 251.252 151.044 249.026C147.058 245.598 141.096 243.33 135.917 244.838C134.256 245.864 132.671 247.022 131.087 248.125C131.64 248.145 132.175 248.329 132.624 248.653C133.072 248.977 133.414 249.428 133.607 249.947V249.947ZM136.105 262.289C137.033 263.643 138.112 264.887 139.323 265.995C139.989 266.608 140.688 267.183 141.418 267.719C141.494 267.782 141.564 267.824 141.634 267.873L141.808 267.643C142.255 267.056 142.702 266.463 143.142 265.869C143.993 264.734 144.833 263.591 145.662 262.442C147.295 260.176 148.896 257.884 150.464 255.567C151.26 254.38 152.621 253.71 154.017 254.429C155.176 255.022 155.951 256.795 155.155 257.975C151.86 262.861 148.447 267.684 144.838 272.34C144.356 273.059 143.611 273.559 142.764 273.734C141.917 273.909 141.035 273.744 140.308 273.276C139.156 272.584 138.055 271.812 137.013 270.965C134.98 269.3 133.192 267.357 131.701 265.193C131.5 264.904 131.36 264.577 131.287 264.233C131.215 263.889 131.211 263.534 131.278 263.188C131.345 262.843 131.48 262.514 131.675 262.222C131.871 261.929 132.123 261.679 132.416 261.486C132.71 261.292 133.04 261.159 133.385 261.095C133.731 261.03 134.086 261.035 134.43 261.11C134.774 261.185 135.099 261.328 135.387 261.53C135.674 261.733 135.919 261.99 136.105 262.289V262.289Z" fill="#7469F6"/>
<path d="M126.598 276.27C122.654 269.346 123.108 261.709 125.349 254.513C126.648 251.979 128.57 249.818 130.933 248.23L131.044 248.153C130.771 248.148 130.499 248.203 130.249 248.314C122.089 252.111 117.44 260.704 119.408 269.632C121.146 277.541 127.994 283.048 135.68 284.647C131.852 282.872 128.676 279.942 126.598 276.27Z" fill="black"/>
<path d="M152.328 243.413C145.843 238.953 137.173 237.334 130.235 241.648C127.352 243.435 130.235 247.839 133.139 246.045C134.01 245.517 134.949 245.111 135.931 244.838C138.145 243.345 140.658 242.354 143.295 241.934C146.384 241.601 149.506 242.112 152.328 243.413V243.413Z" fill="black"/>
<path d="M151.023 249.026C153.619 251.252 155.615 254.094 156.828 257.292C158.041 260.489 158.433 263.94 157.968 267.328C157.479 270.686 156.314 274.532 153.347 276.507C150.248 278.567 146.122 279.572 142.451 279.83C135.924 280.291 128.748 277.652 125.642 271.53C124.849 269.921 124.382 268.171 124.269 266.38C124.156 264.59 124.398 262.795 124.982 261.098C125.566 259.402 126.481 257.838 127.672 256.497C128.863 255.156 130.309 254.064 131.924 253.284C132.575 253.045 133.109 252.566 133.418 251.945C133.727 251.325 133.787 250.61 133.586 249.947C133.392 249.424 133.047 248.972 132.594 248.647C132.141 248.322 131.602 248.141 131.045 248.125L130.933 248.202C128.57 249.789 126.648 251.951 125.349 254.484C123.073 261.681 122.654 269.317 126.598 276.242C128.674 279.913 131.848 282.842 135.673 284.618C136.482 284.791 137.3 284.921 138.123 285.009C143.195 285.46 148.3 284.633 152.97 282.601C155.08 281.75 156.977 280.446 158.528 278.781C160.079 277.117 161.246 275.132 161.947 272.968C163.458 268.579 163.758 263.865 162.815 259.32C161.873 254.775 159.724 250.567 156.593 247.141C155.304 245.747 153.864 244.502 152.3 243.427C149.466 242.119 146.328 241.607 143.225 241.947C140.589 242.368 138.075 243.359 135.861 244.851C141.076 243.33 147.037 245.598 151.023 249.026Z" fill="black"/>
<path d="M132.455 261.535C131.877 261.925 131.474 262.527 131.333 263.21C131.193 263.894 131.324 264.605 131.701 265.192C133.192 267.356 134.98 269.3 137.013 270.965C138.055 271.812 139.156 272.584 140.308 273.275C141.035 273.744 141.917 273.909 142.764 273.734C143.611 273.559 144.356 273.058 144.838 272.34C148.447 267.684 151.86 262.861 155.155 257.974C155.951 256.795 155.155 255.022 154.017 254.428C152.621 253.73 151.225 254.38 150.464 255.566C148.901 257.893 147.3 260.185 145.662 262.442C144.833 263.587 143.993 264.729 143.142 265.869C142.702 266.463 142.255 267.056 141.809 267.642L141.634 267.873C141.564 267.824 141.494 267.782 141.418 267.719C140.689 267.183 139.989 266.608 139.323 265.995C138.113 264.887 137.033 263.643 136.105 262.288C135.713 261.715 135.113 261.316 134.432 261.176C133.751 261.035 133.043 261.164 132.455 261.535V261.535Z" fill="black"/>
<path d="M421.303 173.456C419.118 176.73 413.624 174.252 412.354 171.362C410.742 167.669 405.332 170.859 406.93 174.531C410.246 182.147 422.106 183.543 426.727 176.625C428.981 173.247 423.516 170.106 421.303 173.456Z" fill="#1E1E1E"/>
<path d="M182.448 325.859C181.325 325.363 179.607 324.924 178.867 323.967C177.897 322.548 177.096 321.021 176.48 319.416C175.782 317.873 173.534 317.504 172.18 318.292C170.589 319.228 170.358 321.036 171.056 322.592C171.842 324.489 172.837 326.291 174.023 327.967C175.363 329.733 177.311 330.417 179.279 331.283C180.829 331.981 182.651 331.737 183.572 330.159C184.354 328.826 184.005 326.55 182.448 325.859Z" fill="#1E1E1E"/>
<path d="M264.049 446.717C260.007 446.717 260 453 264.049 453C268.098 453 268.098 446.717 264.049 446.717Z" fill="#1E1E1E"/>
<path d="M278.826 446.913C274.785 446.913 274.778 453.195 278.826 453.195C282.875 453.195 282.875 446.913 278.826 446.913Z" fill="#1E1E1E"/>
<path d="M296.173 448.162C292.131 448.162 292.124 454.445 296.173 454.445C300.221 454.445 300.221 448.162 296.173 448.162Z" fill="#1E1E1E"/>
<path d="M285.884 150.547C281.842 150.547 281.835 156.829 285.884 156.829C289.932 156.829 289.904 150.547 285.884 150.547Z" fill="#1E1E1E"/>
<path d="M215.256 128.921C213.757 128.54 212.338 127.892 211.068 127.008C208.932 125.563 206.517 127.539 206.335 129.724C206.29 130.277 206.213 130.827 206.105 131.371C205.328 130.986 204.596 130.518 203.92 129.975C201.945 128.418 199.627 129.047 198.671 131.371C197.996 133.02 197.527 134.745 197.275 136.509C196.628 136.274 196.002 135.984 195.404 135.643C194.925 135.373 194.384 135.232 193.835 135.235C193.285 135.237 192.745 135.382 192.268 135.656C191.791 135.93 191.394 136.323 191.115 136.797C190.837 137.271 190.686 137.809 190.678 138.359C190.678 139.978 190.93 142.093 190.853 143.943C189.586 143.951 188.319 143.874 187.062 143.713C184.508 143.475 183.398 146.505 184.354 148.438C185.164 150.079 185.981 151.726 186.797 153.367L183.112 154.344C182.313 154.572 181.637 155.104 181.227 155.826C180.817 156.548 180.707 157.402 180.92 158.204C181.407 159.606 182.029 160.957 182.777 162.239C181.996 162.402 181.225 162.607 180.466 162.853C178.728 163.439 177.318 165.736 178.588 167.474C179.948 169.286 180.985 171.319 181.653 173.484C182.825 177.344 188.891 175.697 187.712 171.816C187.319 170.519 186.826 169.254 186.239 168.032C186.8 168.002 187.345 167.833 187.825 167.541C188.305 167.249 188.705 166.842 188.989 166.357C189.408 166.116 189.768 165.786 190.044 165.389C190.32 164.992 190.504 164.538 190.584 164.062C190.663 163.585 190.636 163.096 190.504 162.632C190.372 162.167 190.138 161.737 189.82 161.373C189.303 160.769 188.836 160.125 188.424 159.446L190.518 158.888C191.234 158.724 191.861 158.292 192.27 157.681C192.679 157.069 192.838 156.325 192.717 155.6C193.143 155.129 193.414 154.538 193.493 153.907C193.572 153.276 193.454 152.637 193.156 152.075L192.221 150.191C193.792 150.044 195.25 149.604 196.109 148.529C197.128 147.259 197.275 145.116 197.205 142.987C198.18 143.2 199.169 143.345 200.165 143.419C200.699 143.491 201.242 143.396 201.72 143.146C202.198 142.896 202.586 142.504 202.831 142.023C203.172 141.504 203.343 140.892 203.32 140.271C203.304 139.191 203.386 138.112 203.564 137.046C204.793 137.658 206.082 138.14 207.41 138.484C208.214 138.683 209.063 138.565 209.782 138.156C210.502 137.747 211.037 137.077 211.277 136.285C211.501 135.664 211.682 135.05 211.843 134.422C212.408 134.631 212.981 134.813 213.567 134.966C217.476 136.006 219.172 129.968 215.256 128.921Z" fill="#7469F6"/>
<path d="M369.166 462.074C368.945 467.328 367.228 472.409 364.219 476.721C361.209 481.033 357.031 484.396 352.176 486.415C348.463 487.902 350.082 493.974 353.844 492.474C360.001 490.041 365.319 485.874 369.154 480.478C372.989 475.081 375.176 468.689 375.449 462.074C375.602 458.047 369.32 458.047 369.166 462.074Z" fill="#7469F6"/>
</svg>
