<svg width="144" height="110" viewBox="0 0 144 110" fill="none" xmlns="http://www.w3.org/2000/svg">
<path d="M123.159 31.5153C123.586 33.6006 123.173 35.6685 122.877 37.7475C122.549 39.9779 122.183 42.2005 121.691 44.3966C121.249 46.32 120.757 48.2329 120.525 50.1936C120.304 52.0709 120.234 53.9469 119.841 55.7949C119.446 57.6226 118.843 59.4005 118.158 61.1346C117.475 62.8561 116.784 64.7141 115.849 66.3171C114.693 68.3152 112.898 66.7871 111.607 65.845C109.928 64.6113 108.267 63.3549 106.517 62.2115C103.454 60.1943 100.162 58.5443 96.5072 58.004C95.4665 57.8456 95.2552 56.8397 95.6209 56.0993C95.6358 55.8389 95.7443 55.5717 95.9692 55.3157C98.0682 53.0274 100.238 50.7801 102.204 48.3718C104.134 46.0086 105.812 43.5269 108.016 41.3988C109.013 40.4414 110.028 39.4942 111.058 38.5699C109.514 38.9914 107.953 39.3698 106.469 39.9158C104.492 40.6422 102.701 42.0859 101.009 43.313C99.1328 44.6598 97.3245 46.0933 95.5188 47.5141C93.7105 48.9476 91.9022 50.381 90.0414 51.7508C88.5471 52.8481 86.8739 54.4547 84.8951 54.2781C80.8616 53.909 76.7238 52.464 72.9833 50.9771C71.6097 50.4263 72.2628 48.6261 73.4608 48.4419C73.601 48.3065 73.7513 48.1864 73.9442 48.1148C83.9629 44.3072 94.001 40.596 104.133 37.1284C109.505 34.8459 114.936 32.6879 120.469 30.8342C120.512 30.8169 120.555 30.7996 120.603 30.7899C120.979 30.6642 121.364 30.5866 121.789 30.5701C122.348 30.5421 123.038 30.93 123.159 31.5153Z" fill="#A1A1E6"/>
<path d="M122.557 30.329C122.509 29.2385 121.177 28.8348 120.388 29.3616C111.747 31.8431 103.14 34.411 94.9132 38.0925C90.9673 39.8563 87.064 41.6686 83.0166 43.1938C81.2407 43.8106 79.4698 44.435 77.694 45.0518C74.9773 45.9462 72.2334 46.7821 69.4895 47.6181C68.6247 47.8786 68.4913 48.6742 68.7917 49.3167C68.8346 49.6155 68.9788 49.9026 69.2575 50.1453C71.3285 51.9288 74.3023 52.577 76.8499 53.3732C79.6018 54.2319 82.3898 55.0125 85.1783 55.7274C86.6287 60.2269 88.3762 64.5975 89.6162 69.1585C89.7043 69.4931 89.7974 69.8354 90.01 70.1104C90.365 70.5865 91.0487 70.7821 91.5894 70.5592C91.8914 70.4379 92.1312 70.2048 92.3634 69.9767C93.8479 68.548 95.3791 67.274 96.9587 65.9574C97.7969 65.2565 98.6325 64.5683 99.4708 63.8674C99.8861 63.5195 100.309 63.1665 100.724 62.8186C100.867 62.7035 101.028 62.5329 101.203 62.4181C101.264 62.4111 101.335 62.4193 101.401 62.4198C101.494 62.4459 101.582 62.4644 101.681 62.4653C101.817 62.5069 101.953 62.5486 102.11 62.6208C102.767 62.9427 103.419 63.2569 104.077 63.5788C106.354 65.1947 108.577 66.9112 110.939 68.4064C111.808 69.7014 113.372 68.7438 113.781 67.6042C114.393 65.9074 114.829 64.1078 115.337 62.3696C116.382 58.853 117.473 55.3393 118.462 51.8044C120.344 45.1032 121.295 38.194 122.399 31.3368C122.639 31.0708 122.673 30.6891 122.557 30.329ZM86.1642 53.1865C86.1213 53.1709 86.0911 53.158 86.0482 53.1425C84.6526 52.7914 83.2623 52.415 81.8746 52.026C79.3082 51.0678 76.6963 50.1066 73.9508 49.0912C77.1539 48.1074 80.3445 47.0882 83.4909 45.9346C87.7562 44.3759 91.84 42.4564 95.9813 40.6083C96.215 40.4991 96.451 40.4101 96.6896 40.3085C101.67 38.5765 106.629 36.8468 111.589 35.1171C111.065 35.4818 110.546 35.8541 110.039 36.262C107.52 38.2912 105.029 40.2473 102.36 42.0804C96.968 45.7817 91.5686 49.4879 86.1642 53.1865ZM93.323 56.2512C93.2414 56.3264 93.1824 56.4195 93.1058 56.5023C92.9966 56.5519 92.8848 56.6142 92.7753 56.6967C90.8675 58.2279 91.2613 60.6291 90.7116 62.7539C90.667 62.9356 90.6148 63.1223 90.5576 63.3014C89.6451 60.6402 88.773 57.9744 87.9162 55.2985C93.168 51.6998 98.4198 48.101 103.667 44.4946C106.282 42.6964 108.785 40.8416 111.231 38.8168L111.313 38.9263C108.709 41.4252 106.105 43.9241 103.501 46.423C100.111 49.6865 96.6905 52.937 93.323 56.2512ZM96.0191 63.2049C94.9516 64.0884 93.8968 64.9746 92.8293 65.8581C92.9041 65.406 92.9762 64.9665 93.051 64.5144C93.0797 64.4085 93.1035 64.2949 93.1399 64.1839C93.4297 63.1444 93.6508 62.1498 93.7513 61.0707C93.7906 60.6309 93.8436 60.0623 93.9427 59.7141C93.9973 59.5477 94.0592 59.4091 94.1261 59.2782C94.9006 59.5126 95.6776 59.7344 96.4521 59.9688C97.1699 60.3165 97.9003 60.6668 98.6433 61.0198C97.7669 61.7457 96.8955 62.4791 96.0191 63.2049ZM119.044 35.286C117.407 42.5458 115.8 49.6667 114.2 56.7827C114.093 57.1359 113.986 57.489 113.877 57.8548L112.511 62.4309C112.3 63.1575 112.076 63.8814 111.865 64.608C111.816 64.7821 111.765 65.0219 111.72 65.2694C111.108 64.9833 110.504 64.6922 109.899 64.4011C108.049 63.0723 106.23 61.6906 104.334 60.4246C102.934 59.4993 101.484 58.7152 99.8871 58.1904C98.4572 57.7201 97.2583 57.7197 95.9416 57.0228C97.343 55.2671 99.4263 53.621 101.051 52.057C102.816 50.3576 104.921 48.5119 106.687 46.8125C111.229 42.4463 114.747 38.0964 119.29 33.7301C119.2 34.2579 119.119 34.7681 119.044 35.286Z" fill="#221F49"/>
<path d="M80.6725 75.6079C77.8683 78.7171 74.7539 81.419 71.2611 83.7255C69.7932 84.6965 71.1992 87.0458 72.6747 86.0698C76.3736 83.6285 79.6966 80.7793 82.6643 77.4868C83.8392 76.1844 81.855 74.3005 80.6725 75.6079Z" fill="#221F49"/>
<path d="M63.9068 86.5747C61.6731 87.7743 59.1586 88.1115 56.6847 87.5613C54.9656 87.182 54.3303 89.8423 56.062 90.2242C59.2352 90.9272 62.4615 90.4622 65.3204 88.9191C66.8731 88.0777 65.4569 85.746 63.9068 86.5747Z" fill="#221F49"/>
<path d="M45.5348 77.2132C45.4837 80.4502 46.8053 83.4867 49.194 85.6726C50.4938 86.8601 52.3827 84.8835 51.0779 83.6884C49.186 81.9621 48.2218 79.7052 48.2695 77.146C48.3026 75.3809 45.5729 75.4557 45.5348 77.2132Z" fill="#221F49"/>
<path d="M50.9884 60.3629C48.8933 63.0736 47.3953 66.0476 46.5115 69.3607C46.0565 71.064 48.7194 71.6867 49.1744 69.9834C49.93 67.1573 51.1844 64.5606 52.9726 62.2468C54.0444 60.8701 52.0705 58.9686 50.9884 60.3629Z" fill="#221F49"/>
<path d="M59.6249 42.8474C59.0805 46.9628 57.0625 50.4077 54.6839 53.7179C53.6623 55.138 56.0817 56.4212 57.0956 55.0061C59.6022 51.525 61.7215 47.7851 62.2928 43.4777C62.5179 41.7395 59.8526 41.0966 59.6249 42.8474Z" fill="#221F49"/>
<path d="M56.4273 26.0988C57.8907 27.6696 58.9877 29.48 59.6958 31.5121C60.2783 33.1688 62.9051 32.4203 62.3253 30.751C61.4568 28.2572 60.1204 26.0476 58.3162 24.1222C57.1109 22.8294 55.232 24.8212 56.4273 26.0988Z" fill="#221F49"/>
<path d="M51.7875 19.5881C48.7446 18.1679 44.1163 17.2726 41.1416 19.3383C39.7063 20.3425 41.1123 22.6918 42.5552 21.6826C44.7131 20.1839 48.2951 20.979 50.4916 22.0049C52.0837 22.7396 53.3895 20.3381 51.7875 19.5881Z" fill="#221F49"/>
<path d="M35.2943 23.6101C33.2729 25.1175 31.6033 26.8962 30.2542 29.0317C29.3104 30.5208 31.7298 31.804 32.666 30.3199C33.738 28.6271 35.0939 27.1518 36.7079 25.9544C38.1056 24.9094 36.7073 22.5551 35.2943 23.6101Z" fill="#221F49"/>
<path d="M25.0814 36.5667C24.3552 38.6217 23.435 40.5966 22.3537 42.4917C21.488 44.0168 23.8971 45.3177 24.7654 43.7799C25.9651 41.6658 26.9378 39.4713 27.7443 37.1894C28.3279 35.5328 25.6649 34.9101 25.0814 36.5667Z" fill="#221F49"/>
<path d="M19.9369 49.3904C19.2367 49.0529 18.4809 49.2967 18.0806 49.9508C17.9189 50.22 17.7446 50.4866 17.5576 50.7505C17.5218 50.7958 17.3836 50.9842 17.3657 51.0069C17.2659 51.1375 17.1535 51.2655 17.0537 51.3962C16.6346 51.8882 16.183 52.3471 15.6987 52.7729C15.5866 52.868 15.4744 52.9631 15.3623 53.0583C15.3242 53.0832 15.151 53.2183 15.151 53.2183C14.8786 53.4183 14.6089 53.6056 14.3265 53.7903C13.7644 54.1471 13.1724 54.458 12.5631 54.7259C11.9029 55.016 11.722 56.0388 12.0914 56.6035C12.5483 57.2853 13.2657 57.3827 13.969 57.0752C16.6859 55.8647 18.9526 53.7827 20.4897 51.2517C20.8695 50.6328 20.5766 49.702 19.9369 49.3904Z" fill="#221F49"/>
</svg>
