<svg width="24" height="24" viewBox="0 0 24 24" fill="none" xmlns="http://www.w3.org/2000/svg">
<path fill-rule="evenodd" clip-rule="evenodd" d="M3.51562 0H20.4844C22.4227 0 24 1.57727 24 3.51562V20.4844C24 22.4227 22.4227 24 20.4844 24H3.51562C1.57727 24 0 22.4227 0 20.4844V3.51562C0 1.57727 1.57727 0 3.51562 0ZM8.35131 17.6168C8.98098 17.7161 9.6069 17.7656 10.215 17.7656C10.9188 17.7656 11.5988 17.6991 12.232 17.5666C13.5229 17.2963 14.6094 16.7678 15.4615 15.9959C16.15 15.372 16.6691 14.5985 17.0041 13.6971C17.3582 12.7443 17.5064 11.6452 17.4447 10.4303C17.4285 10.1106 17.5155 9.80571 17.6897 9.57161C18.3857 8.63673 18.4366 8.55967 18.4774 8.49772L18.478 8.49681C18.488 8.48162 18.4957 8.46996 18.5242 8.4308L19.0312 7.73368L18.1734 7.77275C18.1362 7.77437 18.1005 7.77685 18.066 7.77977L18.5899 6.27458L17.7865 6.55304C17.5709 6.62777 17.3981 6.6932 17.2457 6.75092L17.2406 6.75282L17.2405 6.75285C16.9852 6.84954 16.7963 6.92109 16.5399 6.98811C16.0149 6.51332 15.3538 6.23886 14.6256 6.19385C13.9393 6.15144 13.2468 6.3225 12.6759 6.67554C12.1617 6.9935 11.7749 7.43957 11.5574 7.96562C11.3706 8.41742 11.3142 8.92145 11.3895 9.44372C9.54553 9.18631 7.9919 8.307 6.76528 6.8247L6.37744 6.35607L6.08744 6.89162C5.72105 7.56823 5.59939 8.34197 5.74476 9.07028C5.80441 9.36892 5.90591 9.65386 6.04635 9.92066L5.71343 9.79093L5.67395 10.3503C5.63393 10.9187 5.82201 11.5819 6.17724 12.1247C6.27712 12.2774 6.40597 12.4453 6.56916 12.6108L6.39707 12.5844L6.60692 13.2252C6.88276 14.0675 7.45578 14.7191 8.19929 15.0813C7.45675 15.3982 6.8569 15.6006 5.87082 15.9267L4.96875 16.2251L5.80195 16.6834C6.11962 16.8582 7.24228 17.4417 8.35131 17.6168Z" fill="white"/>
</svg>
