<svg width="52" height="16" viewBox="0 0 52 16" fill="none" xmlns="http://www.w3.org/2000/svg">
<path fill-rule="evenodd" clip-rule="evenodd" d="M43.747 13.6725C43.7798 13.6208 43.8125 13.5691 43.8519 13.5248C44.0615 13.2 44.0615 12.7866 43.9567 12.3732C43.8781 12.0188 43.616 11.6645 43.354 11.4873C43.0919 11.3101 42.6202 11.192 42.332 11.3396C41.0479 11.9302 39.7638 12.5799 38.4798 13.2295C38.1653 13.3772 37.9819 13.761 37.8771 14.1154C37.7723 14.4993 37.8509 14.9127 38.0081 15.267C38.1653 15.5919 38.4798 15.8576 38.7943 15.9462C39.1611 16.0643 39.4756 15.9757 39.8163 15.7986C40.7334 15.3261 41.6244 14.8832 42.5416 14.4402C42.6333 14.3959 42.7185 14.359 42.8036 14.3221C42.8888 14.2852 42.974 14.2483 43.0657 14.204C43.2753 14.1154 43.485 13.9973 43.6422 13.8201C43.6815 13.7758 43.7143 13.7241 43.747 13.6725ZM0.974488 7.84043C17.2452 11.1764 33.869 11.4212 50.2212 8.60555C51.3621 8.42192 51.5522 6.34079 50.5472 5.7899C48.7136 4.85642 46.8868 3.91528 45.0601 2.97415C43.2334 2.03308 41.4067 1.09201 39.5733 0.158587C37.9978 -0.667747 36.6397 1.96428 38.2151 2.79061C40.4697 3.98421 42.7514 5.14719 45.0331 6.31018C30.6366 8.2995 15.9957 7.80982 1.70789 4.87175C-0.00338468 4.53509 -0.736789 7.47317 0.974488 7.84043Z" fill="#1E1E1E"/>
</svg>
