<svg width="52" height="16" viewBox="0 0 52 16" fill="none" xmlns="http://www.w3.org/2000/svg">
<path fill-rule="evenodd" clip-rule="evenodd" d="M7.45397 2.32756C7.42122 2.37924 7.38846 2.43091 7.34916 2.4752C7.13951 2.80003 7.13951 3.21344 7.24434 3.62685C7.32295 3.98121 7.585 4.33556 7.84705 4.51274C8.1091 4.68992 8.5808 4.80803 8.86905 4.66039C10.1531 4.0698 11.4372 3.42015 12.7212 2.7705C13.0357 2.62285 13.2191 2.23897 13.3239 1.88461C13.4288 1.50073 13.3501 1.08732 13.1929 0.732962C13.0357 0.408137 12.7212 0.142371 12.4068 0.0537827C12.0399 -0.0643353 11.7254 0.0242532 11.3848 0.20143C10.4676 0.673903 9.5766 1.11685 8.65941 1.55979C8.5677 1.60408 8.48254 1.64099 8.39737 1.6779C8.3122 1.71481 8.22703 1.75173 8.13531 1.79602C7.92567 1.88461 7.71603 2.00273 7.5588 2.17991C7.51949 2.2242 7.48673 2.27588 7.45397 2.32756ZM50.2264 8.15965C33.9557 4.82368 17.3319 4.57884 0.979702 7.39452C-0.161148 7.57815 -0.351292 9.6593 0.653744 10.2102C2.4873 11.1437 4.31406 12.0848 6.14082 13.0259C7.96749 13.967 9.79417 14.9081 11.6276 15.8415C13.2031 16.6679 14.5613 14.0358 12.9858 13.2095C10.7313 12.0159 8.44956 10.8529 6.16786 9.6899C20.5643 7.70057 35.2052 8.19025 49.493 11.1283C51.2043 11.465 51.9377 8.52691 50.2264 8.15965Z" fill="#1E1E1E"/>
</svg>
